# Max2Obj Version 4.0 Mar 10th, 2001
#
# object anvil to come ...
#
v  74.840836 46.570568 -78.989021
v  76.788940 48.070183 -17.927742
v  76.788948 83.710411 -81.946136
v  76.788940 83.710411 -17.927742
v  18.487602 46.570568 -78.989029
v  16.539482 48.070183 -17.927753
v  16.539490 83.710411 -81.946144
v  16.539480 83.710411 -17.927753
v  76.788948 48.070183 -81.946136
v  74.840828 46.570568 -20.884857
v  18.487593 46.570568 -20.884865
v  46.664207 46.570568 -20.884861
v  46.664219 46.570568 -78.989029
v  46.664211 83.710411 -17.927750
v  46.664223 83.710411 -81.946136
v  46.664211 48.070183 -17.927750
v  46.664219 48.070183 -81.946136
v  76.788940 83.710411 -49.936935
v  76.788940 48.070183 -49.936935
v  16.539488 48.070183 -49.936947
v  16.578890 83.710426 -49.936947
v  74.840836 46.570568 -49.936935
v  18.487598 46.570568 -49.936947
v  46.664215 46.570568 -49.936943
v  35.958656 83.710411 -17.927750
v  40.651802 83.708900 -17.927750
v  28.100004 83.710411 -76.196236
v  30.308708 83.710411 -81.946136
v  23.122438 83.710411 -81.946136
v  16.539494 48.070183 -81.946144
v  76.788940 83.710411 -27.137653
v  16.539484 83.710411 -46.911064
v  16.539486 83.710411 -53.250713
v  76.788940 61.771210 -17.927742
v  75.531311 60.571781 -19.558573
v  79.512115 -0.018748 -62.597530
v  79.512108 -0.018748 -37.276340
v  66.708084 38.790203 -78.450638
v  79.512100 38.790203 -37.276340
v  26.517345 -0.018753 -78.450638
v  26.517336 -0.018753 -21.423237
v  30.733786 38.790199 -72.921936
v  26.517336 38.790203 -21.423237
v  66.708084 -0.018748 -78.450638
v  66.708069 -0.018748 -21.423231
v  79.512108 38.790203 -62.597530
v  66.708069 38.790203 -20.280334
v  13.713306 -0.018753 -62.597542
v  13.713303 -0.018753 -37.276352
v  13.713303 38.790203 -62.597542
v  13.713299 38.790203 -37.276352
v  79.512115 19.674841 -62.597530
v  79.512108 19.674841 -37.276340
v  13.713303 19.674835 -37.276352
v  13.713306 19.674835 -62.597542
v  66.708084 19.674835 -78.450638
v  66.708069 19.674841 -21.423231
v  26.517336 19.674833 -21.423237
v  26.517345 19.674835 -78.450645
v  83.013428 31.837803 -35.928936
v  10.211979 31.837803 -63.944942
v  68.846725 31.837801 -17.245762
v  28.595135 31.837799 -75.956505
v  83.013435 31.837803 -63.944931
v  10.211975 31.837801 -35.928947
v  68.846733 31.837799 -81.485214
v  24.378683 31.837799 -18.388666
v  46.612705 35.043484 -49.936935
v  61.425228 38.790203 -21.423231
v  57.384518 28.659319 -22.102234
v  55.286366 33.398209 -26.440847
v  53.751842 38.790203 -21.423233
v  66.374344 19.674841 -21.423231
v  66.708069 18.727589 -21.423231
v  79.512108 38.790203 -52.827885
v  83.013428 31.837803 -54.070343
v  74.508080 38.790203 -48.554749
v  78.009399 31.837801 -47.742130
v  32.245377 38.790203 -78.450645
v  30.176800 31.837801 -81.485214
v  21.873894 31.837801 -69.632469
v  24.331774 38.790203 -66.993149
v  18.345051 50.207695 -72.907104
v  18.345043 50.207695 -26.966778
v  18.345049 81.188034 -72.907104
v  18.345041 81.188034 -26.966778
v  4.079346 69.292229 -72.907112
v  4.079338 69.292229 -26.966780
v  4.079346 81.188034 -72.907112
v  4.079338 81.188034 -26.966780
v  46.562695 46.196526 -13.592976
v  41.035793 47.626991 -18.931549
v  46.562695 49.057461 -24.270126
v  52.089600 47.626995 -18.931547
v  46.562695 33.595886 -16.969307
v  41.035797 35.026348 -22.307882
v  46.562698 36.456818 -27.646460
v  52.089600 35.026348 -22.307880
v  42.403851 41.326672 -20.619717
v  46.562695 40.250286 -16.602573
v  46.562695 42.403061 -24.636856
v  50.721546 41.326672 -20.619713
v  20.027332 20.680521 -24.895887
v  24.158638 26.073561 -21.429308
v  27.625217 20.680521 -25.560614
v  24.158638 15.287487 -21.429308
v  20.692059 20.680521 -17.298000
v  28.289944 20.680521 -17.962730
v  21.626896 13.850941 -27.023916
v  23.968477 16.907654 -25.059097
v  25.933296 13.850941 -27.400677
v  23.968477 10.794228 -25.059097
v  22.003662 13.850941 -22.717518
v  26.310061 13.850941 -23.094278
v  63.358257 20.680527 -23.894588
v  66.296272 24.515829 -21.429300
v  68.761566 20.680527 -24.367315
v  66.296272 16.845219 -21.429300
v  63.830986 20.680527 -18.491285
v  69.234283 20.680527 -18.964014
v  43.445057 30.621861 -83.532410
v  47.349533 35.718796 -80.256165
v  50.625778 30.621861 -84.160645
v  47.349533 25.524931 -80.256165
v  44.073288 30.621861 -76.351692
v  51.254009 30.621861 -76.979927
v  46.562706 46.196526 -86.280899
v  41.035805 47.626991 -80.942329
v  46.562706 49.057461 -75.603752
v  52.089607 47.626995 -80.942322
v  46.562706 33.595886 -82.904572
v  41.035805 35.026348 -77.565994
v  46.562702 36.456818 -72.227417
v  52.089607 35.026348 -77.565994
v  42.403858 41.326672 -79.254166
v  46.562706 40.250286 -83.271301
v  46.562706 42.403061 -75.237022
v  50.721558 41.326672 -79.254166
v  61.543770 34.396790 -61.561749
v  61.543762 34.396790 -38.312126
v  61.543770 49.228710 -61.561749
v  61.543762 49.228710 -38.312126
v  31.681648 34.396790 -61.561752
v  31.681644 34.396790 -38.312130
v  31.681648 49.228710 -61.561752
v  31.681644 49.228710 -38.312130
v  18.345049 81.188034 -72.907104
v  18.345041 81.188034 -26.966778
v  4.079346 81.188034 -72.907112
v  4.079346 81.188034 -72.907112
v  4.079338 81.188034 -26.966780
v  4.079338 81.188034 -26.966780
v  76.788940 48.070183 -17.927742
v  76.788948 83.710411 -81.946136
v  76.788940 83.710411 -17.927742
v  16.539482 48.070183 -17.927753
v  16.539490 83.710411 -81.946144
v  16.539480 83.710411 -17.927753
v  76.788948 48.070183 -81.946136
v  16.539494 48.070183 -81.946144
v  76.788940 61.771210 -17.927742
v  75.531311 60.571781 -19.558573
v  83.013428 31.837803 -35.928936
v  10.211979 31.837803 -63.944942
v  68.846725 31.837801 -17.245762
v  83.013435 31.837803 -63.944931
v  10.211975 31.837801 -35.928947
v  68.846733 31.837799 -81.485214
v  24.378683 31.837799 -18.388666
v  57.384518 28.659319 -22.102234
v  83.013428 31.837803 -54.070343
v  30.176800 31.837801 -81.485214
v  79.512100 38.790203 -37.276340
v  79.512108 19.674841 -37.276340
v  79.512108 38.790203 -52.827885
v  74.508080 38.790203 -48.554749
v  74.508080 38.790203 -48.554749
v  83.013428 31.837803 -35.928936
v  83.013428 31.837803 -54.070343
v  46.612705 35.043484 -49.936935
v  61.425228 38.790203 -21.423231
v  57.384518 28.659319 -22.102234
v  57.384518 28.659319 -22.102234
v  53.751842 38.790203 -21.423233
v  26.517345 19.674835 -78.450645
v  28.595135 31.837799 -75.956505
v  30.176800 31.837801 -81.485214
v  66.708084 38.790203 -78.450638
v  30.733786 38.790199 -72.921936
v  30.733786 38.790199 -72.921936
v  26.517336 38.790203 -21.423237
v  79.512108 38.790203 -62.597530
v  66.708069 38.790203 -20.280334
v  13.713303 38.790203 -62.597542
v  13.713303 38.790203 -62.597542
v  13.713299 38.790203 -37.276352
v  61.425228 38.790203 -21.423231
v  55.286366 33.398209 -26.440847
v  53.751842 38.790203 -21.423233
v  79.512108 38.790203 -52.827885
v  32.245377 38.790203 -78.450645
v  32.245377 38.790203 -78.450645
v  24.331774 38.790203 -66.993149
v  79.512100 38.790203 -37.276340
v  61.425228 38.790203 -21.423231
v  53.751842 38.790203 -21.423233
v  18.345051 50.207695 -72.907104
v  18.345043 50.207695 -26.966778
v  4.079346 69.292229 -72.907112
v  4.079338 69.292229 -26.966780
v  4.079338 69.292229 -26.966780
v  4.079346 69.292229 -72.907112
v  76.788940 61.771210 -17.927742
v  76.788940 61.771210 -17.927742
v  76.788940 48.070183 -17.927742
v  16.539482 48.070183 -17.927753
v  76.788948 48.070183 -81.946136
v  46.664211 48.070183 -17.927750
v  46.664211 48.070183 -17.927750
v  46.664219 48.070183 -81.946136
v  76.788940 48.070183 -49.936935
v  76.788940 48.070183 -49.936935
v  16.539488 48.070183 -49.936947
v  16.539494 48.070183 -81.946144
v  76.788940 48.070183 -17.927742
v  16.539482 48.070183 -17.927753
v  76.788948 48.070183 -81.946136
v  16.539494 48.070183 -81.946144
v  75.058945 88.679276 -20.736935
v  75.058952 88.679276 -49.882130
v  46.647789 88.679276 -49.882133
v  46.647785 88.679276 -20.736940
v  76.788948 83.710411 -81.946136
v  75.058952 88.679276 -79.027321
v  76.737427 83.710426 -49.936935
v  16.539480 83.710411 -17.927753
v  18.236622 88.679276 -20.736940
v  18.236628 88.679276 -49.882137
v  16.578890 83.710426 -49.936947
v  76.737427 83.710426 -17.927738
v  46.612717 83.710426 -17.927742
v  46.612724 83.710426 -81.946136
v  46.647793 88.679276 -79.027328
v  18.236635 88.679276 -79.027328
v  16.539490 83.710411 -81.946144
v  30.246725 83.710426 -81.946136
v  27.985058 88.679276 -79.027328
v  28.085699 83.710434 -76.196228
v  23.109049 83.710426 -81.946136
v  16.487961 83.710426 -46.902645
v  16.525185 83.710426 -53.250710
v  76.788940 83.710411 -27.137653
v  40.651802 83.708900 -17.927750
v  35.928600 83.710419 -17.927746
v  75.058945 88.679276 -20.736935
v  75.058945 88.679276 -20.736935
v  75.058952 88.679276 -49.882130
v  46.647785 88.679276 -20.736940
v  76.788948 83.710411 -81.946136
v  75.058952 88.679276 -79.027321
v  75.058952 88.679276 -79.027321
v  16.539480 83.710411 -17.927753
v  18.236622 88.679276 -20.736940
v  18.236622 88.679276 -20.736940
v  18.236628 88.679276 -49.882137
v  76.737427 83.710426 -17.927738
v  46.647793 88.679276 -79.027328
v  18.236635 88.679276 -79.027328
v  18.236635 88.679276 -79.027328
v  16.539490 83.710411 -81.946144
v  30.246725 83.710426 -81.946136
v  27.985058 88.679276 -79.027328
v  27.985058 88.679276 -79.027328
v  27.985058 88.679276 -79.027328
v  27.985058 88.679276 -79.027328
v  28.085699 83.710434 -76.196228
v  23.109049 83.710426 -81.946136
v  46.703648 88.311333 -49.936943
v  46.703644 86.402786 -21.339798
v  48.799873 88.311333 -21.339798
v  76.828392 83.710426 -81.946136
v  74.580566 88.311333 -78.534081
v  74.580566 88.311333 -49.936935
v  76.828384 83.710426 -49.936935
v  16.539480 83.710411 -17.927753
v  18.826708 88.311333 -21.339804
v  18.826714 88.311333 -49.936947
v  16.578890 83.710426 -49.936947
v  46.703644 83.710426 -17.927750
v  46.703655 83.710426 -81.946136
v  46.703655 88.311333 -78.534081
v  23.600962 88.311333 -78.534088
v  18.826717 88.311333 -78.534088
v  44.942902 88.311333 -21.339798
v  23.161896 83.710426 -81.946136
v  16.539490 83.710411 -81.946144
v  74.580559 88.311333 -29.614742
v  76.828384 83.710426 -27.137653
v  35.828255 88.311333 -21.339800
v  40.673229 84.714508 -21.339800
v  35.998062 83.710426 -17.927750
v  40.651802 83.708900 -17.927750
v  76.828377 83.710426 -17.927742
v  74.580559 88.311333 -21.339794
v  31.549061 88.311333 -78.534088
v  30.348162 83.710426 -81.946136
v  28.139427 83.710426 -76.196228
v  30.352486 84.256615 -72.784180
v  73.954956 86.009056 -27.384472
v  64.389175 88.320847 -35.300861
v  16.539486 83.710411 -53.250713
v  16.539484 83.710411 -46.911064
v  46.703644 86.402786 -21.339798
v  48.799873 88.311333 -21.339798
v  48.799873 88.311333 -21.339798
v  76.828392 83.710426 -81.946136
v  74.580566 88.311333 -78.534081
v  74.580566 88.311333 -78.534081
v  74.580566 88.311333 -49.936935
v  16.539480 83.710411 -17.927753
v  18.826708 88.311333 -21.339804
v  18.826708 88.311333 -21.339804
v  18.826714 88.311333 -49.936947
v  46.703644 83.710426 -17.927750
v  46.703644 83.710426 -17.927750
v  46.703655 88.311333 -78.534081
v  23.600962 88.311333 -78.534088
v  18.826717 88.311333 -78.534088
v  18.826717 88.311333 -78.534088
v  44.942902 88.311333 -21.339798
v  44.942902 88.311333 -21.339798
v  23.161896 83.710426 -81.946136
v  16.539490 83.710411 -81.946144
v  74.580559 88.311333 -29.614742
v  74.580559 88.311333 -29.614742
v  76.828384 83.710426 -27.137653
v  76.828384 83.710426 -27.137653
v  76.828384 83.710426 -27.137653
v  35.828255 88.311333 -21.339800
v  35.828255 88.311333 -21.339800
v  40.673229 84.714508 -21.339800
v  35.998062 83.710426 -17.927750
v  76.828377 83.710426 -17.927742
v  74.580559 88.311333 -21.339794
v  74.580559 88.311333 -21.339794
v  74.580559 88.311333 -21.339794
v  31.549061 88.311333 -78.534088
v  30.348162 83.710426 -81.946136
v  28.139427 83.710426 -76.196228
v  73.954956 86.009056 -27.384472
v  73.954956 86.009056 -27.384472
v  19.031912 88.000389 -21.598452
v  74.251495 88.000389 -78.244675
v  74.251495 88.000389 -21.598440
v  19.031918 88.000381 -78.244682
v  46.641705 88.000381 -78.244675
v  46.641697 86.110138 -21.598446
v  74.251495 88.000389 -49.921558
v  21.257107 84.887680 -49.921566
v  43.023781 88.000389 -54.315319
v  44.897827 88.000389 -21.598448
v  48.717834 88.000389 -21.598446
v  35.870518 88.000389 -21.598448
v  40.669067 84.438034 -21.598448
v  29.494347 83.984520 -72.549873
v  31.632328 88.000381 -78.244682
v  23.760393 88.000381 -78.244682
v  74.251488 88.000389 -29.794094
v  73.631882 85.720177 -27.585196
v  46.626183 88.000389 -55.204235
v  49.153049 88.000389 -51.303463
v  45.878178 85.482605 -54.725819
v  46.498657 84.221535 -50.707333
v  63.819355 85.928841 -34.710144
v  53.012516 88.000389 -65.828255
v  59.417652 88.000389 -61.244572
v  60.016834 88.000389 -59.082458
v  52.662483 88.000381 -61.388863
v  49.763992 82.102463 -53.670887
v  52.761131 82.102463 -62.493038
v  60.301941 82.102463 -62.546753
v  62.617058 88.000389 -34.061543
v  65.110435 88.000389 -34.601295
v  19.031914 88.000381 -46.318710
v  30.872845 88.000389 -49.921566
v  19.031912 88.000381 -53.306580
v  27.546997 88.000389 -41.810310
v  31.920536 88.000381 -49.213654
v  31.411623 88.000381 -54.683441
v  37.581688 88.000389 -55.779133
v  45.244301 88.000389 -54.907818
v  27.764095 85.516945 -45.247547
v  31.730106 86.341507 -49.921566
v  32.893063 86.675835 -53.727619
v  38.355667 86.442993 -54.744545
v  47.672626 88.000389 -44.257820
v  46.283413 88.000389 -44.178204
v  48.691776 84.133926 -44.715092
v  49.157887 84.483650 -48.251301
v  47.193821 84.843880 -42.922031
v  76.788948 83.710426 -81.946136
v  76.788940 83.710426 -17.927742
v  16.539478 83.710411 -81.946144
v  16.539469 83.710411 -17.927753
v  46.664204 83.710426 -17.927750
v  46.664215 83.710426 -81.946136
v  76.788940 83.710426 -49.936935
v  16.578890 83.710426 -49.936947
v  35.958645 83.710426 -17.927750
v  40.651791 83.705429 -17.927750
v  28.100012 83.710426 -76.196236
v  30.308697 83.710411 -81.946136
v  23.122429 83.710411 -81.946136
v  76.788940 83.710426 -27.137653
v  16.539473 83.710411 -46.911064
v  16.539474 83.710411 -53.250713
v  19.031912 88.000389 -21.598452
v  19.031912 88.000389 -21.598452
v  74.251495 88.000389 -78.244675
v  74.251495 88.000389 -78.244675
v  74.251495 88.000389 -21.598440
v  74.251495 88.000389 -21.598440
v  74.251495 88.000389 -21.598440
v  19.031918 88.000381 -78.244682
v  19.031918 88.000381 -78.244682
v  46.641705 88.000381 -78.244675
v  46.641697 86.110138 -21.598446
v  74.251495 88.000389 -49.921558
v  21.257107 84.887680 -49.921566
v  21.257107 84.887680 -49.921566
v  44.897827 88.000389 -21.598448
v  44.897827 88.000389 -21.598448
v  48.717834 88.000389 -21.598446
v  48.717834 88.000389 -21.598446
v  35.870518 88.000389 -21.598448
v  35.870518 88.000389 -21.598448
v  40.669067 84.438034 -21.598448
v  29.494347 83.984520 -72.549873
v  29.494347 83.984520 -72.549873
v  31.632328 88.000381 -78.244682
v  31.632328 88.000381 -78.244682
v  23.760393 88.000381 -78.244682
v  23.760393 88.000381 -78.244682
v  74.251488 88.000389 -29.794094
v  74.251488 88.000389 -29.794094
v  73.631882 85.720177 -27.585196
v  73.631882 85.720177 -27.585196
v  19.031914 88.000381 -46.318710
v  19.031914 88.000381 -46.318710
v  19.031912 88.000381 -53.306580
v  19.031912 88.000381 -53.306580
v  76.788948 83.710426 -81.946136
v  76.788940 83.710426 -17.927742
v  16.539478 83.710411 -81.946144
v  16.539469 83.710411 -17.927753
v  46.664204 83.710426 -17.927750
v  46.664204 83.710426 -17.927750
v  16.578890 83.710426 -49.936947
v  35.958645 83.710426 -17.927750
v  28.100012 83.710426 -76.196236
v  30.308697 83.710411 -81.946136
v  23.122429 83.710411 -81.946136
v  76.788940 83.710426 -27.137653
v  76.788940 83.710426 -27.137653
v  76.788940 83.710426 -27.137653
v  16.539473 83.710411 -46.911064
v  16.539474 83.710411 -53.250713
v  73.926117 82.489464 -49.936935
v  73.926117 77.778252 -41.193615
v  73.926109 66.404373 -37.572018
v  73.926109 55.030502 -41.193619
v  79.421005 82.421112 -49.936932
v  81.478874 79.968628 -43.995453
v  91.415154 68.127037 -43.995449
v  82.146729 84.812386 -49.936928
v  84.111526 84.812378 -46.290524
v  93.598480 84.812378 -46.290520
v  95.563278 84.812378 -49.936924
v  88.762268 87.886292 -49.936928
v  88.762276 87.886284 -46.983189
v  93.010345 87.814758 -49.936928
v  73.926117 77.778244 -58.680252
v  73.926117 55.030499 -58.680244
v  73.926117 50.319294 -49.936932
v  81.478882 79.968628 -55.878407
v  93.473022 65.674561 -49.936924
v  84.111542 84.812378 -53.583336
v  88.855011 84.812363 -55.093719
v  93.598480 84.812378 -53.583328
v  85.758423 87.936874 -52.025543
v  91.766113 87.835716 -52.025543
v  88.855003 84.812378 -44.780132
v  73.926117 66.404373 -62.301849
v  84.514191 87.957825 -49.936932
v  85.758423 87.936874 -47.848316
v  91.766113 87.835716 -47.848316
v  88.762268 87.886284 -52.890671
v  86.447021 74.047836 -41.534409
v  91.415161 68.127029 -55.878395
v  86.447021 74.047836 -58.339443
v  88.762276 87.886284 -46.983189
v  93.010345 87.814758 -49.936928
v  85.758423 87.936874 -52.025543
v  91.766113 87.835716 -52.025543
v  84.514191 87.957825 -49.936932
v  85.758423 87.936874 -47.848316
v  91.766113 87.835716 -47.848316
v  88.762268 87.886284 -52.890671
v  73.926109 66.404373 -37.572018
v  88.762276 87.886284 -46.983189
v  88.855011 84.812363 -55.093719
v  88.855003 84.812378 -44.780132
v  73.926117 66.404373 -62.301849
v  88.762268 87.886284 -52.890671
v  86.447021 74.047836 -41.534409
v  86.447021 74.047836 -58.339443
v  82.146729 84.812386 -49.936928
v  84.111526 84.812378 -46.290524
v  93.598480 84.812378 -46.290520
v  95.563278 84.812378 -49.936924
v  84.111542 84.812378 -53.583336
v  88.855011 84.812363 -55.093719
v  93.598480 84.812378 -53.583328
v  88.855003 84.812378 -44.780132
v  88.855011 84.812363 -55.093719
v  88.855003 84.812378 -44.780132
# 526 vertices

vt  0.614105 0.033437 0.999001
vt  0.493362 0.033437 1.219436
vt  0.493362 0.217004 1.219436
vt  0.614105 0.217003 0.999001
vt  0.380516 0.256721 0.854914
vt  0.380516 0.279789 0.653097
vt  0.403584 0.279789 0.378926
vt  0.403584 0.256721 0.580743
vt  0.858366 0.033437 0.699300
vt  0.739874 0.104005 1.219436
vt  0.739874 0.217003 1.219436
vt  0.858366 0.217004 0.699301
vt  0.375731 0.217004 0.699300
vt  0.375731 0.033437 0.699301
vt  0.739874 0.033437 1.219436
vt  0.739874 0.020488 1.129574
vt  0.614105 0.020488 0.934397
vt  0.142700 0.033437 0.999001
vt  0.258100 0.033437 1.219436
vt  0.256378 0.020488 1.129575
vt  0.142700 0.020488 0.934397
vt  0.858366 0.020488 0.634697
vt  0.375731 0.020488 0.634697
vt  0.426652 0.256721 0.306571
vt  0.426652 0.233653 0.508388
vt  0.403584 0.233653 0.782559
vt  0.992525 0.020488 1.129575
vt  0.992832 0.033437 1.219436
vt  0.495084 0.020488 1.129574
vt  0.426652 0.279789 0.104755
vt  0.017317 0.020488 1.129575
vt  0.017156 0.033437 1.219436
vt  0.380516 0.233653 1.056731
vt  0.907682 0.217004 0.784258
vt  0.992832 0.217004 1.219436
vt  0.312052 0.217004 0.884987
vt  0.706094 0.217003 1.116288
vt  0.258100 0.217004 1.219436
vt  0.154069 0.217004 1.001620
vt  0.132995 0.217004 1.001186
vt  0.017156 0.033437 1.219436
vt  0.017156 0.217004 1.219436
vt  0.980668 0.686108 0.941834
vt  0.980668 0.606012 0.949353
vt  0.877086 0.606012 0.949353
vt  0.877086 0.686109 0.941834
vt  0.877086 0.315775 0.949353
vt  0.980668 0.315775 0.949353
vt  0.980668 0.233583 0.941834
vt  0.877086 0.233583 0.941834
vt  0.597683 0.591909 0.000500
vt  0.597683 0.608609 0.000500
vt  0.624486 0.608609 0.000500
vt  0.624486 0.591909 0.000500
vt  0.773377 0.387138 0.680115
vt  0.773377 0.409161 0.755723
vt  0.811177 0.407483 0.842833
vt  0.811177 0.386867 0.769368
vt  0.980668 0.535912 0.848412
vt  0.877086 0.535912 0.848412
vt  0.811177 0.686240 1.042453
vt  0.773377 0.686109 0.941834
vt  0.773377 0.760002 0.848412
vt  0.811177 0.759903 0.937680
vt  0.877086 0.987360 0.941834
vt  0.980668 0.987360 0.941834
vt  0.980668 0.912171 0.829325
vt  0.877086 0.912171 0.829325
vt  0.811177 0.357387 0.814114
vt  0.773377 0.355697 0.725668
vt  0.811177 0.233583 1.042453
vt  0.811177 0.315775 1.049972
vt  0.877086 0.758777 0.823262
vt  0.877086 0.757896 0.829325
vt  0.823796 0.794736 0.672753
vt  0.877086 0.385848 0.848412
vt  0.980668 0.385848 0.848412
vt  0.811177 0.536011 0.937680
vt  0.811177 0.606141 1.049972
vt  0.882219 0.757896 0.829325
vt  0.980668 0.757896 0.829325
vt  0.811177 0.912067 0.918593
vt  0.811177 0.987360 1.042453
vt  0.811177 0.639386 1.004430
vt  0.773377 0.606012 0.949353
vt  0.773377 0.641424 0.906165
vt  0.773377 0.233583 0.941834
vt  0.773377 0.315775 0.949353
vt  0.773377 0.781391 0.740864
vt  0.773377 0.535912 0.848412
vt  0.773377 0.912171 0.829325
vt  0.773377 0.987360 0.941834
vt  0.811177 0.654840 0.862419
vt  0.773377 0.652904 0.765787
vt  0.617035 0.586589 0.000500
vt  0.605134 0.586589 0.000500
vt  0.605134 0.613929 0.000500
vt  0.617035 0.613929 0.000500
vt  0.621974 0.297046 0.999501
vt  0.443441 0.297046 0.999501
vt  0.443441 0.338060 0.999501
vt  0.621974 0.338060 0.999501
vt  0.443441 0.424888 0.000500
vt  0.621974 0.424888 0.000500
vt  0.674597 0.398935 0.000500
vt  0.674597 0.297046 0.000500
vt  0.621974 0.238738 0.000500
vt  0.443441 0.238738 0.000500
vt  0.385501 0.297046 0.000500
vt  0.385501 0.398935 0.000500
vt  0.722387 0.283370 1.000000
vt  0.722387 0.227841 1.000000
vt  0.685031 0.227841 1.000000
vt  0.685031 0.283370 1.000000
vt  0.685031 0.283370 1.000000
vt  0.685031 0.227841 1.000000
vt  0.722387 0.227841 1.000000
vt  0.722387 0.283370 1.000000
vt  0.759743 0.227841 1.000000
vt  0.759743 0.283370 1.000000
vt  0.759743 0.283370 1.000000
vt  0.759743 0.227841 1.000000
vt  0.389553 0.524397 -0.250000
vt  0.407862 0.506087 -0.250000
vt  0.389553 0.487777 -0.250000
vt  0.371243 0.506087 -0.250000
vt  0.407862 0.506087 0.250000
vt  0.389553 0.524397 0.250000
vt  0.371243 0.506087 0.250000
vt  0.389553 0.487777 0.250000
vt  0.685031 0.338899 1.000000
vt  0.722387 0.338899 1.000000
vt  0.722387 0.338899 1.000000
vt  0.685031 0.338899 1.000000
vt  0.759743 0.283370 1.000000
vt  0.759743 0.338899 1.000000
vt  0.759743 0.283370 1.000000
vt  0.759743 0.338899 1.000000
vt  0.722387 0.283370 1.000000
vt  0.685031 0.283370 1.000000
vt  0.685031 0.227841 1.000000
vt  0.722387 0.227841 1.000000
vt  0.685031 0.283370 1.000000
vt  0.722387 0.283370 1.000000
vt  0.722387 0.227841 1.000000
vt  0.685031 0.227841 1.000000
vt  0.759743 0.283370 1.000000
vt  0.759743 0.227841 1.000000
vt  0.759743 0.283370 1.000000
vt  0.759743 0.227841 1.000000
vt  0.389553 0.524397 -0.250000
vt  0.371243 0.506087 -0.250000
vt  0.389553 0.487777 -0.250000
vt  0.407862 0.506087 -0.250000
vt  0.407862 0.506087 0.250000
vt  0.389553 0.487777 0.250000
vt  0.371243 0.506087 0.250000
vt  0.389553 0.524397 0.250000
vt  0.722387 0.338899 1.000000
vt  0.685031 0.338899 1.000000
vt  0.685031 0.338899 1.000000
vt  0.722387 0.338899 1.000000
vt  0.759743 0.338899 1.000000
vt  0.759743 0.283370 1.000000
vt  0.759743 0.283370 1.000000
vt  0.759743 0.338899 1.000000
vt  0.695501 0.491943 0.499926
vt  0.751608 0.491943 0.499926
vt  0.751608 0.425783 0.000499
vt  0.695501 0.425783 0.000500
vt  0.695501 0.425783 0.999501
vt  0.695501 0.359623 0.500074
vt  0.751608 0.359623 0.500074
vt  0.751608 0.425783 0.999501
vt  0.143055 0.217004 0.971653
vt  0.884155 0.216996 0.727170
vt  0.285771 0.217004 1.048097
vt  0.132995 0.217004 1.001186
vt  0.143055 0.217004 0.971653
vt  0.298672 0.217004 0.841494
vt  0.739874 0.097827 1.164850
vt  0.674481 0.503295 0.999501
vt  0.724478 0.503295 0.999500
vt  0.699479 0.560724 0.901596
vt  0.755780 0.586581 0.999500
vt  0.758037 0.595803 0.999500
vt  0.724478 0.618153 0.999500
vt  0.643179 0.535645 0.999500
vt  0.654095 0.533006 0.999500
vt  0.674481 0.618153 0.999500
vt  0.643179 0.595803 0.999501
vt  0.665802 0.521831 0.999500
vt  0.755780 0.525646 0.999500
vt  0.693771 0.618153 0.999500
vt  0.755780 0.573186 0.999500
vt  0.745873 0.575865 0.858603
vt  0.773377 0.796525 0.561142
vt  0.773377 0.810491 0.649621
vt  0.702209 0.609418 0.999500
vt  0.404319 0.448896 0.999501
vt  0.404319 0.481784 0.500000
vt  0.371430 0.448896 0.500000
vt  0.404319 0.416007 0.500000
vt  0.437207 0.448896 0.500000
vt  0.404319 0.448896 0.000500
vt  0.404319 0.448896 0.999501
vt  0.404319 0.481784 0.500000
vt  0.371430 0.448896 0.500000
vt  0.404319 0.416007 0.500000
vt  0.437207 0.448896 0.500000
vt  0.404319 0.448896 0.000500
vt  0.404319 0.448896 0.999501
vt  0.404319 0.481784 0.500000
vt  0.371430 0.448896 0.500000
vt  0.404319 0.416007 0.500000
vt  0.437207 0.448896 0.500000
vt  0.404319 0.448896 0.000500
vt  0.404319 0.448896 0.999501
vt  0.404319 0.481784 0.500000
vt  0.371430 0.448896 0.500000
vt  0.404319 0.416007 0.500000
vt  0.437207 0.448896 0.500000
vt  0.404319 0.448896 0.000500
vt  0.704195 0.804974 0.998343
vt  0.704195 0.948053 0.998343
vt  0.566156 0.948053 0.998343
vt  0.566156 0.804974 0.998343
vt  0.569372 0.981129 0.438312
vt  0.393692 0.981129 0.438313
vt  0.428117 0.948053 0.998343
vt  0.736598 0.804974 0.438312
vt  0.736598 0.981129 0.438312
vt  0.393692 0.804974 0.438312
vt  0.428117 0.804974 0.998343
vt  0.428117 0.711509 0.998343
vt  0.428117 0.662524 0.998343
vt  0.566156 0.662524 0.998343
vt  0.704195 0.662524 0.998342
vt  0.736598 0.632332 0.438312
vt  0.393692 0.713302 0.438312
vt  0.393692 0.673458 0.438312
vt  0.393692 0.632332 0.438312
vt  0.585337 0.632332 0.438312
vt  0.551937 0.632332 0.438312
vt  0.569372 0.632332 0.438312
vt  0.393692 0.701239 0.438313
vt  0.689645 0.981129 0.438312
vt  0.736598 0.771520 0.438312
vt  0.736598 0.743640 0.438312
vt  0.188980 0.981400 0.438312
vt  0.017335 0.981400 0.438312
vt  0.050689 0.948127 0.998343
vt  0.188728 0.948127 0.998343
vt  0.188980 0.632603 0.438312
vt  0.360242 0.632603 0.438312
vt  0.326767 0.662598 0.998342
vt  0.188728 0.662598 0.998343
vt  0.017335 0.806097 0.438312
vt  0.050689 0.806097 0.998343
vt  0.188728 0.806097 0.998343
vt  0.050689 0.687048 0.998343
vt  0.050689 0.662598 0.998343
vt  0.017335 0.675525 0.438312
vt  0.017335 0.632603 0.438312
vt  0.286823 0.948127 0.998343
vt  0.308839 0.981400 0.438312
vt  0.360242 0.747120 0.438312
vt  0.360242 0.773296 0.000500
vt  0.326767 0.774479 0.560531
vt  0.326767 0.749667 0.998343
vt  0.360242 0.806097 0.438312
vt  0.360242 0.981400 0.438312
vt  0.326767 0.948127 0.998343
vt  0.326767 0.816098 0.998343
vt  0.326767 0.796345 0.998343
vt  0.017335 0.715607 0.438312
vt  0.050689 0.727752 0.998343
vt  0.055534 0.716697 0.504796
vt  0.017335 0.703287 0.438312
vt  0.259376 0.895934 0.999501
vt  0.326767 0.806097 0.766031
vt  0.301000 0.948334 0.718105
vt  0.171883 0.632603 0.438312
vt  0.204664 0.632603 0.438312
vt  0.215923 0.434088 0.998343
vt  0.215467 0.430617 0.610409
vt  0.326358 0.428758 0.766030
vt  0.326358 0.439493 0.998342
vt  0.181230 0.605010 0.438312
vt  0.016612 0.605010 0.438312
vt  0.050281 0.571522 0.998343
vt  0.180929 0.571522 0.998342
vt  0.205842 0.256213 0.438311
vt  0.205879 0.285993 0.998342
vt  0.188320 0.286192 0.615793
vt  0.188320 0.256213 0.438311
vt  0.016612 0.428739 0.438312
vt  0.050281 0.428758 0.998343
vt  0.050281 0.285993 0.998342
vt  0.050281 0.310443 0.998342
vt  0.016612 0.297756 0.438312
vt  0.016612 0.256213 0.438312
vt  0.286415 0.571522 0.998342
vt  0.310779 0.605010 0.438311
vt  0.171822 0.285993 0.998342
vt  0.170865 0.256213 0.438311
vt  0.359518 0.370724 0.438311
vt  0.359518 0.397403 0.437704
vt  0.326358 0.397874 0.560530
vt  0.326358 0.373062 0.998342
vt  0.359518 0.428957 0.438311
vt  0.359518 0.605010 0.438311
vt  0.326358 0.571522 0.998342
vt  0.326358 0.285993 0.998342
vt  0.359518 0.256213 0.438311
vt  0.326358 0.419740 0.998342
vt  0.016612 0.338607 0.438312
vt  0.050281 0.351147 0.998343
vt  0.050080 0.337738 0.504795
vt  0.016612 0.323697 0.438312
vt  0.297181 0.571423 0.718105
vt  0.263750 0.517580 0.743751
vt  0.265617 0.511363 0.998342
vt  0.213694 0.439358 0.523155
vt  0.196460 0.441768 0.566137
vt  0.184490 0.428018 0.533923
vt  0.166906 0.410050 0.998343
vt  0.110795 0.461700 0.998343
vt  0.162573 0.428677 0.998343
vt  0.143672 0.497918 0.998343
vt  0.181585 0.441743 0.998343
vt  0.125900 0.461017 0.242587
vt  0.138061 0.496788 0.242588
vt  0.133134 0.494819 0.998342
vt  0.132431 0.459890 0.998342
vt  0.170296 0.442045 0.242588
vt  0.165111 0.350006 0.998342
vt  0.159771 0.381910 0.998342
vt  0.164018 0.421532 0.998343
vt  0.188320 0.347220 0.998342
vt  0.216311 0.426905 0.998343
vt  0.227851 0.330023 0.998342
vt  0.189085 0.350275 0.794467
vt  0.169770 0.357666 0.835555
vt  0.191770 0.352638 0.998342
vt  0.211099 0.331145 0.693129
vt  0.164018 0.385713 0.806939
vt  0.164706 0.425009 0.688909
vt  0.262986 0.524256 0.998342
vt  0.511857 0.500538 0.485824
vt  0.503332 0.463745 0.048059
vt  0.459214 0.441460 0.063167
vt  0.441921 0.475021 0.717094
vt  0.516842 0.536961 0.661781
vt  0.415605 0.519763 0.999501
vt  0.520410 0.577588 0.472856
vt  0.390481 0.573848 0.744956
vt  0.526442 0.620923 0.029719
vt  0.381787 0.620650 0.102570
vt  0.550903 0.481066 0.302475
vt  0.537058 0.455570 0.037594
vt  0.573361 0.508678 0.401328
vt  0.596255 0.534827 0.276245
vt  0.619632 0.555873 0.000499
vt  0.582031 0.452826 0.187591
vt  0.560866 0.434461 0.035934
vt  0.604569 0.467706 0.244059
vt  0.631507 0.482198 0.172261
vt  0.656271 0.492796 0.014255
vt  0.511857 0.500538 0.485824
vt  0.441921 0.475021 0.717094
vt  0.459214 0.441460 0.063167
vt  0.503332 0.463745 0.048059
vt  0.516842 0.536961 0.661781
vt  0.415605 0.519763 0.999501
vt  0.520410 0.577588 0.472856
vt  0.390481 0.573848 0.744956
vt  0.526442 0.620923 0.029719
vt  0.381787 0.620650 0.102570
vt  0.550903 0.481066 0.302475
vt  0.537058 0.455570 0.037594
vt  0.573361 0.508678 0.401328
vt  0.596255 0.534827 0.276245
vt  0.619632 0.555873 0.000499
vt  0.582031 0.452826 0.187591
vt  0.560866 0.434461 0.035934
vt  0.604569 0.467706 0.244059
vt  0.631507 0.482198 0.172261
vt  0.656271 0.492796 0.014255
vt  0.654505 0.416581 0.250000
vt  0.641208 0.448683 0.250000
vt  0.686607 0.448683 0.250000
vt  0.654505 0.480785 0.250000
vt  0.686607 0.403283 0.250000
vt  0.686607 0.494083 0.250000
vt  0.654505 0.416581 0.250000
vt  0.686607 0.448683 0.250000
vt  0.641208 0.448683 0.250000
vt  0.654505 0.480785 0.250000
vt  0.686607 0.403283 0.250000
vt  0.686607 0.494083 0.250000
# 401 texture vertices

vn  0.263413 -0.949993 -0.167709
vn  0.609983 -0.792414 0.000000
vn  1.000000 0.000000 0.000000
vn  -0.000000 0.000000 1.000000
vn  -0.263413 -0.949993 -0.167709
vn  -1.000000 -0.000000 -0.000000
vn  0.000001 0.000000 -1.000000
vn  -1.000000 -0.000000 -0.000000
vn  0.000000 -0.891872 -0.452288
vn  0.263413 -0.949993 0.167709
vn  -0.263413 -0.949993 0.167709
vn  -0.000000 -0.972592 0.232516
vn  0.000000 -0.972592 -0.232517
vn  -0.000000 0.000000 1.000000
vn  0.000000 0.000000 -1.000000
vn  -0.000000 -0.000000 1.000000
vn  0.000000 -0.891872 -0.452288
vn  1.000000 0.000000 0.000000
vn  0.999256 0.010073 0.037223
vn  -1.000000 0.000062 -0.000000
vn  -0.999999 0.001106 -0.000566
vn  0.322169 -0.946682 0.000000
vn  -0.322169 -0.946682 -0.000000
vn  0.000000 -1.000000 0.000000
vn  -0.000000 -0.000000 1.000000
vn  0.000000 0.000000 1.000000
vn  -0.288471 0.242987 -0.926143
vn  -0.455362 0.175924 -0.872752
vn  0.452394 -0.083560 -0.887895
vn  -0.609984 -0.792414 -0.000000
vn  1.000000 -0.000000 0.000000
vn  -0.999981 0.000523 -0.006160
vn  -0.999984 0.000520 0.005594
vn  -0.000000 0.000000 1.000000
vn  0.695993 -0.653421 0.297715
vn  0.725066 -0.639235 -0.256237
vn  0.725066 -0.639235 0.256238
vn  0.360390 0.464051 -0.809182
vn  0.853969 0.368463 -0.367384
vn  -0.337641 -0.621733 -0.706716
vn  -0.337641 -0.621733 0.706715
vn  -0.604624 0.464299 -0.647191
vn  -0.360389 0.464051 0.809182
vn  0.337641 -0.621733 -0.706715
vn  0.337641 -0.621733 0.706716
vn  -0.099519 0.994396 0.035671
vn  -0.042257 0.994387 -0.096994
vn  -0.725066 -0.639235 -0.256238
vn  -0.725066 -0.639235 0.256237
vn  -0.893132 0.449794 -0.000000
vn  0.099519 0.994396 -0.035671
vn  0.931945 -0.153856 -0.328340
vn  0.988679 -0.006824 -0.149888
vn  -0.931945 -0.153856 0.328340
vn  -0.917165 -0.088703 -0.388511
vn  0.419199 -0.151355 -0.895189
vn  0.427447 -0.187714 0.884337
vn  -0.400651 -0.133799 0.906409
vn  -0.938849 0.215460 -0.268588
vn  0.709251 0.458909 0.535132
vn  -0.742911 -0.074507 -0.665231
vn  0.359907 -0.355222 0.862719
vn  -0.913348 0.312284 -0.261292
vn  0.900491 -0.294653 -0.319837
vn  -0.900490 -0.294654 0.319838
vn  0.423097 -0.288676 -0.858869
vn  -0.405211 -0.287749 0.867758
vn  0.065763 0.996796 0.045522
vn  -0.759268 0.566686 0.319968
vn  -0.354007 0.160088 0.921439
vn  0.412648 0.707720 0.573458
vn  0.936559 0.341204 -0.080236
vn  -0.053227 -0.104218 0.993129
vn  0.431088 -0.000000 0.902310
vn  0.893132 0.449794 0.000000
vn  0.893132 0.449794 0.000000
vn  0.844872 0.381674 -0.374854
vn  0.893899 0.392208 0.217065
vn  -0.894953 0.373079 -0.244686
vn  0.000000 0.400033 -0.916501
vn  -0.586212 0.273896 -0.762454
vn  -0.486769 0.455135 -0.745592
vn  -0.800960 -0.598718 -0.000000
vn  -0.000000 -0.000000 1.000000
vn  0.000000 0.000000 -1.000000
vn  0.000000 1.000000 0.000000
vn  0.000000 0.000000 -1.000000
vn  -1.000000 0.000000 -0.000000
vn  0.000000 0.000000 -1.000000
vn  0.000000 1.000000 0.000000
vn  -0.000000 0.259409 0.965767
vn  -0.865720 0.483474 0.129546
vn  -0.000000 0.707539 -0.706674
vn  0.865719 0.483474 0.129547
vn  -0.000000 -0.707539 0.706675
vn  -0.865720 -0.483474 -0.129547
vn  0.000000 -0.259409 -0.965768
vn  0.865720 -0.483474 -0.129546
vn  -1.000000 0.000000 -0.000000
vn  -0.000000 -0.258819 0.965926
vn  -0.000000 0.258819 -0.965926
vn  1.000000 -0.000000 0.000001
vn  -0.766044 -0.000000 -0.642788
vn  0.000000 1.000000 0.000000
vn  0.642788 -0.000000 -0.766044
vn  0.000000 -1.000000 0.000000
vn  -0.642788 -0.000000 0.766044
vn  0.766044 -0.000000 0.642788
vn  -0.766045 -0.000000 -0.642787
vn  -0.000000 1.000000 0.000000
vn  0.642787 0.000000 -0.766045
vn  -0.000000 -1.000000 0.000000
vn  -0.642787 0.000000 0.766045
vn  0.766045 0.000000 0.642787
vn  -0.766044 0.000000 -0.642788
vn  0.000000 1.000000 0.000000
vn  0.642788 0.000000 -0.766044
vn  0.000000 -1.000000 0.000000
vn  -0.642788 0.000000 0.766044
vn  0.766044 0.000000 0.642788
vn  -0.766045 -0.000000 -0.642787
vn  -0.000000 1.000000 0.000000
vn  0.642788 -0.000000 -0.766044
vn  -0.000000 -1.000000 0.000000
vn  -0.642788 -0.000000 0.766044
vn  0.766044 -0.000000 0.642788
vn  -0.000000 0.259409 -0.965768
vn  -0.865720 0.483474 -0.129547
vn  -0.000000 0.707539 0.706675
vn  0.865720 0.483474 -0.129546
vn  -0.000000 -0.707538 -0.706675
vn  -0.865720 -0.483474 0.129546
vn  -0.000000 -0.259409 0.965768
vn  0.865720 -0.483474 0.129546
vn  -1.000000 -0.000000 -0.000000
vn  -0.000000 -0.258819 -0.965926
vn  -0.000000 0.258819 0.965926
vn  1.000000 -0.000000 -0.000000
vn  0.707107 0.000000 -0.707107
vn  0.707107 0.000000 0.707107
vn  0.707107 0.000000 -0.707107
vn  0.707107 0.000000 0.707107
vn  -0.707107 0.000000 -0.707107
vn  -0.707107 0.000000 0.707107
vn  -0.707107 0.000000 -0.707107
vn  -0.707107 0.000000 0.707107
vn  0.000000 1.000000 0.000000
vn  -0.000000 -0.000000 1.000000
vn  -1.000000 0.000000 -0.000000
vn  0.000000 1.000000 0.000000
vn  -1.000000 0.000000 -0.000000
vn  -0.000000 -0.000000 1.000000
vn  -0.000000 0.129354 0.991598
vn  0.000000 0.000000 -1.000000
vn  1.000000 -0.000000 0.000000
vn  -0.000000 -0.891872 0.452288
vn  -1.000000 -0.000000 -0.000000
vn  -0.000000 -0.000000 1.000000
vn  1.000000 0.000000 0.000000
vn  0.005132 0.017308 -0.999837
vn  0.344122 -0.863176 0.369469
vn  0.314309 -0.633534 0.706997
vn  0.748988 -0.298751 0.591410
vn  -0.893132 0.449794 -0.000000
vn  0.179599 0.439413 0.880148
vn  0.829101 0.474771 -0.295270
vn  -0.829101 0.474771 0.295270
vn  0.395720 0.466907 -0.790825
vn  -0.379700 0.421163 0.823681
vn  -0.089477 -0.058112 0.994292
vn  0.725750 0.379396 0.573887
vn  0.000000 -0.242073 -0.970258
vn  -0.106219 0.994176 -0.018195
vn  0.912143 -0.126743 0.389784
vn  0.679991 0.331453 0.654027
vn  0.599591 0.384031 0.702147
vn  -0.130456 0.990136 -0.051101
vn  0.919094 0.060762 -0.389325
vn  0.960975 -0.276634 0.000000
vn  0.001595 0.999967 0.007993
vn  -0.211412 0.018826 0.977216
vn  -0.074121 0.655362 0.751670
vn  0.109153 -0.027457 0.993646
vn  0.000000 0.991477 -0.130281
vn  -0.436033 -0.001716 -0.899929
vn  -0.638801 0.361933 -0.678924
vn  -0.918165 0.298654 -0.260345
vn  -0.049632 0.994176 0.095657
vn  0.137503 0.988293 0.066107
vn  -0.892018 0.377554 -0.248510
vn  0.049632 0.994176 -0.095657
vn  0.830801 0.474712 -0.290549
vn  0.183701 0.362155 0.913837
vn  0.092108 0.994236 0.054881
vn  -0.386680 0.391177 -0.835140
vn  -0.830801 0.474712 0.290549
vn  -0.735165 0.251017 0.629701
vn  -0.005010 0.997414 0.071692
vn  0.828962 0.488831 -0.271785
vn  -0.116545 0.992373 -0.040170
vn  0.067040 0.993052 0.096708
vn  0.000000 0.400033 -0.916501
vn  0.071559 0.989707 0.123929
vn  0.708962 0.460554 0.534100
vn  0.031666 0.988723 -0.146369
vn  0.096038 0.028532 0.994969
vn  0.000000 0.000000 -1.000000
vn  -0.800960 -0.598718 -0.000000
vn  -0.800960 -0.598718 -0.000000
vn  -0.000000 0.000000 1.000000
vn  -0.800960 -0.598718 -0.000000
vn  -1.000000 0.000000 -0.000000
vn  0.390733 -0.859112 0.330536
vn  1.000000 0.000000 0.000000
vn  0.994978 0.100092 0.000000
vn  -0.609984 -0.792414 -0.000000
vn  0.000000 -0.000000 -1.000000
vn  -0.000000 -0.891872 0.452288
vn  0.050218 0.014315 0.998636
vn  0.000000 -0.000000 -1.000000
vn  0.609983 -0.792414 0.000000
vn  1.000000 -0.000000 0.000000
vn  -0.609984 -0.792414 -0.000000
vn  -1.000000 -0.000000 -0.000000
vn  -0.000000 -0.891872 0.452287
vn  -0.000000 -0.000000 1.000000
vn  0.609983 -0.792414 0.000000
vn  0.000000 -0.891872 -0.452287
vn  0.000000 1.000000 0.000000
vn  0.947188 0.320679 -0.000922
vn  0.000000 1.000000 0.000000
vn  0.000000 1.000000 0.000000
vn  0.000000 0.506499 -0.862241
vn  0.944910 0.327327 0.001390
vn  0.947248 0.320499 -0.000976
vn  -0.000001 0.492150 0.870510
vn  0.000000 1.000000 0.000000
vn  -0.945837 0.324636 -0.002014
vn  -0.948559 0.316535 -0.006406
vn  0.946481 0.322715 0.005293
vn  -0.000064 0.492153 0.870509
vn  0.000000 0.506498 -0.862241
vn  0.000000 0.506498 -0.862241
vn  0.000000 1.000000 0.000000
vn  -0.946238 0.323471 -0.000472
vn  -0.914322 -0.214312 -0.343636
vn  -0.000000 0.506499 -0.862241
vn  0.711974 -0.336687 -0.616226
vn  -0.000000 0.506499 -0.862241
vn  -0.945191 0.326383 -0.009389
vn  -0.946538 0.322555 0.004850
vn  0.945077 0.326846 0.001003
vn  0.000090 0.491955 0.870620
vn  0.000025 0.492111 0.870532
vn  -0.000000 0.492152 0.870509
vn  0.945793 0.324750 0.003528
vn  0.000000 1.000000 0.000000
vn  -0.000019 0.492130 0.870522
vn  0.944673 0.328011 0.001520
vn  0.000000 0.506499 -0.862241
vn  0.000000 1.000000 0.000000
vn  -0.946031 0.324073 0.001682
vn  -0.945770 0.324834 0.001520
vn  -0.000000 0.492150 0.870510
vn  0.000000 1.000000 0.000000
vn  -0.000000 0.492152 0.870509
vn  0.000000 1.000000 0.000000
vn  -0.000000 0.506499 -0.862241
vn  -0.946166 0.323682 -0.000426
vn  -0.000000 0.506499 -0.862241
vn  -0.000000 0.506499 -0.862241
vn  -0.914322 -0.214312 -0.343636
vn  0.711974 -0.336687 -0.616226
vn  0.000000 0.506499 -0.862241
vn  0.000000 1.000000 0.000000
vn  -0.914322 -0.214312 -0.343636
vn  0.711974 -0.336687 -0.616226
vn  -0.003763 0.999987 0.003487
vn  0.050425 0.784037 0.618663
vn  -0.581488 0.638669 0.503958
vn  0.000000 0.595676 -0.803225
vn  0.000000 0.595676 -0.803225
vn  0.898501 0.438972 0.000000
vn  0.898501 0.438972 0.000000
vn  -0.000001 0.595674 0.803226
vn  -0.000001 0.595674 0.803226
vn  -0.896531 0.442981 -0.000034
vn  -0.898500 0.438972 -0.000510
vn  -0.000000 0.595675 0.803226
vn  0.000000 0.595676 -0.803225
vn  0.000000 0.595676 -0.803225
vn  0.000000 0.595676 -0.803225
vn  0.000000 1.000000 0.000000
vn  -0.243371 0.713778 0.656728
vn  -0.000001 0.595675 -0.803225
vn  -0.895455 0.445152 -0.000000
vn  -0.232591 0.878001 0.418349
vn  0.898501 0.438972 0.000000
vn  -0.000000 0.595675 0.803225
vn  -0.220719 0.873157 0.434604
vn  0.275058 0.752551 0.598340
vn  -0.177240 0.877510 0.445603
vn  0.898501 0.438972 0.000000
vn  -0.000000 0.595675 0.803225
vn  0.000000 0.595676 -0.803225
vn  -0.835641 0.548325 -0.032294
vn  0.715278 0.422851 -0.556393
vn  0.050588 0.945766 -0.320885
vn  0.254081 0.966868 -0.024669
vn  0.009676 0.999919 0.008262
vn  -0.896418 0.443196 0.003381
vn  -0.896456 0.443116 -0.003853
vn  0.042192 0.996892 0.066532
vn  -0.000000 0.595675 0.803226
vn  -0.346196 0.937814 0.025546
vn  0.898501 0.438972 0.000000
vn  0.000000 1.000000 0.000000
vn  0.898501 0.438972 0.000000
vn  0.000181 1.000000 -0.000199
vn  -0.895455 0.445152 -0.000000
vn  0.000000 1.000000 0.000000
vn  -0.895455 0.445152 -0.000000
vn  0.000000 1.000000 0.000000
vn  0.004695 0.785027 0.619444
vn  -0.000150 0.595638 0.803253
vn  0.000000 1.000000 0.000000
vn  0.410399 0.845590 -0.341395
vn  -0.000000 0.595675 -0.803225
vn  -0.895455 0.445152 -0.000000
vn  0.648061 0.597873 0.471767
vn  0.035735 0.999359 0.002200
vn  0.698752 0.381907 -0.604890
vn  -0.000001 0.595675 -0.803226
vn  0.401793 0.578488 0.709869
vn  0.898501 0.438972 0.000000
vn  0.401793 0.578488 0.709869
vn  0.605582 0.720804 -0.337212
vn  0.898501 0.438972 0.000000
vn  0.410468 0.552907 0.725128
vn  0.244728 0.965115 0.093069
vn  0.046146 0.989875 0.134233
vn  -0.000000 0.595675 0.803226
vn  -0.000000 0.595675 0.803225
vn  0.898501 0.438972 0.000000
vn  0.605582 0.720804 -0.337212
vn  0.205401 0.967226 -0.149281
vn  -0.701203 0.706655 0.094620
vn  0.000000 0.595676 -0.803225
vn  -0.152909 0.986493 -0.058737
vn  0.605582 0.720804 -0.337212
vn  0.401793 0.578488 0.709869
vn  -0.000000 1.000000 -0.000000
vn  -0.008771 0.999906 0.010542
vn  -0.000000 0.650136 0.759818
vn  0.000001 0.653264 -0.757130
vn  0.000000 0.653266 -0.757129
vn  0.053587 0.835955 0.546176
vn  0.000000 1.000000 0.000000
vn  -0.046162 0.967977 0.246757
vn  0.259895 0.774844 -0.576257
vn  0.016228 0.989342 -0.144704
vn  -0.351620 0.936002 0.016219
vn  -0.000000 0.650136 0.759818
vn  0.084697 0.995396 0.044861
vn  -0.687543 0.721652 -0.080640
vn  -0.000000 0.653265 -0.757129
vn  0.141352 0.981369 -0.130129
vn  -0.285947 0.859827 0.423004
vn  0.538047 0.767689 -0.348080
vn  -0.016282 0.838243 0.545053
vn  -0.641263 0.767233 0.011623
vn  -0.261968 0.896265 0.357884
vn  0.342589 0.936103 -0.079651
vn  -0.113102 0.993581 -0.002097
vn  0.098860 0.941223 0.322995
vn  0.044683 0.503877 0.862619
vn  -0.119522 0.928800 -0.350777
vn  -0.379620 0.635651 -0.672188
vn  -0.208516 0.945150 -0.251422
vn  0.318739 0.937620 0.138834
vn  -0.440279 0.895722 0.061944
vn  0.285545 0.858790 -0.425376
vn  -0.348575 0.776377 0.525103
vn  0.179160 0.929434 -0.322575
vn  0.436117 0.822685 0.364681
vn  -0.864659 0.502360 -0.000000
vn  -0.032444 0.985952 -0.163845
vn  -0.460025 0.836691 -0.297195
vn  0.154683 0.975865 0.154142
vn  0.034482 0.906968 0.419786
vn  0.691754 0.645536 0.323666
vn  -0.267166 0.912652 -0.309335
vn  -0.222736 0.970732 -0.089822
vn  0.138981 0.957983 0.250903
vn  -0.081011 0.994374 0.068245
vn  -0.387347 0.618611 -0.683581
vn  0.681763 0.731318 -0.019312
vn  0.170016 0.919034 -0.355628
vn  -0.430825 0.822769 0.370731
vn  -0.085188 0.973212 -0.213546
vn  0.000000 0.653265 -0.757129
vn  0.860709 0.509097 0.000000
vn  -0.864659 0.502360 -0.000000
vn  -0.000001 0.650135 0.759818
vn  -0.000000 0.650136 0.759818
vn  -0.000000 0.653265 -0.757129
vn  0.860709 0.509097 0.000000
vn  -0.244026 0.969763 -0.003174
vn  0.290342 0.796443 0.530452
vn  -0.182543 0.911090 0.369585
vn  0.732074 0.546085 -0.407257
vn  -0.811536 0.577761 -0.087188
vn  0.000001 0.653264 -0.757130
vn  0.860709 0.509097 0.000000
vn  -0.864658 0.502360 -0.000000
vn  -0.864555 0.502433 0.010281
vn  -0.864659 0.502360 -0.000000
vn  -0.000001 0.650135 0.759818
vn  0.860709 0.509097 0.000000
vn  0.000000 0.653265 -0.757129
vn  0.860709 0.509097 0.000000
vn  0.538047 0.767689 -0.348080
vn  0.190378 0.965490 -0.177720
vn  -0.864659 0.502360 -0.000000
vn  -0.000000 1.000000 -0.000000
vn  -0.000000 1.000000 -0.000000
vn  0.027036 0.999630 0.002919
vn  0.860709 0.509097 0.000000
vn  -0.170245 0.667050 0.725301
vn  -0.497988 0.705272 -0.504577
vn  -0.260291 0.763001 0.591674
vn  0.673052 0.620930 0.401805
vn  -0.605142 0.664652 0.438225
vn  -0.000000 0.650136 0.759818
vn  0.437783 0.589700 0.678675
vn  0.251290 0.963869 0.088371
vn  -0.216169 0.907050 0.361290
vn  0.737959 0.590560 -0.326581
vn  0.436317 0.773963 -0.458921
vn  -0.926780 0.364425 -0.090953
vn  -0.283657 0.934183 0.216425
vn  0.706412 0.456171 -0.541193
vn  0.000001 0.653264 -0.757130
vn  0.293633 0.622756 0.725227
vn  0.860709 0.509097 0.000000
vn  0.293633 0.622756 0.725227
vn  0.128212 0.991045 -0.037310
vn  -0.560040 0.423682 -0.711933
vn  -0.864658 0.502360 -0.000000
vn  -0.514043 0.692023 0.506817
vn  -0.076145 0.960863 0.266355
vn  0.860709 0.509097 0.000000
vn  -0.000000 0.650136 0.759818
vn  0.000000 0.653264 -0.757130
vn  -0.864659 0.502360 -0.000000
vn  0.003897 0.837012 0.547171
vn  -0.000540 0.650008 0.759927
vn  -0.602619 0.676759 0.422903
vn  -0.000000 0.650136 0.759818
vn  -0.097526 0.994528 -0.037465
vn  -0.000000 0.653265 -0.757130
vn  0.688875 0.412095 -0.596347
vn  0.293633 0.622756 0.725227
vn  0.538047 0.767689 -0.348080
vn  0.860709 0.509097 0.000000
vn  -0.457891 0.789424 -0.408834
vn  -0.864659 0.502360 -0.000000
vn  -0.042834 0.999082 -0.000000
vn  0.059159 0.592713 0.803238
vn  0.355432 -0.242481 0.902702
vn  0.520260 -0.589464 0.617950
vn  -0.342915 0.939367 -0.000000
vn  -0.125661 0.625387 0.770130
vn  0.673950 -0.281434 0.683071
vn  -0.788399 0.615164 -0.000000
vn  -0.519703 0.590710 0.617228
vn  0.514107 0.612566 0.600381
vn  0.997588 -0.069416 0.000000
vn  0.016836 0.999858 -0.000000
vn  -0.241639 0.546308 0.801972
vn  0.016837 0.999858 -0.000000
vn  0.059159 0.592713 -0.803238
vn  0.520261 -0.589464 -0.617949
vn  0.617746 -0.786377 0.000000
vn  -0.125660 0.625387 -0.770131
vn  0.864245 -0.503071 0.000000
vn  -0.519702 0.590709 -0.617230
vn  0.244563 0.564544 -0.788340
vn  0.695846 0.046756 -0.716668
vn  -0.488968 0.572835 -0.657853
vn  0.466251 0.615327 -0.635596
vn  0.296353 0.214337 0.930717
vn  0.115551 0.301372 -0.946479
vn  0.016837 0.999858 0.000000
vn  0.016837 0.999858 0.000001
vn  0.016835 0.999858 -0.000001
vn  0.236109 0.570757 -0.786441
vn  0.413516 0.001090 0.910496
vn  0.673951 -0.281434 -0.683071
vn  0.413517 0.001090 -0.910496
vn  0.016836 0.999858 0.000003
vn  0.751369 0.659882 -0.000000
vn  0.016837 0.999858 -0.000001
vn  0.016835 0.999858 0.000001
vn  -0.798976 0.601363 -0.000001
vn  -0.488968 0.572835 0.657853
vn  0.466251 0.615329 0.635595
vn  0.016836 0.999858 -0.000003
vn  0.115551 0.301372 0.946479
vn  0.236108 0.570760 0.786439
vn  -0.177578 0.414977 -0.892334
vn  -0.251621 0.558766 0.790233
vn  0.355433 -0.242481 -0.902702
vn  -0.241638 0.546306 -0.801973
vn  0.052390 0.362259 0.930604
vn  0.052391 0.362259 -0.930604
vn  -0.659484 0.751719 -0.000001
vn  -0.463741 0.596700 0.654899
vn  0.695845 0.046756 0.716668
vn  0.761825 0.647783 0.000000
vn  -0.463740 0.596701 -0.654900
vn  0.296354 0.214337 -0.930717
vn  0.514107 0.612565 -0.600382
vn  0.244563 0.564546 0.788338
vn  -0.251620 0.558763 -0.790235
vn  -0.177579 0.414977 0.892334
# 526 vertex normals

g anvil
s 1
f 3/3/3 18/4/18 222/1/222
f 222/1/222 159/2/159 3/3/3
f 22/7/22 24/8/24 13/5/13
f 13/5/13 1/6/1 22/7/22
f 4/11/4 14/12/14 16/9/16
f 16/9/16 34/10/34 4/11/4
f 217/2/217 220/14/220 15/13/15
f 15/13/15 154/3/154 217/2/217
f 10/16/10 22/17/22 221/1/221
f 221/1/221 2/15/2 10/16/10
f 5/20/5 23/21/23 223/18/223
f 223/18/223 30/19/30 5/20/5
f 10/16/10 225/15/225 218/9/218
f 218/9/218 12/22/12 10/16/10
f 5/20/5 228/19/228 17/14/17
f 17/14/17 13/23/13 5/20/5
f 11/25/11 23/26/23 24/8/24
f 24/8/24 12/24/12 11/25/11
f 218/9/218 156/28/156 11/27/11
f 11/27/11 12/22/12 218/9/218
f 17/14/17 9/2/9 1/29/1
f 1/29/1 13/23/13 17/14/17
f 10/30/10 12/24/12 24/8/24
f 24/8/24 22/7/22 10/30/10
f 1/29/1 227/2/227 221/1/221
f 221/1/221 22/17/22 1/29/1
f 11/31/11 216/32/216 223/18/223
f 223/18/223 23/21/23 11/31/11
f 5/33/5 13/5/13 24/8/24
f 24/8/24 23/26/23 5/33/5
f 158/35/158 226/28/226 16/9/16
f 16/9/16 25/34/25 158/35/158
f 160/19/160 28/36/28 15/13/15
f 15/13/15 220/14/220 160/19/160
f 155/11/155 214/10/214 222/1/222
f 222/1/222 31/37/31 155/11/155
f 20/18/20 33/39/33 157/38/157
f 157/38/157 224/19/224 20/18/20
f 6/41/6 8/42/8 32/40/32
f 32/40/32 20/18/20 6/41/6
s 2
f 52/45/52 174/46/174 37/43/37
f 37/43/37 36/44/36 52/45/52
f 49/49/49 54/50/54 55/47/55
f 55/47/55 48/48/48 49/49/49
f 45/53/45 41/54/41 40/51/40
f 40/51/40 44/52/44 45/53/45
f 187/57/187 63/58/63 190/55/190
f 190/55/190 79/56/79 187/57/187
f 44/59/44 56/60/56 52/45/52
f 52/45/52 36/44/36 44/59/44
f 193/63/193 165/64/165 60/61/60
f 60/61/60 204/62/204 193/63/193
f 41/67/41 58/68/58 54/65/54
f 54/65/54 49/66/49 41/67/41
f 42/55/42 186/58/186 81/69/81
f 81/69/81 82/70/82 42/55/42
f 65/71/65 61/72/61 55/47/55
f 55/47/55 54/50/54 65/71/65
f 62/64/62 170/75/170 73/73/73
f 73/73/73 57/74/57 62/64/62
f 44/59/44 40/77/40 185/76/185
f 185/76/185 56/60/56 44/59/44
f 66/78/66 64/79/64 52/45/52
f 52/45/52 56/60/56 66/78/66
f 45/81/45 37/43/37 174/46/174
f 174/46/174 74/80/74 45/81/45
f 67/82/67 65/83/65 54/65/54
f 54/65/54 58/68/58 67/82/67
f 40/77/40 48/48/48 55/47/55
f 55/47/55 185/76/185 40/77/40
f 57/74/57 174/46/174 163/61/163
f 163/61/163 62/64/62 57/74/57
f 192/85/192 75/86/75 76/84/76
f 76/84/76 166/79/166 192/85/192
f 196/87/196 50/88/50 164/72/164
f 164/72/164 167/71/167 196/87/196
f 193/63/193 181/89/181 70/75/70
f 70/75/70 165/64/165 193/63/193
f 38/90/38 192/85/192 166/79/166
f 166/79/166 168/78/168 38/90/38
f 43/91/43 196/92/196 167/83/167
f 167/83/167 169/82/169 43/91/43
f 41/67/41 45/81/45 74/80/74
f 74/80/74 58/68/58 41/67/41
f 175/86/175 176/94/176 78/93/78
f 78/93/78 171/84/171 175/86/175
f 39/62/39 178/61/178 78/93/78
f 78/93/78 77/94/77 39/62/39
f 38/90/38 168/78/168 80/57/80
f 80/57/80 202/56/202 38/90/38
f 172/57/172 66/78/66 56/60/56
f 56/60/56 185/76/185 172/57/172
f 81/69/81 61/72/61 195/88/195
f 195/88/195 82/70/82 81/69/81
f 49/95/49 48/96/48 40/51/40
f 40/51/40 41/54/41 49/95/49
f 36/97/36 37/98/37 45/53/45
f 45/53/45 44/52/44 36/97/36
s 1
f 212/101/212 88/102/88 151/99/151
f 151/99/151 149/100/149 212/101/212
f 83/103/83 208/104/208 211/102/211
f 211/102/211 209/101/209 83/103/83
f 84/105/84 148/106/148 152/99/152
f 152/99/152 210/102/210 84/105/84
f 86/107/86 147/108/147 150/100/150
f 150/100/150 90/99/90 86/107/86
f 85/109/85 207/110/207 87/101/87
f 87/101/87 89/100/89 85/109/85
s 2
f 92/113/92 99/114/99 100/111/100
f 100/111/100 91/112/91 92/113/92
f 93/117/93 101/118/101 99/115/99
f 99/115/99 92/116/92 93/117/93
f 94/119/94 102/120/102 101/118/101
f 101/118/101 93/117/93 94/119/94
f 91/112/91 100/111/100 102/121/102
f 102/121/102 94/122/94 91/112/91
f 93/125/93 92/126/92 91/123/91
f 91/123/91 94/124/94 93/125/93
f 96/129/96 97/130/97 98/127/98
f 98/127/98 95/128/95 96/129/96
f 96/131/96 95/132/95 100/111/100
f 100/111/100 99/114/99 96/131/96
f 97/133/97 96/134/96 99/115/99
f 99/115/99 101/118/101 97/133/97
f 98/136/98 97/133/97 101/118/101
f 101/118/101 102/135/102 98/136/98
f 95/132/95 98/138/98 102/137/102
f 102/137/102 100/111/100 95/132/95
f 128/141/128 127/142/127 136/139/136
f 136/139/136 135/140/135 128/141/128
f 129/145/129 128/146/128 135/143/135
f 135/143/135 137/144/137 129/145/129
f 130/148/130 129/145/129 137/144/137
f 137/144/137 138/147/138 130/148/130
f 127/142/127 130/150/130 138/149/138
f 138/149/138 136/139/136 127/142/127
f 129/153/129 130/154/130 127/151/127
f 127/151/127 128/152/128 129/153/129
f 132/157/132 131/158/131 134/155/134
f 134/155/134 133/156/133 132/157/132
f 132/160/132 135/140/135 136/139/136
f 136/139/136 131/159/131 132/160/132
f 133/162/133 137/144/137 135/143/135
f 135/143/135 132/161/132 133/162/133
f 134/163/134 138/164/138 137/144/137
f 137/144/137 133/162/133 134/163/134
f 131/159/131 136/139/136 138/165/138
f 138/165/138 134/166/134 131/159/131
f 139/169/139 141/170/141 142/167/142
f 142/167/142 140/168/140 139/169/139
f 143/173/143 144/174/144 146/171/146
f 146/171/146 145/172/145 143/173/143
f 140/168/140 142/167/142 146/171/146
f 146/171/146 144/174/144 140/168/140
f 141/170/141 139/169/139 143/173/143
f 143/173/143 145/172/145 141/170/141
s 1
f 20/18/20 21/175/21 33/39/33
f 26/176/26 25/34/25 16/9/16
f 7/38/7 29/177/29 160/19/160
f 18/4/18 31/37/31 222/1/222
f 20/18/20 32/178/32 21/179/21
f 16/9/16 14/12/14 26/176/26
f 160/19/160 27/180/27 28/36/28
f 29/177/29 27/180/27 160/19/160
f 219/9/219 162/181/162 213/10/213
f 161/10/161 35/181/35 19/1/19
f 219/9/219 153/15/153 162/181/162
f 35/181/35 215/15/215 19/1/19
s 2
f 74/80/74 57/74/57 73/73/73
f 194/182/194 51/183/51 180/184/180
f 52/45/52 64/79/64 179/84/179
f 57/74/57 74/80/74 174/46/174
f 59/76/59 63/58/63 187/57/187
f 186/58/186 185/76/185 81/69/81
f 205/185/205 47/186/47 180/184/180
f 47/186/47 173/187/173 180/184/180
f 180/184/180 201/188/201 189/189/189
f 46/190/46 188/191/188 180/184/180
f 180/184/180 189/189/189 203/192/203
f 51/183/51 191/193/191 180/184/180
f 180/184/180 200/194/200 46/190/46
f 199/195/199 198/196/198 68/184/68
f 71/197/71 72/198/72 182/75/182
f 182/75/182 197/89/197 71/197/71
f 198/196/198 69/185/69 68/184/68
f 180/184/180 191/193/191 184/195/184
f 206/198/206 169/82/169 183/75/183
f 170/75/170 58/68/58 73/73/73
f 73/73/73 58/68/58 74/80/74
f 180/184/180 177/199/177 200/194/200
f 179/84/179 174/46/174 52/45/52
f 171/84/171 78/93/78 53/46/53
f 180/184/180 173/187/173 177/199/177
f 78/93/78 178/61/178 53/46/53
f 180/184/180 188/191/188 201/188/201
f 55/47/55 61/72/61 81/69/81
f 203/192/203 194/182/194 180/184/180
f 81/69/81 185/76/185 55/47/55
f 206/198/206 43/91/43 169/82/169
f 170/75/170 67/82/67 58/68/58
f 103/200/103 104/201/104 105/202/105
f 103/200/103 105/202/105 106/203/106
f 103/200/103 106/203/106 107/204/107
f 103/200/103 107/204/107 104/201/104
f 108/205/108 105/202/105 104/201/104
f 108/205/108 106/203/106 105/202/105
f 108/205/108 107/204/107 106/203/106
f 108/205/108 104/201/104 107/204/107
f 109/206/109 110/207/110 111/208/111
f 109/206/109 111/208/111 112/209/112
f 109/206/109 112/209/112 113/210/113
f 109/206/109 113/210/113 110/207/110
f 114/211/114 111/208/111 110/207/110
f 114/211/114 112/209/112 111/208/111
f 114/211/114 113/210/113 112/209/112
f 114/211/114 110/207/110 113/210/113
f 115/212/115 116/213/116 117/214/117
f 115/212/115 117/214/117 118/215/118
f 115/212/115 118/215/118 119/216/119
f 115/212/115 119/216/119 116/213/116
f 120/217/120 117/214/117 116/213/116
f 120/217/120 118/215/118 117/214/117
f 120/217/120 119/216/119 118/215/118
f 120/217/120 116/213/116 119/216/119
f 122/219/122 123/220/123 121/218/121
f 123/220/123 124/221/124 121/218/121
f 124/221/124 125/222/125 121/218/121
f 125/222/125 122/219/122 121/218/121
f 123/220/123 122/219/122 126/223/126
f 124/221/124 123/220/123 126/223/126
f 125/222/125 124/221/124 126/223/126
f 122/219/122 125/222/125 126/223/126
s 1
f 257/226/257 231/227/231 232/224/232
f 232/224/232 229/225/229 257/226/257
f 234/230/234 230/226/230 235/228/235
f 235/228/235 259/229/259 234/230/234
f 255/225/255 258/224/258 241/231/241
f 241/231/241 266/232/266 255/225/255
f 260/230/260 233/229/233 242/233/242
f 242/233/242 243/234/243 260/230/260
f 244/236/244 265/237/265 231/227/231
f 231/227/231 275/235/275 244/236/244
f 241/231/241 258/224/258 253/248/253
f 271/240/271 247/235/247 243/234/243
f 243/234/243 242/233/242 271/240/271
f 261/230/261 267/234/267 231/227/231
f 231/227/231 257/226/257 261/230/261
f 235/228/235 230/226/230 252/247/252
f 237/238/237 232/224/232 231/227/231
f 231/227/231 265/237/265 237/238/237
f 249/241/249 270/242/270 268/236/268
f 268/236/268 274/235/274 249/241/249
f 250/243/250 262/239/262 263/238/263
f 263/238/263 238/237/238 250/243/250
f 269/236/269 245/242/245 251/244/251
f 251/244/251 238/237/238 269/236/269
f 238/237/238 239/245/239 250/243/250
f 267/234/267 275/235/275 231/227/231
f 238/237/238 251/244/251 239/245/239
f 272/235/272 246/240/246 276/246/276
f 273/235/273 248/246/248 277/241/277
f 256/225/256 240/232/240 252/247/252
f 252/247/252 230/226/230 256/225/256
f 258/224/258 254/249/254 253/248/253
f 264/238/264 236/239/236 254/249/254
f 254/249/254 258/224/258 264/238/264
f 318/252/318 283/253/283 284/250/284
f 284/250/284 316/251/316 318/252/318
f 312/284/312 320/255/320 322/256/322
f 322/256/322 287/257/287 312/284/312
f 282/252/282 281/251/281 290/258/290
f 290/258/290 291/259/291 282/252/282
f 293/262/293 323/257/323 278/260/278
f 278/260/278 327/261/327 293/262/293
f 295/263/295 333/264/333 328/262/328
f 328/262/328 292/261/292 295/263/295
f 317/252/317 326/259/326 278/260/278
f 278/260/278 319/253/319 317/252/317
f 335/265/335 298/266/298 284/250/284
f 284/250/284 283/253/283 335/265/335
f 288/254/288 287/257/287 311/283/311
f 300/269/300 339/270/339 301/267/301
f 301/267/301 302/268/302 300/269/300
f 304/273/304 314/274/314 289/271/289
f 289/271/289 343/272/343 304/273/304
f 321/256/321 340/270/340 278/260/278
f 278/260/278 323/257/323 321/256/321
f 286/256/286 285/255/285 342/267/342
f 342/267/342 299/270/299 286/256/286
f 302/268/302 325/271/325 294/275/294
f 294/275/294 300/269/300 302/268/302
f 305/277/305 291/259/291 290/258/290
f 290/258/290 348/276/348 305/277/305
f 306/276/306 349/279/349 308/278/308
f 308/278/308 347/277/347 306/276/306
f 327/261/327 308/278/308 307/279/307
f 307/279/307 332/263/332 327/261/327
f 310/280/310 319/253/319 278/260/278
f 278/260/278 315/274/315 310/280/310
f 278/260/278 313/281/313 315/274/315
f 280/274/280 279/281/279 324/271/324
f 279/281/279 330/275/330 324/271/324
f 331/275/331 313/281/313 278/260/278
f 278/260/278 340/270/340 341/269/341
f 341/269/341 331/275/331 278/260/278
f 278/260/278 326/259/326 347/277/347
f 347/277/347 308/278/308 278/260/278
f 278/260/278 308/278/308 327/261/327
f 346/273/346 309/282/309 310/280/310
f 350/282/350 345/273/345 337/266/337
f 336/266/336 334/265/334 351/282/351
f 309/282/309 297/265/297 310/280/310
f 344/273/344 303/272/303 338/266/338
f 315/274/315 346/273/346 310/280/310
f 310/280/310 297/265/297 319/253/319
f 329/262/329 296/264/296 311/283/311
f 311/283/311 287/257/287 329/262/329
f 287/257/287 288/254/288 312/284/312
f 427/287/427 362/288/362 396/285/396
f 396/285/396 400/286/400 427/287/427
f 419/291/419 428/292/428 407/289/407
f 407/289/407 452/290/452 419/291/419
f 430/295/430 408/296/408 466/293/466
f 466/293/466 448/294/448 430/295/430
f 420/291/420 401/290/401 406/297/406
f 406/297/406 356/298/356 420/291/420
f 413/301/413 454/302/454 355/299/355
f 355/299/355 443/300/443 413/301/413
f 445/303/445 414/304/414 407/289/407
f 407/289/407 428/292/428 445/303/445
f 450/305/450 416/306/416 458/296/458
f 458/296/458 429/295/429 450/305/450
f 437/309/437 435/310/435 409/307/409
f 409/307/409 410/308/410 437/309/437
f 354/313/354 434/288/434 405/311/405
f 405/311/405 453/312/453 354/313/354
f 418/314/418 404/315/404 459/307/459
f 459/307/459 363/310/363 418/314/418
f 410/308/410 457/311/457 431/316/431
f 431/316/431 437/309/437 410/308/410
f 366/318/366 356/298/356 406/297/406
f 406/297/406 461/317/461 366/318/366
f 412/317/412 460/320/460 365/319/365
f 365/319/365 440/318/440 412/317/412
f 442/300/442 438/319/438 411/320/411
f 411/320/411 462/301/462 442/300/442
f 382/323/382 423/313/423 447/321/447
f 447/321/447 374/322/374 382/323/382
f 373/326/373 360/327/360 398/324/398
f 398/324/398 399/325/399 373/326/373
f 426/298/426 370/329/370 375/328/375
f 375/328/375 353/291/353 426/298/426
f 358/292/358 353/291/353 377/330/377
f 377/330/377 371/331/371 358/292/358
f 381/333/381 376/334/376 375/328/375
f 375/328/375 380/332/380 381/333/381
f 380/332/380 378/335/378 377/330/377
f 377/330/377 381/333/381 380/332/380
f 380/332/380 375/328/375 370/329/370
f 370/329/370 379/336/379 380/332/380
f 380/332/380 379/336/379 371/331/371
f 371/331/371 378/335/378 380/332/380
f 415/293/415 455/315/455 417/314/417
f 417/314/417 449/294/449 415/293/415
f 390/338/390 391/339/391 367/300/367
f 367/300/367 389/337/389 390/338/390
f 389/337/389 367/300/367 425/299/425
f 425/299/425 385/340/385 389/337/389
f 424/299/424 403/302/403 467/306/467
f 467/306/467 386/305/386 424/299/424
f 387/342/387 384/294/384 352/314/352
f 352/314/352 397/341/397 387/342/387
f 389/337/389 385/340/385 393/343/393
f 393/343/393 394/344/394 389/337/389
f 392/346/392 387/342/387 388/345/388
f 388/345/388 393/343/393 392/346/392
f 391/339/391 390/338/390 395/347/395
f 395/347/395 372/348/372 391/339/391
f 433/288/433 357/287/357 456/311/456
f 451/305/451 359/295/359 385/340/385
f 357/287/357 432/316/432 456/311/456
f 361/316/361 427/287/427 400/286/400
f 436/310/436 364/309/364 400/286/400
f 358/292/358 371/331/371 383/349/383
f 359/295/359 384/294/384 392/346/392
f 364/309/364 361/316/361 400/286/400
f 370/329/370 426/298/426 441/318/441
f 441/318/441 439/319/439 372/348/372
f 439/319/439 367/300/367 391/339/391
f 362/288/362 423/313/423 382/323/382
f 369/321/369 422/313/422 464/304/464
f 463/304/463 444/303/444 446/321/446
f 447/321/447 368/303/368 374/322/374
f 421/313/421 402/312/402 465/304/465
f 441/318/441 372/348/372 370/329/370
f 370/329/370 373/326/373 379/336/379
f 371/331/371 373/326/373 399/325/399
f 439/319/439 391/339/391 372/348/372
f 376/334/376 353/291/353 375/328/375
f 378/335/378 371/331/371 377/330/377
f 377/330/377 353/291/353 381/333/381
f 381/333/381 353/291/353 376/334/376
f 371/331/371 379/336/379 373/326/373
f 382/323/382 396/285/396 362/288/362
f 374/322/374 368/303/368 383/349/383
f 383/349/383 368/303/368 358/292/358
f 384/294/384 387/342/387 392/346/392
f 385/340/385 425/299/425 451/305/451
f 352/314/352 436/310/436 397/341/397
f 387/342/387 397/341/397 388/345/388
f 372/348/372 373/326/373 370/329/370
f 393/343/393 385/340/385 392/346/392
f 392/346/392 385/340/385 359/295/359
f 393/343/393 388/345/388 394/344/394
f 395/347/395 390/338/390 394/344/394
f 394/344/394 390/338/390 389/337/389
f 394/344/394 360/327/360 395/347/395
f 395/347/395 360/327/360 372/348/372
f 372/348/372 360/327/360 373/326/373
f 398/324/398 400/286/400 396/285/396
f 400/286/400 360/327/360 397/341/397
f 397/341/397 360/327/360 388/345/388
f 396/285/396 382/323/382 398/324/398
f 398/324/398 382/323/382 374/322/374
f 398/324/398 374/322/374 399/325/399
f 399/325/399 374/322/374 383/349/383
f 398/324/398 360/327/360 400/286/400
f 400/286/400 397/341/397 436/310/436
f 383/349/383 371/331/371 399/325/399
f 394/344/394 388/345/388 360/327/360
s 2
f 468/352/468 469/353/469 473/350/473
f 473/350/473 472/351/472 468/352/468
f 469/353/469 509/355/509 515/354/515
f 515/354/515 473/350/473 469/353/469
f 470/355/470 471/357/471 474/356/474
f 474/356/474 498/354/498 470/355/470
f 471/357/471 484/359/484 486/358/486
f 486/358/486 474/356/474 471/357/471
f 472/351/472 473/350/473 518/360/518
f 518/360/518 517/361/517 472/351/472
f 473/350/473 515/354/515 526/362/526
f 526/362/526 518/360/518 473/350/473
f 498/354/498 474/356/474 519/363/519
f 519/363/519 492/362/492 498/354/498
f 474/356/474 486/358/486 478/364/478
f 478/364/478 519/363/519 474/356/474
f 475/361/475 476/360/476 506/365/506
f 506/365/506 505/366/505 475/361/475
f 476/360/476 512/362/512 480/367/480
f 480/367/480 506/365/506 476/360/476
f 524/362/524 477/363/477 507/368/507
f 507/368/507 510/367/510 524/362/524
f 477/363/477 520/364/520 502/369/502
f 502/369/502 507/368/507 477/363/477
f 468/372/468 472/373/472 485/370/485
f 485/370/485 482/371/482 468/372/468
f 482/371/482 485/370/485 516/374/516
f 516/374/516 493/375/493 482/371/482
f 513/375/513 500/374/500 499/376/499
f 499/376/499 483/377/483 513/375/513
f 483/377/483 499/376/499 486/378/486
f 486/378/486 484/379/484 483/377/483
f 472/373/472 517/381/517 521/380/521
f 521/380/521 485/370/485 472/373/472
f 485/370/485 521/380/521 511/382/511
f 511/382/511 516/374/516 485/370/485
f 500/374/500 522/382/522 489/383/489
f 489/383/489 499/376/499 500/374/500
f 499/376/499 489/383/489 478/384/478
f 478/384/478 486/378/486 499/376/499
f 475/381/475 505/386/505 490/385/490
f 490/385/490 487/380/487 475/381/475
f 487/380/487 490/385/490 514/387/514
f 514/387/514 525/382/525 487/380/487
f 488/382/488 497/387/497 491/388/491
f 491/388/491 523/383/523 488/382/488
f 523/383/523 491/388/491 502/389/502
f 502/389/502 520/384/520 523/383/523
f 495/390/495 501/391/501 479/392/479
f 479/392/479 501/391/501 496/393/496
f 479/392/479 494/394/494 495/390/495
f 496/393/496 481/395/481 479/392/479
f 503/396/503 479/397/479 508/398/508
f 479/397/479 504/399/504 508/398/508
f 479/397/479 503/396/503 494/400/494
f 504/399/504 479/397/479 481/401/481
# 486 faces

g
