# Max2Obj Version 4.0 Mar 10th, 2001
#
# object tou to come ...
#
v  -0.006081 33.050819 -100.174484
v  -0.006081 44.675289 -100.174484
v  -0.006088 33.050819 -69.000816
v  -0.006088 44.675289 -69.000809
v  6.148758 44.675289 -69.000809
v  49.993916 61.299221 -69.000809
v  -0.006081 61.295616 -100.174484
v  -0.006088 61.295616 -69.000809
v  49.993923 34.122597 -99.441696
v  49.993919 44.675289 -99.441696
v  49.993916 33.050823 -69.000809
v  49.993919 61.295616 -99.441696
v  11.956829 -0.128418 -95.613693
v  11.956829 -0.128418 -86.373833
v  11.956825 34.204651 -95.613693
v  11.956825 34.204651 -86.373833
v  2.716965 -0.128418 -95.613693
v  2.716965 -0.128418 -86.373833
v  2.716965 34.204651 -95.613693
v  2.716965 34.204651 -86.373840
v  11.239441 16.024698 -94.896309
v  11.239441 16.024698 -87.091217
v  3.434349 16.024698 -87.091217
v  3.434349 16.024698 -94.896309
v  10.055733 15.617266 -88.875381
v  10.055733 20.102530 -88.875381
v  4.618069 15.617266 -88.875381
v  4.618069 20.102530 -88.875381
v  10.444378 20.097353 -44.917740
v  4.229401 14.970921 -44.917740
v  10.444378 14.970921 -44.917740
v  4.229401 20.097353 -44.917740
v  88.060593 -0.128414 -95.613686
v  88.060593 -0.128414 -86.373825
v  88.060593 34.204655 -95.613686
v  88.060593 34.204655 -86.373825
v  97.300461 -0.128414 -95.613678
v  97.300461 -0.128414 -86.373817
v  97.300453 34.204655 -95.613678
v  97.300453 34.204655 -86.373825
v  88.777985 16.024702 -94.896301
v  88.777985 16.024702 -87.091209
v  96.583069 16.024702 -87.091202
v  96.583069 16.024702 -94.896294
v  89.961685 15.617270 -88.875374
v  89.961685 20.102533 -88.875374
v  95.399353 15.617270 -88.875366
v  95.399353 20.102533 -88.875366
v  89.573021 21.685423 -44.917732
v  95.788002 16.558992 -44.917728
v  89.573021 16.558992 -44.917732
v  95.788002 21.685423 -44.917728
v  9.648129 14.754593 -93.423653
v  90.104866 15.546659 -93.248230
v  9.648129 18.541212 -93.423653
v  90.104866 19.043890 -93.248230
v  9.648129 14.754593 -88.832977
v  90.104866 15.546656 -89.008392
v  9.648129 18.541212 -88.832977
v  90.104866 19.043890 -89.008392
v  79.897774 20.767399 -93.534218
v  79.897774 16.798374 -93.534218
v  79.897774 16.798374 -88.722404
v  79.897781 20.767399 -88.722404
v  29.725580 19.848074 -93.991432
v  29.725580 15.124790 -88.265205
v  29.725580 15.124790 -93.991432
v  29.725580 19.848074 -88.265205
v  52.930344 15.823734 -93.004204
v  52.930344 18.918388 -89.252419
v  52.930347 18.918388 -93.004204
v  52.930347 15.823734 -89.252419
v  99.993927 33.050827 -100.174469
v  99.993927 44.675293 -100.174469
v  99.993912 33.050827 -69.000809
v  99.993912 44.675293 -69.000801
v  93.839066 44.675293 -69.000801
v  99.993919 61.295620 -100.174469
v  99.993912 61.295620 -69.000801
v  97.667297 44.675293 -72.641846
v  -0.006081 33.050819 -100.174484
v  -0.006081 33.050819 -100.174484
v  -0.006081 44.675289 -100.174484
v  -0.006088 33.050819 -69.000816
v  -0.006088 44.675289 -69.000809
v  49.993916 61.299221 -69.000809
v  49.993916 61.299221 -69.000809
v  -0.006081 61.295616 -100.174484
v  -0.006081 61.295616 -100.174484
v  -0.006088 61.295616 -69.000809
v  -0.006088 61.295616 -69.000809
v  49.993923 34.122597 -99.441696
v  49.993919 61.295616 -99.441696
v  99.993927 33.050827 -100.174469
v  99.993927 33.050827 -100.174469
v  99.993927 44.675293 -100.174469
v  99.993912 33.050827 -69.000809
v  99.993912 44.675293 -69.000801
v  99.993919 61.295620 -100.174469
v  99.993919 61.295620 -100.174469
v  99.993912 61.295620 -69.000801
v  99.993912 61.295620 -69.000801
v  10.055733 20.102530 -88.875381
v  4.618069 20.102530 -88.875381
v  10.444378 20.097353 -44.917740
v  4.229401 20.097353 -44.917740
v  89.961685 20.102533 -88.875374
v  95.399353 20.102533 -88.875366
v  89.573021 21.685423 -44.917732
v  95.788002 21.685423 -44.917728
v  -0.006100 34.536156 -0.000149
v  -0.006100 43.776886 -0.000149
v  6.221695 44.675289 -0.000080
v  49.993900 34.536156 -0.000149
v  9.802914 14.141506 0.000374
v  4.870819 18.209749 0.000374
v  9.802914 18.209749 0.000374
v  4.870819 14.141506 0.000374
v  89.856567 13.846310 0.000374
v  95.504440 18.504957 0.000374
v  89.856567 18.504957 0.000374
v  95.504440 13.846310 0.000374
v  99.993904 34.536160 -0.000149
v  99.993904 43.252342 -0.000149
v  93.766113 44.675293 -0.000080
v  97.667290 43.543839 -0.000359
v  -0.006100 34.536156 -0.000149
v  -0.006100 43.776886 -0.000149
v  99.993904 34.536160 -0.000149
v  99.993904 43.252342 -0.000149
v  4.870819 18.209749 0.000374
v  9.802914 18.209749 0.000374
v  95.504440 18.504957 0.000374
v  89.856567 18.504957 0.000374
v  2.320530 44.675289 -72.641853
v  97.667297 56.718739 -72.641846
v  2.320518 43.543835 -0.000362
v  2.320530 56.718735 -72.641853
v  97.667282 56.718739 -0.000359
v  2.320515 56.718735 -0.000362
v  14.085369 63.021172 -0.000347
v  85.902428 63.021172 -0.000343
v  85.902435 63.021172 -61.407219
v  14.085377 63.021172 -61.407227
v  76.990936 69.959625 -81.359505
v  23.032034 69.959625 -81.359512
v  16.545414 63.213024 -52.903465
v  19.224844 61.573189 -88.154709
v  80.767868 59.322121 -55.405945
v  80.767868 61.573196 -88.154694
v  19.224836 59.322121 -55.405952
v  17.583225 62.641350 -89.066818
v  82.409492 59.971397 -54.283184
v  82.409500 62.641357 -89.066803
v  17.583218 59.971390 -54.283180
v  83.447304 66.395493 -89.279236
v  83.447296 63.213028 -52.903481
v  76.990936 68.283112 -62.196846
v  23.032032 68.283112 -62.196846
v  11.956829 -0.128418 -95.613693
v  11.956829 -0.128418 -86.373833
v  2.716965 -0.128418 -95.613693
v  2.716965 -0.128418 -86.373833
v  88.060593 -0.128414 -95.613686
v  88.060593 -0.128414 -86.373825
v  97.300461 -0.128414 -95.613678
v  97.300461 -0.128414 -86.373817
v  11.956829 -0.128418 -86.373833
v  11.956825 34.204651 -95.613693
v  11.956825 34.204651 -86.373833
v  2.716965 -0.128418 -86.373833
v  2.716965 34.204651 -95.613693
v  2.716965 34.204651 -86.373840
v  11.239441 16.024698 -94.896309
v  11.239441 16.024698 -87.091217
v  3.434349 16.024698 -87.091217
v  3.434349 16.024698 -94.896309
v  88.060593 -0.128414 -95.613686
v  88.060593 34.204655 -95.613686
v  88.060593 34.204655 -86.373825
v  97.300461 -0.128414 -95.613678
v  97.300453 34.204655 -95.613678
v  97.300453 34.204655 -86.373825
v  88.777985 16.024702 -94.896301
v  88.777985 16.024702 -87.091209
v  96.583069 16.024702 -87.091202
v  96.583069 16.024702 -94.896294
v  11.956829 -0.128418 -95.613693
v  2.716965 -0.128418 -95.613693
v  88.060593 -0.128414 -86.373825
v  97.300461 -0.128414 -86.373817
v  16.545425 66.395493 -89.279251
v  97.667297 56.718739 -72.641846
v  2.320530 56.718735 -72.641853
v  97.667282 56.718739 -0.000359
v  2.320515 56.718735 -0.000362
v  16.545414 63.213024 -52.903465
v  83.447304 66.395493 -89.279236
v  83.447296 63.213028 -52.903481
v  16.545425 66.395493 -89.279251
# 200 vertices

vt  0.008506 0.917514 0.999499
vt  0.024668 0.917514 0.999499
vt  0.174067 0.630024 0.000716
vt  0.130105 0.630024 0.000499
vt  0.438684 0.011996 0.999501
vt  0.438684 0.162803 0.999501
vt  0.227307 0.162803 0.999501
vt  0.227307 0.011996 0.999501
vt  0.027940 0.007678 0.999501
vt  0.027940 0.424352 0.999501
vt  0.175226 0.841354 0.782202
vt  0.438684 0.841354 0.782202
vt  0.438684 0.990942 0.782201
vt  0.175226 0.994377 0.782201
vt  0.027940 0.366175 0.217870
vt  0.027940 0.011542 0.217870
vt  0.422170 0.011542 0.217870
vt  0.422170 0.366137 0.217798
vt  0.268146 0.418586 0.999500
vt  0.268146 0.995191 0.999500
vt  0.159324 0.995191 0.999500
vt  0.159324 0.418586 0.999500
vt  0.027940 0.995191 0.999500
vt  0.027940 0.418586 0.999500
vt  0.307963 0.323842 0.429448
vt  0.379450 0.323842 1.070552
vt  0.379450 0.404622 0.378817
vt  0.307963 0.404622 -0.262287
vt  0.329834 0.633753 1.412800
vt  0.329834 0.451217 1.193420
vt  0.248985 0.451217 1.193420
vt  0.248985 0.633753 1.412800
vt  0.438684 0.633753 1.412801
vt  0.329834 0.633753 1.412800
vt  0.329834 0.451217 1.193420
vt  0.438684 0.451217 1.193420
vt  0.329834 0.268681 1.412800
vt  0.438684 0.268681 1.412800
vt  0.248985 0.268681 1.412801
vt  0.329834 0.268681 1.412800
vt  0.438684 0.633753 1.412801
vt  0.438684 0.451217 1.193420
vt  0.438684 0.451217 1.193420
vt  0.438684 0.451217 1.193420
vt  0.248985 0.451217 1.193420
vt  0.438684 0.268681 1.412800
vt  0.248985 0.633753 1.412800
vt  0.248985 0.268681 1.412801
vt  0.349526 0.018220 0.693611
vt  0.306854 0.018220 0.732047
vt  0.306854 0.018220 0.693611
vt  0.261412 0.018220 0.732047
vt  0.306854 0.258365 1.111176
vt  0.306854 0.258365 0.575613
vt  0.349526 0.258365 0.575613
vt  0.261412 0.258365 1.111176
vt  0.261412 0.018220 0.732047
vt  0.261412 0.258365 1.111176
vt  0.349526 0.018220 0.693611
vt  0.349526 0.258365 0.575613
vt  0.349526 0.258365 0.575613
vt  0.349526 0.258365 0.575613
vt  0.307963 0.323842 0.429448
vt  0.379450 0.323842 1.070552
vt  0.379450 0.404622 0.378817
vt  0.307963 0.404622 -0.262287
vt  0.329834 0.633753 1.412800
vt  0.329834 0.451217 1.193420
vt  0.248985 0.451217 1.193420
vt  0.248985 0.633753 1.412800
vt  0.438684 0.633753 1.412801
vt  0.329834 0.633753 1.412800
vt  0.329834 0.451217 1.193420
vt  0.438684 0.451217 1.193420
vt  0.329834 0.268681 1.412800
vt  0.438684 0.268681 1.412800
vt  0.248985 0.268681 1.412801
vt  0.329834 0.268681 1.412800
vt  0.438684 0.633753 1.412801
vt  0.438684 0.451217 1.193420
vt  0.438684 0.451217 1.193420
vt  0.438684 0.451217 1.193420
vt  0.248985 0.451217 1.193420
vt  0.438684 0.268681 1.412800
vt  0.248985 0.633753 1.412800
vt  0.248985 0.268681 1.412801
vt  0.349526 0.018220 0.693611
vt  0.306854 0.018220 0.732047
vt  0.306854 0.018220 0.693611
vt  0.261412 0.018220 0.732047
vt  0.306854 0.258365 1.111176
vt  0.306854 0.258365 0.575613
vt  0.349526 0.258365 0.575613
vt  0.261412 0.258365 1.111176
vt  0.261412 0.018220 0.732047
vt  0.261412 0.258365 1.111176
vt  0.349526 0.018220 0.693611
vt  0.349526 0.258365 0.575613
vt  0.349526 0.258365 0.575613
vt  0.349526 0.258365 0.575613
vt  0.349526 0.018220 0.693611
vt  0.349526 0.978798 0.906487
vt  0.306854 0.018220 0.732047
vt  0.306854 0.978798 0.527097
vt  0.306854 0.018220 0.693611
vt  0.306854 0.978798 0.906487
vt  0.261412 0.018220 0.732047
vt  0.261412 0.978798 0.527097
vt  0.306854 0.657989 0.493531
vt  0.349526 0.657989 0.871952
vt  0.306854 0.657989 0.871952
vt  0.261412 0.657989 0.493531
vt  0.306854 0.258365 1.111176
vt  0.306854 0.258365 0.575613
vt  0.349526 0.258365 0.575613
vt  0.261412 0.258365 1.111176
vt  0.349526 0.518573 1.092467
vt  0.261412 0.518573 0.480590
vt  0.306854 0.518573 0.480590
vt  0.306854 0.518573 1.092467
vt  0.261412 0.657989 0.493531
vt  0.261412 0.978798 0.527097
vt  0.261412 0.518573 0.480590
vt  0.261412 0.018220 0.732047
vt  0.261412 0.258365 1.111176
vt  0.261412 0.518573 0.480590
vt  0.349526 0.018220 0.693611
vt  0.349526 0.978798 0.906487
vt  0.349526 0.657989 0.871952
vt  0.349526 0.657989 0.871952
vt  0.349526 0.657989 0.871952
vt  0.349526 0.258365 0.575613
vt  0.349526 0.258365 0.575613
vt  0.349526 0.258365 0.575613
vt  0.349526 0.518573 1.092467
vt  0.349526 0.518573 1.092467
vt  0.349526 0.518573 1.092467
vt  0.008506 0.917514 0.999499
vt  0.024668 0.917514 0.999499
vt  0.174067 0.630024 0.000716
vt  0.130105 0.630024 0.000499
vt  0.438684 0.011996 0.999501
vt  0.438684 0.162803 0.999501
vt  0.227307 0.162803 0.999501
vt  0.227307 0.011996 0.999501
vt  0.027940 0.007678 0.999501
vt  0.027940 0.424352 0.999501
vt  0.175226 0.841354 0.782202
vt  0.438684 0.841354 0.782202
vt  0.438684 0.990942 0.782201
vt  0.175226 0.994377 0.782201
vt  0.027940 0.366175 0.217870
vt  0.027940 0.011542 0.217870
vt  0.422170 0.011542 0.217870
vt  0.422170 0.366137 0.217798
vt  0.268146 0.418586 0.999500
vt  0.268146 0.995191 0.999500
vt  0.159324 0.995191 0.999500
vt  0.159324 0.418586 0.999500
vt  0.027940 0.995191 0.999500
vt  0.027940 0.418586 0.999500
vt  0.227307 0.162803 0.999501
vt  0.178334 0.424352 0.999501
vt  0.178334 0.007678 0.999501
vt  0.227307 0.162803 0.999501
vt  0.178334 0.424352 0.999501
vt  0.178334 0.007678 0.999501
vt  0.174067 0.523304 0.999499
vt  0.130105 0.523304 0.999499
vt  0.174067 0.523304 0.999499
vt  0.130105 0.523304 0.999499
vt  0.512836 0.990614 0.000500
vt  0.451746 0.990614 0.000500
vt  0.438684 0.498868 0.999501
vt  0.008506 0.646921 0.999499
vt  0.024668 0.646815 0.999499
vt  0.175226 0.507757 0.782202
vt  0.175226 0.507757 0.782202
vt  0.349526 0.518573 1.092467
vt  0.349526 0.518573 1.092467
vt  0.261412 0.518573 0.480590
vt  0.306854 0.518573 0.480590
vt  0.306854 0.518573 1.092467
vt  0.349526 0.518573 1.092467
vt  0.349526 0.518573 1.092467
vt  0.261412 0.518573 0.480590
vt  0.306854 0.518573 0.480590
vt  0.306854 0.518573 1.092467
vt  0.438684 0.498868 0.999501
vt  0.008506 0.646921 0.999499
vt  0.024668 0.646815 0.999499
vt  0.512836 0.580745 0.000500
vt  0.451746 0.580745 0.000500
vt  0.438684 0.507757 0.782202
vt  0.227307 0.498868 0.999501
vt  0.438684 0.507757 0.782202
vt  0.227307 0.498868 0.999501
vt  0.261412 0.518573 0.480590
vt  0.261412 0.518573 0.480590
vt  0.527959 0.267189 0.688528
vt  0.987969 0.267189 0.688528
vt  0.610201 0.311582 0.999501
vt  0.903564 0.311582 0.999500
vt  0.512836 0.990614 0.999500
vt  0.451746 0.990614 0.999500
vt  0.527959 0.557883 0.688527
vt  0.987969 0.557883 0.688527
vt  0.512836 0.580745 0.999500
vt  0.451746 0.580745 0.999500
vt  0.903564 0.557883 0.999500
vt  0.610201 0.557883 0.999500
vt  0.956110 0.039725 0.549721
vt  0.650269 0.039725 0.549720
vt  0.956111 0.222558 0.549722
vt  0.912398 0.168080 0.000501
vt  0.912398 0.085049 0.000500
vt  0.694104 0.085049 0.000499
vt  0.694104 0.168080 0.000500
vt  0.650269 0.222558 0.549721
vt  0.626382 0.016990 0.999499
vt  0.979997 0.245294 0.999501
vt  0.979997 0.016990 0.999500
vt  0.626382 0.245294 0.999499
vt  0.638325 0.028358 0.774609
vt  0.968054 0.233926 0.774611
vt  0.968054 0.028357 0.774611
vt  0.638325 0.233926 0.774610
# 227 texture vertices

vn  0.014654 0.000000 -0.999893
vn  -1.000000 0.000000 -0.000000
vn  0.006986 -0.999965 0.004633
vn  0.000000 1.000000 0.000000
vn  0.000000 1.000000 0.000000
vn  -0.000000 0.000001 1.000000
vn  -1.000000 0.000000 -0.000000
vn  0.000000 0.000000 1.000000
vn  0.000000 0.000000 -1.000000
vn  0.000000 0.000000 -1.000000
vn  0.000000 -0.999977 -0.006835
vn  0.000000 -0.000000 -1.000000
vn  0.000000 -1.000000 0.000000
vn  0.999015 0.044368 0.000000
vn  0.999222 -0.039430 0.000000
vn  -0.000000 -0.039429 0.999222
vn  0.000000 -1.000000 0.000000
vn  0.000000 0.044368 0.999015
vn  0.000000 -0.039430 -0.999222
vn  -0.999222 -0.039430 0.000000
vn  0.999997 0.002536 0.000000
vn  0.999997 0.002536 0.000000
vn  -0.000000 0.002535 0.999997
vn  0.000000 0.002535 -0.999997
vn  1.585436 0.000000 -0.014017
vn  0.000000 1.000000 0.000118
vn  -1.585436 0.000000 -0.014018
vn  -0.999961 0.000000 -0.008842
vn  0.000000 0.999779 0.021020
vn  -1.556034 0.000000 -0.013758
vn  1.556034 0.000000 -0.013757
vn  -0.999997 -0.000000 0.002561
vn  -0.999015 0.044368 0.000000
vn  0.000000 -1.000000 0.000000
vn  0.000000 -0.039429 -0.999222
vn  -0.999222 -0.039430 0.000000
vn  0.000001 0.044368 -0.999015
vn  0.000000 -1.000000 0.000000
vn  0.999222 -0.039430 0.000000
vn  -0.000000 -0.039429 0.999222
vn  -0.999997 0.002535 0.000000
vn  -0.999997 0.002535 0.000000
vn  -0.000001 0.002535 0.999997
vn  0.000001 0.002535 -0.999997
vn  -1.549316 0.000000 -0.013699
vn  -0.999961 0.000000 -0.008842
vn  1.549316 0.000000 -0.013698
vn  0.000000 0.999352 -0.035986
vn  -0.999999 0.000000 -0.001351
vn  1.592154 0.000000 -0.014077
vn  -1.592153 0.000000 -0.014078
vn  -0.000000 0.999849 0.017390
vn  -0.043883 0.000000 -1.551747
vn  0.040578 0.000000 -1.448253
vn  -0.046240 0.000000 -1.635116
vn  0.266132 1.576106 0.000000
vn  -0.043882 0.000000 1.551747
vn  0.040578 -0.000000 1.448252
vn  -0.046240 0.000000 1.635116
vn  0.266132 1.576106 -0.000000
vn  0.256934 1.521635 -0.000000
vn  0.047410 0.000000 -1.692107
vn  0.047410 -0.000000 1.692107
vn  0.256935 1.521637 -0.000000
vn  0.022501 0.000000 -3.034627
vn  -0.044924 0.000000 1.588590
vn  -0.044924 0.000000 -1.588590
vn  0.022500 0.000000 3.034627
vn  0.068047 -0.000000 -1.599435
vn  -0.108790 1.586675 -0.000000
vn  -0.108790 1.586677 -0.000000
vn  0.068046 0.000000 1.599433
vn  -0.014654 -0.000000 -0.999893
vn  1.000000 0.000000 0.000000
vn  1.000000 -0.000000 0.000000
vn  1.000000 0.000000 0.000000
vn  -0.000000 1.000000 -0.000000
vn  -0.000000 1.000000 -0.000000
vn  -0.000000 -0.000000 1.000000
vn  1.000000 0.000000 0.000000
vn  0.021431 -0.999770 0.000000
vn  -1.000000 0.000000 -0.000000
vn  0.014654 0.000000 -0.999893
vn  -1.000000 0.000000 -0.000000
vn  -1.000000 0.000000 -0.000000
vn  -0.000000 1.000000 -0.000118
vn  0.000000 0.000000 1.000000
vn  -0.000000 1.000000 -0.000000
vn  0.014654 0.000000 -0.999893
vn  -0.000025 1.000000 -0.000041
vn  -1.000000 0.000000 -0.000000
vn  0.000000 -0.999742 -0.022729
vn  -0.000000 1.000000 -0.000076
vn  1.000000 0.000000 0.000000
vn  -0.021430 -0.999770 -0.000000
vn  -0.014654 -0.000000 -0.999893
vn  -0.006986 -0.999965 0.004633
vn  0.222699 0.974680 0.020100
vn  1.000000 0.000000 0.000000
vn  -0.014654 -0.000000 -0.999893
vn  1.000000 0.000000 0.000000
vn  0.000025 1.000000 -0.000041
vn  0.999961 0.000000 -0.008841
vn  0.000000 1.000000 0.000118
vn  0.999997 -0.000000 0.002562
vn  0.000000 0.999779 0.021020
vn  0.000000 0.999352 -0.035986
vn  0.999961 0.000000 -0.008841
vn  -0.000000 0.999849 0.017389
vn  0.999999 0.000000 -0.001351
vn  -1.000000 0.000000 -0.000000
vn  -0.142767 0.989672 0.012886
vn  0.000000 1.000000 0.000000
vn  0.000000 -0.999768 0.021521
vn  1.552177 0.000000 0.022166
vn  0.000000 0.999118 0.041986
vn  0.999898 -0.000000 0.014279
vn  -1.552177 0.000000 0.022165
vn  -1.510449 0.000000 0.009535
vn  0.999980 0.000000 0.006313
vn  0.000000 0.997503 0.070629
vn  1.510449 0.000000 0.009535
vn  1.000000 -0.000000 0.000000
vn  0.222699 0.974680 0.020100
vn  0.222699 0.974680 0.020100
vn  1.000000 0.000000 0.000000
vn  0.000000 -0.999768 0.021521
vn  -1.000000 0.000000 -0.000000
vn  0.000000 -0.999768 0.021521
vn  1.000000 0.000000 0.000000
vn  -0.999898 -0.000000 0.014278
vn  0.000000 0.999118 0.041986
vn  -0.000000 0.997503 0.070629
vn  -0.999980 0.000000 0.006312
vn  -1.000000 0.000000 -0.000000
vn  0.257019 0.932447 -0.253937
vn  -1.000000 -0.000000 -0.000000
vn  -1.000000 -0.000000 -0.000000
vn  1.000000 0.000000 0.000000
vn  -0.472212 0.881485 -0.000000
vn  -0.243428 0.969919 -0.000000
vn  0.243428 0.969919 0.000000
vn  0.184827 0.963250 -0.194908
vn  -0.184827 0.963250 -0.194908
vn  0.225485 0.968587 -0.104861
vn  -0.224503 0.968804 -0.104959
vn  -0.230877 0.912815 0.336846
vn  -1.032080 -3.277889 -1.981164
vn  0.852475 -4.067184 1.105553
vn  1.053433 -3.311715 -1.967585
vn  -0.198245 -0.945834 0.257095
vn  -0.092389 -0.132600 -1.839352
vn  0.394963 -1.619886 1.647572
vn  0.567243 -1.036887 -1.908764
vn  -0.546248 -0.689340 0.475841
vn  1.379576 -0.456804 -1.332952
vn  1.109592 -0.846969 1.155331
vn  0.233697 0.944830 0.229527
vn  -0.232695 0.945051 0.229634
vn  0.000000 0.044368 -0.999015
vn  0.000000 -1.000000 0.000000
vn  -0.999015 0.044368 0.000000
vn  0.000000 -1.000000 0.000000
vn  0.000000 -1.000000 0.000000
vn  -0.000001 0.044368 0.999015
vn  0.000000 -1.000000 0.000000
vn  0.999015 0.044368 0.000000
vn  0.000000 0.044368 0.999015
vn  0.000000 -0.039430 -0.999222
vn  0.999222 -0.039430 0.000000
vn  -0.999015 0.044368 0.000000
vn  -0.999222 -0.039430 0.000000
vn  -0.000000 -0.039429 0.999222
vn  0.000000 0.002535 -0.999997
vn  0.000000 0.002535 0.999997
vn  -0.999997 0.002535 0.000000
vn  -0.999997 0.002535 0.000000
vn  0.000001 0.044368 -0.999015
vn  -0.999222 -0.039430 0.000000
vn  -0.000001 -0.039429 0.999222
vn  0.999015 0.044368 0.000000
vn  0.000001 -0.039430 -0.999222
vn  0.999222 -0.039430 0.000000
vn  0.000001 0.002535 -0.999997
vn  -0.000001 0.002535 0.999997
vn  0.999997 0.002536 0.000000
vn  0.999997 0.002536 0.000000
vn  0.999015 0.044368 0.000000
vn  0.000000 0.044368 -0.999015
vn  -0.999015 0.044368 0.000000
vn  -0.000001 0.044368 0.999015
vn  -1.379578 -0.456800 -1.332952
vn  1.000000 0.000000 0.000000
vn  -0.257019 0.932447 -0.253938
vn  0.472212 0.881485 0.000000
vn  -1.000000 -0.000000 -0.000000
vn  -0.642139 -0.463664 0.610469
vn  0.271706 0.940951 -0.201957
vn  0.231074 0.912584 0.337336
vn  -0.271398 0.941186 -0.201277
# 200 vertex normals

g tou
s 4
f 2/8/2 82/5/82 84/6/84
f 84/6/84 85/7/85 2/8/2
f 85/162/85 84/6/84 111/174/111
f 111/174/111 128/195/128 85/162/85
s 0
f 113/176/113 5/2/5 4/1/4
f 4/1/4 112/175/112 113/176/113
s 4
f 91/10/91 7/9/7 2/164/2
f 2/164/2 85/163/85 91/10/91
s 0
f 87/4/87 8/3/8 4/168/4
f 4/168/4 5/169/5 87/4/87
s 8
f 92/14/92 11/11/11 3/12/3
f 3/12/3 81/13/81 92/14/92
s 64
f 10/22/10 9/19/9 1/20/1
f 1/20/1 83/21/83 10/22/10
s 8
f 11/11/11 114/177/114 127/194/127
f 127/194/127 3/12/3 11/11/11
s 64
f 12/24/12 10/22/10 83/21/83
f 83/21/83 89/23/89 12/24/12
s 70
f 90/17/90 86/18/86 93/15/93
f 93/15/93 88/16/88 90/17/90
s 2
f 14/32/14 188/29/188 21/30/21
f 21/30/21 22/31/22 14/32/14
s 4
f 177/36/177 162/33/162 171/34/171
f 171/34/171 176/35/176 177/36/177
s 8
f 163/27/163 17/28/17 13/25/13
f 13/25/13 161/26/161 163/27/163
s 16
f 18/34/18 168/47/168 175/45/175
f 175/45/175 23/35/23 18/34/18
s 64
f 19/38/19 169/37/169 174/30/174
f 174/30/174 24/42/24 19/38/19
s 2
f 22/31/22 21/30/21 15/37/15
f 15/37/15 170/39/170 22/31/22
s 4
f 177/43/177 176/35/176 20/40/20
f 20/40/20 172/46/172 177/43/177
s 16
f 23/35/23 175/45/175 16/48/16
f 16/48/16 173/40/173 23/35/23
s 64
f 24/44/24 174/30/174 160/29/160
f 160/29/160 189/41/189 24/44/24
s 2
f 31/55/31 25/49/25 103/50/103
f 103/50/103 105/53/105 31/55/31
s 4
f 28/52/28 27/51/27 30/54/30
f 30/54/30 32/56/32 28/52/28
s 8
f 27/51/27 25/59/25 31/60/31
f 31/60/31 30/54/30 27/51/27
s 2
f 31/61/31 105/53/105 117/182/117
f 117/182/117 115/180/115 31/61/31
s 4
f 131/198/131 32/56/32 30/54/30
f 30/54/30 118/183/118 131/198/131
s 8
f 30/54/30 31/62/31 115/179/115
f 115/179/115 118/183/118 30/54/30
s 32
f 106/58/106 29/53/29 26/50/26
f 26/50/26 104/57/104 106/58/106
f 116/181/116 132/182/132 29/53/29
f 29/53/29 106/58/106 116/181/116
s 2
f 190/70/190 42/69/42 41/68/41
f 41/68/41 33/67/33 190/70/190
s 4
f 187/74/187 186/73/186 167/72/167
f 167/72/167 181/71/181 187/74/187
s 8
f 38/65/38 34/64/34 164/63/164
f 164/63/164 166/66/166 38/65/38
s 16
f 191/72/191 43/73/43 185/83/185
f 185/83/185 165/85/165 191/72/191
s 64
f 182/76/182 44/80/44 184/68/184
f 184/68/184 35/75/35 182/76/182
s 2
f 42/69/42 36/77/36 179/75/179
f 179/75/179 41/68/41 42/69/42
s 4
f 187/81/187 39/84/39 183/78/183
f 183/78/183 186/73/186 187/81/187
s 16
f 43/73/43 40/78/40 180/86/180
f 180/86/180 185/83/185 43/73/43
s 64
f 44/82/44 37/79/37 178/67/178
f 178/67/178 184/68/184 44/82/44
s 2
f 51/93/51 49/91/49 46/88/46
f 46/88/46 45/87/45 51/93/51
s 4
f 108/90/108 110/94/110 50/92/50
f 50/92/50 47/89/47 108/90/108
s 8
f 47/89/47 50/92/50 51/98/51
f 51/98/51 45/97/45 47/89/47
s 2
f 51/99/51 119/184/119 134/187/134
f 134/187/134 49/91/49 51/99/51
s 4
f 120/186/120 122/188/122 50/92/50
f 50/92/50 110/94/110 120/186/120
s 8
f 50/92/50 122/188/122 119/185/119
f 119/185/119 51/100/51 50/92/50
s 32
f 52/96/52 48/95/48 107/88/107
f 107/88/107 109/91/109 52/96/52
f 133/199/133 52/96/52 109/91/109
f 109/91/109 121/187/121 133/199/133
s 2
f 67/115/67 53/101/53 55/103/55
f 55/103/55 65/113/65 67/115/67
s 4
f 59/107/59 57/105/57 66/114/66
f 66/114/66 68/116/68 59/107/59
s 8
f 57/105/57 53/127/53 67/132/67
f 67/132/67 66/114/66 57/105/57
s 32
f 60/122/60 56/104/56 61/109/61
f 61/109/61 64/121/64 60/122/60
s 2
f 62/110/62 61/109/61 56/104/56
f 56/104/56 54/102/54 62/110/62
s 4
f 64/112/64 63/111/63 58/106/58
f 58/106/58 60/108/60 64/112/64
s 8
f 63/111/63 62/129/62 54/128/54
f 54/128/54 58/106/58 63/111/63
s 32
f 64/121/64 61/109/61 71/119/71
f 71/119/71 70/123/70 64/121/64
s 2
f 67/133/67 65/113/65 71/119/71
f 71/119/71 69/117/69 67/133/67
s 4
f 70/118/70 68/116/68 66/114/66
f 66/114/66 72/120/72 70/118/70
s 8
f 66/114/66 67/134/67 69/135/69
f 69/135/69 72/120/72 66/114/66
s 32
f 68/125/68 65/113/65 55/103/55
f 55/103/55 59/124/59 68/125/68
f 70/126/70 71/119/71 65/113/65
f 65/113/65 68/125/68 70/126/70
s 2
f 69/136/69 71/119/71 61/109/61
f 61/109/61 62/130/62 69/136/69
s 4
f 64/112/64 70/118/70 72/120/72
f 72/120/72 63/111/63 64/112/64
s 8
f 72/120/72 69/137/69 62/131/62
f 62/131/62 63/111/63 72/120/72
s 4
f 74/145/74 76/144/76 75/143/75
f 75/143/75 94/142/94 74/145/74
f 76/165/76 130/197/130 123/189/123
f 123/189/123 75/143/75 76/165/76
s 0
f 125/191/125 124/190/124 98/138/98
f 98/138/98 77/139/77 125/191/125
s 4
f 101/147/101 76/166/76 74/167/74
f 74/167/74 99/146/99 101/147/101
s 0
f 6/141/6 77/171/77 98/170/98
f 98/170/98 79/140/79 6/141/6
s 8
f 92/151/92 95/150/95 97/149/97
f 97/149/97 11/148/11 92/151/92
s 64
f 10/159/10 96/158/96 73/157/73
f 73/157/73 9/156/9 10/159/10
s 8
f 11/148/11 97/149/97 129/196/129
f 129/196/129 114/178/114 11/148/11
s 64
f 12/161/12 100/160/100 96/158/96
f 96/158/96 10/159/10 12/161/12
s 70
f 102/154/102 78/153/78 93/152/93
f 93/152/93 86/155/86 102/154/102
s 1
f 80/173/80 193/172/193 139/192/139
f 139/192/139 126/193/126 80/173/80
f 141/210/141 142/211/142 143/202/143
f 143/202/143 144/203/144 141/210/141
f 138/204/138 135/205/135 137/209/137
f 137/209/137 196/208/196 138/204/138
f 144/203/144 194/201/194 140/207/140
f 140/207/140 141/210/141 144/203/144
f 194/201/194 144/203/144 143/202/143
f 143/202/143 136/200/136 194/201/194
f 192/213/192 156/212/156 154/226/154
f 154/226/154 152/224/152 192/213/192
f 159/218/159 158/215/158 145/216/145
f 145/216/145 146/217/146 159/218/159
f 152/224/152 155/227/155 197/219/197
f 197/219/197 192/213/192 152/224/152
f 198/212/198 145/216/145 158/215/158
f 158/215/158 199/214/199 198/212/198
f 146/217/146 145/216/145 198/212/198
f 198/212/198 200/213/200 146/217/146
f 200/213/200 147/219/147 159/218/159
f 159/218/159 146/217/146 200/213/200
f 159/218/159 147/219/147 199/214/199
f 199/214/199 158/215/158 159/218/159
f 157/214/157 197/219/197 155/227/155
f 155/227/155 153/225/153 157/214/157
f 153/225/153 149/221/149 150/222/150
f 150/222/150 154/226/154 153/225/153
f 152/224/152 154/226/154 150/222/150
f 150/222/150 148/220/148 152/224/152
f 155/227/155 152/224/152 148/220/148
f 148/220/148 151/223/151 155/227/155
f 153/225/153 155/227/155 151/223/151
f 151/223/151 149/221/149 153/225/153
f 157/214/157 153/225/153 154/226/154
f 154/226/154 156/212/156 157/214/157
f 143/202/143 142/211/142 195/206/195
f 195/206/195 136/200/136 143/202/143
# 178 faces

g
# object wei to come ...
#
v  -0.006088 34.536156 -99.916626
v  -0.006107 33.050819 0.084396
v  -0.006088 43.776886 -99.916626
v  -0.006107 44.675289 0.084396
v  6.221706 44.675289 -99.916168
v  6.221687 44.675289 -4.511765
v  49.993912 34.536156 -99.916611
v  49.993896 35.977051 0.084412
v  49.993896 44.675289 0.084412
v  49.993896 44.675289 -4.511765
v  10.010777 14.611290 -13.789520
v  10.010777 19.022421 -13.789520
v  4.662979 14.611290 -13.789520
v  4.662979 19.022417 -13.789520
v  9.536724 20.864954 -72.512497
v  9.536724 17.235880 -72.512497
v  5.137039 17.235880 -72.512497
v  5.137039 20.864954 -72.512497
v  9.802925 14.141506 -99.913116
v  4.870831 18.209749 -99.913116
v  9.802925 18.209749 -99.913116
v  4.870831 14.141506 -99.913116
v  11.956806 -0.128418 -7.422241
v  11.956806 -0.128418 -16.662109
v  11.956802 34.204651 -7.422241
v  11.956802 34.204651 -16.662109
v  2.716942 -0.128418 -7.422241
v  2.716942 -0.128418 -16.662109
v  2.716942 34.204651 -7.422241
v  2.716942 34.204651 -16.662109
v  11.239418 16.024698 -8.139633
v  11.239418 16.024698 -15.944717
v  3.434326 16.024698 -15.944717
v  3.434326 16.024698 -8.139633
v  90.006607 14.611294 -13.789505
v  90.006607 19.022425 -13.789505
v  95.354401 14.611294 -13.789505
v  95.354401 19.022421 -13.789505
v  90.140137 18.912287 -72.512482
v  90.140137 14.721428 -72.512482
v  95.220886 14.721428 -72.512482
v  95.220886 18.912287 -72.512482
v  89.856583 13.846310 -99.913109
v  95.504448 18.504957 -99.913109
v  89.856583 18.504957 -99.913109
v  95.504448 13.846310 -99.913109
v  88.060577 -0.128414 -7.422226
v  88.060577 -0.128414 -16.662094
v  88.060570 34.204655 -7.422226
v  88.060570 34.204655 -16.662094
v  97.300430 -0.128414 -7.422226
v  97.300430 -0.128414 -16.662094
v  97.300430 34.204655 -7.422226
v  97.300430 34.204655 -16.662094
v  88.777954 16.024702 -8.139618
v  88.777954 16.024702 -15.944702
v  96.583046 16.024702 -15.944702
v  96.583046 16.024702 -8.139618
v  8.310032 14.754597 -13.413727
v  95.450989 15.546656 -13.238297
v  8.310032 18.541212 -13.413727
v  95.450989 19.043890 -13.238297
v  8.310032 14.754597 -8.823059
v  95.450989 15.546656 -8.998459
v  8.310032 18.541212 -8.823059
v  95.450989 19.043890 -8.998459
v  79.897751 19.781528 -13.524292
v  79.897751 15.812500 -13.524292
v  79.897751 15.812500 -8.712479
v  79.897751 19.781528 -8.712479
v  29.725559 19.848078 -13.981506
v  29.725557 15.124794 -8.255280
v  29.725559 15.124794 -13.981506
v  29.725557 19.848078 -8.255280
v  52.930325 14.911114 -12.994278
v  52.930321 18.005764 -9.242508
v  52.930325 18.005764 -12.994278
v  52.930325 14.911110 -9.242508
v  99.993912 34.536160 -99.916603
v  99.993896 33.050827 0.084412
v  99.993912 43.252342 -99.916603
v  99.993896 44.675293 0.084412
v  93.766129 44.675293 -99.916153
v  93.766106 44.675293 -4.511749
v  -0.006088 34.536156 -99.916626
v  -0.006107 33.050819 0.084396
v  -0.006107 33.050819 0.084396
v  -0.006088 43.776886 -99.916626
v  -0.006107 44.675289 0.084396
v  -0.006107 44.675289 0.084396
v  49.993896 35.977051 0.084412
v  49.993896 44.675289 0.084412
v  99.993912 34.536160 -99.916603
v  99.993896 33.050827 0.084412
v  99.993896 33.050827 0.084412
v  99.993912 43.252342 -99.916603
v  99.993896 44.675293 0.084412
v  99.993896 44.675293 0.084412
v  10.010777 19.022421 -13.789520
v  4.662979 19.022417 -13.789520
v  9.536724 20.864954 -72.512497
v  5.137039 20.864954 -72.512497
v  4.870831 18.209749 -99.913116
v  9.802925 18.209749 -99.913116
v  90.006607 19.022425 -13.789505
v  95.354401 19.022421 -13.789505
v  90.140137 18.912287 -72.512482
v  95.220886 18.912287 -72.512482
v  95.504448 18.504957 -99.913109
v  89.856583 18.504957 -99.913109
v  97.667297 43.082870 -99.918015
v  2.320530 43.082863 -99.918030
v  97.667282 43.865421 -2.511475
v  2.320511 43.865417 -2.511490
v  97.667297 56.718739 -99.918015
v  2.320526 56.718735 -99.918030
v  14.085381 63.021172 -99.917938
v  85.902428 63.021172 -12.574051
v  85.902435 63.021172 -99.917923
v  97.667282 43.865421 -2.511475
v  2.320511 43.865417 -2.511490
v  11.956806 -0.128418 -7.422241
v  11.956806 -0.128418 -16.662109
v  2.716942 -0.128418 -7.422241
v  2.716942 -0.128418 -16.662109
v  88.060577 -0.128414 -7.422226
v  88.060577 -0.128414 -16.662094
v  97.300430 -0.128414 -7.422226
v  97.300430 -0.128414 -16.662094
v  11.956806 -0.128418 -7.422241
v  11.956802 34.204651 -7.422241
v  11.956802 34.204651 -16.662109
v  2.716942 -0.128418 -7.422241
v  2.716942 34.204651 -7.422241
v  2.716942 34.204651 -16.662109
v  11.239418 16.024698 -8.139633
v  11.239418 16.024698 -15.944717
v  3.434326 16.024698 -15.944717
v  3.434326 16.024698 -8.139633
v  88.060577 -0.128414 -16.662094
v  88.060570 34.204655 -7.422226
v  88.060570 34.204655 -16.662094
v  97.300430 -0.128414 -16.662094
v  97.300430 34.204655 -7.422226
v  97.300430 34.204655 -16.662094
v  88.777954 16.024702 -8.139618
v  88.777954 16.024702 -15.944702
v  96.583046 16.024702 -15.944702
v  96.583046 16.024702 -8.139618
v  11.956806 -0.128418 -16.662109
v  2.716942 -0.128418 -16.662109
v  88.060577 -0.128414 -7.422226
v  97.300430 -0.128414 -7.422226
v  14.085361 63.021172 -12.574081
v  2.320511 56.718735 -2.511490
v  97.667282 56.718739 -2.511475
v  97.667297 56.718739 -99.918015
v  2.320526 56.718735 -99.918030
v  2.320511 56.718735 -2.511490
v  2.320511 56.718735 -2.511490
v  97.667282 56.718739 -2.511475
v  97.667282 56.718739 -2.511475
# 162 vertices

vt  0.008506 0.646921 0.999499
vt  0.024668 0.646815 0.999499
vt  0.008506 0.337162 0.999500
vt  0.024668 0.337162 0.999500
vt  0.008506 0.068035 0.999501
vt  0.024668 0.068035 0.999501
vt  0.438684 0.498868 0.999501
vt  0.438684 0.989778 0.999501
vt  0.227307 0.989778 0.999501
vt  0.227307 0.498868 0.999501
vt  0.175226 0.010837 0.782202
vt  0.438684 0.010837 0.782202
vt  0.438684 0.507757 0.782202
vt  0.175226 0.507757 0.782202
vt  0.159324 0.418586 0.000500
vt  0.159324 0.995191 0.000500
vt  0.268146 0.995191 0.000500
vt  0.268146 0.418586 0.000500
vt  0.349526 0.978798 0.906487
vt  0.306854 0.978798 0.527097
vt  0.306854 0.978798 0.906487
vt  0.261412 0.978798 0.527097
vt  0.306854 0.657989 0.493531
vt  0.349526 0.657989 0.871952
vt  0.306854 0.657989 0.871952
vt  0.261412 0.657989 0.493531
vt  0.261412 0.518573 0.480590
vt  0.306854 0.518573 0.480590
vt  0.306854 0.518573 1.092467
vt  0.261412 0.657989 0.493531
vt  0.261412 0.978798 0.527097
vt  0.261412 0.518573 0.480590
vt  0.349526 0.978798 0.906487
vt  0.349526 0.657989 0.871952
vt  0.349526 0.657989 0.871952
vt  0.349526 0.657989 0.871952
vt  0.349526 0.518573 1.092467
vt  0.349526 0.518573 1.092467
vt  0.307963 0.323842 0.429448
vt  0.379450 0.323842 1.070552
vt  0.379450 0.404622 0.378817
vt  0.307963 0.404622 -0.262287
vt  0.329834 0.633753 1.412800
vt  0.329834 0.451217 1.193420
vt  0.248985 0.451217 1.193420
vt  0.248985 0.633753 1.412800
vt  0.438684 0.633753 1.412801
vt  0.329834 0.633753 1.412800
vt  0.329834 0.451217 1.193420
vt  0.438684 0.451217 1.193420
vt  0.329834 0.268681 1.412800
vt  0.438684 0.268681 1.412800
vt  0.248985 0.268681 1.412801
vt  0.329834 0.268681 1.412800
vt  0.438684 0.633753 1.412801
vt  0.438684 0.451217 1.193420
vt  0.438684 0.451217 1.193420
vt  0.438684 0.451217 1.193420
vt  0.248985 0.451217 1.193420
vt  0.438684 0.268681 1.412800
vt  0.248985 0.633753 1.412800
vt  0.248985 0.268681 1.412801
vt  0.349526 0.978798 0.906487
vt  0.306854 0.978798 0.527097
vt  0.306854 0.978798 0.906487
vt  0.261412 0.978798 0.527097
vt  0.306854 0.657989 0.493531
vt  0.349526 0.657989 0.871952
vt  0.306854 0.657989 0.871952
vt  0.261412 0.657989 0.493531
vt  0.261412 0.518573 0.480590
vt  0.306854 0.518573 0.480590
vt  0.306854 0.518573 1.092467
vt  0.261412 0.657989 0.493531
vt  0.261412 0.978798 0.527097
vt  0.261412 0.518573 0.480590
vt  0.349526 0.978798 0.906487
vt  0.349526 0.657989 0.871952
vt  0.349526 0.657989 0.871952
vt  0.349526 0.657989 0.871952
vt  0.349526 0.518573 1.092467
vt  0.349526 0.518573 1.092467
vt  0.307963 0.323842 0.429448
vt  0.379450 0.323842 1.070552
vt  0.379450 0.404622 0.378817
vt  0.307963 0.404622 -0.262287
vt  0.329834 0.633753 1.412800
vt  0.329834 0.451217 1.193420
vt  0.248985 0.451217 1.193420
vt  0.248985 0.633753 1.412800
vt  0.438684 0.633753 1.412801
vt  0.329834 0.633753 1.412800
vt  0.329834 0.451217 1.193420
vt  0.438684 0.451217 1.193420
vt  0.329834 0.268681 1.412800
vt  0.438684 0.268681 1.412800
vt  0.248985 0.268681 1.412801
vt  0.329834 0.268681 1.412800
vt  0.438684 0.633753 1.412801
vt  0.438684 0.451217 1.193420
vt  0.438684 0.451217 1.193420
vt  0.438684 0.451217 1.193420
vt  0.248985 0.451217 1.193420
vt  0.438684 0.268681 1.412800
vt  0.248985 0.633753 1.412800
vt  0.248985 0.268681 1.412801
vt  0.349526 0.018220 0.693611
vt  0.349526 0.978798 0.906487
vt  0.306854 0.018220 0.732047
vt  0.306854 0.978798 0.527097
vt  0.306854 0.018220 0.693611
vt  0.306854 0.978798 0.906487
vt  0.261412 0.018220 0.732047
vt  0.261412 0.978798 0.527097
vt  0.306854 0.657989 0.493531
vt  0.349526 0.657989 0.871952
vt  0.306854 0.657989 0.871952
vt  0.261412 0.657989 0.493531
vt  0.306854 0.258365 1.111176
vt  0.306854 0.258365 0.575613
vt  0.349526 0.258365 0.575613
vt  0.261412 0.258365 1.111176
vt  0.349526 0.518573 1.092467
vt  0.261412 0.518573 0.480590
vt  0.306854 0.518573 0.480590
vt  0.306854 0.518573 1.092467
vt  0.261412 0.657989 0.493531
vt  0.261412 0.978798 0.527097
vt  0.261412 0.518573 0.480590
vt  0.261412 0.018220 0.732047
vt  0.261412 0.258365 1.111176
vt  0.261412 0.518573 0.480590
vt  0.349526 0.018220 0.693611
vt  0.349526 0.978798 0.906487
vt  0.349526 0.657989 0.871952
vt  0.349526 0.657989 0.871952
vt  0.349526 0.657989 0.871952
vt  0.349526 0.258365 0.575613
vt  0.349526 0.258365 0.575613
vt  0.349526 0.258365 0.575613
vt  0.349526 0.518573 1.092467
vt  0.349526 0.518573 1.092467
vt  0.349526 0.518573 1.092467
vt  0.008506 0.646921 0.999499
vt  0.024668 0.646815 0.999499
vt  0.008506 0.337162 0.999500
vt  0.024668 0.337162 0.999500
vt  0.008506 0.068035 0.999501
vt  0.024668 0.068035 0.999501
vt  0.438684 0.498868 0.999501
vt  0.438684 0.989778 0.999501
vt  0.227307 0.989778 0.999501
vt  0.227307 0.498868 0.999501
vt  0.175226 0.010837 0.782202
vt  0.438684 0.010837 0.782202
vt  0.438684 0.507757 0.782202
vt  0.175226 0.507757 0.782202
vt  0.159324 0.418586 0.000500
vt  0.159324 0.995191 0.000500
vt  0.268146 0.995191 0.000500
vt  0.268146 0.418586 0.000500
vt  0.987969 0.987434 0.688526
vt  0.527959 0.557883 0.688527
vt  0.987969 0.557883 0.688527
vt  0.527959 0.987434 0.688527
vt  0.903564 0.557883 0.999500
vt  0.903564 0.904811 0.999499
vt  0.610201 0.904811 0.999499
vt  0.610201 0.557883 0.999500
vt  0.451746 0.580745 0.999500
vt  0.512836 0.580745 0.999500
vt  0.451746 0.580745 0.000500
vt  0.512836 0.580745 0.000500
vt  0.512836 0.015868 0.000499
vt  0.451746 0.015868 0.000499
vt  0.451746 0.015868 0.999500
vt  0.512836 0.015868 0.999500
vt  0.525480 0.245802 -0.943255
vt  0.602009 0.245802 -1.942255
vt  0.602009 0.015643 -4.016235
vt  0.525480 0.015643 -3.017234
# 181 texture vertices

vn  -1.000000 0.000000 -0.000000
vn  0.041195 -0.999135 0.005757
vn  -0.142779 0.989755 -0.000000
vn  -0.000000 -0.000000 1.000000
vn  -0.142779 0.989755 -0.000000
vn  -0.142779 0.989755 -0.000000
vn  0.000000 -0.999981 -0.006216
vn  0.000000 -0.999896 0.014407
vn  -0.000000 -0.000000 1.000000
vn  -0.000000 1.000000 -0.000000
vn  1.526083 0.000000 -0.012320
vn  0.999967 0.000000 -0.008072
vn  -1.526083 0.000000 -0.012320
vn  -0.000001 0.999508 0.031361
vn  1.000000 0.000000 0.000629
vn  1.615407 0.000000 -0.013041
vn  -1.615407 0.000000 -0.013041
vn  0.000000 0.999467 -0.032644
vn  1.458279 0.000000 0.014167
vn  0.000000 0.995338 -0.096451
vn  0.999953 0.000000 0.009715
vn  -1.458279 0.000000 0.014168
vn  0.999015 0.044368 0.000000
vn  0.000000 -1.000000 0.000000
vn  0.000000 -0.039430 0.999222
vn  0.999222 -0.039430 0.000000
vn  0.000000 0.044368 0.999015
vn  0.000000 -1.000000 0.000000
vn  -0.999222 -0.039430 0.000000
vn  0.000000 -0.039430 -0.999222
vn  0.999997 0.002536 0.000000
vn  0.999997 0.002536 0.000000
vn  0.000000 0.002535 -0.999997
vn  0.000000 0.002535 0.999997
vn  -1.568917 -0.000001 -0.003568
vn  0.000001 0.999998 -0.001876
vn  1.568917 0.000000 -0.003567
vn  0.999997 0.000000 -0.002274
vn  0.000000 0.999965 -0.008387
vn  -1.572668 -0.000000 -0.003576
vn  1.572668 0.000000 -0.003576
vn  0.999992 0.000000 0.004004
vn  -1.538789 0.000000 0.015924
vn  0.999946 0.000000 0.010348
vn  0.000000 0.999890 -0.014864
vn  1.538789 0.000000 0.015925
vn  0.000000 -1.000000 0.000000
vn  -0.999015 0.044368 0.000000
vn  -0.999222 -0.039430 0.000000
vn  0.000000 -0.039430 -0.999222
vn  0.000000 -1.000000 0.000000
vn  0.000000 0.044368 -0.999015
vn  0.000000 -0.039430 0.999222
vn  0.999222 -0.039430 0.000000
vn  -0.999997 0.002535 0.000000
vn  -0.999997 0.002535 0.000000
vn  0.000000 0.002535 -0.999997
vn  0.000000 0.002535 0.999997
vn  -0.041173 0.000000 -1.552972
vn  0.028565 0.000000 -1.553446
vn  -0.043246 0.000000 -1.631150
vn  0.075284 1.587378 0.000000
vn  -0.041173 0.000000 1.552972
vn  0.028563 -0.000000 1.553446
vn  -0.043246 0.000000 1.631150
vn  0.075284 1.587376 0.000000
vn  0.073544 1.550688 0.000000
vn  0.029193 0.000000 -1.587616
vn  0.029192 -0.000000 1.587615
vn  0.073544 1.550689 0.000000
vn  0.023387 0.000000 -2.999631
vn  -0.042089 0.000000 1.587517
vn  -0.042089 0.000000 -1.587517
vn  0.023387 0.000000 2.999631
vn  0.066377 -0.000000 -1.560186
vn  -0.104499 1.586968 -0.000000
vn  -0.104500 1.586970 -0.000000
vn  0.066377 0.000000 1.560184
vn  1.000000 0.000000 0.000000
vn  -0.041195 -0.999135 0.005757
vn  0.010500 0.999844 -0.014227
vn  0.000000 0.000000 1.000000
vn  0.222743 0.974877 0.000000
vn  0.010500 0.999844 -0.014227
vn  0.000000 -0.999890 -0.014852
vn  -0.000000 0.000000 1.000000
vn  -1.000000 0.000000 -0.000000
vn  -1.000000 0.000000 -0.000000
vn  -0.006630 0.999938 -0.008983
vn  -1.000000 0.000000 -0.000000
vn  -0.000000 -0.000000 1.000000
vn  -0.000000 1.000000 -0.000000
vn  0.000000 -0.999890 -0.014852
vn  1.000000 0.000000 0.000000
vn  0.000000 0.000000 1.000000
vn  1.000000 0.000000 0.000000
vn  1.000000 0.000000 0.000000
vn  0.010500 0.999844 -0.014227
vn  -0.000001 0.999508 0.031361
vn  -0.999967 0.000000 -0.008073
vn  -0.000000 0.999467 -0.032644
vn  -1.000000 0.000000 0.000629
vn  -0.999953 0.000000 0.009715
vn  0.000000 0.995338 -0.096451
vn  -0.999997 -0.000001 -0.002274
vn  0.000001 0.999998 -0.001876
vn  -0.999992 0.000000 0.004003
vn  0.000000 0.999965 -0.008387
vn  0.000000 0.999890 -0.014864
vn  -0.999946 0.000000 0.010348
vn  1.000000 0.000000 0.000000
vn  -1.000000 -0.000000 -0.000000
vn  1.000000 0.000000 0.000000
vn  -0.000000 0.000000 1.000000
vn  0.472212 0.881485 0.000000
vn  -1.000000 -0.000000 -0.000000
vn  -0.243429 0.969919 -0.000000
vn  0.181948 0.959074 0.216961
vn  0.243429 0.969919 0.000000
vn  -0.000000 0.000000 1.000000
vn  -1.000000 0.000000 -0.000000
vn  0.000000 -1.000000 0.000000
vn  0.000000 0.044368 -0.999015
vn  0.000000 -1.000000 0.000000
vn  -0.999015 0.044368 0.000000
vn  0.000000 0.044368 0.999015
vn  0.000000 -1.000000 0.000000
vn  0.999015 0.044368 0.000000
vn  0.000000 -1.000000 0.000000
vn  0.000000 0.044368 0.999015
vn  0.999222 -0.039430 0.000000
vn  0.000000 -0.039430 -0.999222
vn  -0.999015 0.044368 0.000000
vn  0.000000 -0.039430 0.999222
vn  -0.999222 -0.039430 0.000000
vn  0.000000 0.002535 0.999997
vn  0.000000 0.002535 -0.999997
vn  -0.999997 0.002535 0.000000
vn  -0.999997 0.002535 0.000000
vn  0.000000 0.044368 -0.999015
vn  0.000000 -0.039430 0.999222
vn  -0.999222 -0.039430 0.000000
vn  0.999015 0.044368 0.000000
vn  0.999222 -0.039430 0.000000
vn  0.000000 -0.039430 -0.999222
vn  0.000000 0.002535 0.999997
vn  0.000000 0.002535 -0.999997
vn  0.999997 0.002535 0.000000
vn  0.999997 0.002535 0.000000
vn  0.999015 0.044368 0.000000
vn  0.000000 0.044368 -0.999015
vn  -0.999015 0.044368 0.000000
vn  0.000000 0.044368 0.999015
vn  -0.181949 0.959074 0.216961
vn  -0.000000 0.000000 1.000000
vn  1.000000 0.000000 0.000000
vn  1.000000 0.000000 0.000000
vn  -0.472212 0.881485 -0.000000
vn  -0.272356 0.925972 0.261528
vn  -1.000000 -0.000000 -0.000000
vn  0.272356 0.925973 0.261528
vn  -0.000000 0.000000 1.000000
# 162 vertex normals

g wei
s 4
f 288/237/288 201/234/201 287/235/287
f 287/235/287 290/236/290 288/237/288
s 0
f 206/231/206 205/229/205 203/228/203
f 203/228/203 289/230/289 206/231/206
f 206/231/206 289/230/289 292/232/292
f 292/232/292 210/233/210 206/231/206
s 8
f 207/241/207 208/238/208 202/239/202
f 202/239/202 285/240/285 207/241/207
s 16
f 291/245/291 209/242/209 204/243/204
f 204/243/204 286/244/286 291/245/291
s 32
f 214/258/214 299/247/299 301/250/301
f 301/250/301 218/257/218 214/258/214
s 2
f 216/251/216 215/250/215 212/247/212
f 212/247/212 211/246/211 216/251/216
s 4
f 302/253/302 217/252/217 213/248/213
f 213/248/213 300/249/300 302/253/302
s 8
f 217/252/217 216/261/216 211/260/211
f 211/260/211 213/248/213 217/252/217
s 32
f 218/257/218 301/250/301 304/255/304
f 304/255/304 220/259/220 218/257/218
s 2
f 219/264/219 221/255/221 215/250/215
f 215/250/215 216/262/216 219/264/219
s 4
f 302/253/302 303/254/303 222/256/222
f 222/256/222 217/252/217 302/253/302
s 8
f 222/256/222 219/265/219 216/263/216
f 216/263/216 217/252/217 222/256/222
s 2
f 350/273/350 232/272/232 231/271/231
f 231/271/231 223/270/223 350/273/350
s 4
f 339/277/339 338/276/338 325/275/325
f 325/275/325 333/274/333 339/277/339
s 8
f 228/268/228 224/267/224 322/266/322
f 322/266/322 324/269/324 228/268/228
s 16
f 351/275/351 233/276/233 337/286/337
f 337/286/337 323/288/323 351/275/351
s 64
f 334/279/334 234/283/234 336/271/336
f 336/271/336 225/278/225 334/279/334
s 2
f 232/272/232 226/280/226 331/278/331
f 331/278/331 231/271/231 232/272/232
s 4
f 339/284/339 229/287/229 335/281/335
f 335/281/335 338/276/338 339/284/339
s 16
f 233/276/233 230/281/230 332/289/332
f 332/289/332 337/286/337 233/276/233
s 64
f 234/285/234 227/282/227 330/270/330
f 330/270/330 336/271/336 234/285/234
s 32
f 306/302/306 308/301/308 239/294/239
f 239/294/239 236/291/236 306/302/306
s 2
f 240/295/240 235/290/235 305/291/305
f 305/291/305 307/294/307 240/295/240
s 4
f 242/297/242 238/293/238 237/292/237
f 237/292/237 241/296/241 242/297/242
s 8
f 241/296/241 237/292/237 235/304/235
f 235/304/235 240/305/240 241/296/241
s 32
f 308/301/308 309/303/309 245/299/245
f 245/299/245 239/294/239 308/301/308
s 2
f 243/308/243 240/306/240 307/294/307
f 307/294/307 310/299/310 243/308/243
s 4
f 242/297/242 241/296/241 246/300/246
f 246/300/246 244/298/244 242/297/242
s 8
f 246/300/246 241/296/241 240/307/240
f 240/307/240 243/309/243 246/300/246
s 2
f 248/317/248 352/314/352 255/315/255
f 255/315/255 256/316/256 248/317/248
s 4
f 349/321/349 328/318/328 343/319/343
f 343/319/343 348/320/348 349/321/349
s 8
f 329/312/329 251/313/251 247/310/247
f 247/310/247 327/311/327 329/312/329
s 16
f 252/319/252 340/332/340 347/330/347
f 347/330/347 257/320/257 252/319/252
s 64
f 253/323/253 341/322/341 346/315/346
f 346/315/346 258/327/258 253/323/253
s 2
f 256/316/256 255/315/255 249/322/249
f 249/322/249 342/324/342 256/316/256
s 4
f 349/328/349 348/320/348 254/325/254
f 254/325/254 344/331/344 349/328/349
s 16
f 257/320/257 347/330/347 250/333/250
f 250/333/250 345/325/345 257/320/257
s 64
f 258/329/258 346/315/346 326/314/326
f 326/314/326 353/326/353 258/329/258
s 2
f 273/348/273 259/334/259 261/336/261
f 261/336/261 271/346/271 273/348/273
s 4
f 265/340/265 263/338/263 272/347/272
f 272/347/272 274/349/274 265/340/265
s 8
f 263/338/263 259/360/259 273/365/273
f 273/365/273 272/347/272 263/338/263
s 32
f 266/355/266 262/337/262 267/342/267
f 267/342/267 270/354/270 266/355/266
s 2
f 268/343/268 267/342/267 262/337/262
f 262/337/262 260/335/260 268/343/268
s 4
f 270/345/270 269/344/269 264/339/264
f 264/339/264 266/341/266 270/345/270
s 8
f 269/344/269 268/362/268 260/361/260
f 260/361/260 264/339/264 269/344/269
s 32
f 270/354/270 267/342/267 277/352/277
f 277/352/277 276/356/276 270/354/270
s 2
f 273/366/273 271/346/271 277/352/277
f 277/352/277 275/350/275 273/366/273
s 4
f 276/351/276 274/349/274 272/347/272
f 272/347/272 278/353/278 276/351/276
s 8
f 272/347/272 273/367/273 275/368/275
f 275/368/275 278/353/278 272/347/272
s 32
f 274/358/274 271/346/271 261/336/261
f 261/336/261 265/357/265 274/358/274
f 276/359/276 277/352/277 271/346/271
f 271/346/271 274/358/274 276/359/276
s 2
f 275/369/275 277/352/277 267/342/267
f 267/342/267 268/363/268 275/369/275
s 4
f 270/345/270 276/351/276 278/353/278
f 278/353/278 269/344/269 270/345/270
s 8
f 278/353/278 275/370/275 268/364/268
f 268/364/268 269/344/269 278/353/278
s 4
f 296/380/296 297/379/297 294/378/294
f 294/378/294 279/377/279 296/380/296
s 0
f 284/374/284 298/373/298 281/371/281
f 281/371/281 283/372/283 284/374/284
f 284/374/284 210/376/210 292/375/292
f 292/375/292 298/373/298 284/374/284
s 8
f 207/384/207 293/383/293 280/382/280
f 280/382/280 208/381/208 207/384/207
s 16
f 291/388/291 295/387/295 282/386/282
f 282/386/282 209/385/209 291/388/291
s 1
f 317/393/317 354/394/354 318/395/318
f 318/395/318 319/396/319 317/393/317
f 313/402/313 311/399/311 357/400/357
f 357/400/357 356/401/356 313/402/313
f 312/397/312 321/403/321 360/404/360
f 360/404/360 316/398/316 312/397/312
f 314/408/314 320/405/320 362/406/362
f 362/406/362 355/407/355 314/408/314
f 354/394/354 317/393/317 358/391/358
f 358/391/358 359/389/359 354/394/354
f 318/395/318 354/394/354 359/389/359
f 359/389/359 361/392/361 318/395/318
f 361/392/361 315/390/315 319/396/319
f 319/396/319 318/395/318 361/392/361
# 134 faces

g
