# Max2Obj Version 4.0 Mar 10th, 2001
#
# object normal to come ...
#
v  28.637436 37.425667 4.586507
v  28.637436 37.425667 -14.896982
v  28.637436 62.574333 4.586507
v  28.637436 62.574333 -14.896982
v  71.509010 37.425667 4.586505
v  69.504005 38.601814 -16.073132
v  71.509010 62.574333 4.586505
v  71.509010 62.574333 -14.896984
v  30.642443 38.601814 -16.073130
v  30.642445 61.398186 -16.073130
v  71.509010 37.425667 -14.896984
v  69.504005 61.398186 -16.073132
v  28.637436 37.425667 -14.896982
v  28.637436 62.574333 -14.896982
v  71.509010 62.574333 -14.896984
v  71.509010 37.425667 -14.896984
v  28.637436 37.425667 -14.896982
v  28.637436 62.574333 -14.896982
v  69.504005 38.601814 -16.073132
v  69.504005 38.601814 -16.073132
v  71.509010 62.574333 -14.896984
v  30.642443 38.601814 -16.073130
v  30.642443 38.601814 -16.073130
v  30.642445 61.398186 -16.073130
v  30.642445 61.398186 -16.073130
v  71.509010 37.425667 -14.896984
v  69.504005 61.398186 -16.073132
v  69.504005 61.398186 -16.073132
v  28.637436 37.425667 -14.896982
v  28.637436 62.574333 -14.896982
v  71.509010 62.574333 -14.896984
v  71.509010 37.425667 -14.896984
v  28.637436 37.425667 4.586507
v  28.637436 37.425667 4.586507
v  28.637436 62.574333 4.586507
v  28.637436 62.574333 4.586507
v  71.509010 37.425667 4.586505
v  71.509010 37.425667 4.586505
v  71.509010 62.574333 4.586505
v  71.509010 62.574333 4.586505
# 40 vertices

vt  0.064469 0.084623 0.000500
vt  0.064469 0.599459 0.000500
vt  0.935531 0.599459 0.000500
vt  0.935531 0.084623 0.000500
vt  0.019528 0.662939 0.999500
vt  0.019528 0.021143 0.999500
vt  0.980472 0.021143 0.999500
vt  0.980472 0.662938 0.999500
vt  0.019528 0.662938 0.047221
vt  0.019528 0.021143 0.047221
vt  0.980472 0.021143 0.047221
vt  0.980472 0.662938 0.047221
vt  0.011543 0.970257 0.999500
vt  0.011543 0.460844 0.999501
vt  0.988457 0.460844 0.999500
vt  0.988457 0.970257 0.999500
vt  0.011543 0.460844 0.000500
vt  0.011543 0.970257 0.000500
vt  0.988457 0.970257 0.000499
vt  0.988457 0.460844 0.000500
vt  0.251474 0.404111 0.000500
vt  0.251474 0.943694 0.000500
vt  0.791058 0.943694 0.000500
vt  0.791058 0.404110 0.000500
vt  0.251474 0.404111 0.999500
vt  0.791058 0.404110 0.999500
vt  0.791058 0.943694 0.999500
vt  0.251474 0.943694 0.999500
# 28 texture vertices

vn  -0.000000 -1.000000 0.000000
vn  -1.000000 0.000000 0.000000
vn  -1.000000 0.000000 0.000000
vn  0.000000 1.000000 0.000000
vn  1.000000 0.000000 0.000000
vn  -0.000000 -0.707107 -0.707107
vn  0.000000 1.000000 0.000000
vn  1.000000 0.000000 0.000000
vn  -0.505975 0.000000 -0.862548
vn  0.000000 0.707107 -0.707107
vn  0.505975 -0.000000 -0.862548
vn  0.505976 -0.000000 -0.862548
vn  -0.000000 -0.707107 -0.707107
vn  -0.505975 0.000000 -0.862548
vn  0.000000 0.707107 -0.707107
vn  -0.000000 -1.000000 0.000000
vn  -0.505975 0.000000 -0.862548
vn  0.000000 0.707107 -0.707107
vn  -0.000000 0.000000 -1.000000
vn  0.505975 -0.000000 -0.862548
vn  0.505976 0.000000 -0.862548
vn  -0.000000 0.000000 -1.000000
vn  -0.000000 -0.707107 -0.707107
vn  -0.000000 0.000000 -1.000000
vn  -0.505975 0.000000 -0.862548
vn  1.000000 0.000000 0.000000
vn  -0.000000 0.000000 -1.000000
vn  0.000000 0.707107 -0.707107
vn  -0.000000 -1.000000 0.000000
vn  -1.000000 0.000000 0.000000
vn  0.000000 1.000000 0.000000
vn  -0.000000 -0.707107 -0.707107
vn  0.000000 0.000000 1.000000
vn  -1.000000 0.000000 0.000000
vn  0.000000 0.000000 1.000000
vn  0.000000 1.000000 0.000000
vn  0.000000 0.000000 1.000000
vn  -0.000000 -1.000000 0.000000
vn  0.000000 0.000000 1.000000
vn  1.000000 0.000000 0.000000
# 40 vertex normals

g normal
s 1
f 34/21/34 3/22/3 30/23/30
f 30/23/30 2/24/2 34/21/34
f 5/25/5 26/26/26 8/27/8
f 8/27/8 40/28/40 5/25/5
f 1/13/1 29/14/29 16/15/16
f 16/15/16 38/16/38 1/13/1
f 22/1/22 24/2/24 27/3/27
f 27/3/27 19/4/19 22/1/22
f 4/17/4 36/18/36 7/19/7
f 7/19/7 31/20/31 4/17/4
f 35/5/35 33/6/33 37/7/37
f 37/7/37 39/8/39 35/5/35
f 14/9/14 25/2/25 9/1/9
f 9/1/9 17/10/17 14/9/14
f 11/11/11 20/4/20 12/3/12
f 12/3/12 21/12/21 11/11/11
f 13/10/13 23/1/23 6/4/6
f 6/4/6 32/11/32 13/10/13
f 10/2/10 18/9/18 15/12/15
f 15/12/15 28/3/28 10/2/10
# 20 faces

g
# object pressed to come ...
#
v  28.637436 37.425667 15.272503
v  28.637436 37.425667 -4.210986
v  28.637436 62.574333 15.272503
v  28.637436 62.574333 -4.210986
v  71.509010 37.425667 15.272501
v  69.504005 38.601814 -5.387136
v  71.509010 62.574333 15.272501
v  71.509010 62.574333 -4.210988
v  30.642443 38.601814 -5.387134
v  30.642445 61.398186 -5.387134
v  71.509010 37.425667 -4.210988
v  69.504005 61.398186 -5.387136
v  28.637436 37.425667 -4.210986
v  28.637436 62.574333 -4.210986
v  71.509010 62.574333 -4.210988
v  71.509010 37.425667 -4.210988
v  28.637436 37.425667 -4.210986
v  28.637436 62.574333 -4.210986
v  69.504005 38.601814 -5.387136
v  69.504005 38.601814 -5.387136
v  71.509010 62.574333 -4.210988
v  30.642443 38.601814 -5.387134
v  30.642443 38.601814 -5.387134
v  30.642445 61.398186 -5.387134
v  30.642445 61.398186 -5.387134
v  71.509010 37.425667 -4.210988
v  69.504005 61.398186 -5.387136
v  69.504005 61.398186 -5.387136
v  28.637436 37.425667 -4.210986
v  28.637436 62.574333 -4.210986
v  71.509010 62.574333 -4.210988
v  71.509010 37.425667 -4.210988
v  28.637436 37.425667 15.272503
v  28.637436 37.425667 15.272503
v  28.637436 62.574333 15.272503
v  28.637436 62.574333 15.272503
v  71.509010 37.425667 15.272501
v  71.509010 37.425667 15.272501
v  71.509010 62.574333 15.272501
v  71.509010 62.574333 15.272501
# 40 vertices

vt  0.064469 0.084623 0.000500
vt  0.064469 0.599459 0.000500
vt  0.935531 0.599459 0.000500
vt  0.935531 0.084623 0.000500
vt  0.019528 0.662939 0.999500
vt  0.019528 0.021143 0.999500
vt  0.980472 0.021143 0.999500
vt  0.980472 0.662938 0.999500
vt  0.019528 0.662938 0.047221
vt  0.019528 0.021143 0.047221
vt  0.980472 0.021143 0.047221
vt  0.980472 0.662938 0.047221
vt  0.011543 0.970257 0.999500
vt  0.011543 0.460844 0.999501
vt  0.988457 0.460844 0.999500
vt  0.988457 0.970257 0.999500
vt  0.011543 0.460844 0.000500
vt  0.011543 0.970257 0.000500
vt  0.988457 0.970257 0.000499
vt  0.988457 0.460844 0.000500
vt  0.251474 0.404111 0.000500
vt  0.251474 0.943694 0.000500
vt  0.791058 0.943694 0.000500
vt  0.791058 0.404110 0.000500
vt  0.251474 0.404111 0.999500
vt  0.791058 0.404110 0.999500
vt  0.791058 0.943694 0.999500
vt  0.251474 0.943694 0.999500
# 28 texture vertices

vn  -0.000000 -1.000000 0.000000
vn  -1.000000 0.000000 0.000000
vn  -1.000000 0.000000 0.000000
vn  0.000000 1.000000 0.000000
vn  1.000000 0.000000 0.000000
vn  -0.000000 -0.707107 -0.707107
vn  0.000000 1.000000 0.000000
vn  1.000000 0.000000 0.000000
vn  -0.505975 0.000000 -0.862548
vn  0.000000 0.707107 -0.707107
vn  0.505975 -0.000000 -0.862548
vn  0.505976 -0.000000 -0.862548
vn  -0.000000 -0.707107 -0.707107
vn  -0.505975 0.000000 -0.862548
vn  0.000000 0.707107 -0.707107
vn  -0.000000 -1.000000 0.000000
vn  -0.505975 0.000000 -0.862548
vn  0.000000 0.707107 -0.707107
vn  -0.000000 0.000000 -1.000000
vn  0.505975 -0.000000 -0.862548
vn  0.505976 0.000000 -0.862548
vn  -0.000000 0.000000 -1.000000
vn  -0.000000 -0.707107 -0.707107
vn  -0.000000 0.000000 -1.000000
vn  -0.505975 0.000000 -0.862548
vn  1.000000 0.000000 0.000000
vn  -0.000000 0.000000 -1.000000
vn  0.000000 0.707107 -0.707107
vn  -0.000000 -1.000000 0.000000
vn  -1.000000 0.000000 0.000000
vn  0.000000 1.000000 0.000000
vn  -0.000000 -0.707107 -0.707107
vn  0.000000 0.000000 1.000000
vn  -1.000000 0.000000 0.000000
vn  0.000000 0.000000 1.000000
vn  0.000000 1.000000 0.000000
vn  0.000000 0.000000 1.000000
vn  -0.000000 -1.000000 0.000000
vn  0.000000 0.000000 1.000000
vn  1.000000 0.000000 0.000000
# 40 vertex normals

g pressed
s 1
f 74/49/74 43/50/43 70/51/70
f 70/51/70 42/52/42 74/49/74
f 45/53/45 66/54/66 48/55/48
f 48/55/48 80/56/80 45/53/45
f 41/41/41 69/42/69 56/43/56
f 56/43/56 78/44/78 41/41/41
f 62/29/62 64/30/64 67/31/67
f 67/31/67 59/32/59 62/29/62
f 44/45/44 76/46/76 47/47/47
f 47/47/47 71/48/71 44/45/44
f 75/33/75 73/34/73 77/35/77
f 77/35/77 79/36/79 75/33/75
f 54/37/54 65/30/65 49/29/49
f 49/29/49 57/38/57 54/37/54
f 51/39/51 60/32/60 52/31/52
f 52/31/52 61/40/61 51/39/51
f 53/38/53 63/29/63 46/32/46
f 46/32/46 72/39/72 53/38/53
f 50/30/50 58/37/58 55/40/55
f 55/40/55 68/31/68 50/30/50
# 20 faces

g
