# Max2Obj Version 4.0 Mar 10th, 2001
#
# object open2 to come ...
#
v  20.024017 0.382950 -89.941902
v  101.134689 0.382950 -89.941902
v  20.024017 0.382950 -9.941902
v  101.134689 0.382950 -9.941902
v  20.024017 57.482208 -89.941902
v  101.134689 57.482208 -89.941902
v  101.134689 57.482204 -9.941902
v  20.024017 57.482204 -9.941902
v  27.814667 57.482208 -82.151268
v  101.134659 57.482208 -82.151260
v  101.134750 57.482204 -17.732544
v  27.814667 57.482204 -17.732544
v  27.814667 5.485989 -82.151268
v  27.814667 5.485989 -17.732544
v  101.134659 5.485989 -82.151260
v  101.134750 5.485989 -17.732544
v  101.134689 73.741653 -106.161514
v  20.024033 73.741653 -106.161514
v  101.134689 130.310196 -49.592968
v  20.024033 130.310196 -49.592972
v  101.134689 57.547646 -89.967499
v  20.024033 57.547653 -89.967506
v  20.024017 114.116180 -33.398972
v  101.134689 114.116180 -33.398952
v  101.134430 63.056450 -84.458679
v  27.814667 63.056458 -84.458687
v  27.814667 108.607361 -38.907791
v  101.134995 108.607361 -38.907768
v  101.134430 74.694687 -96.096916
v  101.134995 120.245605 -50.546005
v  27.814667 74.694687 -96.096924
v  27.814667 120.245605 -50.546005
v  94.992035 105.781075 -25.636358
v  104.996185 105.781075 -25.636358
v  94.992035 120.664551 -40.519829
v  104.996185 120.664551 -40.519829
v  94.992035 111.263046 -20.154387
v  104.996185 111.263046 -20.154387
v  94.992035 126.146523 -35.037849
v  104.996185 126.146523 -35.037849
v  101.134689 73.741653 -106.161514
v  20.024033 73.741653 -106.161514
v  20.024033 73.741653 -106.161514
v  101.134689 130.310196 -49.592968
v  20.024033 130.310196 -49.592972
v  20.024033 130.310196 -49.592972
v  20.024033 57.547653 -89.967506
v  20.024017 114.116180 -33.398972
v  20.024017 114.116180 -33.398972
v  101.134689 114.116180 -33.398952
v  20.024017 57.482208 -89.941902
v  101.134689 57.482208 -89.941902
v  101.134689 57.482204 -9.941902
v  20.024017 57.482204 -9.941902
v  27.814667 57.482208 -82.151268
v  101.134659 57.482208 -82.151260
v  101.134750 57.482204 -17.732544
v  27.814667 57.482204 -17.732544
v  101.134689 57.547646 -89.967499
v  20.024033 57.547653 -89.967506
v  20.024017 57.482208 -89.941902
v  20.024017 57.482204 -9.941902
v  20.024017 0.382950 -89.941902
v  20.024017 0.382950 -89.941902
v  101.134689 0.382950 -89.941902
v  20.024017 0.382950 -9.941902
v  20.024017 0.382950 -9.941902
v  101.134689 0.382950 -9.941902
v  101.134430 63.056450 -84.458679
v  27.814667 63.056458 -84.458687
v  27.814667 108.607361 -38.907791
v  101.134995 108.607361 -38.907768
# 72 vertices

vt  0.057409 0.261082 0.000000
vt  0.756971 0.261082 0.000000
vt  0.057409 0.979608 0.000000
vt  0.756971 0.979608 0.000000
vt  0.056655 1.993790 -0.003193
vt  0.056655 1.637532 0.637911
vt  0.003268 1.637532 0.606694
vt  0.003268 1.993790 0.090456
vt  0.056655 1.637532 0.958462
vt  0.056655 1.993790 0.317359
vt  0.003268 1.993790 0.348575
vt  0.003268 1.637532 0.864814
vt  0.056655 1.637532 0.637911
vt  0.003268 1.637532 0.606694
vt  0.056655 1.262522 0.958462
vt  0.003268 1.262522 0.864814
vt  0.743502 -0.764236 0.000499
vt  0.013658 -0.764236 0.000499
vt  0.013658 -0.992186 0.000499
vt  0.743502 -0.992186 0.000499
vt  0.013658 -0.764236 0.999500
vt  0.743502 -0.764236 0.999500
vt  0.743502 -0.992186 0.999500
vt  0.013658 -0.992186 0.999500
vt  0.743502 -0.764032 0.000500
vt  0.013658 -0.764032 0.000500
vt  0.013658 -0.989443 0.000499
vt  0.743502 -0.989444 0.000500
vt  0.717593 -0.984302 0.535226
vt  0.035072 -0.984302 -0.156509
vt  0.035072 -0.770583 0.484595
vt  0.717593 -0.770583 1.176329
vt  0.756951 0.979608 0.000000
vt  0.756951 0.261082 0.000000
vt  0.057389 0.979608 0.000000
vt  0.057389 0.261082 0.000000
vt  0.756971 0.261082 0.000000
vt  0.756971 0.889353 0.000000
vt  0.057409 0.889353 0.000000
vt  0.057409 0.261082 0.000000
vt  0.756971 0.261082 0.000000
vt  0.756971 0.889353 0.000000
vt  0.057409 0.261082 0.000000
vt  0.057409 0.889353 0.000000
vt  0.056655 1.637532 -0.003193
vt  0.056655 1.262522 0.637911
vt  0.003268 1.262522 0.606694
vt  0.003268 1.637532 0.090456
vt  0.056655 1.262522 0.958462
vt  0.056655 1.637532 0.317359
vt  0.003268 1.637532 0.348575
vt  0.003268 1.262522 0.864814
vt  0.056655 1.993790 -0.003193
vt  0.003268 1.993790 0.090456
vt  0.056655 1.637532 0.317359
vt  0.003268 1.637532 0.348575
vt  0.743502 -0.764236 0.000499
vt  0.013658 -0.764236 0.000499
vt  0.013658 -0.992186 0.000499
vt  0.743502 -0.992186 0.000499
vt  0.013658 -0.764236 0.999500
vt  0.743502 -0.764236 0.999500
vt  0.743502 -0.992186 0.999500
vt  0.013658 -0.992186 0.999500
vt  0.013658 -0.764032 0.999500
vt  0.743502 -0.764032 0.999501
vt  0.743502 -0.989444 0.999500
vt  0.013658 -0.989444 0.999500
vt  0.717593 -0.984302 0.535226
vt  0.035072 -0.984302 -0.156509
vt  0.035072 -0.770583 0.484595
vt  0.717593 -0.770583 1.176329
vt  0.997431 0.274100 0.000000
vt  0.997431 0.993335 0.000000
vt  0.815706 0.274100 0.000000
vt  0.815706 0.993335 0.000000
vt  0.815276 0.359003 0.000000
vt  0.815276 0.987138 0.000000
vt  0.996531 0.987138 0.000000
vt  0.996531 0.359003 0.000000
vt  0.118444 0.260204 0.000000
vt  0.755622 0.260204 0.000000
vt  0.118444 0.979440 0.000000
vt  0.755622 0.979440 0.000000
vt  0.800979 0.116698 0.000500
vt  0.800979 0.228216 0.000499
vt  0.866214 0.228216 0.000500
vt  0.866214 0.116698 0.000500
vt  0.800979 0.228216 0.999500
vt  0.800979 0.116698 0.999500
vt  0.866214 0.116698 0.999501
vt  0.866214 0.228216 0.999500
vt  0.988006 0.221687 0.000500
vt  0.988006 0.028654 0.000500
vt  0.909368 0.028654 0.000500
vt  0.909368 0.221687 0.000500
vt  0.988006 0.221687 0.999501
vt  0.909368 0.221687 0.999501
vt  0.909368 0.028654 0.999501
vt  0.988006 0.028654 0.999501
vt  0.770570 0.004262 0.999500
vt  0.895594 0.004262 0.999501
vt  0.895594 0.106386 0.999501
vt  0.770570 0.106386 0.999500
vt  0.895594 0.004262 0.000500
vt  0.770570 0.004262 0.000499
vt  0.770570 0.106386 0.000499
vt  0.895594 0.106386 0.000500
vt  0.815276 0.359003 0.000000
vt  0.815276 0.987138 0.000000
vt  0.996531 0.359003 0.000000
vt  0.996531 0.987138 0.000000
# 112 texture vertices

vn  0.000000 0.000000 -1.000000
vn  0.000000 -1.000000 0.000000
vn  -1.000000 0.000000 0.000000
vn  0.000000 0.000000 1.000000
vn  0.000000 0.000000 -1.000000
vn  0.000000 0.000000 -1.000000
vn  0.000000 1.000000 0.000000
vn  -1.000000 0.000000 0.000000
vn  0.707107 0.000000 0.707107
vn  0.000000 1.000000 0.000000
vn  0.000000 0.000000 -1.000000
vn  0.707107 0.000000 -0.707107
vn  0.577350 0.577350 0.577350
vn  0.577350 0.577350 -0.577350
vn  -0.000000 0.707107 0.707106
vn  0.000000 0.707106 -0.707107
vn  0.000000 -0.707107 -0.707107
vn  0.000000 -0.707107 -0.707107
vn  0.000000 0.707107 -0.707107
vn  -1.000000 0.000000 -0.000000
vn  -0.000000 -0.707107 0.707106
vn  0.000000 -0.707107 -0.707107
vn  -1.000000 0.000000 -0.000001
vn  -0.000000 0.707107 0.707107
vn  0.000000 0.707107 0.707107
vn  0.707107 0.500000 0.500000
vn  0.707107 -0.499999 -0.500000
vn  -0.000000 -0.707107 0.707107
vn  0.000000 -0.000003 1.000000
vn  0.000000 -1.000000 -0.000003
vn  0.577350 0.000000 0.816497
vn  0.577350 -0.816497 -0.000000
vn  0.000000 -1.576899 -0.644542
vn  0.000000 -2.221441 -0.000000
vn  0.000000 0.000001 -2.221441
vn  1.570796 -1.110721 -1.110721
vn  0.000000 -0.000000 2.221442
vn  0.000000 0.466178 1.755263
vn  0.000000 1.755263 0.466180
vn  1.217890 1.110720 1.110721
vn  0.000000 0.707107 -0.707107
vn  -1.000000 0.000000 0.000000
vn  0.000000 0.707107 -0.707107
vn  -0.000000 0.707107 0.707107
vn  -0.000000 0.707106 0.707107
vn  0.000000 0.707107 -0.707107
vn  -1.000000 0.000000 -0.000000
vn  -0.000000 -0.707107 0.707107
vn  -0.000000 0.707106 0.707107
vn  -0.000000 -0.707107 0.707107
vn  -0.000000 1.000000 0.000000
vn  0.000000 1.000000 0.000000
vn  0.000000 0.000000 1.000000
vn  0.000000 1.000000 0.000000
vn  -0.000000 1.000000 0.000000
vn  -0.000000 0.000000 1.000000
vn  0.000000 1.000000 0.000000
vn  0.000000 1.000000 0.000000
vn  0.000000 -0.707107 -0.707107
vn  -0.000001 -0.707107 0.707106
vn  -1.000000 0.000000 0.000000
vn  0.000000 0.000000 1.000000
vn  0.000000 -1.000000 0.000000
vn  -1.000000 0.000000 0.000000
vn  0.000000 0.000000 -1.000000
vn  0.000000 -1.000000 0.000000
vn  0.000000 0.000000 1.000000
vn  0.000000 -1.000000 0.000000
vn  -0.000000 -0.707107 0.707106
vn  -0.000001 -0.707107 0.707106
vn  -0.000000 -0.707107 0.707107
vn  0.000000 -0.707106 -0.707107
# 72 vertex normals

g open2
s 1
f 5/43/5 6/44/6 65/42/65
f 65/42/65 1/41/1 5/43/5
f 67/37/67 4/38/4 53/39/53
f 53/39/53 62/40/62 67/37/67
f 63/1/63 2/2/2 68/4/68
f 68/4/68 66/3/66 63/1/63
f 64/33/64 3/34/3 8/36/8
f 8/36/8 61/35/61 64/33/64
f 52/5/52 51/6/51 55/7/55
f 55/7/55 10/8/10 52/5/52
f 54/9/54 7/10/7 57/11/57
f 57/11/57 58/12/58 54/9/54
f 51/13/51 54/15/54 58/16/58
f 58/16/58 55/14/55 51/13/51
f 9/18/9 13/19/13 15/20/15
f 15/20/15 56/17/56 9/18/9
f 11/22/11 16/23/16 14/24/14
f 14/24/14 12/21/12 11/22/11
f 12/26/12 14/27/14 13/28/13
f 13/28/13 9/25/9 12/26/12
f 13/29/13 14/30/14 16/31/16
f 16/31/16 15/32/15 13/29/13
f 59/111/59 22/112/22 18/110/18
f 18/110/18 17/109/17 59/111/59
f 45/78/45 49/79/49 24/80/24
f 24/80/24 44/77/44 45/78/45
f 41/81/41 43/82/43 46/84/46
f 46/84/46 19/83/19 41/81/41
f 47/75/47 23/76/23 20/74/20
f 20/74/20 42/73/42 47/75/47
f 60/45/60 21/46/21 69/47/69
f 69/47/69 70/48/70 60/45/60
f 50/49/50 48/50/48 71/51/71
f 71/51/71 28/52/28 50/49/50
f 48/55/48 60/53/60 70/54/70
f 70/54/70 71/56/71 48/55/48
f 26/57/26 25/58/25 29/59/29
f 29/59/29 31/60/31 26/57/26
f 72/61/72 27/62/27 32/63/32
f 32/63/32 30/64/30 72/61/72
f 27/65/27 26/66/26 31/67/31
f 31/67/31 32/68/32 27/65/27
f 29/69/29 30/70/30 32/71/32
f 32/71/32 31/72/31 29/69/29
f 33/93/33 35/94/35 36/95/36
f 36/95/36 34/96/34 33/93/33
f 37/97/37 38/98/38 40/99/40
f 40/99/40 39/100/39 37/97/37
f 33/101/33 34/102/34 38/103/38
f 38/103/38 37/104/37 33/101/33
f 34/85/34 36/86/36 40/87/40
f 40/87/40 38/88/38 34/85/34
f 36/105/36 35/106/35 39/107/39
f 39/107/39 40/108/40 36/105/36
f 35/89/35 33/90/33 37/91/37
f 37/91/37 39/92/39 35/89/35
# 56 faces

g
# object close1 to come ...
#
v  9.975166 0.382946 -89.941902
v  89.975166 0.382946 -89.941902
v  9.975166 0.382946 -9.941902
v  89.975166 0.382946 -9.941902
v  9.975166 57.482208 -89.941902
v  89.975166 57.482208 -89.941902
v  89.975166 57.482204 -9.941902
v  9.975166 57.482204 -9.941902
v  17.765800 57.482208 -82.151260
v  82.184525 57.482208 -82.151260
v  82.184525 57.482204 -17.732544
v  17.765800 57.482204 -17.732544
v  17.765800 5.485989 -82.151260
v  17.765800 5.485989 -17.732544
v  82.184525 5.485989 -82.151260
v  82.184525 5.485989 -17.732544
v  89.975166 80.408684 -89.941910
v  9.975174 80.408691 -89.941910
v  89.975166 80.408684 -9.941910
v  9.975166 80.408691 -9.941910
v  89.975159 57.506889 -89.941902
v  9.975182 57.506905 -89.941895
v  9.975166 57.506905 -9.941925
v  89.975159 57.506889 -9.941910
v  82.184525 57.506889 -82.151260
v  17.765816 57.506897 -82.151260
v  17.765800 57.506905 -17.732567
v  82.184517 57.506889 -17.732552
v  82.184525 73.965836 -82.151268
v  82.184525 73.965843 -17.732552
v  17.765808 73.965843 -82.151260
v  17.765816 73.965843 -17.732552
v  44.973087 46.124088 -10.346733
v  54.977245 46.124088 -10.346733
v  44.973087 67.172493 -10.346733
v  54.977245 67.172493 -10.346733
v  44.973087 46.124088 -2.594055
v  54.977245 46.124088 -2.594055
v  44.973087 67.172493 -2.594048
v  54.977245 67.172493 -2.594048
v  9.975166 0.382946 -89.941902
v  9.975166 0.382946 -89.941902
v  89.975166 0.382946 -89.941902
v  89.975166 0.382946 -89.941902
v  9.975166 0.382946 -9.941902
v  9.975166 0.382946 -9.941902
v  89.975166 0.382946 -9.941902
v  89.975166 0.382946 -9.941902
v  89.975166 80.408684 -89.941910
v  89.975166 80.408684 -89.941910
v  9.975174 80.408691 -89.941910
v  9.975174 80.408691 -89.941910
v  89.975166 80.408684 -9.941910
v  89.975166 80.408684 -9.941910
v  9.975166 80.408691 -9.941910
v  9.975166 80.408691 -9.941910
v  44.973087 46.124088 -2.594055
v  44.973087 46.124088 -2.594055
v  54.977245 46.124088 -2.594055
v  54.977245 46.124088 -2.594055
v  44.973087 67.172493 -2.594048
v  44.973087 67.172493 -2.594048
v  54.977245 67.172493 -2.594048
v  54.977245 67.172493 -2.594048
v  9.975166 57.482208 -89.941902
v  9.975166 57.482208 -89.941902
v  89.975166 57.482208 -89.941902
v  89.975166 57.482208 -89.941902
v  89.975166 57.482204 -9.941902
v  89.975166 57.482204 -9.941902
v  9.975166 57.482204 -9.941902
v  9.975166 57.482204 -9.941902
v  17.765800 57.482208 -82.151260
v  82.184525 57.482208 -82.151260
v  82.184525 57.482204 -17.732544
v  17.765800 57.482204 -17.732544
v  89.975159 57.506889 -89.941902
v  89.975159 57.506889 -89.941902
v  9.975182 57.506905 -89.941895
v  9.975182 57.506905 -89.941895
v  9.975166 57.506905 -9.941925
v  9.975166 57.506905 -9.941925
v  89.975159 57.506889 -9.941910
v  89.975159 57.506889 -9.941910
v  82.184525 57.506889 -82.151260
v  17.765816 57.506897 -82.151260
v  17.765800 57.506905 -17.732567
v  82.184517 57.506889 -17.732552
# 88 vertices

vt  0.756971 0.979608 0.000000
vt  0.756971 0.261082 0.000000
vt  0.756971 0.261082 0.000000
vt  0.756971 0.979608 0.000000
vt  0.057409 0.979608 0.000000
vt  0.057409 0.261082 0.000000
vt  0.057409 0.979608 0.000000
vt  0.057409 0.261082 0.000000
vt  0.057409 0.261082 0.000000
vt  0.756971 0.261082 0.000000
vt  0.057409 0.979608 0.000000
vt  0.756971 0.979608 0.000000
vt  0.056655 1.993790 -0.003193
vt  0.056655 1.637532 0.637911
vt  0.003268 1.637532 0.606694
vt  0.003268 1.993790 0.090456
vt  0.056655 1.637532 0.958462
vt  0.056655 1.993790 0.317359
vt  0.003268 1.993790 0.348575
vt  0.003268 1.637532 0.864814
vt  0.056655 1.637532 -0.003193
vt  0.056655 1.637532 0.637911
vt  0.003268 1.637532 0.606694
vt  0.003268 1.637532 0.090456
vt  0.056655 1.262522 0.958462
vt  0.056655 1.262522 0.317359
vt  0.003268 1.262522 0.348575
vt  0.003268 1.262522 0.864814
vt  0.743502 -0.764236 0.000499
vt  0.013658 -0.764236 0.000499
vt  0.013658 -0.992186 0.000499
vt  0.743502 -0.992186 0.000499
vt  0.013658 -0.764236 0.999500
vt  0.743502 -0.764236 0.999500
vt  0.743502 -0.992186 0.999500
vt  0.013658 -0.992186 0.999500
vt  0.013658 -0.764032 0.999500
vt  0.743502 -0.764032 0.999501
vt  0.743502 -0.989444 0.999500
vt  0.013658 -0.989444 0.999500
vt  0.743502 -0.764032 0.000500
vt  0.013658 -0.764032 0.000500
vt  0.013658 -0.989443 0.000499
vt  0.743502 -0.989444 0.000500
vt  0.717593 -0.984302 0.535226
vt  0.035072 -0.984302 -0.156509
vt  0.035072 -0.770583 0.484595
vt  0.717593 -0.770583 1.176329
vt  0.756971 0.261082 0.000000
vt  0.756971 0.979608 0.000000
vt  0.057409 0.261082 0.000000
vt  0.057409 0.979608 0.000000
vt  0.756951 0.979608 0.000000
vt  0.756951 0.261082 0.000000
vt  0.057389 0.979608 0.000000
vt  0.057389 0.261082 0.000000
vt  0.056060 0.260204 0.000000
vt  0.755622 0.260204 0.000000
vt  0.056060 0.979440 0.000000
vt  0.755622 0.979440 0.000000
vt  0.056655 1.637532 -0.003193
vt  0.056655 1.262522 0.637911
vt  0.003268 1.262522 0.606694
vt  0.003268 1.637532 0.090456
vt  0.056655 1.262522 0.958462
vt  0.056655 1.637532 0.317359
vt  0.003268 1.637532 0.348575
vt  0.003268 1.262522 0.864814
vt  0.056655 1.993790 -0.003193
vt  0.056655 1.993790 0.637911
vt  0.003268 1.993790 0.606694
vt  0.003268 1.993790 0.090456
vt  0.056655 1.637532 0.958462
vt  0.056655 1.637532 0.317359
vt  0.003268 1.637532 0.348575
vt  0.003268 1.637532 0.864814
vt  0.743502 -0.764236 0.000499
vt  0.013658 -0.764236 0.000499
vt  0.013658 -0.992186 0.000499
vt  0.743502 -0.992186 0.000499
vt  0.013658 -0.764236 0.999500
vt  0.743502 -0.764236 0.999500
vt  0.743502 -0.992186 0.999500
vt  0.013658 -0.992186 0.999500
vt  0.013658 -0.764032 0.999500
vt  0.743502 -0.764032 0.999501
vt  0.743502 -0.989444 0.999500
vt  0.013658 -0.989444 0.999500
vt  0.743502 -0.764032 0.000500
vt  0.013658 -0.764032 0.000500
vt  0.013658 -0.989443 0.000499
vt  0.743502 -0.989444 0.000500
vt  0.717593 -0.984302 0.535226
vt  0.035072 -0.984302 -0.156509
vt  0.035072 -0.770583 0.484595
vt  0.717593 -0.770583 1.176329
vt  0.815276 0.987138 0.000000
vt  0.815276 0.275024 0.000000
vt  0.815276 0.275024 0.000000
vt  0.815276 0.987138 0.000000
vt  0.996531 0.987138 0.000000
vt  0.996531 0.275024 0.000000
vt  0.996531 0.987138 0.000000
vt  0.996531 0.275024 0.000000
vt  0.997431 0.274100 0.000000
vt  0.997431 0.993335 0.000000
vt  0.815706 0.993335 0.000000
vt  0.815706 0.274100 0.000000
vt  0.997431 0.993335 0.000000
vt  0.815706 0.274100 0.000000
vt  0.815706 0.993335 0.000000
vt  0.997431 0.274100 0.000000
vt  0.800979 0.116698 0.000500
vt  0.800979 0.228216 0.000499
vt  0.866214 0.228216 0.000500
vt  0.866214 0.116698 0.000500
vt  0.800979 0.228216 0.999500
vt  0.800979 0.116698 0.999500
vt  0.866214 0.116698 0.999501
vt  0.866214 0.228216 0.999500
vt  0.988006 0.221687 0.000500
vt  0.988006 0.028654 0.000500
vt  0.909368 0.028654 0.000500
vt  0.909368 0.221687 0.000500
vt  0.988006 0.221687 0.999501
vt  0.909368 0.221687 0.999501
vt  0.909368 0.028654 0.999501
vt  0.988006 0.028654 0.999501
vt  0.770570 0.004262 0.999500
vt  0.895594 0.004262 0.999501
vt  0.895594 0.106386 0.999501
vt  0.770570 0.106386 0.999500
vt  0.895594 0.004262 0.000500
vt  0.770570 0.004262 0.000499
vt  0.770570 0.106386 0.000499
vt  0.895594 0.106386 0.000500
# 136 texture vertices

vn  0.000000 -1.000000 0.000000
vn  0.000000 0.000000 -1.000000
vn  0.000000 -1.000000 0.000000
vn  1.000000 0.000000 0.000000
vn  -1.000000 0.000000 0.000000
vn  0.000000 0.000000 -1.000000
vn  1.000000 0.000000 0.000000
vn  0.000000 0.000000 1.000000
vn  0.707107 0.000000 0.707107
vn  -0.707107 0.000000 0.707107
vn  -0.707107 0.000000 -0.707107
vn  0.707107 0.000000 -0.707107
vn  0.577350 0.577350 0.577350
vn  0.577350 0.577350 -0.577350
vn  -0.577350 0.577350 0.577350
vn  -0.577350 0.577350 -0.577350
vn  0.000000 1.000000 0.000000
vn  -0.000000 -0.000000 -1.000000
vn  0.000000 1.000000 0.000000
vn  -1.000000 -0.000000 -0.000000
vn  1.000000 -0.000000 0.000000
vn  -0.000000 -0.000000 -1.000000
vn  -1.000000 0.000000 -0.000000
vn  -0.000000 -0.000000 1.000000
vn  -0.707107 0.000000 0.707107
vn  0.707107 0.000000 0.707107
vn  0.707107 0.000000 -0.707106
vn  -0.707107 0.000001 -0.707107
vn  -0.577350 -0.577350 0.577350
vn  -0.577350 -0.577350 -0.577350
vn  0.577350 -0.577350 0.577350
vn  0.577350 -0.577350 -0.577351
vn  0.000000 -0.659276 -1.570796
vn  0.000000 -1.570796 -1.570796
vn  0.000000 1.570796 -1.570796
vn  1.570796 0.000000 -1.570796
vn  0.000000 -1.000000 0.000000
vn  1.000000 0.000000 0.000000
vn  -1.000000 0.000000 0.000000
vn  0.000000 1.000000 0.000000
vn  -1.000000 0.000000 0.000000
vn  0.000000 0.000000 -1.000000
vn  1.000000 0.000000 0.000000
vn  0.000000 -1.000000 0.000000
vn  0.000000 0.000000 1.000000
vn  -1.000000 0.000000 0.000000
vn  0.000000 0.000000 1.000000
vn  0.000000 -1.000000 0.000000
vn  1.000000 -0.000000 0.000000
vn  -0.000000 -0.000000 -1.000000
vn  -1.000000 -0.000000 -0.000000
vn  0.000000 1.000000 0.000000
vn  0.000000 0.000000 1.000000
vn  1.000000 -0.000000 0.000000
vn  -0.000000 -0.000001 1.000000
vn  0.000000 1.000000 0.000000
vn  0.000000 -0.000000 1.000000
vn  -1.000000 0.000000 0.000000
vn  0.000000 -0.000000 1.000000
vn  0.000000 -1.000000 0.000000
vn  0.000000 -0.000000 1.000000
vn  0.000000 1.000000 0.000000
vn  0.000000 -0.000000 1.000000
vn  1.000000 0.000000 0.000000
vn  -0.000000 1.000000 0.000000
vn  0.000000 0.000000 -1.000000
vn  0.000000 1.000000 0.000000
vn  1.000000 0.000000 0.000000
vn  -0.000000 1.000000 0.000000
vn  0.000000 0.000000 1.000000
vn  0.000000 1.000000 0.000000
vn  -1.000000 0.000000 0.000000
vn  -0.000000 1.000000 0.000000
vn  0.000000 1.000000 0.000000
vn  -0.000000 1.000000 0.000000
vn  0.000000 1.000000 0.000000
vn  -0.000000 -1.000000 -0.000000
vn  -0.000000 -0.000000 -1.000000
vn  -0.000001 -1.000000 -0.000000
vn  -1.000000 -0.000000 -0.000000
vn  -0.000000 -1.000000 -0.000000
vn  -0.000000 -0.000001 1.000000
vn  -0.000000 -1.000000 0.000000
vn  1.000000 -0.000000 0.000000
vn  -0.000000 -1.000000 -0.000000
vn  -0.000001 -1.000000 -0.000000
vn  -0.000000 -1.000000 -0.000000
vn  -0.000000 -1.000000 0.000000
# 88 vertex normals

g close1
s 1
f 138/117/138 78/118/78 74/114/74
f 74/114/74 114/113/114 138/117/138
f 117/115/117 119/116/119 142/119/142
f 142/119/142 80/120/80 117/115/117
f 73/121/73 116/122/116 120/124/120
f 120/124/120 75/123/75 73/121/73
f 140/163/140 79/164/79 76/162/76
f 76/162/76 115/161/115 140/163/140
f 113/165/113 118/166/118 144/168/144
f 144/168/144 77/167/77 113/165/113
f 139/125/139 137/126/137 145/127/145
f 145/127/145 146/128/146 139/125/139
f 143/129/143 141/130/141 147/131/147
f 147/131/147 148/132/148 143/129/143
f 141/138/141 139/133/139 146/136/146
f 146/136/146 147/139/147 141/138/141
f 137/134/137 143/137/143 148/140/148
f 148/140/148 145/135/145 137/134/137
f 81/142/81 85/143/85 87/144/87
f 87/144/87 82/141/82 81/142/81
f 83/146/83 88/147/88 86/148/86
f 86/148/86 84/145/84 83/146/83
f 82/150/82 87/151/87 88/152/88
f 88/152/88 83/149/83 82/150/82
f 84/154/84 86/155/86 85/156/85
f 85/156/85 81/153/81 84/154/84
f 85/157/85 86/158/86 88/159/88
f 88/159/88 87/160/87 85/157/85
f 150/213/150 94/214/94 90/210/90
f 90/210/90 122/209/122 150/213/150
f 127/212/127 154/215/154 96/216/96
f 96/216/96 125/211/125 127/212/127
f 89/169/89 124/170/124 128/172/128
f 128/172/128 91/171/91 89/169/89
f 152/222/152 95/223/95 92/218/92
f 92/218/92 123/217/123 152/222/152
f 121/219/121 126/220/126 156/224/156
f 156/224/156 93/221/93 121/219/121
f 151/173/151 149/174/149 157/175/157
f 157/175/157 158/176/158 151/173/151
f 155/177/155 153/178/153 159/179/159
f 159/179/159 160/180/160 155/177/155
f 153/186/153 151/181/151 158/184/158
f 158/184/158 159/187/159 153/186/153
f 149/182/149 155/185/155 160/188/160
f 160/188/160 157/183/157 149/182/149
f 98/189/98 97/190/97 101/191/101
f 101/191/101 103/192/103 98/189/98
f 100/193/100 99/194/99 104/195/104
f 104/195/104 102/196/102 100/193/100
f 99/197/99 98/198/98 103/199/103
f 103/199/103 104/200/104 99/197/99
f 97/201/97 100/202/100 102/203/102
f 102/203/102 101/204/101 97/201/97
f 101/205/101 102/206/102 104/207/104
f 104/207/104 103/208/103 101/205/101
f 105/233/105 107/234/107 108/235/108
f 108/235/108 106/236/106 105/233/105
f 129/237/129 131/238/131 135/239/135
f 135/239/135 133/240/133 129/237/129
f 105/241/105 106/242/106 132/243/132
f 132/243/132 109/244/109 105/241/105
f 106/225/106 108/226/108 136/227/136
f 136/227/136 110/228/110 106/225/106
f 108/245/108 107/246/107 134/247/134
f 134/247/134 112/248/112 108/245/108
f 107/229/107 105/230/105 130/231/130
f 130/231/130 111/232/111 107/229/107
# 68 faces

g
# object open1 to come ...
#
v  9.975166 0.382946 -89.941902
v  89.975166 0.382946 -89.941902
v  9.975166 0.382946 -9.941902
v  89.975166 0.382946 -9.941902
v  9.975166 57.482208 -89.941902
v  89.975166 57.482208 -89.941902
v  89.975166 57.482204 -9.941902
v  9.975166 57.482204 -9.941902
v  17.765800 57.482208 -82.151260
v  82.184525 57.482208 -82.151260
v  82.184525 57.482204 -17.732544
v  17.765800 57.482204 -17.732544
v  17.765800 5.485989 -82.151260
v  17.765800 5.485989 -17.732544
v  82.184525 5.485989 -82.151260
v  82.184525 5.485989 -17.732544
v  89.975166 71.996185 -106.861778
v  9.975174 71.996193 -106.861786
v  89.975166 133.279739 -55.438770
v  9.975166 133.279739 -55.438774
v  89.975159 57.275200 -89.317978
v  9.975182 57.275211 -89.317993
v  9.975166 118.558746 -37.894997
v  89.975159 118.558746 -37.894978
v  82.184525 63.243176 -84.310257
v  17.765816 63.243179 -84.310257
v  17.765800 112.590767 -42.902725
v  82.184517 112.590767 -42.902706
v  82.184525 73.822777 -96.918549
v  82.184525 123.170380 -55.510994
v  17.765808 73.822784 -96.918549
v  17.765816 123.170380 -55.510994
v  44.973087 110.931915 -29.435461
v  54.977245 110.931915 -29.435461
v  44.973087 124.461563 -45.559475
v  54.977245 124.461563 -45.559475
v  44.973087 116.870804 -24.452135
v  54.977245 116.870804 -24.452135
v  44.973087 130.400467 -40.576145
v  54.977245 130.400467 -40.576145
v  89.975166 71.996185 -106.861778
v  89.975166 71.996185 -106.861778
v  9.975174 71.996193 -106.861786
v  9.975174 71.996193 -106.861786
v  89.975166 133.279739 -55.438770
v  89.975166 133.279739 -55.438770
v  9.975166 133.279739 -55.438774
v  9.975166 133.279739 -55.438774
v  89.975159 57.275200 -89.317978
v  89.975159 57.275200 -89.317978
v  9.975182 57.275211 -89.317993
v  9.975182 57.275211 -89.317993
v  9.975166 118.558746 -37.894997
v  9.975166 118.558746 -37.894997
v  89.975159 118.558746 -37.894978
v  89.975159 118.558746 -37.894978
v  9.975166 0.382946 -89.941902
v  9.975166 0.382946 -89.941902
v  89.975166 0.382946 -89.941902
v  89.975166 0.382946 -89.941902
v  9.975166 0.382946 -9.941902
v  9.975166 0.382946 -9.941902
v  89.975166 0.382946 -9.941902
v  89.975166 0.382946 -9.941902
v  9.975166 57.482208 -89.941902
v  89.975166 57.482208 -89.941902
v  89.975166 57.482204 -9.941902
v  89.975166 57.482204 -9.941902
v  9.975166 57.482204 -9.941902
v  9.975166 57.482204 -9.941902
v  17.765800 57.482208 -82.151260
v  82.184525 57.482208 -82.151260
v  82.184525 57.482204 -17.732544
v  17.765800 57.482204 -17.732544
# 74 vertices

vt  0.756971 0.979608 0.000000
vt  0.756971 0.261082 0.000000
vt  0.756971 0.261082 0.000000
vt  0.756971 0.979608 0.000000
vt  0.057409 0.979608 0.000000
vt  0.057409 0.261082 0.000000
vt  0.057409 0.979608 0.000000
vt  0.057409 0.261082 0.000000
vt  0.057409 0.261082 0.000000
vt  0.756971 0.261082 0.000000
vt  0.057409 0.979608 0.000000
vt  0.756971 0.979608 0.000000
vt  0.056655 1.993790 -0.003193
vt  0.056655 1.637532 0.637911
vt  0.003268 1.637532 0.606694
vt  0.003268 1.993790 0.090456
vt  0.056655 1.637532 0.958462
vt  0.056655 1.993790 0.317359
vt  0.003268 1.993790 0.348575
vt  0.003268 1.637532 0.864814
vt  0.056655 1.637532 -0.003193
vt  0.056655 1.637532 0.637911
vt  0.003268 1.637532 0.606694
vt  0.003268 1.637532 0.090456
vt  0.056655 1.262522 0.958462
vt  0.056655 1.262522 0.317359
vt  0.003268 1.262522 0.348575
vt  0.003268 1.262522 0.864814
vt  0.743502 -0.764236 0.000499
vt  0.013658 -0.764236 0.000499
vt  0.013658 -0.992186 0.000499
vt  0.743502 -0.992186 0.000499
vt  0.013658 -0.764236 0.999500
vt  0.743502 -0.764236 0.999500
vt  0.743502 -0.992186 0.999500
vt  0.013658 -0.992186 0.999500
vt  0.013658 -0.764032 0.999500
vt  0.743502 -0.764032 0.999501
vt  0.743502 -0.989444 0.999500
vt  0.013658 -0.989444 0.999500
vt  0.743502 -0.764032 0.000500
vt  0.013658 -0.764032 0.000500
vt  0.013658 -0.989443 0.000499
vt  0.743502 -0.989444 0.000500
vt  0.717593 -0.984302 0.535226
vt  0.035072 -0.984302 -0.156509
vt  0.035072 -0.770583 0.484595
vt  0.717593 -0.770583 1.176329
vt  0.756971 0.261082 0.000000
vt  0.756971 0.979608 0.000000
vt  0.057409 0.261082 0.000000
vt  0.057409 0.979608 0.000000
vt  0.756951 0.979608 0.000000
vt  0.756951 0.261082 0.000000
vt  0.057389 0.979608 0.000000
vt  0.057389 0.261082 0.000000
vt  0.056060 0.260204 0.000000
vt  0.755622 0.260204 0.000000
vt  0.056060 0.979440 0.000000
vt  0.755622 0.979440 0.000000
vt  0.056655 1.637532 -0.003193
vt  0.056655 1.262522 0.637911
vt  0.003268 1.262522 0.606694
vt  0.003268 1.637532 0.090456
vt  0.056655 1.262522 0.958462
vt  0.056655 1.637532 0.317359
vt  0.003268 1.637532 0.348575
vt  0.003268 1.262522 0.864814
vt  0.056655 1.993790 -0.003193
vt  0.056655 1.993790 0.637911
vt  0.003268 1.993790 0.606694
vt  0.003268 1.993790 0.090456
vt  0.056655 1.637532 0.958462
vt  0.056655 1.637532 0.317359
vt  0.003268 1.637532 0.348575
vt  0.003268 1.637532 0.864814
vt  0.743502 -0.764236 0.000499
vt  0.013658 -0.764236 0.000499
vt  0.013658 -0.992186 0.000499
vt  0.743502 -0.992186 0.000499
vt  0.013658 -0.764236 0.999500
vt  0.743502 -0.764236 0.999500
vt  0.743502 -0.992186 0.999500
vt  0.013658 -0.992186 0.999500
vt  0.013658 -0.764032 0.999500
vt  0.743502 -0.764032 0.999501
vt  0.743502 -0.989444 0.999500
vt  0.013658 -0.989444 0.999500
vt  0.743502 -0.764032 0.000500
vt  0.013658 -0.764032 0.000500
vt  0.013658 -0.989443 0.000499
vt  0.743502 -0.989444 0.000500
vt  0.717593 -0.984302 0.535226
vt  0.035072 -0.984302 -0.156509
vt  0.035072 -0.770583 0.484595
vt  0.717593 -0.770583 1.176329
vt  0.815276 0.987138 0.000000
vt  0.815276 0.275024 0.000000
vt  0.815276 0.275024 0.000000
vt  0.815276 0.987138 0.000000
vt  0.996531 0.987138 0.000000
vt  0.996531 0.275024 0.000000
vt  0.996531 0.987138 0.000000
vt  0.996531 0.275024 0.000000
vt  0.997431 0.274100 0.000000
vt  0.997431 0.993335 0.000000
vt  0.815706 0.993335 0.000000
vt  0.815706 0.274100 0.000000
vt  0.997431 0.993335 0.000000
vt  0.815706 0.274100 0.000000
vt  0.815706 0.993335 0.000000
vt  0.997431 0.274100 0.000000
vt  0.800979 0.116698 0.000500
vt  0.800979 0.228216 0.000499
vt  0.866214 0.228216 0.000500
vt  0.866214 0.116698 0.000500
vt  0.800979 0.228216 0.999500
vt  0.800979 0.116698 0.999500
vt  0.866214 0.116698 0.999501
vt  0.866214 0.228216 0.999500
vt  0.988006 0.221687 0.000500
vt  0.988006 0.028654 0.000500
vt  0.909368 0.028654 0.000500
vt  0.909368 0.221687 0.000500
vt  0.988006 0.221687 0.999501
vt  0.909368 0.221687 0.999501
vt  0.909368 0.028654 0.999501
vt  0.988006 0.028654 0.999501
vt  0.770570 0.004262 0.999500
vt  0.895594 0.004262 0.999501
vt  0.895594 0.106386 0.999501
vt  0.770570 0.106386 0.999500
vt  0.895594 0.004262 0.000500
vt  0.770570 0.004262 0.000499
vt  0.770570 0.106386 0.000499
vt  0.895594 0.106386 0.000500
# 136 texture vertices

vn  0.000000 -1.000000 0.000000
vn  0.000000 0.000000 -1.000000
vn  0.000000 -1.000000 0.000000
vn  1.000000 0.000000 0.000000
vn  -1.000000 0.000000 0.000000
vn  1.000000 0.000000 0.000000
vn  -0.000000 1.000000 0.000000
vn  -1.000000 0.000000 0.000000
vn  -0.000000 1.000000 0.000000
vn  -0.707107 0.000000 0.707107
vn  -0.707107 0.000000 -0.707107
vn  0.000000 1.000000 0.000000
vn  0.577350 0.577350 0.577350
vn  0.577350 0.577350 -0.577350
vn  -0.577350 0.577350 0.577350
vn  -0.577350 0.577350 -0.577350
vn  0.000000 0.642788 -0.766044
vn  -0.000000 -0.766045 -0.642787
vn  0.000000 0.642788 -0.766044
vn  -1.000000 -0.000000 -0.000000
vn  1.000000 -0.000000 0.000000
vn  -0.000000 -0.766045 -0.642787
vn  -1.000000 -0.000000 -0.000000
vn  -0.000000 0.766044 0.642788
vn  -0.301512 -0.350452 0.886721
vn  0.301511 -0.350453 0.886721
vn  0.301512 -0.812394 0.499106
vn  -0.301511 -0.812394 0.499105
vn  -0.577350 0.071163 0.813390
vn  -0.577350 -0.813389 0.071162
vn  0.577350 0.071162 0.813389
vn  0.577350 -0.813390 0.071162
vn  0.000000 -1.627075 -0.504654
vn  0.000000 -2.212989 0.193611
vn  0.000000 -0.193612 -2.212988
vn  1.570796 -1.203300 -1.009688
vn  0.000000 0.193610 2.212988
vn  0.000000 0.617385 1.707954
vn  0.000000 1.789213 0.311424
vn  1.217889 1.203299 1.009689
vn  1.000000 -0.000000 0.000000
vn  -0.000000 -0.766045 -0.642787
vn  -1.000000 -0.000000 0.000000
vn  0.000000 0.642788 -0.766044
vn  -0.000000 0.766044 0.642788
vn  1.000000 -0.000000 0.000000
vn  -0.000000 0.766044 0.642788
vn  0.000000 0.642788 -0.766044
vn  -0.000000 -0.642788 0.766044
vn  -0.000000 -0.766045 -0.642787
vn  -0.000001 -0.642788 0.766044
vn  -1.000000 -0.000000 0.000000
vn  -0.000000 -0.642788 0.766044
vn  -0.000000 0.766044 0.642788
vn  -0.000000 -0.642788 0.766045
vn  1.000000 -0.000000 0.000000
vn  -1.000000 0.000000 0.000000
vn  0.000000 0.000000 -1.000000
vn  1.000000 0.000000 0.000000
vn  0.000000 -1.000000 0.000000
vn  0.000000 0.000000 1.000000
vn  -1.000000 0.000000 0.000000
vn  0.000000 0.000000 1.000000
vn  0.000000 -1.000000 0.000000
vn  0.000000 0.785398 -1.570796
vn  0.000000 0.107474 -1.570796
vn  0.000000 0.000000 1.000000
vn  1.000000 0.000000 0.000000
vn  0.000000 0.000000 1.000000
vn  0.000000 1.000000 0.000000
vn  0.707107 0.000000 0.707107
vn  0.000000 1.000000 0.000000
vn  -0.000000 1.000000 0.000000
vn  0.707107 0.000000 -0.707107
# 74 vertex normals

g open1
s 1
f 225/253/225 226/254/226 162/250/162
f 162/250/162 218/249/218 225/253/225
f 221/251/221 223/252/223 227/255/227
f 227/255/227 229/256/229 221/251/221
f 161/257/161 220/258/220 224/260/224
f 224/260/224 163/259/163 161/257/161
f 166/299/166 228/300/228 164/298/164
f 164/298/164 219/297/219 166/299/166
f 217/301/217 222/302/222 168/304/168
f 168/304/168 165/303/165 217/301/217
f 226/261/226 225/262/225 169/263/169
f 169/263/169 232/264/232 226/261/226
f 230/265/230 167/266/167 233/267/233
f 233/267/233 172/268/172 230/265/230
f 167/274/167 226/269/226 232/272/232
f 232/272/232 233/275/233 167/274/167
f 225/270/225 230/273/230 172/276/172
f 172/276/172 169/271/169 225/270/225
f 231/278/231 173/279/173 175/280/175
f 175/280/175 170/277/170 231/278/231
f 171/282/171 176/283/176 174/284/174
f 174/284/174 234/281/234 171/282/171
f 170/286/170 175/287/175 176/288/176
f 176/288/176 171/285/171 170/286/170
f 234/290/234 174/291/174 173/292/173
f 173/292/173 231/289/231 234/290/234
f 173/293/173 174/294/174 176/295/176
f 176/295/176 175/296/175 173/293/173
f 210/349/210 182/350/182 178/346/178
f 178/346/178 202/345/202 210/349/210
f 207/348/207 214/351/214 184/352/184
f 184/352/184 205/347/205 207/348/207
f 177/305/177 204/306/204 208/308/208
f 208/308/208 179/307/179 177/305/177
f 212/358/212 183/359/183 180/354/180
f 180/354/180 203/353/203 212/358/212
f 201/355/201 206/356/206 216/360/216
f 216/360/216 181/357/181 201/355/201
f 211/309/211 209/310/209 185/311/185
f 185/311/185 186/312/186 211/309/211
f 215/313/215 213/314/213 187/315/187
f 187/315/187 188/316/188 215/313/215
f 213/322/213 211/317/211 186/320/186
f 186/320/186 187/323/187 213/322/213
f 209/318/209 215/321/215 188/324/188
f 188/324/188 185/319/185 209/318/209
f 186/325/186 185/326/185 189/327/189
f 189/327/189 191/328/191 186/325/186
f 188/329/188 187/330/187 192/331/192
f 192/331/192 190/332/190 188/329/188
f 187/333/187 186/334/186 191/335/191
f 191/335/191 192/336/192 187/333/187
f 185/337/185 188/338/188 190/339/190
f 190/339/190 189/340/189 185/337/185
f 189/341/189 190/342/190 192/343/192
f 192/343/192 191/344/191 189/341/189
f 193/369/193 195/370/195 196/371/196
f 196/371/196 194/372/194 193/369/193
f 197/373/197 198/374/198 200/375/200
f 200/375/200 199/376/199 197/373/197
f 193/377/193 194/378/194 198/379/198
f 198/379/198 197/380/197 193/377/193
f 194/361/194 196/362/196 200/363/200
f 200/363/200 198/364/198 194/361/194
f 196/381/196 195/382/195 199/383/199
f 199/383/199 200/384/200 196/381/196
f 195/365/195 193/366/193 197/367/197
f 197/367/197 199/368/199 195/365/195
# 68 faces

g
# object close2 to come ...
#
v  20.024017 0.382950 -89.941902
v  101.134689 0.382950 -89.941902
v  20.024017 0.382950 -9.941902
v  101.134689 0.382950 -9.941902
v  20.024017 57.482208 -89.941902
v  101.134689 57.482208 -89.941902
v  101.134689 57.482204 -9.941902
v  20.024017 57.482204 -9.941902
v  27.814667 57.482208 -82.151268
v  101.134659 57.482208 -82.151260
v  101.134750 57.482204 -17.732544
v  27.814667 57.482204 -17.732544
v  27.814667 5.485989 -82.151268
v  27.814667 5.485989 -17.732544
v  101.134659 5.485989 -82.151260
v  101.134750 5.485989 -17.732544
v  101.134689 80.383987 -89.941895
v  20.024033 80.383987 -89.941895
v  101.134689 80.383980 -9.941887
v  20.024033 80.383987 -9.941887
v  101.134689 57.482193 -89.941879
v  20.024033 57.482208 -89.941879
v  20.024017 57.482201 -9.941902
v  101.134689 57.482185 -9.941887
v  101.134430 57.482185 -82.151245
v  27.814667 57.482193 -82.151245
v  27.814667 57.482201 -17.732544
v  101.134995 57.482185 -17.732529
v  101.134430 73.941132 -82.151245
v  101.134995 73.941147 -17.732529
v  27.814667 73.941147 -82.151245
v  27.814667 73.941147 -17.732529
v  94.992035 46.099396 -10.346710
v  104.996185 46.099396 -10.346710
v  94.992035 67.147804 -10.346710
v  104.996185 67.147804 -10.346710
v  94.992035 46.099396 -2.594032
v  104.996185 46.099396 -2.594032
v  94.992035 67.147804 -2.594025
v  104.996185 67.147804 -2.594025
v  20.024017 0.382950 -89.941902
v  20.024017 0.382950 -89.941902
v  101.134689 0.382950 -89.941902
v  20.024017 0.382950 -9.941902
v  20.024017 0.382950 -9.941902
v  101.134689 0.382950 -9.941902
v  101.134689 80.383987 -89.941895
v  20.024033 80.383987 -89.941895
v  20.024033 80.383987 -89.941895
v  101.134689 80.383980 -9.941887
v  20.024033 80.383987 -9.941887
v  20.024033 80.383987 -9.941887
v  20.024017 57.482208 -89.941902
v  20.024017 57.482208 -89.941902
v  101.134689 57.482208 -89.941902
v  101.134689 57.482204 -9.941902
v  20.024017 57.482204 -9.941902
v  20.024017 57.482204 -9.941902
v  27.814667 57.482208 -82.151268
v  101.134659 57.482208 -82.151260
v  101.134750 57.482204 -17.732544
v  27.814667 57.482204 -17.732544
v  101.134689 57.482193 -89.941879
v  20.024033 57.482208 -89.941879
v  20.024033 57.482208 -89.941879
v  20.024017 57.482201 -9.941902
v  20.024017 57.482201 -9.941902
v  101.134689 57.482185 -9.941887
v  101.134430 57.482185 -82.151245
v  27.814667 57.482193 -82.151245
v  27.814667 57.482201 -17.732544
v  101.134995 57.482185 -17.732529
# 72 vertices

vt  0.057409 0.261082 0.000000
vt  0.756971 0.261082 0.000000
vt  0.057409 0.979608 0.000000
vt  0.756971 0.979608 0.000000
vt  0.056655 1.993790 -0.003193
vt  0.056655 1.637532 0.637911
vt  0.003268 1.637532 0.606694
vt  0.003268 1.993790 0.090456
vt  0.056655 1.637532 0.958462
vt  0.056655 1.993790 0.317359
vt  0.003268 1.993790 0.348575
vt  0.003268 1.637532 0.864814
vt  0.056655 1.637532 0.637911
vt  0.003268 1.637532 0.606694
vt  0.056655 1.262522 0.958462
vt  0.003268 1.262522 0.864814
vt  0.743502 -0.764236 0.000499
vt  0.013658 -0.764236 0.000499
vt  0.013658 -0.992186 0.000499
vt  0.743502 -0.992186 0.000499
vt  0.013658 -0.764236 0.999500
vt  0.743502 -0.764236 0.999500
vt  0.743502 -0.992186 0.999500
vt  0.013658 -0.992186 0.999500
vt  0.743502 -0.764032 0.000500
vt  0.013658 -0.764032 0.000500
vt  0.013658 -0.989443 0.000499
vt  0.743502 -0.989444 0.000500
vt  0.717593 -0.984302 0.535226
vt  0.035072 -0.984302 -0.156509
vt  0.035072 -0.770583 0.484595
vt  0.717593 -0.770583 1.176329
vt  0.756951 0.979608 0.000000
vt  0.756951 0.261082 0.000000
vt  0.057389 0.979608 0.000000
vt  0.057389 0.261082 0.000000
vt  0.756971 0.261082 0.000000
vt  0.756971 0.889353 0.000000
vt  0.057409 0.889353 0.000000
vt  0.057409 0.261082 0.000000
vt  0.756971 0.261082 0.000000
vt  0.756971 0.889353 0.000000
vt  0.057409 0.261082 0.000000
vt  0.057409 0.889353 0.000000
vt  0.056655 1.637532 -0.003193
vt  0.056655 1.262522 0.637911
vt  0.003268 1.262522 0.606694
vt  0.003268 1.637532 0.090456
vt  0.056655 1.262522 0.958462
vt  0.056655 1.637532 0.317359
vt  0.003268 1.637532 0.348575
vt  0.003268 1.262522 0.864814
vt  0.056655 1.993790 -0.003193
vt  0.003268 1.993790 0.090456
vt  0.056655 1.637532 0.317359
vt  0.003268 1.637532 0.348575
vt  0.743502 -0.764236 0.000499
vt  0.013658 -0.764236 0.000499
vt  0.013658 -0.992186 0.000499
vt  0.743502 -0.992186 0.000499
vt  0.013658 -0.764236 0.999500
vt  0.743502 -0.764236 0.999500
vt  0.743502 -0.992186 0.999500
vt  0.013658 -0.992186 0.999500
vt  0.013658 -0.764032 0.999500
vt  0.743502 -0.764032 0.999501
vt  0.743502 -0.989444 0.999500
vt  0.013658 -0.989444 0.999500
vt  0.717593 -0.984302 0.535226
vt  0.035072 -0.984302 -0.156509
vt  0.035072 -0.770583 0.484595
vt  0.717593 -0.770583 1.176329
vt  0.997431 0.274100 0.000000
vt  0.997431 0.993335 0.000000
vt  0.815706 0.274100 0.000000
vt  0.815706 0.993335 0.000000
vt  0.815276 0.359003 0.000000
vt  0.815276 0.987138 0.000000
vt  0.996531 0.987138 0.000000
vt  0.996531 0.359003 0.000000
vt  0.118444 0.260204 0.000000
vt  0.755622 0.260204 0.000000
vt  0.118444 0.979440 0.000000
vt  0.755622 0.979440 0.000000
vt  0.800979 0.116698 0.000500
vt  0.800979 0.228216 0.000499
vt  0.866214 0.228216 0.000500
vt  0.866214 0.116698 0.000500
vt  0.800979 0.228216 0.999500
vt  0.800979 0.116698 0.999500
vt  0.866214 0.116698 0.999501
vt  0.866214 0.228216 0.999500
vt  0.988006 0.221687 0.000500
vt  0.988006 0.028654 0.000500
vt  0.909368 0.028654 0.000500
vt  0.909368 0.221687 0.000500
vt  0.988006 0.221687 0.999501
vt  0.909368 0.221687 0.999501
vt  0.909368 0.028654 0.999501
vt  0.988006 0.028654 0.999501
vt  0.770570 0.004262 0.999500
vt  0.895594 0.004262 0.999501
vt  0.895594 0.106386 0.999501
vt  0.770570 0.106386 0.999500
vt  0.895594 0.004262 0.000500
vt  0.770570 0.004262 0.000499
vt  0.770570 0.106386 0.000499
vt  0.895594 0.106386 0.000500
vt  0.815276 0.359003 0.000000
vt  0.815276 0.987138 0.000000
vt  0.996531 0.359003 0.000000
vt  0.996531 0.987138 0.000000
# 112 texture vertices

vn  0.000000 -1.000000 0.000000
vn  0.000000 -1.000000 0.000000
vn  0.000000 -1.000000 0.000000
vn  0.000000 0.000000 1.000000
vn  -1.000000 0.000000 0.000000
vn  0.000000 0.000000 -1.000000
vn  0.000000 1.000000 0.000000
vn  0.000000 0.000000 1.000000
vn  0.707107 0.000000 0.707107
vn  0.000000 1.000000 0.000000
vn  0.000000 0.000000 -1.000000
vn  0.707107 0.000000 -0.707107
vn  0.577350 0.577350 0.577350
vn  0.577350 0.577350 -0.577350
vn  -0.000000 0.707107 0.707106
vn  0.000000 0.707106 -0.707107
vn  -0.000000 -0.000000 -1.000000
vn  -0.000000 -0.000000 -1.000000
vn  0.000000 1.000000 0.000000
vn  -1.000000 0.000001 -0.000000
vn  -0.000000 -1.000000 -0.000001
vn  -0.000000 -0.000000 -1.000000
vn  -1.000000 0.000001 -0.000000
vn  -0.000000 -0.000000 1.000000
vn  0.000000 0.000000 1.000000
vn  0.707107 0.000000 0.707107
vn  0.707107 0.000001 -0.707106
vn  -0.000000 -1.000000 -0.000000
vn  -0.000000 -0.707109 0.707105
vn  0.000000 -0.707105 -0.707109
vn  0.577350 -0.577350 0.577350
vn  0.577350 -0.577350 -0.577350
vn  0.000000 -0.659276 -1.570796
vn  0.000000 -1.570796 -1.570796
vn  0.000000 1.570796 -1.570796
vn  1.570796 0.000000 -1.570796
vn  0.000000 -1.570797 1.570796
vn  0.000000 -0.911521 1.570796
vn  0.000000 0.911519 1.570796
vn  1.217889 -0.000001 1.570796
vn  -1.000000 0.000000 0.000000
vn  0.000000 0.000000 -1.000000
vn  0.000000 0.000000 -1.000000
vn  0.000000 0.000000 1.000000
vn  -1.000000 0.000000 0.000000
vn  0.000000 -1.000000 0.000000
vn  0.000000 1.000000 0.000000
vn  -1.000000 0.000000 0.000000
vn  0.000000 1.000000 0.000000
vn  0.000000 0.000000 1.000000
vn  -0.000000 -0.000001 1.000000
vn  0.000000 1.000000 0.000000
vn  -0.000000 1.000000 0.000000
vn  0.000000 0.000000 -1.000000
vn  0.000000 1.000000 0.000000
vn  0.000000 0.000000 1.000000
vn  0.000000 1.000000 0.000000
vn  -1.000000 0.000000 0.000000
vn  -0.000000 1.000000 0.000000
vn  -0.000000 0.000000 1.000000
vn  0.000000 1.000000 0.000000
vn  0.000000 1.000000 0.000000
vn  -0.000000 -0.000000 -1.000000
vn  -0.000001 -1.000000 -0.000001
vn  -1.000000 0.000000 -0.000000
vn  -0.000000 -1.000000 -0.000000
vn  -0.000000 -0.000001 1.000000
vn  -0.000000 -1.000000 -0.000000
vn  -0.000000 -1.000000 -0.000001
vn  -0.000001 -1.000000 -0.000001
vn  -0.000000 -1.000000 -0.000000
vn  0.000000 0.000000 -1.000000
# 72 vertex normals

g close2
s 1
f 288/427/288 240/428/240 277/426/277
f 277/426/277 276/425/276 288/427/288
f 278/421/278 238/422/238 290/423/290
f 290/423/290 242/424/242 278/421/278
f 235/385/235 236/386/236 280/388/280
f 280/388/280 237/387/237 235/385/235
f 275/417/275 279/418/279 292/420/292
f 292/420/292 239/419/239 275/417/275
f 289/389/289 287/390/287 293/391/293
f 293/391/293 244/392/244 289/389/289
f 291/393/291 241/394/241 295/395/295
f 295/395/295 296/396/296 291/393/291
f 287/397/287 291/399/291 296/400/296
f 296/400/296 293/398/293 287/397/287
f 243/402/243 247/403/247 249/404/249
f 249/404/249 294/401/294 243/402/243
f 245/406/245 250/407/250 248/408/248
f 248/408/248 246/405/246 245/406/245
f 246/410/246 248/411/248 247/412/247
f 247/412/247 243/409/243 246/410/246
f 247/413/247 248/414/248 250/415/250
f 250/415/250 249/416/249 247/413/247
f 297/495/297 256/496/256 252/494/252
f 252/494/252 251/493/251 297/495/297
f 285/462/285 301/463/301 258/464/258
f 258/464/258 284/461/284 285/462/285
f 281/465/281 283/466/283 286/468/286
f 286/468/286 253/467/253 281/465/281
f 299/459/299 257/460/257 254/458/254
f 254/458/254 282/457/282 299/459/299
f 298/429/298 255/430/255 303/431/303
f 303/431/303 304/432/304 298/429/298
f 302/433/302 300/434/300 305/435/305
f 305/435/305 262/436/262 302/433/302
f 300/439/300 298/437/298 304/438/304
f 304/438/304 305/440/305 300/439/300
f 260/441/260 259/442/259 263/443/263
f 263/443/263 265/444/265 260/441/260
f 306/445/306 261/446/261 266/447/266
f 266/447/266 264/448/264 306/445/306
f 261/449/261 260/450/260 265/451/265
f 265/451/265 266/452/266 261/449/261
f 263/453/263 264/454/264 266/455/266
f 266/455/266 265/456/265 263/453/263
f 267/477/267 269/478/269 270/479/270
f 270/479/270 268/480/268 267/477/267
f 271/481/271 272/482/272 274/483/274
f 274/483/274 273/484/273 271/481/271
f 267/485/267 268/486/268 272/487/272
f 272/487/272 271/488/271 267/485/267
f 268/469/268 270/470/270 274/471/274
f 274/471/274 272/472/272 268/469/268
f 270/489/270 269/490/269 273/491/273
f 273/491/273 274/492/274 270/489/270
f 269/473/269 267/474/267 271/475/271
f 271/475/271 273/476/273 269/473/269
# 56 faces

g
