# Max2Obj Version 4.0 Mar 10th, 2001
#
# object light to come ...
#
v  66.406433 36.864670 -12.000031
v  61.538345 36.864670 -9.189436
v  56.670258 36.864670 -12.000030
v  56.670258 36.864670 -17.621214
v  61.538345 36.864670 -20.431807
v  66.406433 36.864670 -17.621214
v  66.406433 28.291975 -12.000031
v  61.538342 28.291975 -9.189440
v  56.670258 28.291975 -12.000030
v  56.670254 28.291975 -17.621218
v  61.538345 28.291975 -20.431810
v  66.406433 28.291975 -17.621214
v  66.406433 11.825163 -12.000031
v  61.538342 11.825163 -9.189444
v  56.670258 11.825163 -12.000033
v  56.670258 11.825167 -17.621214
v  61.538345 11.825167 -20.431810
v  66.406433 11.825167 -17.621214
v  61.538342 33.634380 -9.189440
v  66.406433 33.634380 -12.000031
v  56.670258 33.634380 -12.000030
v  56.670254 33.634380 -17.621218
v  61.538345 33.634380 -20.431810
v  66.406433 33.634380 -17.621214
v  64.656616 30.178432 -13.010285
v  61.538345 30.178432 -11.209955
v  58.420071 30.178432 -13.010290
v  58.420074 30.178432 -16.610960
v  61.538345 30.178432 -18.411291
v  64.656616 30.178432 -16.610960
v  61.538345 38.978012 -14.810625
v  62.600838 34.769398 -9.920046
v  64.115303 36.518147 -10.794422
v  63.240929 34.769394 -12.308893
v  64.115303 33.020641 -10.794422
v  64.989685 34.769398 -9.279958
v  65.629768 34.769398 -11.668797
v  56.079094 35.686508 -13.449931
v  56.720406 36.804607 -12.534034
v  57.636303 35.686508 -13.175353
v  56.720409 34.568405 -12.534034
v  55.804512 35.686508 -11.892718
v  57.361721 35.686508 -11.618138
v  57.559498 36.150612 -19.364412
v  58.378391 34.419495 -20.111208
v  59.338017 35.446873 -18.611654
v  59.310978 37.150440 -19.761507
v  58.351349 36.123070 -21.261057
v  60.129871 35.419327 -20.508295
v  66.998833 35.736034 -14.791497
v  66.998833 36.963787 -16.019251
v  65.771080 35.736034 -16.019255
v  66.998833 34.508274 -16.019251
v  68.226593 35.736034 -16.019253
v  66.998833 35.736034 -17.247007
v  59.342892 38.293083 -15.202436
v  60.808296 38.326241 -17.194353
v  61.190720 36.661949 -15.405455
v  61.327511 38.484371 -13.739218
v  60.945087 40.148666 -15.528131
v  62.792912 38.517525 -15.731157
v  61.563885 51.803078 -14.785616
v  68.731361 47.024761 -18.923756
v  61.563881 47.024761 -23.061903
v  54.396404 47.024761 -18.923763
v  54.396404 47.024761 -10.647473
v  61.563881 47.024761 -6.509327
v  68.731354 47.024761 -10.647470
v  68.731361 37.468128 -18.923756
v  61.563881 37.468128 -23.061907
v  54.396404 37.468128 -18.923763
v  54.396404 37.468128 -10.647473
v  61.563881 37.468128 -6.509327
v  68.731354 37.468128 -10.647473
v  61.563881 33.283073 -14.785616
v  66.372147 49.981419 -17.561666
v  61.563881 49.981419 -20.337713
v  56.755623 49.981419 -17.561670
v  56.755619 49.981419 -12.009570
v  61.563881 49.981422 -9.233517
v  66.372139 49.981422 -12.009568
v  70.048920 42.246445 -19.684452
v  61.563881 42.246445 -24.583296
v  53.078842 42.246445 -19.684456
v  53.078842 42.246445 -9.886777
v  61.563881 42.246445 -4.987932
v  70.048920 42.246445 -9.886777
v  40.735882 36.864670 -12.000039
v  35.867790 36.864670 -9.189444
v  30.999702 36.864670 -12.000037
v  30.999704 36.864670 -17.621222
v  35.867794 36.864670 -20.431814
v  40.735882 36.864670 -17.621222
v  40.735882 28.291975 -12.000039
v  35.867790 28.291975 -9.189447
v  30.999702 28.291975 -12.000037
v  30.999702 28.291975 -17.621225
v  35.867794 28.291975 -20.431818
v  40.735882 28.291975 -17.621222
v  40.735878 11.825163 -12.000039
v  35.867790 11.825163 -9.189451
v  30.999704 11.825163 -12.000041
v  30.999706 11.825167 -17.621222
v  35.867794 11.825167 -20.431818
v  40.735882 11.825167 -17.621222
v  35.867790 33.634380 -9.189447
v  40.735882 33.634380 -12.000039
v  30.999702 33.634380 -12.000037
v  30.999702 33.634380 -17.621225
v  35.867794 33.634380 -20.431818
v  40.735882 33.634380 -17.621222
v  38.986061 30.178432 -13.010294
v  35.867790 30.178432 -11.209963
v  32.749519 30.178432 -13.010299
v  32.749523 30.178432 -16.610968
v  35.867794 30.178432 -18.411299
v  38.986061 30.178432 -16.610968
v  35.867790 38.978012 -14.810633
v  36.930286 34.769398 -9.920053
v  38.444752 36.518147 -10.794430
v  37.570377 34.769394 -12.308901
v  38.444752 33.020641 -10.794430
v  39.319126 34.769398 -9.279965
v  39.959213 34.769398 -11.668805
v  30.408539 35.686508 -13.449939
v  31.049854 36.804607 -12.534041
v  31.965748 35.686508 -13.175361
v  31.049854 34.568405 -12.534041
v  30.133959 35.686508 -11.892726
v  31.691170 35.686508 -11.618146
v  31.888943 36.150612 -19.364420
v  32.707840 34.419495 -20.111216
v  33.667465 35.446873 -18.611662
v  33.640423 37.150440 -19.761515
v  32.680794 36.123070 -21.261065
v  34.459320 35.419327 -20.508303
v  41.328278 35.736034 -14.791505
v  41.328278 36.963787 -16.019258
v  40.100525 35.736034 -16.019262
v  41.328278 34.508274 -16.019258
v  42.556038 35.736034 -16.019260
v  41.328278 35.736034 -17.247015
v  33.672337 38.293083 -15.202444
v  35.137745 38.326241 -17.194361
v  35.520168 36.661949 -15.405462
v  35.656956 38.484371 -13.739225
v  35.274536 40.148666 -15.528139
v  37.122356 38.517525 -15.731165
v  35.893330 51.803078 -14.785624
v  43.060806 47.024761 -18.923763
v  35.893330 47.024761 -23.061911
v  28.725849 47.024761 -18.923771
v  28.725853 47.024761 -10.647481
v  35.893330 47.024761 -6.509335
v  43.060802 47.024761 -10.647477
v  43.060806 37.468128 -18.923763
v  35.893326 37.468128 -23.061914
v  28.725849 37.468128 -18.923771
v  28.725853 37.468128 -10.647481
v  35.893330 37.468128 -6.509335
v  43.060802 37.468128 -10.647481
v  35.893330 33.283073 -14.785624
v  40.701591 49.981419 -17.561674
v  35.893330 49.981419 -20.337721
v  31.085068 49.981419 -17.561678
v  31.085068 49.981419 -12.009578
v  35.893326 49.981422 -9.233524
v  40.701588 49.981422 -12.009576
v  44.378368 42.246445 -19.684460
v  35.893326 42.246445 -24.583303
v  27.408287 42.246445 -19.684464
v  27.408291 42.246445 -9.886785
v  35.893326 42.246445 -4.987940
v  44.378368 42.246445 -9.886785
v  66.406433 28.291975 -12.000031
v  61.538342 28.291975 -9.189440
v  56.670258 28.291975 -12.000030
v  56.670254 28.291975 -17.621218
v  61.538345 28.291975 -20.431810
v  66.406433 28.291975 -17.621214
v  40.735882 28.291975 -12.000039
v  35.867790 28.291975 -9.189447
v  30.999702 28.291975 -12.000037
v  30.999702 28.291975 -17.621225
v  35.867794 28.291975 -20.431818
v  40.735882 28.291975 -17.621222
# 186 vertices

vt  0.562159 0.218579 0.000500
vt  0.562160 0.302781 0.000500
vt  0.562160 0.374354 0.500000
vt  0.562159 0.302781 0.999500
vt  0.562159 0.218579 0.999500
vt  0.562159 0.147006 0.500000
vt  0.723726 0.218579 0.000500
vt  0.723726 0.302781 0.000500
vt  0.723726 0.374354 0.500000
vt  0.723726 0.302781 0.999500
vt  0.723726 0.218579 0.999500
vt  0.723726 0.147006 0.500000
vt  0.983264 0.218579 0.000500
vt  0.983264 0.302781 0.000500
vt  0.983264 0.374354 0.500000
vt  0.983264 0.302781 0.999501
vt  0.983264 0.218579 0.999500
vt  0.983264 0.147006 0.500000
vt  0.615754 0.302781 0.000500
vt  0.615754 0.218579 0.000500
vt  0.615754 0.374354 0.500000
vt  0.615754 0.302781 0.999500
vt  0.615754 0.218579 0.999500
vt  0.615754 0.147006 0.500000
vt  0.678617 0.218579 0.180043
vt  0.678617 0.302781 0.180043
vt  0.678617 0.374354 0.500000
vt  0.678617 0.302781 0.819957
vt  0.678617 0.218579 0.819957
vt  0.678617 0.147006 0.500000
vt  0.527096 0.260680 0.500000
vt  0.501852 0.173088 0.999500
vt  0.492725 0.198165 0.500000
vt  0.476775 0.163960 0.500000
vt  0.510980 0.148010 0.500000
vt  0.526930 0.182215 0.500000
vt  0.501852 0.173088 0.000500
vt  0.501852 0.173088 0.999500
vt  0.492725 0.198165 0.500000
vt  0.476775 0.163960 0.500000
vt  0.510980 0.148010 0.500000
vt  0.526930 0.182215 0.500000
vt  0.501852 0.173088 0.000500
vt  0.501852 0.173088 0.999500
vt  0.492725 0.198165 0.500000
vt  0.476775 0.163960 0.500000
vt  0.510980 0.148010 0.500000
vt  0.526930 0.182215 0.500000
vt  0.501852 0.173088 0.000500
vt  0.501852 0.173088 0.999500
vt  0.492725 0.198165 0.500000
vt  0.476775 0.163960 0.500000
vt  0.510980 0.148010 0.500000
vt  0.526930 0.182215 0.500000
vt  0.501852 0.173088 0.000500
vt  0.501852 0.173088 0.999500
vt  0.492725 0.198165 0.500000
vt  0.476775 0.163960 0.500000
vt  0.510980 0.148010 0.500000
vt  0.526930 0.182215 0.500000
vt  0.501852 0.173088 0.000500
vt  0.522300 0.322091 0.500000
vt  0.399371 0.490219 0.500000
vt  0.379046 0.383300 0.921938
vt  0.379046 0.260882 0.921938
vt  0.399371 0.153962 0.500000
vt  0.379046 0.260882 0.078062
vt  0.379046 0.383300 0.078062
vt  0.215044 0.476055 0.500000
vt  0.215044 0.378143 0.921938
vt  0.215044 0.266039 0.921938
vt  0.215044 0.168127 0.500000
vt  0.215044 0.266039 0.078062
vt  0.215044 0.378143 0.078062
vt  0.137421 0.322091 0.500000
vt  0.474969 0.441646 0.500000
vt  0.443700 0.363153 0.783054
vt  0.443700 0.281029 0.783054
vt  0.474969 0.202536 0.500000
vt  0.443700 0.281029 0.216945
vt  0.443700 0.363153 0.216946
vt  0.297843 0.504357 0.500000
vt  0.297843 0.388447 0.999500
vt  0.297843 0.255735 0.999500
vt  0.297843 0.139825 0.500000
vt  0.297843 0.255735 0.000500
vt  0.297843 0.388447 0.000500
vt  0.562159 0.218579 0.000500
vt  0.562160 0.302781 0.000500
vt  0.562160 0.374354 0.500000
vt  0.562159 0.302781 0.999500
vt  0.562159 0.218579 0.999500
vt  0.562159 0.147006 0.500000
vt  0.723726 0.218579 0.000500
vt  0.723726 0.302781 0.000500
vt  0.723726 0.374354 0.500000
vt  0.723726 0.302781 0.999500
vt  0.723726 0.218579 0.999500
vt  0.723726 0.147006 0.500000
vt  0.983264 0.218579 0.000500
vt  0.983264 0.302781 0.000500
vt  0.983264 0.374354 0.500000
vt  0.983264 0.302781 0.999501
vt  0.983264 0.218579 0.999500
vt  0.983264 0.147006 0.500000
vt  0.615754 0.302781 0.000500
vt  0.615754 0.218579 0.000500
vt  0.615754 0.374354 0.500000
vt  0.615754 0.302781 0.999500
vt  0.615754 0.218579 0.999500
vt  0.615754 0.147006 0.500000
vt  0.678617 0.218579 0.180043
vt  0.678617 0.302781 0.180043
vt  0.678617 0.374354 0.500000
vt  0.678617 0.302781 0.819957
vt  0.678617 0.218579 0.819957
vt  0.678617 0.147006 0.500000
vt  0.527096 0.260680 0.500000
vt  0.501852 0.173088 0.999500
vt  0.492725 0.198165 0.500000
vt  0.476775 0.163960 0.500000
vt  0.510980 0.148010 0.500000
vt  0.526930 0.182215 0.500000
vt  0.501852 0.173088 0.000500
vt  0.501852 0.173088 0.999500
vt  0.492725 0.198165 0.500000
vt  0.476775 0.163960 0.500000
vt  0.510980 0.148010 0.500000
vt  0.526930 0.182215 0.500000
vt  0.501852 0.173088 0.000500
vt  0.501852 0.173088 0.999500
vt  0.492725 0.198165 0.500000
vt  0.476775 0.163960 0.500000
vt  0.510980 0.148010 0.500000
vt  0.526930 0.182215 0.500000
vt  0.501852 0.173088 0.000500
vt  0.501852 0.173088 0.999500
vt  0.492725 0.198165 0.500000
vt  0.476775 0.163960 0.500000
vt  0.510980 0.148010 0.500000
vt  0.526930 0.182215 0.500000
vt  0.501852 0.173088 0.000500
vt  0.501852 0.173088 0.999500
vt  0.492725 0.198165 0.500000
vt  0.476775 0.163960 0.500000
vt  0.510980 0.148010 0.500000
vt  0.526930 0.182215 0.500000
vt  0.501852 0.173088 0.000500
vt  0.522300 0.322091 0.500000
vt  0.399371 0.490219 0.500000
vt  0.379046 0.383300 0.921938
vt  0.379046 0.260882 0.921938
vt  0.399371 0.153962 0.500000
vt  0.379046 0.260882 0.078062
vt  0.379046 0.383300 0.078062
vt  0.215044 0.476055 0.500000
vt  0.215044 0.378143 0.921938
vt  0.215044 0.266039 0.921938
vt  0.215044 0.168127 0.500000
vt  0.215044 0.266039 0.078062
vt  0.215044 0.378143 0.078062
vt  0.137421 0.322091 0.500000
vt  0.474969 0.441646 0.500000
vt  0.443700 0.363153 0.783054
vt  0.443700 0.281029 0.783054
vt  0.474969 0.202536 0.500000
vt  0.443700 0.281029 0.216945
vt  0.443700 0.363153 0.216946
vt  0.297843 0.504357 0.500000
vt  0.297843 0.388447 0.999500
vt  0.297843 0.255735 0.999500
vt  0.297843 0.139825 0.500000
vt  0.297843 0.255735 0.000500
vt  0.297843 0.388447 0.000500
# 174 texture vertices

vn  2.571979 0.994117 1.734097
vn  -0.215784 0.994113 3.094446
vn  -2.787761 0.994115 1.360349
vn  -2.787763 0.994119 -1.360350
vn  0.215784 0.994119 -3.094449
vn  2.571979 0.994116 -1.734097
vn  0.866025 0.000000 0.500000
vn  -0.000000 0.730939 0.682443
vn  -0.591013 0.730939 0.341222
vn  -0.591012 0.730939 -0.341221
vn  0.000001 0.730940 -0.682442
vn  0.866026 0.000000 -0.499999
vn  0.866025 -0.000000 0.500000
vn  -0.000000 -0.000000 1.000000
vn  -0.866025 -0.000000 0.500000
vn  -0.866026 -0.000000 -0.500000
vn  0.000000 0.000000 -1.000000
vn  0.866026 0.000000 -0.499999
vn  -0.000000 -0.242573 0.970133
vn  0.840160 -0.242572 0.485067
vn  -0.840160 -0.242572 0.485067
vn  -0.840160 -0.242572 -0.485067
vn  0.000001 -0.242572 -0.970133
vn  0.840160 -0.242572 -0.485066
vn  0.851087 0.184935 0.491376
vn  -0.000000 0.184935 0.982751
vn  -0.851088 0.184935 0.491375
vn  -0.851087 0.184935 -0.491376
vn  0.000000 0.184935 -0.982751
vn  0.851087 0.184934 -0.491376
vn  0.000000 1.000000 -0.000000
vn  -0.866026 0.000001 0.500000
vn  0.000000 1.000000 0.000000
vn  -0.499998 -0.000000 -0.866026
vn  0.000001 -1.000000 0.000001
vn  0.500001 0.000001 0.866025
vn  0.866026 0.000001 -0.499999
vn  -0.573575 0.000001 -0.819153
vn  -0.000000 1.000000 0.000001
vn  0.819152 0.000001 -0.573576
vn  -0.000000 -1.000000 0.000001
vn  -0.819153 0.000001 0.573575
vn  0.573576 0.000001 0.819153
vn  -0.884232 0.251568 0.393507
vn  -0.320818 -0.939470 -0.120301
vn  0.339423 -0.232616 0.911418
vn  0.320819 0.939470 0.120299
vn  -0.339423 0.232619 -0.911417
vn  0.884233 -0.251567 -0.393505
vn  -0.000002 0.000001 1.000000
vn  0.000000 1.000000 0.000001
vn  -1.000000 0.000001 -0.000002
vn  0.000000 -1.000000 0.000001
vn  1.000000 0.000001 -0.000001
vn  -0.000001 0.000001 -1.000000
vn  -0.986423 -0.064173 0.151167
vn  -0.148453 -0.045214 -0.987885
vn  0.070231 -0.996914 0.035073
vn  0.148453 0.045214 0.987885
vn  -0.070230 0.996914 -0.035075
vn  0.986422 0.064171 -0.151173
vn  -0.000000 1.000000 -0.000000
vn  0.762371 0.474398 -0.440155
vn  0.000000 0.474399 -0.880310
vn  -0.762371 0.474398 -0.440155
vn  -0.762371 0.474398 0.440155
vn  -0.000000 0.474399 0.880310
vn  0.762371 0.474398 0.440155
vn  0.697456 -0.592797 -0.402676
vn  0.000000 -0.592797 -0.805352
vn  -0.697455 -0.592797 -0.402676
vn  -0.697456 -0.592797 0.402676
vn  0.000000 -0.592797 0.805352
vn  0.697455 -0.592797 0.402676
vn  0.000000 -1.000000 0.000000
vn  0.514828 0.804116 -0.297236
vn  -0.000000 0.804117 -0.594471
vn  -0.514827 0.804117 -0.297236
vn  -0.514828 0.804117 0.297235
vn  -0.000001 0.804117 0.594471
vn  0.514828 0.804117 0.297235
vn  0.866025 0.000000 -0.500000
vn  0.000000 0.000000 -1.000000
vn  -0.866025 -0.000000 -0.500000
vn  -0.866025 0.000000 0.500000
vn  -0.000000 -0.000000 1.000000
vn  0.866026 -0.000000 0.500000
vn  2.571978 0.994116 1.734097
vn  -0.215784 0.994113 3.094446
vn  -2.787761 0.994114 1.360349
vn  -2.787763 0.994119 -1.360350
vn  0.215784 0.994119 -3.094448
vn  2.571979 0.994116 -1.734097
vn  0.866025 -0.000000 0.500000
vn  -0.000000 0.730939 0.682443
vn  -0.591012 0.730939 0.341221
vn  -0.591012 0.730939 -0.341221
vn  0.000000 0.730940 -0.682442
vn  0.866026 0.000000 -0.500000
vn  0.866025 -0.000000 0.500000
vn  -0.000000 -0.000000 1.000000
vn  -0.866025 -0.000000 0.500000
vn  -0.866025 -0.000000 -0.500000
vn  0.000000 -0.000000 -1.000000
vn  0.866026 -0.000000 -0.499999
vn  -0.000000 -0.242573 0.970133
vn  0.840160 -0.242573 0.485067
vn  -0.840160 -0.242572 0.485067
vn  -0.840160 -0.242572 -0.485067
vn  0.000000 -0.242572 -0.970133
vn  0.840160 -0.242572 -0.485066
vn  0.851087 0.184935 0.491376
vn  0.000000 0.184935 0.982751
vn  -0.851087 0.184935 0.491375
vn  -0.851087 0.184935 -0.491376
vn  0.000000 0.184935 -0.982751
vn  0.851087 0.184934 -0.491376
vn  -0.000000 1.000000 -0.000000
vn  -0.866026 0.000001 0.500000
vn  0.000001 1.000000 0.000000
vn  -0.499998 -0.000000 -0.866026
vn  0.000001 -1.000000 0.000001
vn  0.500000 0.000001 0.866025
vn  0.866026 0.000001 -0.499999
vn  -0.573576 0.000001 -0.819153
vn  0.000000 1.000000 0.000001
vn  0.819152 0.000001 -0.573577
vn  0.000000 -1.000000 0.000001
vn  -0.819153 0.000001 0.573575
vn  0.573576 0.000001 0.819152
vn  -0.884232 0.251568 0.393507
vn  -0.320818 -0.939470 -0.120301
vn  0.339423 -0.232616 0.911417
vn  0.320819 0.939470 0.120299
vn  -0.339423 0.232619 -0.911417
vn  0.884233 -0.251567 -0.393505
vn  -0.000002 0.000001 1.000000
vn  -0.000001 1.000000 0.000001
vn  -1.000000 0.000001 -0.000002
vn  -0.000001 -1.000000 0.000001
vn  1.000000 0.000001 -0.000001
vn  -0.000001 0.000001 -1.000000
vn  -0.986423 -0.064173 0.151167
vn  -0.148453 -0.045214 -0.987885
vn  0.070231 -0.996914 0.035073
vn  0.148453 0.045214 0.987885
vn  -0.070229 0.996914 -0.035075
vn  0.986422 0.064171 -0.151173
vn  -0.000000 1.000000 -0.000000
vn  0.762371 0.474398 -0.440155
vn  0.000000 0.474399 -0.880310
vn  -0.762371 0.474398 -0.440155
vn  -0.762371 0.474398 0.440155
vn  -0.000000 0.474399 0.880310
vn  0.762371 0.474398 0.440155
vn  0.697456 -0.592797 -0.402676
vn  0.000000 -0.592797 -0.805352
vn  -0.697455 -0.592797 -0.402676
vn  -0.697455 -0.592797 0.402676
vn  0.000000 -0.592797 0.805352
vn  0.697455 -0.592797 0.402676
vn  0.000000 -1.000000 0.000000
vn  0.514827 0.804117 -0.297236
vn  0.000000 0.804117 -0.594471
vn  -0.514827 0.804117 -0.297236
vn  -0.514828 0.804117 0.297235
vn  -0.000001 0.804117 0.594471
vn  0.514827 0.804117 0.297235
vn  0.866025 -0.000000 -0.500000
vn  0.000000 0.000000 -1.000000
vn  -0.866026 -0.000000 -0.500000
vn  -0.866025 0.000000 0.500000
vn  -0.000000 0.000000 1.000000
vn  0.866026 -0.000000 0.500000
vn  0.591013 0.730939 0.341221
vn  -0.000000 -0.000000 1.000000
vn  -0.866025 -0.000000 0.500000
vn  -0.866025 -0.000000 -0.500000
vn  0.000001 -0.000000 -1.000000
vn  0.591013 0.730939 -0.341221
vn  0.591013 0.730939 0.341221
vn  -0.000000 -0.000000 1.000000
vn  -0.866025 -0.000000 0.500000
vn  -0.866025 -0.000000 -0.500000
vn  0.000000 -0.000000 -1.000000
vn  0.591013 0.730939 -0.341221
# 186 vertex normals

g light
s 1
f 2/2/2 19/19/19 20/20/20
f 20/20/20 1/1/1 2/2/2
f 3/3/3 21/21/21 19/19/19
f 19/19/19 2/2/2 3/3/3
f 4/4/4 22/22/22 21/21/21
f 21/21/21 3/3/3 4/4/4
f 5/5/5 23/23/23 22/22/22
f 22/22/22 4/4/4 5/5/5
f 6/6/6 24/24/24 23/23/23
f 23/23/23 5/5/5 6/6/6
f 1/1/1 20/20/20 24/24/24
f 24/24/24 6/6/6 1/1/1
f 176/8/176 14/14/14 13/13/13
f 13/13/13 7/7/7 176/8/176
f 177/9/177 15/15/15 14/14/14
f 14/14/14 176/8/176 177/9/177
f 178/10/178 16/16/16 15/15/15
f 15/15/15 177/9/177 178/10/178
f 179/11/179 17/17/17 16/16/16
f 16/16/16 178/10/178 179/11/179
f 12/12/12 18/18/18 17/17/17
f 17/17/17 179/11/179 12/12/12
f 7/7/7 13/13/13 18/18/18
f 18/18/18 12/12/12 7/7/7
f 4/4/4 3/3/3 31/31/31
f 26/26/26 25/25/25 20/20/20
f 20/20/20 19/19/19 26/26/26
f 27/27/27 26/26/26 19/19/19
f 19/19/19 21/21/21 27/27/27
f 28/28/28 27/27/27 21/21/21
f 21/21/21 22/22/22 28/28/28
f 29/29/29 28/28/28 22/22/22
f 22/22/22 23/23/23 29/29/29
f 30/30/30 29/29/29 23/23/23
f 23/23/23 24/24/24 30/30/30
f 25/25/25 30/30/30 24/24/24
f 24/24/24 20/20/20 25/25/25
f 8/8/8 175/7/175 25/25/25
f 25/25/25 26/26/26 8/8/8
f 9/9/9 8/8/8 26/26/26
f 26/26/26 27/27/27 9/9/9
f 10/10/10 9/9/9 27/27/27
f 27/27/27 28/28/28 10/10/10
f 11/11/11 10/10/10 28/28/28
f 28/28/28 29/29/29 11/11/11
f 180/12/180 11/11/11 29/29/29
f 29/29/29 30/30/30 180/12/180
f 175/7/175 180/12/180 30/30/30
f 30/30/30 25/25/25 175/7/175
f 6/6/6 5/5/5 31/31/31
f 3/3/3 2/2/2 31/31/31
f 31/31/31 2/2/2 1/1/1
f 1/1/1 6/6/6 31/31/31
f 31/31/31 5/5/5 4/4/4
f 32/32/32 33/33/33 34/34/34
f 32/32/32 34/34/34 35/35/35
f 32/32/32 35/35/35 36/36/36
f 32/32/32 36/36/36 33/33/33
f 37/37/37 34/34/34 33/33/33
f 37/37/37 35/35/35 34/34/34
f 37/37/37 36/36/36 35/35/35
f 37/37/37 33/33/33 36/36/36
f 38/38/38 39/39/39 40/40/40
f 38/38/38 40/40/40 41/41/41
f 38/38/38 41/41/41 42/42/42
f 38/38/38 42/42/42 39/39/39
f 43/43/43 40/40/40 39/39/39
f 43/43/43 41/41/41 40/40/40
f 43/43/43 42/42/42 41/41/41
f 43/43/43 39/39/39 42/42/42
f 44/44/44 45/45/45 46/46/46
f 44/44/44 46/46/46 47/47/47
f 44/44/44 47/47/47 48/48/48
f 44/44/44 48/48/48 45/45/45
f 49/49/49 46/46/46 45/45/45
f 49/49/49 47/47/47 46/46/46
f 49/49/49 48/48/48 47/47/47
f 49/49/49 45/45/45 48/48/48
f 50/50/50 51/51/51 52/52/52
f 50/50/50 52/52/52 53/53/53
f 50/50/50 53/53/53 54/54/54
f 50/50/50 54/54/54 51/51/51
f 55/55/55 52/52/52 51/51/51
f 55/55/55 53/53/53 52/52/52
f 55/55/55 54/54/54 53/53/53
f 55/55/55 51/51/51 54/54/54
f 56/56/56 57/57/57 58/58/58
f 56/56/56 58/58/58 59/59/59
f 56/56/56 59/59/59 60/60/60
f 56/56/56 60/60/60 57/57/57
f 61/61/61 58/58/58 57/57/57
f 61/61/61 59/59/59 58/58/58
f 61/61/61 60/60/60 59/59/59
f 61/61/61 57/57/57 60/60/60
f 62/62/62 76/76/76 77/77/77
f 62/62/62 77/77/77 78/78/78
f 62/62/62 78/78/78 79/79/79
f 62/62/62 79/79/79 80/80/80
f 62/62/62 80/80/80 81/81/81
f 62/62/62 81/81/81 76/76/76
f 82/82/82 83/83/83 64/64/64
f 64/64/64 63/63/63 82/82/82
f 83/83/83 84/84/84 65/65/65
f 65/65/65 64/64/64 83/83/83
f 84/84/84 85/85/85 66/66/66
f 66/66/66 65/65/65 84/84/84
f 85/85/85 86/86/86 67/67/67
f 67/67/67 66/66/66 85/85/85
f 86/86/86 87/87/87 68/68/68
f 68/68/68 67/67/67 86/86/86
f 87/87/87 82/82/82 63/63/63
f 63/63/63 68/68/68 87/87/87
f 75/75/75 70/70/70 69/69/69
f 75/75/75 71/71/71 70/70/70
f 75/75/75 72/72/72 71/71/71
f 75/75/75 73/73/73 72/72/72
f 75/75/75 74/74/74 73/73/73
f 75/75/75 69/69/69 74/74/74
f 64/64/64 77/77/77 76/76/76
f 76/76/76 63/63/63 64/64/64
f 65/65/65 78/78/78 77/77/77
f 77/77/77 64/64/64 65/65/65
f 66/66/66 79/79/79 78/78/78
f 78/78/78 65/65/65 66/66/66
f 67/67/67 80/80/80 79/79/79
f 79/79/79 66/66/66 67/67/67
f 68/68/68 81/81/81 80/80/80
f 80/80/80 67/67/67 68/68/68
f 68/68/68 63/63/63 76/76/76
f 76/76/76 81/81/81 68/68/68
f 69/69/69 70/70/70 83/83/83
f 83/83/83 82/82/82 69/69/69
f 70/70/70 71/71/71 84/84/84
f 84/84/84 83/83/83 70/70/70
f 71/71/71 72/72/72 85/85/85
f 85/85/85 84/84/84 71/71/71
f 72/72/72 73/73/73 86/86/86
f 86/86/86 85/85/85 72/72/72
f 73/73/73 74/74/74 87/87/87
f 87/87/87 86/86/86 73/73/73
f 74/74/74 69/69/69 82/82/82
f 82/82/82 87/87/87 74/74/74
f 89/89/89 106/106/106 107/107/107
f 107/107/107 88/88/88 89/89/89
f 90/90/90 108/108/108 106/106/106
f 106/106/106 89/89/89 90/90/90
f 91/91/91 109/109/109 108/108/108
f 108/108/108 90/90/90 91/91/91
f 92/92/92 110/110/110 109/109/109
f 109/109/109 91/91/91 92/92/92
f 93/93/93 111/111/111 110/110/110
f 110/110/110 92/92/92 93/93/93
f 88/88/88 107/107/107 111/111/111
f 111/111/111 93/93/93 88/88/88
f 182/95/182 101/101/101 100/100/100
f 100/100/100 94/94/94 182/95/182
f 183/96/183 102/102/102 101/101/101
f 101/101/101 182/95/182 183/96/183
f 184/97/184 103/103/103 102/102/102
f 102/102/102 183/96/183 184/97/184
f 185/98/185 104/104/104 103/103/103
f 103/103/103 184/97/184 185/98/185
f 99/99/99 105/105/105 104/104/104
f 104/104/104 185/98/185 99/99/99
f 94/94/94 100/100/100 105/105/105
f 105/105/105 99/99/99 94/94/94
f 91/91/91 90/90/90 118/118/118
f 113/113/113 112/112/112 107/107/107
f 107/107/107 106/106/106 113/113/113
f 114/114/114 113/113/113 106/106/106
f 106/106/106 108/108/108 114/114/114
f 115/115/115 114/114/114 108/108/108
f 108/108/108 109/109/109 115/115/115
f 116/116/116 115/115/115 109/109/109
f 109/109/109 110/110/110 116/116/116
f 117/117/117 116/116/116 110/110/110
f 110/110/110 111/111/111 117/117/117
f 112/112/112 117/117/117 111/111/111
f 111/111/111 107/107/107 112/112/112
f 95/95/95 181/94/181 112/112/112
f 112/112/112 113/113/113 95/95/95
f 96/96/96 95/95/95 113/113/113
f 113/113/113 114/114/114 96/96/96
f 97/97/97 96/96/96 114/114/114
f 114/114/114 115/115/115 97/97/97
f 98/98/98 97/97/97 115/115/115
f 115/115/115 116/116/116 98/98/98
f 186/99/186 98/98/98 116/116/116
f 116/116/116 117/117/117 186/99/186
f 181/94/181 186/99/186 117/117/117
f 117/117/117 112/112/112 181/94/181
f 93/93/93 92/92/92 118/118/118
f 90/90/90 89/89/89 118/118/118
f 118/118/118 89/89/89 88/88/88
f 88/88/88 93/93/93 118/118/118
f 118/118/118 92/92/92 91/91/91
f 119/119/119 120/120/120 121/121/121
f 119/119/119 121/121/121 122/122/122
f 119/119/119 122/122/122 123/123/123
f 119/119/119 123/123/123 120/120/120
f 124/124/124 121/121/121 120/120/120
f 124/124/124 122/122/122 121/121/121
f 124/124/124 123/123/123 122/122/122
f 124/124/124 120/120/120 123/123/123
f 125/125/125 126/126/126 127/127/127
f 125/125/125 127/127/127 128/128/128
f 125/125/125 128/128/128 129/129/129
f 125/125/125 129/129/129 126/126/126
f 130/130/130 127/127/127 126/126/126
f 130/130/130 128/128/128 127/127/127
f 130/130/130 129/129/129 128/128/128
f 130/130/130 126/126/126 129/129/129
f 131/131/131 132/132/132 133/133/133
f 131/131/131 133/133/133 134/134/134
f 131/131/131 134/134/134 135/135/135
f 131/131/131 135/135/135 132/132/132
f 136/136/136 133/133/133 132/132/132
f 136/136/136 134/134/134 133/133/133
f 136/136/136 135/135/135 134/134/134
f 136/136/136 132/132/132 135/135/135
f 137/137/137 138/138/138 139/139/139
f 137/137/137 139/139/139 140/140/140
f 137/137/137 140/140/140 141/141/141
f 137/137/137 141/141/141 138/138/138
f 142/142/142 139/139/139 138/138/138
f 142/142/142 140/140/140 139/139/139
f 142/142/142 141/141/141 140/140/140
f 142/142/142 138/138/138 141/141/141
f 143/143/143 144/144/144 145/145/145
f 143/143/143 145/145/145 146/146/146
f 143/143/143 146/146/146 147/147/147
f 143/143/143 147/147/147 144/144/144
f 148/148/148 145/145/145 144/144/144
f 148/148/148 146/146/146 145/145/145
f 148/148/148 147/147/147 146/146/146
f 148/148/148 144/144/144 147/147/147
f 149/149/149 163/163/163 164/164/164
f 149/149/149 164/164/164 165/165/165
f 149/149/149 165/165/165 166/166/166
f 149/149/149 166/166/166 167/167/167
f 149/149/149 167/167/167 168/168/168
f 149/149/149 168/168/168 163/163/163
f 169/169/169 170/170/170 151/151/151
f 151/151/151 150/150/150 169/169/169
f 170/170/170 171/171/171 152/152/152
f 152/152/152 151/151/151 170/170/170
f 171/171/171 172/172/172 153/153/153
f 153/153/153 152/152/152 171/171/171
f 172/172/172 173/173/173 154/154/154
f 154/154/154 153/153/153 172/172/172
f 173/173/173 174/174/174 155/155/155
f 155/155/155 154/154/154 173/173/173
f 174/174/174 169/169/169 150/150/150
f 150/150/150 155/155/155 174/174/174
f 162/162/162 157/157/157 156/156/156
f 162/162/162 158/158/158 157/157/157
f 162/162/162 159/159/159 158/158/158
f 162/162/162 160/160/160 159/159/159
f 162/162/162 161/161/161 160/160/160
f 162/162/162 156/156/156 161/161/161
f 151/151/151 164/164/164 163/163/163
f 163/163/163 150/150/150 151/151/151
f 152/152/152 165/165/165 164/164/164
f 164/164/164 151/151/151 152/152/152
f 153/153/153 166/166/166 165/165/165
f 165/165/165 152/152/152 153/153/153
f 154/154/154 167/167/167 166/166/166
f 166/166/166 153/153/153 154/154/154
f 155/155/155 168/168/168 167/167/167
f 167/167/167 154/154/154 155/155/155
f 155/155/155 150/150/150 163/163/163
f 163/163/163 168/168/168 155/155/155
f 156/156/156 157/157/157 170/170/170
f 170/170/170 169/169/169 156/156/156
f 157/157/157 158/158/158 171/171/171
f 171/171/171 170/170/170 157/157/157
f 158/158/158 159/159/159 172/172/172
f 172/172/172 171/171/171 158/158/158
f 159/159/159 160/160/160 173/173/173
f 173/173/173 172/172/172 159/159/159
f 160/160/160 161/161/161 174/174/174
f 174/174/174 173/173/173 160/160/160
f 161/161/161 156/156/156 169/169/169
f 169/169/169 174/174/174 161/161/161
# 284 faces

g
# object switch to come ...
#
v  54.504887 36.864670 -81.872925
v  49.636795 36.864670 -79.062332
v  44.768707 36.864670 -81.872925
v  44.768707 36.864670 -87.494110
v  49.636795 36.864670 -90.304703
v  54.504883 36.864670 -87.494110
v  54.504887 28.291975 -81.872925
v  49.636795 28.291975 -79.062340
v  44.768707 28.291975 -81.872925
v  44.768707 28.291975 -87.494118
v  49.636799 28.291975 -90.304710
v  54.504883 28.291975 -87.494110
v  54.504883 11.825165 -81.872925
v  49.636795 11.825165 -79.062340
v  44.768711 11.825165 -81.872932
v  44.768711 11.825167 -87.494110
v  49.636799 11.825167 -90.304710
v  54.504883 11.825167 -87.494110
v  49.636795 33.634380 -79.062340
v  54.504887 33.634380 -81.872925
v  44.768707 33.634380 -81.872925
v  44.768707 33.634380 -87.494118
v  49.636799 33.634380 -90.304710
v  54.504883 33.634380 -87.494110
v  52.755066 30.178432 -82.883179
v  49.636795 30.178432 -81.082855
v  46.518524 30.178432 -82.883186
v  46.518528 30.178432 -86.483856
v  49.636795 30.178432 -88.284187
v  52.755066 30.178432 -86.483856
v  49.636795 38.978012 -84.683525
v  50.699291 34.769398 -79.792938
v  52.213757 36.518147 -80.667320
v  51.339382 34.769394 -82.181786
v  52.213757 33.020641 -80.667320
v  53.088135 34.769398 -79.152855
v  53.728222 34.769398 -81.541695
v  44.177544 35.686508 -83.322830
v  44.818859 36.804607 -82.406929
v  45.734753 35.686508 -83.048248
v  44.818859 34.568405 -82.406929
v  43.902962 35.686508 -81.765617
v  45.460175 35.686508 -81.491035
v  45.657948 36.150612 -89.237312
v  46.476845 34.419495 -89.984108
v  47.436470 35.446873 -88.484550
v  47.409428 37.150440 -89.634407
v  46.449799 36.123070 -91.133957
v  48.228325 35.419327 -90.381195
v  55.097282 35.736034 -84.664391
v  55.097282 36.963787 -85.892143
v  53.869530 35.736034 -85.892151
v  55.097282 34.508274 -85.892143
v  56.325043 35.736034 -85.892151
v  55.097282 35.736034 -87.119904
v  47.441341 38.293083 -85.075333
v  48.906746 38.326241 -87.067253
v  49.289173 36.661949 -85.278351
v  49.425961 38.484371 -83.612114
v  49.043541 40.148666 -85.401031
v  50.891361 38.517525 -85.604050
v  49.662334 51.803078 -84.658508
v  56.829811 47.024761 -88.796654
v  49.662334 47.024761 -92.934799
v  42.494854 47.024761 -88.796661
v  42.494854 47.024761 -80.520370
v  49.662331 47.024761 -76.382225
v  56.829807 47.024761 -80.520363
v  56.829811 37.468128 -88.796654
v  49.662331 37.468128 -92.934799
v  42.494854 37.468128 -88.796661
v  42.494854 37.468128 -80.520370
v  49.662331 37.468128 -76.382225
v  56.829807 37.468128 -80.520370
v  49.662334 33.283073 -84.658508
v  54.470592 49.981419 -87.434563
v  49.662331 49.981419 -90.210609
v  44.854073 49.981419 -87.434570
v  44.854073 49.981419 -81.882469
v  49.662331 49.981422 -79.106415
v  54.470592 49.981422 -81.882462
v  58.147373 42.246445 -89.557350
v  49.662334 42.246445 -94.456192
v  41.177296 42.246445 -89.557350
v  41.177292 42.246445 -79.759674
v  49.662331 42.246445 -74.860825
v  58.147369 42.246445 -79.759674
v  54.504887 28.291975 -81.872925
v  49.636795 28.291975 -79.062340
v  44.768707 28.291975 -81.872925
v  44.768707 28.291975 -87.494118
v  49.636799 28.291975 -90.304710
v  54.504883 28.291975 -87.494110
# 93 vertices

vt  0.562159 0.218579 0.000500
vt  0.562160 0.302781 0.000500
vt  0.562160 0.374354 0.500000
vt  0.562159 0.302781 0.999500
vt  0.562159 0.218579 0.999500
vt  0.562159 0.147006 0.500000
vt  0.723726 0.218579 0.000500
vt  0.723726 0.302781 0.000500
vt  0.723726 0.374354 0.500000
vt  0.723726 0.302781 0.999500
vt  0.723726 0.218579 0.999500
vt  0.723726 0.147006 0.500000
vt  0.983264 0.218579 0.000500
vt  0.983264 0.302781 0.000500
vt  0.983264 0.374354 0.500000
vt  0.983264 0.302781 0.999501
vt  0.983264 0.218579 0.999500
vt  0.983264 0.147006 0.500000
vt  0.615754 0.302781 0.000500
vt  0.615754 0.218579 0.000500
vt  0.615754 0.374354 0.500000
vt  0.615754 0.302781 0.999500
vt  0.615754 0.218579 0.999500
vt  0.615754 0.147006 0.500000
vt  0.678617 0.218579 0.180043
vt  0.678617 0.302781 0.180043
vt  0.678617 0.374354 0.500000
vt  0.678617 0.302781 0.819957
vt  0.678617 0.218579 0.819957
vt  0.678617 0.147006 0.500000
vt  0.527096 0.260680 0.500000
vt  0.501391 0.171102 0.999500
vt  0.491862 0.197284 0.500000
vt  0.475209 0.161572 0.500000
vt  0.510921 0.144920 0.500000
vt  0.527574 0.180632 0.500000
vt  0.501391 0.171102 0.000500
vt  0.501391 0.171102 0.999500
vt  0.491862 0.197284 0.500000
vt  0.475209 0.161572 0.500000
vt  0.510921 0.144920 0.500000
vt  0.527574 0.180632 0.500000
vt  0.501391 0.171102 0.000500
vt  0.501391 0.171102 0.999500
vt  0.491862 0.197284 0.500000
vt  0.475209 0.161572 0.500000
vt  0.510921 0.144920 0.500000
vt  0.527574 0.180632 0.500000
vt  0.501391 0.171102 0.000500
vt  0.501391 0.171102 0.999500
vt  0.491862 0.197284 0.500000
vt  0.475209 0.161572 0.500000
vt  0.510921 0.144920 0.500000
vt  0.527574 0.180632 0.500000
vt  0.501391 0.171102 0.000500
vt  0.501391 0.171102 0.999500
vt  0.491862 0.197284 0.500000
vt  0.475209 0.161572 0.500000
vt  0.510921 0.144920 0.500000
vt  0.527574 0.180632 0.500000
vt  0.501391 0.171102 0.000500
vt  0.522300 0.322091 0.500000
vt  0.399371 0.490219 0.500000
vt  0.379046 0.383300 0.921938
vt  0.379046 0.260882 0.921938
vt  0.399371 0.153962 0.500000
vt  0.379046 0.260882 0.078062
vt  0.379046 0.383300 0.078062
vt  0.215044 0.476055 0.500000
vt  0.215044 0.378143 0.921938
vt  0.215044 0.266039 0.921938
vt  0.215044 0.168127 0.500000
vt  0.215044 0.266039 0.078062
vt  0.215044 0.378143 0.078062
vt  0.137421 0.322091 0.500000
vt  0.474969 0.441646 0.500000
vt  0.443700 0.363153 0.783054
vt  0.443700 0.281029 0.783054
vt  0.474969 0.202536 0.500000
vt  0.443700 0.281029 0.216945
vt  0.443700 0.363153 0.216946
vt  0.297843 0.504357 0.500000
vt  0.297843 0.388447 0.999500
vt  0.297843 0.255735 0.999500
vt  0.297843 0.139825 0.500000
vt  0.297843 0.255735 0.000500
vt  0.297843 0.388447 0.000500
# 87 texture vertices

vn  2.571979 0.994116 1.734097
vn  -0.215784 0.994113 3.094446
vn  -2.787761 0.994115 1.360349
vn  -2.787763 0.994119 -1.360350
vn  0.215784 0.994119 -3.094448
vn  2.571979 0.994116 -1.734097
vn  0.866025 -0.000000 0.500000
vn  -0.000000 0.730939 0.682443
vn  -0.591012 0.730939 0.341222
vn  -0.591012 0.730939 -0.341221
vn  0.000001 0.730940 -0.682442
vn  0.866026 0.000000 -0.500000
vn  0.866025 -0.000000 0.500000
vn  -0.000000 -0.000000 1.000000
vn  -0.866025 -0.000000 0.500000
vn  -0.866026 -0.000000 -0.500000
vn  0.000000 -0.000000 -1.000000
vn  0.866026 -0.000000 -0.499999
vn  -0.000000 -0.242573 0.970133
vn  0.840160 -0.242572 0.485067
vn  -0.840160 -0.242572 0.485067
vn  -0.840160 -0.242572 -0.485067
vn  0.000000 -0.242572 -0.970133
vn  0.840160 -0.242572 -0.485066
vn  0.851087 0.184935 0.491376
vn  -0.000000 0.184935 0.982751
vn  -0.851088 0.184935 0.491375
vn  -0.851087 0.184935 -0.491376
vn  0.000000 0.184935 -0.982751
vn  0.851087 0.184934 -0.491376
vn  -0.000000 1.000000 -0.000000
vn  -0.866025 0.000001 0.500000
vn  0.000000 1.000000 0.000000
vn  -0.499998 -0.000000 -0.866026
vn  0.000000 -1.000000 0.000001
vn  0.500000 0.000001 0.866025
vn  0.866026 0.000001 -0.499999
vn  -0.573575 0.000001 -0.819153
vn  -0.000000 1.000000 0.000001
vn  0.819152 0.000001 -0.573576
vn  0.000000 -1.000000 0.000001
vn  -0.819153 0.000001 0.573575
vn  0.573575 0.000001 0.819153
vn  -0.884232 0.251568 0.393507
vn  -0.320818 -0.939470 -0.120301
vn  0.339423 -0.232616 0.911418
vn  0.320819 0.939470 0.120299
vn  -0.339423 0.232619 -0.911417
vn  0.884233 -0.251567 -0.393504
vn  -0.000002 0.000001 1.000000
vn  -0.000000 1.000000 0.000001
vn  -1.000000 0.000001 -0.000002
vn  -0.000000 -1.000000 0.000001
vn  1.000000 0.000001 -0.000001
vn  -0.000001 0.000001 -1.000000
vn  -0.986423 -0.064173 0.151167
vn  -0.148453 -0.045214 -0.987885
vn  0.070231 -0.996914 0.035073
vn  0.148453 0.045214 0.987885
vn  -0.070229 0.996914 -0.035075
vn  0.986422 0.064171 -0.151173
vn  0.000000 1.000000 -0.000000
vn  0.762371 0.474398 -0.440155
vn  0.000000 0.474399 -0.880310
vn  -0.762371 0.474398 -0.440155
vn  -0.762371 0.474398 0.440155
vn  -0.000000 0.474399 0.880310
vn  0.762371 0.474398 0.440155
vn  0.697456 -0.592797 -0.402676
vn  0.000000 -0.592797 -0.805352
vn  -0.697455 -0.592797 -0.402676
vn  -0.697456 -0.592797 0.402676
vn  0.000000 -0.592797 0.805352
vn  0.697455 -0.592797 0.402676
vn  0.000000 -1.000000 0.000000
vn  0.514827 0.804117 -0.297236
vn  -0.000000 0.804117 -0.594471
vn  -0.514827 0.804117 -0.297236
vn  -0.514828 0.804117 0.297235
vn  -0.000001 0.804117 0.594471
vn  0.514827 0.804117 0.297235
vn  0.866026 -0.000000 -0.500000
vn  0.000000 0.000000 -1.000000
vn  -0.866025 -0.000000 -0.500000
vn  -0.866025 0.000000 0.500000
vn  -0.000000 -0.000000 1.000000
vn  0.866026 -0.000000 0.500000
vn  0.591013 0.730939 0.341221
vn  -0.000000 -0.000000 1.000000
vn  -0.866025 -0.000000 0.500000
vn  -0.866025 -0.000000 -0.500000
vn  0.000001 -0.000000 -1.000000
vn  0.591013 0.730939 -0.341221
# 93 vertex normals

g switch
s 1
f 188/176/188 205/193/205 206/194/206
f 206/194/206 187/175/187 188/176/188
f 189/177/189 207/195/207 205/193/205
f 205/193/205 188/176/188 189/177/189
f 190/178/190 208/196/208 207/195/207
f 207/195/207 189/177/189 190/178/190
f 191/179/191 209/197/209 208/196/208
f 208/196/208 190/178/190 191/179/191
f 192/180/192 210/198/210 209/197/209
f 209/197/209 191/179/191 192/180/192
f 187/175/187 206/194/206 210/198/210
f 210/198/210 192/180/192 187/175/187
f 275/182/275 200/188/200 199/187/199
f 199/187/199 193/181/193 275/182/275
f 275/182/275 276/183/276 201/189/201
f 201/189/201 200/188/200 275/182/275
f 276/183/276 277/184/277 202/190/202
f 202/190/202 201/189/201 276/183/276
f 277/184/277 278/185/278 203/191/203
f 203/191/203 202/190/202 277/184/277
f 278/185/278 198/186/198 204/192/204
f 204/192/204 203/191/203 278/185/278
f 193/181/193 199/187/199 204/192/204
f 204/192/204 198/186/198 193/181/193
f 190/178/190 189/177/189 217/205/217
f 212/200/212 211/199/211 206/194/206
f 206/194/206 205/193/205 212/200/212
f 213/201/213 212/200/212 205/193/205
f 205/193/205 207/195/207 213/201/213
f 214/202/214 213/201/213 207/195/207
f 207/195/207 208/196/208 214/202/214
f 215/203/215 214/202/214 208/196/208
f 208/196/208 209/197/209 215/203/215
f 216/204/216 215/203/215 209/197/209
f 209/197/209 210/198/210 216/204/216
f 211/199/211 216/204/216 210/198/210
f 210/198/210 206/194/206 211/199/211
f 194/182/194 274/181/274 211/199/211
f 211/199/211 212/200/212 194/182/194
f 195/183/195 194/182/194 212/200/212
f 212/200/212 213/201/213 195/183/195
f 196/184/196 195/183/195 213/201/213
f 213/201/213 214/202/214 196/184/196
f 197/185/197 196/184/196 214/202/214
f 214/202/214 215/203/215 197/185/197
f 279/186/279 197/185/197 215/203/215
f 215/203/215 216/204/216 279/186/279
f 274/181/274 279/186/279 216/204/216
f 216/204/216 211/199/211 274/181/274
f 192/180/192 191/179/191 217/205/217
f 189/177/189 188/176/188 217/205/217
f 217/205/217 188/176/188 187/175/187
f 187/175/187 192/180/192 217/205/217
f 217/205/217 191/179/191 190/178/190
f 218/206/218 219/207/219 220/208/220
f 218/206/218 220/208/220 221/209/221
f 218/206/218 221/209/221 222/210/222
f 218/206/218 222/210/222 219/207/219
f 223/211/223 220/208/220 219/207/219
f 223/211/223 221/209/221 220/208/220
f 223/211/223 222/210/222 221/209/221
f 223/211/223 219/207/219 222/210/222
f 224/212/224 225/213/225 226/214/226
f 224/212/224 226/214/226 227/215/227
f 224/212/224 227/215/227 228/216/228
f 224/212/224 228/216/228 225/213/225
f 229/217/229 226/214/226 225/213/225
f 229/217/229 227/215/227 226/214/226
f 229/217/229 228/216/228 227/215/227
f 229/217/229 225/213/225 228/216/228
f 230/218/230 231/219/231 232/220/232
f 230/218/230 232/220/232 233/221/233
f 230/218/230 233/221/233 234/222/234
f 230/218/230 234/222/234 231/219/231
f 235/223/235 232/220/232 231/219/231
f 235/223/235 233/221/233 232/220/232
f 235/223/235 234/222/234 233/221/233
f 235/223/235 231/219/231 234/222/234
f 236/224/236 237/225/237 238/226/238
f 236/224/236 238/226/238 239/227/239
f 236/224/236 239/227/239 240/228/240
f 236/224/236 240/228/240 237/225/237
f 241/229/241 238/226/238 237/225/237
f 241/229/241 239/227/239 238/226/238
f 241/229/241 240/228/240 239/227/239
f 241/229/241 237/225/237 240/228/240
f 242/230/242 243/231/243 244/232/244
f 242/230/242 244/232/244 245/233/245
f 242/230/242 245/233/245 246/234/246
f 242/230/242 246/234/246 243/231/243
f 247/235/247 244/232/244 243/231/243
f 247/235/247 245/233/245 244/232/244
f 247/235/247 246/234/246 245/233/245
f 247/235/247 243/231/243 246/234/246
f 248/236/248 262/250/262 263/251/263
f 248/236/248 263/251/263 264/252/264
f 248/236/248 264/252/264 265/253/265
f 248/236/248 265/253/265 266/254/266
f 248/236/248 266/254/266 267/255/267
f 248/236/248 267/255/267 262/250/262
f 268/256/268 269/257/269 250/238/250
f 250/238/250 249/237/249 268/256/268
f 269/257/269 270/258/270 251/239/251
f 251/239/251 250/238/250 269/257/269
f 270/258/270 271/259/271 252/240/252
f 252/240/252 251/239/251 270/258/270
f 271/259/271 272/260/272 253/241/253
f 253/241/253 252/240/252 271/259/271
f 272/260/272 273/261/273 254/242/254
f 254/242/254 253/241/253 272/260/272
f 273/261/273 268/256/268 249/237/249
f 249/237/249 254/242/254 273/261/273
f 261/249/261 256/244/256 255/243/255
f 261/249/261 257/245/257 256/244/256
f 261/249/261 258/246/258 257/245/257
f 261/249/261 259/247/259 258/246/258
f 261/249/261 260/248/260 259/247/259
f 261/249/261 255/243/255 260/248/260
f 250/238/250 263/251/263 262/250/262
f 262/250/262 249/237/249 250/238/250
f 251/239/251 264/252/264 263/251/263
f 263/251/263 250/238/250 251/239/251
f 252/240/252 265/253/265 264/252/264
f 264/252/264 251/239/251 252/240/252
f 253/241/253 266/254/266 265/253/265
f 265/253/265 252/240/252 253/241/253
f 254/242/254 267/255/267 266/254/266
f 266/254/266 253/241/253 254/242/254
f 254/242/254 249/237/249 262/250/262
f 262/250/262 267/255/267 254/242/254
f 255/243/255 256/244/256 269/257/269
f 269/257/269 268/256/268 255/243/255
f 256/244/256 257/245/257 270/258/270
f 270/258/270 269/257/269 256/244/256
f 257/245/257 258/246/258 271/259/271
f 271/259/271 270/258/270 257/245/257
f 258/246/258 259/247/259 272/260/272
f 272/260/272 271/259/271 258/246/258
f 259/247/259 260/248/260 273/261/273
f 273/261/273 272/260/272 259/247/259
f 260/248/260 255/243/255 268/256/268
f 268/256/268 273/261/273 260/248/260
# 142 faces

g
# object switch_pressed to come ...
#
v  54.358711 27.727709 -82.001099
v  49.667065 27.727709 -79.292374
v  49.667065 25.564098 -79.292381
v  54.358711 25.564098 -82.001099
v  44.975422 27.727709 -82.001099
v  44.975422 25.564098 -82.001099
v  44.975426 27.727709 -87.418541
v  44.975422 25.564098 -87.418549
v  49.667068 27.727709 -90.127266
v  49.667068 25.564098 -90.127266
v  54.358711 27.727709 -87.418541
v  54.358711 25.564098 -87.418541
v  54.358711 21.985819 -82.001099
v  49.667065 21.985819 -79.292381
v  44.975426 21.985819 -82.001099
v  44.975422 21.985819 -87.418549
v  49.667068 21.985819 -90.127266
v  54.358711 21.985819 -87.418541
v  49.667068 29.143204 -84.709824
v  49.667068 23.249346 -81.239662
v  52.672314 23.249346 -82.974739
v  46.661816 23.249346 -82.974739
v  46.661819 23.249346 -86.444901
v  49.667068 23.249346 -88.179985
v  52.672314 23.249346 -86.444901
v  49.667065 10.956538 -79.292381
v  54.358707 10.956538 -82.001099
v  44.975426 10.956538 -82.001099
v  44.975426 10.956540 -87.418541
v  49.667068 10.956540 -90.127266
v  54.358711 10.956540 -87.418541
v  47.551189 28.684444 -85.087433
v  48.963478 28.706654 -87.007156
v  49.332043 27.591930 -85.283096
v  49.463875 28.812567 -83.677246
v  49.095314 29.927292 -85.401321
v  50.876163 28.834774 -85.596992
v  54.358711 21.985819 -82.001099
v  49.667065 21.985819 -79.292381
v  44.975426 21.985819 -82.001099
v  44.975422 21.985819 -87.418549
v  49.667068 21.985819 -90.127266
v  54.358711 21.985819 -87.418541
# 43 vertices

vt  0.562159 0.218579 0.000500
vt  0.562160 0.302781 0.000500
vt  0.615754 0.302781 0.000500
vt  0.615754 0.218579 0.000500
vt  0.562160 0.374354 0.500000
vt  0.615754 0.374354 0.500000
vt  0.562159 0.302781 0.999500
vt  0.615754 0.302781 0.999500
vt  0.562159 0.218579 0.999500
vt  0.615754 0.218579 0.999500
vt  0.562159 0.147006 0.500000
vt  0.615754 0.147006 0.500000
vt  0.723726 0.218579 0.000500
vt  0.723726 0.302781 0.000500
vt  0.723726 0.374354 0.500000
vt  0.723726 0.302781 0.999500
vt  0.723726 0.218579 0.999500
vt  0.723726 0.147006 0.500000
vt  0.527096 0.260680 0.500000
vt  0.678617 0.302781 0.180043
vt  0.678617 0.218579 0.180043
vt  0.678617 0.374354 0.500000
vt  0.678617 0.302781 0.819957
vt  0.678617 0.218579 0.819957
vt  0.678617 0.147006 0.500000
vt  0.983264 0.302781 0.000500
vt  0.983264 0.218579 0.000500
vt  0.983264 0.374354 0.500000
vt  0.983264 0.302781 0.999501
vt  0.983264 0.218579 0.999500
vt  0.983264 0.147006 0.500000
vt  0.501853 0.172336 0.999500
vt  0.492795 0.197223 0.500000
vt  0.476966 0.163278 0.500000
vt  0.510911 0.147450 0.500000
vt  0.526739 0.181394 0.500000
vt  0.501853 0.172336 0.000500
# 37 texture vertices

vn  2.510128 1.020420 1.626969
vn  -0.153934 1.020416 2.987317
vn  -0.000000 -0.311814 0.950143
vn  0.822848 -0.311813 0.475072
vn  -2.664061 1.020419 1.360349
vn  -0.822848 -0.311813 0.475072
vn  -2.664062 1.020424 -1.360349
vn  -0.822848 -0.311813 -0.475072
vn  0.153934 1.020424 -2.987320
vn  0.000001 -0.311813 -0.950144
vn  2.510129 1.020420 -1.626969
vn  0.822849 -0.311813 -0.475071
vn  0.866025 -0.000000 0.500000
vn  -0.000000 0.838877 0.544320
vn  -0.471395 0.838877 0.272160
vn  -0.471395 0.838878 -0.272160
vn  0.000000 0.838878 -0.544320
vn  0.866026 -0.000000 -0.500000
vn  -0.000000 1.000000 -0.000000
vn  0.000000 0.200762 0.979640
vn  0.848393 0.200762 0.489820
vn  -0.848393 0.200762 0.489820
vn  -0.848393 0.200762 -0.489820
vn  0.000000 0.200762 -0.979640
vn  0.848393 0.200762 -0.489820
vn  -0.000000 -0.000000 1.000000
vn  0.866025 -0.000000 0.500000
vn  -0.866025 -0.000000 0.500000
vn  -0.866026 -0.000000 -0.500000
vn  0.000000 -0.000000 -1.000000
vn  0.866026 0.000000 -0.499999
vn  -0.986871 -0.056443 0.151326
vn  -0.148400 -0.039744 -0.988128
vn  0.071493 -0.996802 0.035711
vn  0.148399 0.039744 0.988129
vn  -0.071492 0.996802 -0.035714
vn  0.986870 0.056441 -0.151332
vn  0.471395 0.838878 0.272160
vn  -0.000000 -0.000000 1.000000
vn  -0.866025 -0.000000 0.500000
vn  -0.866025 -0.000000 -0.500000
vn  0.000001 -0.000000 -1.000000
vn  0.471395 0.838878 -0.272160
# 43 vertex normals

g switch_pressed
s 1
f 281/263/281 282/264/282 283/265/283
f 283/265/283 280/262/280 281/263/281
f 284/266/284 285/267/285 282/264/282
f 282/264/282 281/263/281 284/266/284
f 286/268/286 287/269/287 285/267/285
f 285/267/285 284/266/284 286/268/286
f 288/270/288 289/271/289 287/269/287
f 287/269/287 286/268/286 288/270/288
f 290/272/290 291/273/291 289/271/289
f 289/271/289 288/270/288 290/272/290
f 280/262/280 283/265/283 291/273/291
f 291/273/291 290/272/290 280/262/280
f 318/275/318 305/287/305 306/288/306
f 306/288/306 292/274/292 318/275/318
f 319/276/319 307/289/307 305/287/305
f 305/287/305 318/275/318 319/276/319
f 320/277/320 308/290/308 307/289/307
f 307/289/307 319/276/319 320/277/320
f 321/278/321 309/291/309 308/290/308
f 308/290/308 320/277/320 321/278/321
f 297/279/297 310/292/310 309/291/309
f 309/291/309 321/278/321 297/279/297
f 297/279/297 292/274/292 306/288/306
f 306/288/306 310/292/310 297/279/297
f 286/268/286 284/266/284 298/280/298
f 299/281/299 300/282/300 283/265/283
f 283/265/283 282/264/282 299/281/299
f 301/283/301 299/281/299 282/264/282
f 282/264/282 285/267/285 301/283/301
f 302/284/302 301/283/301 285/267/285
f 285/267/285 287/269/287 302/284/302
f 303/285/303 302/284/302 287/269/287
f 287/269/287 289/271/289 303/285/303
f 304/286/304 303/285/303 289/271/289
f 289/271/289 291/273/291 304/286/304
f 300/282/300 304/286/304 291/273/291
f 291/273/291 283/265/283 300/282/300
f 293/275/293 317/274/317 300/282/300
f 300/282/300 299/281/299 293/275/293
f 294/276/294 293/275/293 299/281/299
f 299/281/299 301/283/301 294/276/294
f 295/277/295 294/276/294 301/283/301
f 301/283/301 302/284/302 295/277/295
f 296/278/296 295/277/295 302/284/302
f 302/284/302 303/285/303 296/278/296
f 322/279/322 296/278/296 303/285/303
f 303/285/303 304/286/304 322/279/322
f 317/274/317 322/279/322 304/286/304
f 304/286/304 300/282/300 317/274/317
f 290/272/290 288/270/288 298/280/298
f 284/266/284 281/263/281 298/280/298
f 298/280/298 281/263/281 280/262/280
f 280/262/280 290/272/290 298/280/298
f 298/280/298 288/270/288 286/268/286
f 311/293/311 312/294/312 313/295/313
f 311/293/311 313/295/313 314/296/314
f 311/293/311 314/296/314 315/297/315
f 311/293/311 315/297/315 312/294/312
f 316/298/316 313/295/313 312/294/312
f 316/298/316 314/296/314 313/295/313
f 316/298/316 315/297/315 314/296/314
f 316/298/316 312/294/312 315/297/315
# 62 faces

g
# object base to come ...
#
v  96.456657 13.458355 -51.152580
v  99.201469 13.458357 -47.890785
v  99.201477 -1.531656 -51.419796
v  0.141658 -1.531660 -19.922075
v  0.141658 13.458355 -16.136003
v  1.767681 13.458355 -20.466576
v  99.201492 -1.531656 -99.326019
v  99.201462 -1.531656 -4.661397
v  94.806274 -1.531656 -0.266226
v  0.141655 -1.531660 -0.266267
v  0.141700 -1.531660 -94.930885
v  4.536873 -1.531660 -99.326065
v  94.768158 13.458359 -0.266226
v  0.141655 13.458355 -0.266267
v  2.132010 15.913177 -92.863678
v  2.131985 15.913177 -24.797155
v  3.757991 15.913177 -20.521051
v  49.671570 15.913179 -49.796139
v  99.201492 13.458359 -99.326019
v  4.574974 13.458355 -99.326065
v  97.211166 15.913181 -97.335701
v  97.211159 15.913181 -68.562668
v  99.201485 13.458357 -69.557823
v  2.131981 15.913177 -2.256585
v  2.131984 15.913177 -16.244953
v  92.739059 15.913181 -2.256545
v  6.604087 15.913177 -97.335747
v  97.211128 15.913181 -6.728613
v  97.211143 15.913181 -47.890785
v  94.466324 15.913179 -50.655003
v  0.141700 13.458355 -94.892776
v  0.141659 13.458355 -24.797157
v  99.201462 13.458359 -4.699510
v  99.201477 -1.531656 -51.419796
v  0.141658 -1.531660 -19.922075
v  96.456657 13.458355 -51.152580
v  99.201469 13.458357 -47.890785
v  99.201469 13.458357 -47.890785
v  0.141658 13.458355 -16.136003
v  0.141658 13.458355 -16.136003
v  1.767681 13.458355 -20.466576
v  94.768158 13.458359 -0.266226
v  0.141655 13.458355 -0.266267
v  2.132010 15.913177 -92.863678
v  2.131985 15.913177 -24.797155
v  3.757991 15.913177 -20.521051
v  99.201492 13.458359 -99.326019
v  4.574974 13.458355 -99.326065
v  97.211166 15.913181 -97.335701
v  97.211159 15.913181 -68.562668
v  99.201485 13.458357 -69.557823
v  99.201485 13.458357 -69.557823
v  2.131981 15.913177 -2.256585
v  2.131984 15.913177 -16.244953
v  92.739059 15.913181 -2.256545
v  6.604087 15.913177 -97.335747
v  97.211128 15.913181 -6.728613
v  97.211143 15.913181 -47.890785
v  94.466324 15.913179 -50.655003
v  0.141700 13.458355 -94.892776
v  0.141659 13.458355 -24.797157
v  0.141659 13.458355 -24.797157
v  99.201462 13.458359 -4.699510
v  99.201477 -1.531656 -51.419796
v  99.201477 -1.531656 -51.419796
v  99.201492 -1.531656 -99.326019
v  99.201462 -1.531656 -4.661397
v  94.806274 -1.531656 -0.266226
v  0.141655 -1.531660 -0.266267
v  0.141700 -1.531660 -94.930885
v  4.536873 -1.531660 -99.326065
v  0.141658 -1.531660 -19.922075
v  0.141658 -1.531660 -19.922075
v  96.456657 13.458355 -51.152580
v  94.466324 15.913179 -50.655003
v  1.767681 13.458355 -20.466576
v  3.757991 15.913177 -20.521051
v  94.806274 -1.531656 -0.266226
v  94.768158 13.458359 -0.266226
v  99.201462 -1.531656 -4.661397
v  99.201462 13.458359 -4.699510
v  0.141655 -1.531660 -0.266267
v  0.141655 13.458355 -0.266267
v  0.141700 13.458355 -94.892776
v  0.141700 -1.531660 -94.930885
v  4.574974 13.458355 -99.326065
v  4.536873 -1.531660 -99.326065
v  99.201492 13.458359 -99.326019
v  99.201492 -1.531656 -99.326019
v  96.456657 13.458355 -51.152580
v  99.201477 -1.531656 -51.419796
v  0.141658 -1.531660 -19.922075
v  1.767681 13.458355 -20.466576
v  2.131985 15.913177 -24.797155
v  0.141658 13.458355 -16.136003
v  2.131984 15.913177 -16.244953
v  0.141659 13.458355 -24.797157
# 97 vertices

vt  0.256236 0.124949 0.028181
vt  0.272529 0.124949 0.000500
vt  0.254901 0.015954 0.000500
vt  0.887557 0.018064 0.999500
vt  0.906470 0.127059 0.999500
vt  0.884837 0.127059 0.983102
vt  0.014066 0.274234 0.952626
vt  0.077453 0.274234 0.721883
vt  0.139322 0.274234 -0.002051
vt  0.145137 0.268418 -0.059207
vt  0.145137 0.143163 -0.335574
vt  0.119130 0.143163 -0.137348
vt  0.019882 0.143163 0.619103
vt  0.014066 0.148978 0.676259
vt  0.947343 0.392935 0.000500
vt  0.947343 0.501929 0.000500
vt  0.524765 0.501929 0.000500
vt  0.524765 0.392935 0.000500
vt  0.075356 0.957655 0.000499
vt  0.368323 0.957655 0.000500
vt  0.386728 0.950656 0.000501
vt  0.260724 0.753039 0.000501
vt  0.524765 0.501929 0.999500
vt  0.524765 0.392935 0.999501
vt  0.947343 0.392935 0.999500
vt  0.947343 0.501929 0.999500
vt  0.025901 0.520444 0.999498
vt  0.056108 0.548422 0.000501
vt  0.179951 0.548422 0.000501
vt  0.165685 0.520444 0.999499
vt  0.491058 0.985790 0.999498
vt  0.465341 0.957655 0.000501
vt  0.405133 0.957655 0.000501
vt  0.416539 0.985601 0.999498
vt  0.491058 0.535930 0.999500
vt  0.465341 0.567670 0.000502
vt  0.025901 0.964783 0.999497
vt  0.056108 0.938407 0.000499
vt  0.446092 0.548422 0.000502
vt  0.268925 0.548422 0.000502
vt  0.257028 0.560236 0.000503
vt  0.046719 0.985601 0.999497
vt  0.375868 0.985601 0.999498
vt  0.396203 0.977965 0.999498
vt  0.863204 0.127059 0.999500
vt  0.512959 0.127059 0.999500
vt  0.512959 0.018064 0.999500
vt  0.985805 0.018064 0.999500
vt  0.985805 0.127059 0.999500
vt  0.470241 0.520444 0.999500
vt  0.267427 0.520444 0.999500
vt  0.252110 0.533333 0.999500
vt  0.488379 0.124949 0.000500
vt  0.488379 0.015954 0.000500
vt  0.015533 0.015954 0.000500
vt  0.015533 0.124949 0.000500
vt  0.164296 0.124949 0.000500
vt  0.986726 0.501929 0.045209
vt  0.986726 0.392935 0.044824
vt  0.986905 0.501929 0.954791
vt  0.986905 0.392935 0.955176
# 61 texture vertices

vn  0.756495 0.149870 -0.636595
vn  0.756495 0.149870 -0.636595
vn  1.000000 -0.000000 0.000000
vn  -0.932515 0.088435 -0.350136
vn  -1.000000 0.000000 -0.000000
vn  -0.749098 0.598728 -0.283510
vn  0.000000 -1.000000 0.000000
vn  1.000000 -0.000000 0.000000
vn  0.707105 0.001798 0.707107
vn  -0.000000 0.000000 1.000000
vn  0.000000 -1.000000 0.000000
vn  0.000000 -1.000000 0.000000
vn  0.480846 1.417118 1.257634
vn  -1.000000 0.000000 -0.000000
vn  -0.000000 2.356194 -0.000000
vn  -0.776767 0.629788 -0.000000
vn  -0.000000 1.000000 -0.000000
vn  -0.000000 6.184553 -0.000000
vn  0.783574 1.270611 -0.783573
vn  -0.480845 1.417119 -1.257631
vn  1.656712 2.664984 -1.630226
vn  -0.000000 1.000000 0.000000
vn  1.000000 -0.000000 0.000000
vn  -0.000000 1.000000 -0.000000
vn  -0.000000 1.000000 -0.000000
vn  -0.000000 2.356194 -0.000000
vn  -0.000000 2.356195 -0.000000
vn  0.671506 0.712545 0.203368
vn  -0.000000 1.000000 -0.000000
vn  0.000000 1.000000 -0.000000
vn  -0.608447 0.736867 -0.294653
vn  -0.930125 0.113580 0.349238
vn  0.608444 0.736869 0.294652
vn  0.973676 0.175701 0.145207
vn  -1.000000 -0.000000 -0.000001
vn  0.784012 0.609065 0.119855
vn  0.741165 0.622422 -0.251526
vn  1.000000 -0.000000 0.000000
vn  -0.776767 0.629788 -0.000000
vn  -0.932515 0.088435 -0.350136
vn  -0.930125 0.113580 0.349238
vn  -0.000000 -0.000000 1.000000
vn  -0.783574 1.270611 0.783573
vn  -0.671509 0.712543 -0.203368
vn  -0.000000 1.000000 0.000000
vn  -0.742126 0.607960 0.282196
vn  1.000000 -0.000000 0.000000
vn  0.000000 -0.000000 -1.000000
vn  -0.000000 1.000000 -0.000000
vn  0.788239 0.611105 0.072321
vn  0.784938 0.617887 0.045699
vn  0.973676 0.175701 0.145207
vn  -1.656712 1.364709 0.026490
vn  -0.750004 0.597866 -0.282931
vn  0.722653 2.531972 2.386156
vn  -0.722649 2.531973 -2.386156
vn  -0.000000 2.356195 -0.000000
vn  0.723640 0.586714 -0.363472
vn  0.614564 0.561469 -0.554134
vn  -0.707107 0.001797 -0.707105
vn  -0.745698 0.604598 0.279991
vn  -1.000000 -0.000000 -0.000001
vn  0.707104 0.001798 0.707107
vn  0.000000 -1.000000 0.000000
vn  1.000000 -0.000000 0.000000
vn  0.000000 0.000000 -1.000000
vn  0.000000 -1.000000 0.000000
vn  0.000000 -1.000000 0.000000
vn  0.000000 -1.000000 0.000000
vn  -1.000000 -0.000000 -0.000001
vn  -0.707106 0.001798 -0.707105
vn  0.000000 -1.000000 0.000000
vn  -1.000000 0.000000 -0.000000
vn  0.611854 0.600444 -0.514879
vn  0.782912 0.610449 0.120003
vn  -0.743466 0.606703 0.281371
vn  -0.747782 0.599973 -0.284348
vn  -0.000000 -0.000000 1.000000
vn  0.707104 0.001798 0.707107
vn  0.707105 0.001798 0.707107
vn  1.000000 0.000000 0.000000
vn  -1.000000 0.000000 -0.000000
vn  -0.000000 -0.000000 1.000000
vn  -1.000000 0.000000 -0.000001
vn  -0.707106 0.001798 -0.707105
vn  -0.707107 0.001797 -0.707105
vn  0.000000 -0.000000 -1.000000
vn  0.000000 -0.000000 -1.000000
vn  1.000000 0.000000 0.000000
vn  0.973676 0.175701 0.145207
vn  0.756495 0.149870 -0.636595
vn  -0.930125 0.113580 0.349238
vn  -0.932515 0.088435 -0.350136
vn  -0.744372 0.605850 0.280812
vn  -0.751306 0.596625 -0.282097
vn  -0.776767 0.629788 -0.000000
vn  -0.776767 0.629788 -0.000000
# 97 vertex normals

g base
s 1
f 323/299/323 324/300/324 413/301/413
f 326/302/326 362/303/362 415/304/415
f 386/306/386 389/307/389 390/308/390
f 386/306/386 390/308/390 391/309/391
f 329/305/329 386/306/386 391/309/391
f 329/305/329 391/309/391 394/310/394
f 394/310/394 333/311/333 334/312/334
f 329/305/329 394/310/394 334/312/334
f 400/313/400 364/314/364 405/315/405
f 405/315/405 332/316/332 400/313/400
f 367/318/367 339/319/339 340/320/340
f 340/320/340 337/317/337 367/318/367
f 410/321/410 388/322/388 409/323/409
f 409/323/409 370/324/370 410/321/410
f 343/326/343 372/327/372 373/328/373
f 373/328/373 341/325/341 343/326/343
f 375/330/375 418/331/418 361/332/361
f 361/332/361 365/329/365 375/330/375
f 335/333/335 377/334/377 375/330/375
f 375/330/375 365/329/365 335/333/335
f 343/326/343 341/325/341 342/335/342
f 342/335/342 378/336/378 343/326/343
f 346/330/346 348/334/348 340/320/340
f 340/320/340 379/337/379 351/338/351
f 351/338/351 352/339/352 340/320/340
f 340/320/340 371/326/371 349/336/349
f 366/317/366 353/340/353 419/341/419
f 419/341/419 338/318/338 366/317/366
f 376/331/376 399/319/399 328/342/328
f 328/342/328 417/332/417 376/331/376
f 416/318/416 383/341/383 398/342/398
f 398/342/398 368/319/368 416/318/416
f 384/343/384 406/344/406 392/345/392
f 392/345/392 357/302/357 384/343/384
f 414/302/414 363/304/363 354/343/354
f 395/302/395 404/346/404 336/347/336
f 336/347/336 327/303/327 395/302/395
f 347/331/347 346/330/346 340/320/340
f 340/320/340 339/319/339 347/331/347
f 350/337/350 355/348/355 359/349/359
f 359/349/359 380/338/380 350/337/350
f 372/327/372 397/339/397 358/350/358
f 358/350/358 373/328/373 372/327/372
f 381/339/381 380/338/380 359/349/359
f 359/349/359 396/350/396 381/339/381
f 344/327/344 371/326/371 340/320/340
f 340/320/340 352/339/352 344/327/344
f 360/300/360 403/351/403 330/352/330
f 330/352/330 325/301/325 360/300/360
f 387/301/387 411/353/411 369/354/369
f 369/354/369 345/355/345 387/301/387
f 374/355/374 412/299/412 356/301/356
f 379/337/379 340/320/340 348/334/348
f 337/317/337 340/320/340 349/336/349
f 385/356/385 401/314/401 331/313/331
f 331/313/331 402/357/402 385/356/385
f 382/358/382 408/324/408 393/323/393
f 393/323/393 407/359/407 382/358/382
f 350/337/350 377/334/377 335/333/335
f 335/333/335 355/348/355 350/337/350
f 366/317/366 378/336/378 342/335/342
f 342/335/342 353/340/353 366/317/366
# 62 faces

g
