# Max2Obj Version 4.0 Mar 10th, 2001
#
# object jar3 to come ...
#
v  83.245956 1.884197 -83.252419
v  83.545967 73.089745 -83.552429
v  83.245956 1.884197 -16.479053
v  83.545967 73.089745 -16.179039
v  49.859272 3.734417 -86.992149
v  49.859272 3.734417 -12.739319
v  49.859272 70.643532 -12.739319
v  86.985687 3.734417 -49.865734
v  86.985687 70.643532 -49.865734
v  49.859272 0.289605 -49.865734
v  70.429695 76.519226 -70.436157
v  49.859272 76.014900 -78.956703
v  70.429695 76.519226 -29.295313
v  78.950241 75.971962 -49.865734
v  86.985687 69.014763 -84.375259
v  84.368805 69.014763 -12.739319
v  84.368805 69.014763 -86.992149
v  86.985687 69.014763 -15.356201
v  86.985687 5.447420 -84.375267
v  84.368805 5.447420 -12.739319
v  49.859272 0.289605 -16.179890
v  83.545120 0.289605 -49.865734
v  84.368805 5.447420 -86.992149
v  86.985687 5.447420 -15.356201
v  73.774345 75.644707 -73.780807
v  83.438972 74.690964 -49.865734
v  49.859272 74.690964 -83.445435
v  73.774345 75.644707 -25.950663
v  16.472591 1.884197 -83.252419
v  16.172577 73.089745 -83.552429
v  16.472588 1.884197 -16.479053
v  16.172577 73.089745 -16.179039
v  49.859272 70.643532 -86.992149
v  12.732857 3.734417 -49.865734
v  12.732857 70.643532 -49.865734
v  29.288849 76.519226 -70.436157
v  49.859272 76.014900 -20.774754
v  29.288849 76.519226 -29.295313
v  20.768301 75.971962 -49.865734
v  12.732857 69.014763 -84.375259
v  15.349743 69.014763 -12.739319
v  15.349743 69.014763 -86.992149
v  12.732857 69.014763 -15.356201
v  12.732857 5.447420 -84.375267
v  15.349743 5.447420 -12.739319
v  49.859272 0.289605 -83.551582
v  16.173424 0.289605 -49.865734
v  15.349743 5.447420 -86.992149
v  12.732857 5.447420 -15.356201
v  25.944201 75.644707 -73.780807
v  16.279572 74.690964 -49.865734
v  49.859272 74.690964 -16.286034
v  25.944199 75.644707 -25.950663
v  71.810486 84.790344 -27.914528
v  81.958923 83.814758 -49.865734
v  72.557152 83.814751 -72.563614
v  49.859272 83.814751 -81.965393
v  71.117447 74.520027 -28.607563
v  79.922867 74.520020 -49.865734
v  71.117447 74.520012 -71.123901
v  49.859272 74.520012 -79.929329
v  70.412277 84.790337 -49.865730
v  64.392448 84.790337 -35.332565
v  64.392441 84.790321 -64.398903
v  49.859272 84.790321 -70.418739
v  49.859272 35.480755 -49.865723
v  74.503563 60.135555 -25.221439
v  84.711555 60.135548 -49.865726
v  74.503555 60.135532 -74.510017
v  49.859272 60.135532 -84.718018
v  72.557159 83.814766 -27.167854
v  80.902969 84.790337 -49.865734
v  71.810478 84.790321 -71.816940
v  64.323471 84.634476 -35.401535
v  70.314728 84.634468 -49.865730
v  64.323463 84.634460 -64.329926
v  27.908060 84.790344 -27.914528
v  17.759617 83.814758 -49.865734
v  27.161392 83.814751 -72.563614
v  49.859272 84.790344 -18.822037
v  28.601097 74.520027 -28.607563
v  19.795673 74.520020 -49.865734
v  28.601101 74.520012 -71.123901
v  49.859272 74.520027 -19.802139
v  29.306267 84.790337 -49.865730
v  35.326099 84.790337 -35.332565
v  35.326103 84.790321 -64.398903
v  49.859272 84.790337 -29.312725
v  49.859272 60.135555 -15.013447
v  25.214979 60.135555 -25.221439
v  15.006989 60.135548 -49.865726
v  25.214985 60.135532 -74.510017
v  27.161386 83.814766 -27.167854
v  18.815575 84.790337 -49.865734
v  27.908066 84.790321 -71.816940
v  49.859272 84.790321 -80.909431
v  49.859272 83.814766 -17.766083
v  49.859272 84.634476 -29.410275
v  35.395077 84.634476 -35.401535
v  29.403814 84.634468 -49.865730
v  35.395081 84.634460 -64.329926
v  49.859272 84.634460 -70.321198
v  71.810486 84.790344 -27.914528
v  81.958923 83.814758 -49.865734
v  72.557152 83.814751 -72.563614
v  49.859272 83.814751 -81.965393
v  72.557159 83.814766 -27.167854
v  80.902969 84.790337 -49.865734
v  71.810478 84.790321 -71.816940
v  27.908060 84.790344 -27.914528
v  17.759617 83.814758 -49.865734
v  27.161392 83.814751 -72.563614
v  49.859272 84.790344 -18.822037
v  27.161386 83.814766 -27.167854
v  18.815575 84.790337 -49.865734
v  27.908066 84.790321 -71.816940
v  49.859272 84.790321 -80.909431
v  49.859272 83.814766 -17.766083
v  70.412277 84.790337 -49.865730
v  64.392448 84.790337 -35.332565
v  64.392441 84.790321 -64.398903
v  49.859272 84.790321 -70.418739
v  29.306267 84.790337 -49.865730
v  35.326099 84.790337 -35.332565
v  35.326103 84.790321 -64.398903
v  49.859272 84.790337 -29.312725
v  83.545967 73.089745 -83.552429
v  83.545967 73.089745 -16.179039
v  49.859272 70.643532 -12.739319
v  86.985687 70.643532 -49.865734
v  86.985687 69.014763 -84.375259
v  84.368805 69.014763 -12.739319
v  84.368805 69.014763 -86.992149
v  86.985687 69.014763 -15.356201
v  83.438972 74.690964 -49.865734
v  49.859272 74.690964 -83.445435
v  16.172577 73.089745 -83.552429
v  16.172577 73.089745 -16.179039
v  49.859272 70.643532 -86.992149
v  12.732857 70.643532 -49.865734
v  12.732857 69.014763 -84.375259
v  15.349743 69.014763 -12.739319
v  15.349743 69.014763 -86.992149
v  12.732857 69.014763 -15.356201
v  16.279572 74.690964 -49.865734
v  49.859272 74.690964 -16.286034
v  83.245956 1.884197 -83.252419
v  83.245956 1.884197 -16.479053
v  49.859272 3.734417 -86.992149
v  49.859272 3.734417 -12.739319
v  86.985687 3.734417 -49.865734
v  86.985687 5.447420 -84.375267
v  84.368805 5.447420 -12.739319
v  49.859272 0.289605 -16.179890
v  83.545120 0.289605 -49.865734
v  84.368805 5.447420 -86.992149
v  86.985687 5.447420 -15.356201
v  16.472591 1.884197 -83.252419
v  16.472588 1.884197 -16.479053
v  12.732857 3.734417 -49.865734
v  12.732857 5.447420 -84.375267
v  15.349743 5.447420 -12.739319
v  49.859272 0.289605 -83.551582
v  16.173424 0.289605 -49.865734
v  15.349743 5.447420 -86.992149
v  12.732857 5.447420 -15.356201
v  86.985687 69.014763 -84.375259
v  84.368805 69.014763 -12.739319
v  84.368805 69.014763 -86.992149
v  86.985687 69.014763 -15.356201
v  86.985687 5.447420 -84.375267
v  84.368805 5.447420 -12.739319
v  84.368805 5.447420 -86.992149
v  86.985687 5.447420 -15.356201
v  12.732857 69.014763 -84.375259
v  15.349743 69.014763 -86.992149
v  12.732857 69.014763 -15.356201
v  12.732857 5.447420 -84.375267
v  15.349743 5.447420 -12.739319
v  12.732857 5.447420 -15.356201
v  15.349743 69.014763 -12.739319
v  15.349743 5.447420 -86.992149
# 182 vertices

vt  0.937526 0.716952 0.954557
vt  0.867751 0.792384 0.988040
vt  0.696985 0.717778 0.975541
vt  0.028927 0.672211 0.000500
vt  0.028927 0.786005 0.021397
vt  0.204289 0.786005 0.000500
vt  0.204289 0.672211 0.000500
vt  0.456443 0.716952 0.954557
vt  0.526218 0.792384 0.988040
vt  0.379651 0.786005 0.021397
vt  0.379651 0.672211 0.000500
vt  0.489259 0.976996 0.992891
vt  0.457207 0.976996 0.975541
vt  0.550101 0.818203 0.999501
vt  0.936762 0.976996 0.975541
vt  0.408718 0.710600 0.901153
vt  0.408718 0.976996 0.922499
vt  0.943402 0.669734 0.901153
vt  0.696985 0.669734 0.922499
vt  0.981391 0.976996 0.922499
vt  0.981391 0.710599 0.901153
vt  0.450568 0.669734 0.901153
vt  0.843869 0.818202 0.999501
vt  0.696985 0.752428 0.992328
vt  0.904710 0.976996 0.992891
vt  0.990020 0.054283 1.054406
vt  0.990020 0.636817 1.054406
vt  0.652744 0.636817 0.499500
vt  0.652744 0.054283 0.499500
vt  0.019355 0.636817 1.116917
vt  0.325105 0.054283 1.054406
vt  0.990020 0.054283 1.054406
vt  0.325105 0.054283 1.054406
vt  0.019355 0.054283 1.116917
vt  0.289478 0.054283 1.087252
vt  0.289478 0.636817 1.087252
vt  0.019355 0.636817 1.116917
vt  0.325105 0.636817 1.054406
vt  0.325105 0.054283 1.054406
vt  0.325105 0.022994 0.982940
vt  0.652744 0.022994 0.406921
vt  0.019355 0.022994 1.034940
vt  0.325105 0.022994 0.982940
vt  0.289478 0.636817 1.087252
vt  0.289478 0.054283 1.087252
vt  0.019355 0.022994 1.034940
vt  0.019355 0.054283 1.116917
vt  0.325105 0.636817 1.054406
vt  0.990020 0.022994 0.982940
vt  0.325105 0.022994 0.982940
vt  0.937526 0.716952 0.954557
vt  0.867751 0.792384 0.988040
vt  0.696985 0.717778 0.975541
vt  0.028927 0.672211 0.000500
vt  0.028927 0.786005 0.021397
vt  0.204289 0.786005 0.000500
vt  0.204289 0.672211 0.000500
vt  0.456443 0.716952 0.954557
vt  0.526218 0.792384 0.988040
vt  0.379651 0.786005 0.021397
vt  0.379651 0.672211 0.000500
vt  0.489259 0.976996 0.992891
vt  0.457207 0.976996 0.975541
vt  0.550101 0.818203 0.999501
vt  0.936762 0.976996 0.975541
vt  0.408718 0.710600 0.901153
vt  0.408718 0.976996 0.922499
vt  0.943402 0.669734 0.901153
vt  0.696985 0.669734 0.922499
vt  0.981391 0.976996 0.922499
vt  0.981391 0.710599 0.901153
vt  0.450568 0.669734 0.901153
vt  0.843869 0.818202 0.999501
vt  0.696985 0.752428 0.992328
vt  0.904710 0.976996 0.992891
vt  0.990020 0.054283 1.054406
vt  0.990020 0.636817 1.054406
vt  0.652744 0.636817 0.499500
vt  0.652744 0.054283 0.499500
vt  0.019355 0.636817 1.116917
vt  0.325105 0.054283 1.054406
vt  0.990020 0.054283 1.054406
vt  0.325105 0.054283 1.054406
vt  0.019355 0.054283 1.116917
vt  0.289478 0.054283 1.087252
vt  0.289478 0.636817 1.087252
vt  0.019355 0.636817 1.116917
vt  0.325105 0.636817 1.054406
vt  0.325105 0.054283 1.054406
vt  0.325105 0.022994 0.982940
vt  0.652744 0.022994 0.406921
vt  0.019355 0.022994 1.034940
vt  0.325105 0.022994 0.982940
vt  0.289478 0.636817 1.087252
vt  0.289478 0.054283 1.087252
vt  0.019355 0.022994 1.034940
vt  0.019355 0.054283 1.116917
vt  0.325105 0.636817 1.054406
vt  0.990020 0.022994 0.982940
vt  0.325105 0.022994 0.982940
vt  0.617892 0.907897 0.706900
vt  0.696331 0.987338 0.000500
vt  0.545807 0.907897 0.000499
vt  0.696331 0.907897 0.999500
vt  0.774770 0.907897 0.706900
vt  0.846855 0.907897 0.000500
vt  0.650294 0.828958 0.415099
vt  0.596501 0.828958 0.000499
vt  0.696331 0.828958 0.586832
vt  0.742368 0.828958 0.415099
vt  0.796161 0.828958 0.000499
vt  0.202097 0.881828 0.904606
vt  0.111004 0.881828 0.904606
vt  0.111004 0.819293 0.000501
vt  0.202097 0.819293 0.000501
vt  0.295044 0.881828 0.904605
vt  0.295044 0.819293 0.000500
vt  0.386279 0.881829 0.904605
vt  0.386279 0.819293 0.000500
vt  0.024405 0.881828 0.904606
vt  0.024405 0.819293 0.000501
vt  0.111004 0.895535 0.999501
vt  0.202097 0.895535 0.999500
vt  0.202097 0.967757 0.999500
vt  0.111004 0.967757 0.999501
vt  0.024405 0.895535 0.999501
vt  0.024405 0.967757 0.999501
vt  0.295044 0.895535 0.999499
vt  0.295044 0.967757 0.999499
vt  0.386279 0.895535 0.999499
vt  0.386279 0.967757 0.999499
vt  0.111004 0.973963 0.984340
vt  0.024405 0.973963 0.984340
vt  0.202097 0.973963 0.984339
vt  0.295044 0.973963 0.984338
vt  0.386279 0.973963 0.984338
vt  0.617892 0.907897 0.706900
vt  0.696331 0.987338 0.000500
vt  0.545807 0.907897 0.000499
vt  0.696331 0.907897 0.999500
vt  0.774770 0.907897 0.706900
vt  0.846855 0.907897 0.000500
vt  0.650294 0.828958 0.415099
vt  0.596501 0.828958 0.000499
vt  0.696331 0.828958 0.586832
vt  0.742368 0.828958 0.415099
vt  0.796161 0.828958 0.000499
vt  0.202097 0.881828 0.904606
vt  0.111004 0.881828 0.904606
vt  0.111004 0.819293 0.000501
vt  0.202097 0.819293 0.000501
vt  0.295044 0.881828 0.904605
vt  0.295044 0.819293 0.000500
vt  0.386279 0.881829 0.904605
vt  0.386279 0.819293 0.000500
vt  0.024405 0.881828 0.904606
vt  0.024405 0.819293 0.000501
vt  0.111004 0.895535 0.999501
vt  0.202097 0.895535 0.999500
vt  0.202097 0.967757 0.999500
vt  0.111004 0.967757 0.999501
vt  0.024405 0.895535 0.999501
vt  0.024405 0.967757 0.999501
vt  0.295044 0.895535 0.999499
vt  0.295044 0.967757 0.999499
vt  0.386279 0.895535 0.999499
vt  0.386279 0.967757 0.999499
vt  0.111004 0.973963 0.984340
vt  0.024405 0.973963 0.984340
vt  0.202097 0.973963 0.984339
vt  0.295044 0.973963 0.984338
vt  0.386279 0.973963 0.984338
# 172 texture vertices

vn  0.023867 -0.999430 -0.023867
vn  0.128555 0.983335 -0.128555
vn  0.023867 -0.999430 0.023867
vn  0.128555 0.983335 0.128555
vn  0.000000 -0.706671 -0.707543
vn  0.000000 0.000000 1.000000
vn  -0.000000 0.659053 0.752097
vn  1.000000 0.000000 0.000000
vn  0.752539 0.658547 -0.001001
vn  0.000000 -1.000000 0.000000
vn  0.133727 0.981933 -0.133882
vn  0.000000 0.959150 -0.282898
vn  0.133726 0.981933 0.133882
vn  0.274425 0.961609 0.000000
vn  1.000000 0.000000 0.000000
vn  0.000000 0.000000 1.000000
vn  0.707107 0.000000 -0.707107
vn  0.707106 0.000000 0.707107
vn  0.707106 0.000000 -0.707107
vn  0.707106 0.000000 0.707107
vn  -0.000000 -0.706671 0.707542
vn  0.706407 -0.707803 -0.002221
vn  0.000000 0.000000 -1.000000
vn  1.000000 0.000000 0.000000
vn  0.128555 0.983335 -0.128555
vn  0.250936 0.968004 0.000000
vn  -0.000000 0.659053 -0.752097
vn  0.128555 0.983335 0.128555
vn  -0.023867 -0.999430 -0.023867
vn  -1.390091 2.181423 -1.269586
vn  -1.302641 -2.638054 1.315769
vn  -0.128555 0.983335 0.128555
vn  -0.000000 0.658042 -0.752981
vn  -0.706442 -0.707768 -0.002320
vn  -0.752539 0.658547 -0.001001
vn  -0.133727 0.981933 -0.133882
vn  -0.000000 0.959150 0.282899
vn  -0.133726 0.981933 0.133882
vn  -0.274425 0.961609 0.000000
vn  -0.707107 0.000000 -0.707107
vn  -0.733634 1.623101 1.744105
vn  0.000000 0.000000 -1.000000
vn  -1.000000 0.000000 0.000000
vn  -1.000000 0.000000 0.000000
vn  0.000000 0.000000 1.000000
vn  -0.000000 -1.000000 0.000000
vn  -0.706407 -0.707803 -0.002221
vn  -0.273190 -0.734896 -0.620722
vn  -0.707106 0.000000 0.707107
vn  -0.128555 0.983335 -0.128555
vn  -0.752555 0.658529 -0.000950
vn  -0.000000 0.966582 0.256356
vn  -0.128555 0.983335 0.128555
vn  0.479842 0.734509 0.479842
vn  0.678599 0.734509 -0.000000
vn  0.690729 -0.213981 -0.690729
vn  0.000000 -0.213981 -0.976838
vn  0.690729 -0.213981 0.690729
vn  0.976838 -0.213981 -0.000000
vn  0.690729 -0.213981 -0.690729
vn  0.000000 -0.213981 -0.976838
vn  -0.000000 1.000000 -0.000001
vn  -0.599396 0.530522 -0.599392
vn  -0.000000 1.000000 -0.000000
vn  0.000000 1.000000 0.000000
vn  -0.000000 1.000000 -0.000000
vn  -0.695193 0.182792 -0.695193
vn  -0.983152 0.182792 0.000000
vn  -0.695193 0.182792 0.695193
vn  0.000000 0.182792 0.983152
vn  0.690729 -0.213981 0.690729
vn  0.678599 0.734509 -0.000000
vn  -0.000000 1.000000 -0.000000
vn  -0.707013 0.016131 -0.707017
vn  -0.999870 0.016121 -0.000002
vn  -0.707016 0.016142 0.707013
vn  0.000000 1.000000 -0.000001
vn  -0.976838 -0.213981 0.000000
vn  -0.690729 -0.213981 -0.690729
vn  0.000000 1.000000 -0.000001
vn  -0.690729 -0.213981 0.690729
vn  -0.976838 -0.213981 -0.000000
vn  -0.690729 -0.213981 -0.690729
vn  0.000000 -0.213981 0.976838
vn  0.847681 0.530506 0.000002
vn  0.599396 0.530522 -0.599392
vn  0.000000 1.000000 -0.000000
vn  -0.000000 0.530532 -0.847665
vn  -0.000000 0.182792 -0.983152
vn  0.695193 0.182792 -0.695193
vn  0.983152 0.182792 0.000000
vn  0.695193 0.182792 0.695193
vn  -0.690729 -0.213981 0.690729
vn  0.000000 1.000000 -0.000001
vn  0.000000 1.000000 -0.000000
vn  0.000000 1.000000 0.000000
vn  -0.000000 0.734508 0.678600
vn  -0.000000 0.016138 -0.999870
vn  0.707013 0.016131 -0.707017
vn  0.999870 0.016121 -0.000002
vn  0.707016 0.016142 0.707013
vn  0.000000 0.016129 0.999870
vn  -0.000000 1.000000 -0.000001
vn  0.976838 -0.213981 0.000000
vn  0.479840 0.734511 -0.479840
vn  0.000000 0.734512 -0.678596
vn  0.479842 0.734509 0.479842
vn  -0.000000 1.000000 -0.000001
vn  0.479840 0.734511 -0.479840
vn  -0.479842 0.734509 0.479842
vn  -0.678599 0.734509 -0.000000
vn  -0.479840 0.734511 -0.479840
vn  -0.000000 0.734508 0.678600
vn  -0.479842 0.734509 0.479842
vn  -0.678599 0.734509 -0.000000
vn  -0.479840 0.734511 -0.479840
vn  0.000000 0.734512 -0.678596
vn  -0.000000 -0.213981 0.976838
vn  -0.847681 0.530506 0.000002
vn  -0.000001 1.000000 -0.000001
vn  -0.599386 0.530537 0.599388
vn  0.000000 0.530517 0.847674
vn  0.000000 1.000000 -0.000001
vn  0.000001 1.000000 -0.000001
vn  0.599386 0.530537 0.599388
vn  0.000000 1.000000 -0.000001
vn  1.345638 1.246871 -0.169612
vn  0.169612 1.246871 1.345637
vn  0.000000 0.000000 1.000000
vn  1.000000 0.000000 0.000000
vn  1.744105 1.623101 -0.733635
vn  0.733634 1.623101 1.744105
vn  0.295272 0.650385 -0.699867
vn  0.699867 0.650385 0.295273
vn  0.752555 0.658529 -0.000950
vn  0.000000 0.966582 -0.256356
vn  -0.128555 0.983335 -0.128555
vn  -1.269586 2.181423 1.390091
vn  0.000000 0.000000 -1.000000
vn  -1.000000 0.000000 0.000000
vn  -1.744105 1.623100 -0.733635
vn  -0.707106 0.000000 0.707107
vn  -0.295272 0.650385 -0.699867
vn  -0.699867 0.650385 0.295273
vn  -0.250936 0.968004 0.000000
vn  -0.000000 0.658005 0.753014
vn  1.213148 -2.535559 -1.296826
vn  1.302641 -2.638054 1.315769
vn  0.000000 0.000000 -1.000000
vn  -0.000000 -0.708867 0.705342
vn  0.706442 -0.707768 -0.002320
vn  1.521554 -1.806534 -0.665161
vn  0.271074 -0.736219 0.620081
vn  -0.000000 -1.000000 0.000000
vn  0.000000 -1.000000 0.000000
vn  0.273190 -0.734896 -0.620722
vn  1.523826 -1.804115 0.670662
vn  -0.176803 -1.423671 -1.242361
vn  -0.023867 -0.999430 0.023867
vn  -1.000000 0.000000 0.000000
vn  -1.521554 -1.806534 -0.665161
vn  -0.271074 -0.736219 0.620081
vn  -0.000000 -0.708936 -0.705273
vn  0.000000 -1.000000 0.000000
vn  -0.707106 0.000000 -0.707107
vn  -1.523826 -1.804115 0.670662
vn  0.707107 0.000000 -0.707107
vn  0.707106 0.000000 0.707107
vn  0.000000 0.000000 -1.000000
vn  1.000000 0.000000 0.000000
vn  1.000000 0.000000 0.000000
vn  0.000000 0.000000 1.000000
vn  0.707106 0.000000 -0.707107
vn  0.707106 0.000000 0.707107
vn  -1.000000 0.000000 0.000000
vn  -0.707107 0.000000 -0.707107
vn  -0.707106 0.000000 0.707107
vn  -0.707106 0.000000 -0.707107
vn  -0.707106 0.000000 0.707107
vn  -1.000000 0.000000 0.000000
vn  0.000000 0.000000 1.000000
vn  0.000000 0.000000 -1.000000
# 182 vertex normals

g jar3
s 1
f 15/27/15 130/28/130 8/29/8
f 8/29/8 171/26/171 15/27/15
f 2/1/2 25/2/25 26/3/26
f 169/44/169 23/45/23 149/47/149
f 149/47/149 139/30/139 169/44/169
f 172/35/172 16/36/16 129/37/129
f 129/37/129 6/34/6 172/35/172
f 1/5/1 155/6/155 10/7/10
f 10/7/10 46/4/46 1/5/1
f 170/38/170 24/39/24 8/29/8
f 8/29/8 130/28/130 170/38/170
f 4/8/4 26/3/26 28/9/28
f 3/10/3 154/11/154 10/7/10
f 10/7/10 155/6/155 3/10/3
f 52/13/52 28/9/28 13/14/13
f 13/14/13 37/12/37 52/13/52
f 136/15/136 25/2/25 2/1/2
f 17/44/17 167/48/167 19/31/19
f 19/31/19 173/45/173 17/44/17
f 20/35/20 174/39/174 18/38/18
f 18/38/18 168/36/168 20/35/20
f 132/16/132 128/8/128 146/13/146
f 146/13/146 7/17/7 132/16/132
f 131/18/131 127/1/127 135/3/135
f 135/3/135 9/19/9 131/18/131
f 33/20/33 27/15/27 127/1/127
f 127/1/127 133/21/133 33/20/33
f 9/19/9 135/3/135 128/8/128
f 128/8/128 134/22/134 9/19/9
f 131/18/131 133/21/133 127/1/127
f 132/16/132 134/22/134 128/8/128
f 156/45/156 147/40/147 163/46/163
f 163/46/163 5/47/5 156/45/156
f 147/49/147 152/32/152 151/29/151
f 151/29/151 22/41/22 147/49/147
f 150/34/150 21/42/21 148/43/148
f 148/43/148 153/35/153 150/34/150
f 22/41/22 151/29/151 157/39/157
f 157/39/157 148/43/148 22/41/22
f 152/33/152 147/50/147 156/45/156
f 153/35/153 148/43/148 157/39/157
f 11/23/11 14/24/14 26/3/26
f 26/3/26 25/2/25 11/23/11
f 26/3/26 14/24/14 13/14/13
f 13/14/13 28/9/28 26/3/26
f 52/13/52 4/8/4 28/9/28
f 136/15/136 12/25/12 11/23/11
f 11/23/11 25/2/25 136/15/136
f 175/77/175 44/76/44 160/79/160
f 160/79/160 140/78/140 175/77/175
f 137/51/137 145/53/145 50/52/50
f 42/94/42 139/80/139 149/97/149
f 149/97/149 182/95/182 42/94/42
f 45/85/45 6/84/6 129/87/129
f 129/87/129 181/86/181 45/85/45
f 29/55/29 46/54/46 10/57/10
f 10/57/10 164/56/164 29/55/29
f 43/88/43 140/78/140 160/79/160
f 160/79/160 180/89/180 43/88/43
f 32/58/32 53/59/53 145/53/145
f 159/60/159 164/56/164 10/57/10
f 10/57/10 154/61/154 159/60/159
f 52/63/52 37/62/37 38/64/38
f 38/64/38 53/59/53 52/63/52
f 136/65/136 137/51/137 50/52/50
f 176/94/176 165/95/165 178/81/178
f 178/81/178 40/98/40 176/94/176
f 179/85/179 142/86/142 177/88/177
f 177/88/177 49/89/49 179/85/179
f 41/66/41 7/67/7 146/63/146
f 146/63/146 138/58/138 41/66/41
f 141/68/141 35/69/35 51/53/51
f 51/53/51 30/51/30 141/68/141
f 33/70/33 143/71/143 30/51/30
f 30/51/30 27/65/27 33/70/33
f 35/69/35 144/72/144 138/58/138
f 138/58/138 51/53/51 35/69/35
f 141/68/141 30/51/30 143/71/143
f 41/66/41 138/58/138 144/72/144
f 48/95/48 5/97/5 163/96/163
f 163/96/163 158/90/158 48/95/48
f 158/99/158 47/91/47 34/79/34
f 34/79/34 161/82/161 158/99/158
f 150/84/150 162/85/162 31/93/31
f 31/93/31 21/92/21 150/84/150
f 47/91/47 31/93/31 166/89/166
f 166/89/166 34/79/34 47/91/47
f 161/83/161 48/95/48 158/100/158
f 162/85/162 166/89/166 31/93/31
f 36/73/36 50/52/50 145/53/145
f 145/53/145 39/74/39 36/73/36
f 145/53/145 53/59/53 38/64/38
f 38/64/38 39/74/39 145/53/145
f 52/63/52 53/59/53 32/58/32
f 136/65/136 50/52/50 36/73/36
f 36/73/36 12/75/12 136/65/136
f 104/112/104 71/113/71 58/114/58
f 58/114/58 59/115/59 104/112/104
f 56/116/56 104/112/104 59/115/59
f 59/115/59 60/117/60 56/116/56
f 57/118/57 56/116/56 60/117/60
f 60/117/60 61/119/61 57/118/57
f 71/113/71 118/120/118 84/121/84
f 84/121/84 58/114/58 71/113/71
f 103/122/103 108/123/108 62/124/62
f 62/124/62 120/125/120 103/122/103
f 80/126/80 103/122/103 120/125/120
f 120/125/120 126/127/126 80/126/80
f 73/128/73 64/129/64 62/124/62
f 62/124/62 108/123/108 73/128/73
f 96/130/96 65/131/65 64/129/64
f 64/129/64 73/128/73 96/130/96
f 63/125/63 74/132/74 98/133/98
f 98/133/98 88/127/88 63/125/63
f 119/124/119 75/134/75 74/132/74
f 74/132/74 63/125/63 119/124/119
f 121/129/121 76/135/76 75/134/75
f 75/134/75 119/124/119 121/129/121
f 122/131/122 102/136/102 76/135/76
f 76/135/76 121/129/121 122/131/122
f 67/101/67 66/102/66 89/103/89
f 68/104/68 66/102/66 67/101/67
f 69/105/69 66/102/66 68/104/68
f 70/106/70 66/102/66 69/105/69
f 54/122/54 107/113/107 55/112/55
f 55/112/55 72/123/72 54/122/54
f 72/123/72 55/112/55 105/116/105
f 105/116/105 109/128/109 72/123/72
f 109/128/109 105/116/105 106/118/106
f 106/118/106 117/130/117 109/128/109
f 113/126/113 97/120/97 107/113/107
f 107/113/107 54/122/54 113/126/113
f 67/101/67 89/103/89 98/108/98
f 98/108/98 74/107/74 67/101/67
f 68/104/68 67/101/67 74/107/74
f 74/107/74 75/109/75 68/104/68
f 69/105/69 68/104/68 75/109/75
f 75/109/75 76/110/76 69/105/69
f 70/106/70 69/105/69 76/110/76
f 76/110/76 102/111/102 70/106/70
f 78/148/78 82/151/82 81/150/81
f 81/150/81 93/149/93 78/148/78
f 79/152/79 83/153/83 82/151/82
f 82/151/82 78/148/78 79/152/79
f 57/154/57 61/155/61 83/153/83
f 83/153/83 79/152/79 57/154/57
f 93/149/93 81/150/81 84/157/84
f 84/157/84 118/156/118 93/149/93
f 77/158/77 124/161/124 123/160/123
f 123/160/123 94/159/94 77/158/77
f 80/162/80 126/163/126 124/161/124
f 124/161/124 77/158/77 80/162/80
f 95/164/95 94/159/94 123/160/123
f 123/160/123 87/165/87 95/164/95
f 96/166/96 95/164/95 87/165/87
f 87/165/87 65/167/65 96/166/96
f 86/161/86 88/163/88 98/169/98
f 98/169/98 99/168/99 86/161/86
f 85/160/85 86/161/86 99/168/99
f 99/168/99 100/170/100 85/160/85
f 125/165/125 85/160/85 100/170/100
f 100/170/100 101/171/101 125/165/125
f 122/167/122 125/165/125 101/171/101
f 101/171/101 102/172/102 122/167/122
f 90/137/90 89/139/89 66/138/66
f 91/140/91 90/137/90 66/138/66
f 92/141/92 91/140/91 66/138/66
f 70/142/70 92/141/92 66/138/66
f 110/158/110 115/159/115 111/148/111
f 111/148/111 114/149/114 110/158/110
f 115/159/115 116/164/116 112/152/112
f 112/152/112 111/148/111 115/159/115
f 116/164/116 117/166/117 106/154/106
f 106/154/106 112/152/112 116/164/116
f 113/162/113 110/158/110 114/149/114
f 114/149/114 97/156/97 113/162/113
f 90/137/90 99/143/99 98/144/98
f 98/144/98 89/139/89 90/137/90
f 91/140/91 100/145/100 99/143/99
f 99/143/99 90/137/90 91/140/91
f 92/141/92 101/146/101 100/145/100
f 100/145/100 91/140/91 92/141/92
f 70/142/70 102/147/102 101/146/101
f 101/146/101 92/141/92 70/142/70
# 184 faces

g
# object jar2 to come ...
#
v  77.386734 1.553529 -77.393196
v  77.634094 60.262806 -77.640556
v  77.386734 1.553529 -22.338274
v  77.634094 60.262806 -22.090910
v  49.859272 3.079043 -80.476624
v  49.859272 3.079043 -19.254847
v  49.859272 58.245892 -19.254847
v  80.470161 3.079043 -49.865734
v  80.470161 58.245892 -49.865734
v  49.859272 0.238780 -49.865734
v  66.819672 63.090431 -66.826134
v  49.859272 62.674614 -73.851364
v  66.819672 63.090431 -32.905334
v  73.844902 62.639206 -49.865734
v  80.470161 56.902969 -78.318985
v  78.312531 56.902969 -19.254847
v  78.312531 56.902969 -80.476624
v  80.470161 56.902969 -21.412476
v  80.470161 4.491421 -78.318993
v  78.312531 4.491421 -19.254847
v  49.859272 0.238780 -22.091612
v  77.633400 0.238780 -49.865734
v  78.312531 4.491421 -80.476624
v  80.470161 4.491421 -21.412476
v  69.577347 62.369389 -69.583817
v  77.545876 61.583019 -49.865734
v  49.859272 61.583019 -77.552338
v  69.577354 62.369389 -30.147655
v  22.331812 1.553529 -77.393196
v  22.084448 60.262806 -77.640556
v  22.331808 1.553529 -22.338274
v  22.084448 60.262806 -22.090910
v  49.859272 58.245892 -80.476624
v  19.248384 3.079043 -49.865734
v  19.248384 58.245892 -49.865734
v  32.898872 63.090431 -66.826134
v  49.859272 62.674610 -25.880096
v  32.898872 63.090431 -32.905334
v  25.873642 62.639206 -49.865734
v  19.248384 56.902969 -78.318985
v  21.406017 56.902969 -19.254847
v  21.406017 56.902969 -80.476624
v  19.248384 56.902969 -21.412476
v  19.248384 4.491421 -78.318993
v  21.406017 4.491421 -19.254847
v  49.859272 0.238780 -77.639862
v  22.085146 0.238780 -49.865734
v  21.406017 4.491421 -80.476624
v  19.248384 4.491421 -21.412476
v  30.141193 62.369389 -69.583817
v  22.172667 61.583019 -49.865734
v  49.859272 61.583019 -22.179129
v  30.141191 62.369389 -30.147655
v  67.958138 69.910004 -31.766870
v  76.325577 69.105629 -49.865734
v  68.573776 69.105621 -68.580231
v  49.859272 69.105621 -76.332039
v  67.386726 61.442081 -32.338280
v  74.646835 61.442078 -49.865734
v  67.386726 61.442070 -67.393188
v  49.859272 61.442070 -74.653297
v  66.805313 69.909996 -49.865734
v  61.841934 69.909996 -37.883072
v  61.841934 69.909988 -61.848396
v  49.859272 69.909988 -66.811775
v  49.859272 29.254036 -49.865723
v  70.178596 49.582024 -29.546408
v  78.595131 49.582016 -49.865726
v  70.178589 49.582005 -70.185051
v  49.859272 49.582005 -78.601593
v  68.573776 69.105637 -31.151234
v  75.454933 69.909996 -49.865734
v  67.958138 69.909988 -67.964600
v  61.785065 69.781487 -37.939941
v  66.724884 69.781479 -49.865730
v  61.785061 69.781471 -61.791523
v  31.760405 69.910004 -31.766870
v  23.392969 69.105629 -49.865734
v  31.144772 69.105621 -68.580231
v  49.859272 69.910004 -24.270073
v  32.331818 61.442081 -32.338280
v  25.071707 61.442078 -49.865734
v  32.331818 61.442070 -67.393188
v  49.859272 61.442081 -25.078171
v  32.913231 69.909996 -49.865734
v  37.876610 69.909996 -37.883072
v  37.876610 69.909988 -61.848396
v  49.859272 69.909996 -32.919693
v  49.859272 49.582024 -21.129875
v  29.539948 49.582024 -29.546408
v  21.123415 49.582016 -49.865726
v  29.539951 49.582005 -70.185051
v  31.144768 69.105637 -31.151234
v  24.263611 69.909996 -49.865734
v  31.760408 69.909988 -67.964600
v  49.859272 69.909988 -75.461395
v  49.859272 69.105637 -23.399435
v  49.859272 69.781487 -33.000122
v  37.933479 69.781487 -37.939941
v  32.993660 69.781479 -49.865730
v  37.933483 69.781471 -61.791523
v  49.859272 69.781471 -66.731346
v  67.958138 69.910004 -31.766870
v  76.325577 69.105629 -49.865734
v  68.573776 69.105621 -68.580231
v  49.859272 69.105621 -76.332039
v  68.573776 69.105637 -31.151234
v  75.454933 69.909996 -49.865734
v  67.958138 69.909988 -67.964600
v  31.760405 69.910004 -31.766870
v  23.392969 69.105629 -49.865734
v  31.144772 69.105621 -68.580231
v  49.859272 69.910004 -24.270073
v  31.144768 69.105637 -31.151234
v  24.263611 69.909996 -49.865734
v  31.760408 69.909988 -67.964600
v  49.859272 69.909988 -75.461395
v  49.859272 69.105637 -23.399435
v  66.805313 69.909996 -49.865734
v  61.841934 69.909996 -37.883072
v  61.841934 69.909988 -61.848396
v  49.859272 69.909988 -66.811775
v  32.913231 69.909996 -49.865734
v  37.876610 69.909996 -37.883072
v  37.876610 69.909988 -61.848396
v  49.859272 69.909996 -32.919693
v  77.634094 60.262806 -77.640556
v  77.634094 60.262806 -22.090910
v  49.859272 58.245892 -19.254847
v  80.470161 58.245892 -49.865734
v  80.470161 56.902969 -78.318985
v  78.312531 56.902969 -19.254847
v  78.312531 56.902969 -80.476624
v  80.470161 56.902969 -21.412476
v  77.545876 61.583019 -49.865734
v  49.859272 61.583019 -77.552338
v  22.084448 60.262806 -77.640556
v  22.084448 60.262806 -22.090910
v  49.859272 58.245892 -80.476624
v  19.248384 58.245892 -49.865734
v  19.248384 56.902969 -78.318985
v  21.406017 56.902969 -19.254847
v  21.406017 56.902969 -80.476624
v  19.248384 56.902969 -21.412476
v  22.172667 61.583019 -49.865734
v  49.859272 61.583019 -22.179129
v  77.386734 1.553529 -77.393196
v  77.386734 1.553529 -22.338274
v  49.859272 3.079043 -80.476624
v  49.859272 3.079043 -19.254847
v  80.470161 3.079043 -49.865734
v  80.470161 4.491421 -78.318993
v  78.312531 4.491421 -19.254847
v  49.859272 0.238780 -22.091612
v  77.633400 0.238780 -49.865734
v  78.312531 4.491421 -80.476624
v  80.470161 4.491421 -21.412476
v  22.331812 1.553529 -77.393196
v  22.331808 1.553529 -22.338274
v  19.248384 3.079043 -49.865734
v  19.248384 4.491421 -78.318993
v  21.406017 4.491421 -19.254847
v  49.859272 0.238780 -77.639862
v  22.085146 0.238780 -49.865734
v  21.406017 4.491421 -80.476624
v  19.248384 4.491421 -21.412476
v  80.470161 56.902969 -78.318985
v  78.312531 56.902969 -19.254847
v  78.312531 56.902969 -80.476624
v  80.470161 56.902969 -21.412476
v  80.470161 4.491421 -78.318993
v  78.312531 4.491421 -19.254847
v  78.312531 4.491421 -80.476624
v  80.470161 4.491421 -21.412476
v  19.248384 56.902969 -78.318985
v  21.406017 56.902969 -80.476624
v  19.248384 56.902969 -21.412476
v  19.248384 4.491421 -78.318993
v  21.406017 4.491421 -19.254847
v  19.248384 4.491421 -21.412476
v  21.406017 56.902969 -19.254847
v  21.406017 4.491421 -80.476624
# 182 vertices

vt  0.937526 0.716952 0.954557
vt  0.867751 0.792384 0.988040
vt  0.696985 0.717778 0.975541
vt  0.028927 0.672211 0.000500
vt  0.028927 0.786005 0.021397
vt  0.204289 0.786005 0.000500
vt  0.204289 0.672211 0.000500
vt  0.456443 0.716952 0.954557
vt  0.526218 0.792384 0.988040
vt  0.379651 0.786005 0.021397
vt  0.379651 0.672211 0.000500
vt  0.489259 0.976996 0.992891
vt  0.457207 0.976996 0.975541
vt  0.550101 0.818203 0.999501
vt  0.936762 0.976996 0.975541
vt  0.408718 0.710600 0.901153
vt  0.408718 0.976996 0.922499
vt  0.943402 0.669734 0.901153
vt  0.696985 0.669734 0.922499
vt  0.981391 0.976996 0.922499
vt  0.981391 0.710599 0.901153
vt  0.450568 0.669734 0.901153
vt  0.843869 0.818202 0.999501
vt  0.696985 0.752428 0.992328
vt  0.904710 0.976996 0.992891
vt  0.990020 0.054283 1.054406
vt  0.990020 0.636817 1.054406
vt  0.652744 0.636817 0.499500
vt  0.652744 0.054283 0.499500
vt  0.019355 0.636817 1.116917
vt  0.325105 0.054283 1.054406
vt  0.990020 0.054283 1.054406
vt  0.325105 0.054283 1.054406
vt  0.019355 0.054283 1.116917
vt  0.289478 0.054283 1.087252
vt  0.289478 0.636817 1.087252
vt  0.019355 0.636817 1.116917
vt  0.325105 0.636817 1.054406
vt  0.325105 0.054283 1.054406
vt  0.325105 0.022994 0.982940
vt  0.652744 0.022994 0.406921
vt  0.019355 0.022994 1.034940
vt  0.325105 0.022994 0.982940
vt  0.289478 0.636817 1.087252
vt  0.289478 0.054283 1.087252
vt  0.019355 0.022994 1.034940
vt  0.019355 0.054283 1.116917
vt  0.325105 0.636817 1.054406
vt  0.990020 0.022994 0.982940
vt  0.325105 0.022994 0.982940
vt  0.937526 0.716952 0.954557
vt  0.867751 0.792384 0.988040
vt  0.696985 0.717778 0.975541
vt  0.028927 0.672211 0.000500
vt  0.028927 0.786005 0.021397
vt  0.204289 0.786005 0.000500
vt  0.204289 0.672211 0.000500
vt  0.456443 0.716952 0.954557
vt  0.526218 0.792384 0.988040
vt  0.379651 0.786005 0.021397
vt  0.379651 0.672211 0.000500
vt  0.489259 0.976996 0.992891
vt  0.457207 0.976996 0.975541
vt  0.550101 0.818203 0.999501
vt  0.936762 0.976996 0.975541
vt  0.408718 0.710600 0.901153
vt  0.408718 0.976996 0.922499
vt  0.943402 0.669734 0.901153
vt  0.696985 0.669734 0.922499
vt  0.981391 0.976996 0.922499
vt  0.981391 0.710599 0.901153
vt  0.450568 0.669734 0.901153
vt  0.843869 0.818202 0.999501
vt  0.696985 0.752428 0.992328
vt  0.904710 0.976996 0.992891
vt  0.990020 0.054283 1.054406
vt  0.990020 0.636817 1.054406
vt  0.652744 0.636817 0.499500
vt  0.652744 0.054283 0.499500
vt  0.019355 0.636817 1.116917
vt  0.325105 0.054283 1.054406
vt  0.990020 0.054283 1.054406
vt  0.325105 0.054283 1.054406
vt  0.019355 0.054283 1.116917
vt  0.289478 0.054283 1.087252
vt  0.289478 0.636817 1.087252
vt  0.019355 0.636817 1.116917
vt  0.325105 0.636817 1.054406
vt  0.325105 0.054283 1.054406
vt  0.325105 0.022994 0.982940
vt  0.652744 0.022994 0.406921
vt  0.019355 0.022994 1.034940
vt  0.325105 0.022994 0.982940
vt  0.289478 0.636817 1.087252
vt  0.289478 0.054283 1.087252
vt  0.019355 0.022994 1.034940
vt  0.019355 0.054283 1.116917
vt  0.325105 0.636817 1.054406
vt  0.990020 0.022994 0.982940
vt  0.325105 0.022994 0.982940
vt  0.617892 0.907897 0.706900
vt  0.696331 0.987338 0.000500
vt  0.545807 0.907897 0.000499
vt  0.696331 0.907897 0.999500
vt  0.774770 0.907897 0.706900
vt  0.846855 0.907897 0.000500
vt  0.650294 0.828958 0.415099
vt  0.596501 0.828958 0.000499
vt  0.696331 0.828958 0.586832
vt  0.742368 0.828958 0.415099
vt  0.796161 0.828958 0.000499
vt  0.202097 0.881828 0.904606
vt  0.111004 0.881828 0.904606
vt  0.111004 0.819293 0.000501
vt  0.202097 0.819293 0.000501
vt  0.295044 0.881828 0.904605
vt  0.295044 0.819293 0.000500
vt  0.386279 0.881829 0.904605
vt  0.386279 0.819293 0.000500
vt  0.024405 0.881828 0.904606
vt  0.024405 0.819293 0.000501
vt  0.111004 0.895535 0.999501
vt  0.202097 0.895535 0.999500
vt  0.202097 0.967757 0.999500
vt  0.111004 0.967757 0.999501
vt  0.024405 0.895535 0.999501
vt  0.024405 0.967757 0.999501
vt  0.295044 0.895535 0.999499
vt  0.295044 0.967757 0.999499
vt  0.386279 0.895535 0.999499
vt  0.386279 0.967757 0.999499
vt  0.111004 0.973963 0.984340
vt  0.024405 0.973963 0.984340
vt  0.202097 0.973963 0.984339
vt  0.295044 0.973963 0.984338
vt  0.386279 0.973963 0.984338
vt  0.617892 0.907897 0.706900
vt  0.696331 0.987338 0.000500
vt  0.545807 0.907897 0.000499
vt  0.696331 0.907897 0.999500
vt  0.774770 0.907897 0.706900
vt  0.846855 0.907897 0.000500
vt  0.650294 0.828958 0.415099
vt  0.596501 0.828958 0.000499
vt  0.696331 0.828958 0.586832
vt  0.742368 0.828958 0.415099
vt  0.796161 0.828958 0.000499
vt  0.202097 0.881828 0.904606
vt  0.111004 0.881828 0.904606
vt  0.111004 0.819293 0.000501
vt  0.202097 0.819293 0.000501
vt  0.295044 0.881828 0.904605
vt  0.295044 0.819293 0.000500
vt  0.386279 0.881829 0.904605
vt  0.386279 0.819293 0.000500
vt  0.024405 0.881828 0.904606
vt  0.024405 0.819293 0.000501
vt  0.111004 0.895535 0.999501
vt  0.202097 0.895535 0.999500
vt  0.202097 0.967757 0.999500
vt  0.111004 0.967757 0.999501
vt  0.024405 0.895535 0.999501
vt  0.024405 0.967757 0.999501
vt  0.295044 0.895535 0.999499
vt  0.295044 0.967757 0.999499
vt  0.386279 0.895535 0.999499
vt  0.386279 0.967757 0.999499
vt  0.111004 0.973963 0.984340
vt  0.024405 0.973963 0.984340
vt  0.202097 0.973963 0.984339
vt  0.295044 0.973963 0.984338
vt  0.386279 0.973963 0.984338
# 172 texture vertices

vn  0.023867 -0.999430 -0.023867
vn  0.128555 0.983335 -0.128555
vn  0.023867 -0.999430 0.023867
vn  0.128555 0.983335 0.128555
vn  0.000000 -0.706671 -0.707543
vn  0.000000 0.000000 1.000000
vn  0.000000 0.659053 0.752097
vn  1.000000 0.000000 0.000000
vn  0.752539 0.658547 -0.001001
vn  0.000000 -1.000000 -0.000000
vn  0.133726 0.981933 -0.133882
vn  0.000000 0.959150 -0.282899
vn  0.133726 0.981933 0.133882
vn  0.274424 0.961609 0.000000
vn  1.000000 0.000000 0.000000
vn  0.000000 0.000000 1.000000
vn  0.707107 0.000000 -0.707107
vn  0.707106 0.000000 0.707107
vn  0.707106 0.000000 -0.707107
vn  0.707106 0.000000 0.707107
vn  0.000000 -0.706671 0.707542
vn  0.706407 -0.707803 -0.002221
vn  0.000000 0.000000 -1.000000
vn  1.000000 0.000000 0.000000
vn  0.128555 0.983335 -0.128555
vn  0.250936 0.968004 0.000000
vn  -0.000000 0.659053 -0.752097
vn  0.128555 0.983335 0.128555
vn  -0.023867 -0.999430 -0.023867
vn  -1.390090 2.181424 -1.269586
vn  -1.302642 -2.638055 1.315769
vn  -0.128555 0.983335 0.128555
vn  0.000000 0.658041 -0.752982
vn  -0.706442 -0.707767 -0.002320
vn  -0.752539 0.658547 -0.001001
vn  -0.133726 0.981933 -0.133882
vn  0.000000 0.959150 0.282899
vn  -0.133726 0.981933 0.133882
vn  -0.274424 0.961609 0.000000
vn  -0.707107 0.000000 -0.707107
vn  -0.733634 1.623101 1.744105
vn  0.000000 0.000000 -1.000000
vn  -1.000000 0.000000 0.000000
vn  -1.000000 0.000000 0.000000
vn  0.000000 0.000000 1.000000
vn  -0.000000 -1.000000 0.000000
vn  -0.706407 -0.707803 -0.002221
vn  -0.273190 -0.734896 -0.620722
vn  -0.707106 0.000000 0.707107
vn  -0.128555 0.983335 -0.128555
vn  -0.752555 0.658529 -0.000950
vn  0.000000 0.966582 0.256356
vn  -0.128555 0.983335 0.128555
vn  0.479841 0.734510 0.479841
vn  0.678598 0.734510 -0.000000
vn  0.690729 -0.213981 -0.690729
vn  -0.000000 -0.213981 -0.976838
vn  0.690729 -0.213981 0.690729
vn  0.976838 -0.213981 -0.000000
vn  0.690729 -0.213981 -0.690729
vn  -0.000000 -0.213981 -0.976838
vn  -0.000000 1.000000 -0.000000
vn  -0.599400 0.530514 -0.599396
vn  -0.000000 1.000000 -0.000000
vn  0.000000 1.000000 0.000000
vn  0.000000 1.000000 -0.000000
vn  -0.695193 0.182792 -0.695193
vn  -0.983152 0.182792 -0.000000
vn  -0.695193 0.182792 0.695193
vn  -0.000000 0.182792 0.983152
vn  0.690729 -0.213981 0.690729
vn  0.678598 0.734510 -0.000000
vn  -0.000000 1.000000 -0.000000
vn  -0.707013 0.016126 -0.707016
vn  -0.999870 0.016117 -0.000002
vn  -0.707016 0.016121 0.707013
vn  0.000000 1.000000 -0.000001
vn  -0.976838 -0.213981 0.000000
vn  -0.690729 -0.213981 -0.690729
vn  0.000000 1.000000 -0.000001
vn  -0.690729 -0.213981 0.690729
vn  -0.976838 -0.213981 -0.000000
vn  -0.690729 -0.213981 -0.690729
vn  0.000000 -0.213981 0.976838
vn  0.847684 0.530501 0.000001
vn  0.599400 0.530514 -0.599396
vn  0.000000 1.000000 -0.000000
vn  -0.000000 0.530524 -0.847670
vn  0.000000 0.182792 -0.983152
vn  0.695193 0.182792 -0.695193
vn  0.983152 0.182792 0.000000
vn  0.695193 0.182792 0.695193
vn  -0.690729 -0.213981 0.690729
vn  0.000000 1.000000 -0.000000
vn  0.000000 1.000000 -0.000000
vn  0.000000 1.000000 0.000000
vn  0.000000 0.734509 0.678599
vn  -0.000000 0.016132 -0.999870
vn  0.707013 0.016126 -0.707017
vn  0.999870 0.016117 -0.000002
vn  0.707016 0.016121 0.707013
vn  -0.000000 0.016111 0.999870
vn  -0.000000 1.000000 -0.000001
vn  0.976838 -0.213981 0.000000
vn  0.479841 0.734510 -0.479842
vn  0.000000 0.734510 -0.678598
vn  0.479841 0.734510 0.479841
vn  -0.000000 1.000000 -0.000000
vn  0.479841 0.734510 -0.479842
vn  -0.479841 0.734510 0.479841
vn  -0.678598 0.734510 -0.000000
vn  -0.479841 0.734510 -0.479842
vn  0.000000 0.734509 0.678599
vn  -0.479841 0.734510 0.479841
vn  -0.678598 0.734510 -0.000000
vn  -0.479841 0.734510 -0.479842
vn  -0.000000 0.734510 -0.678598
vn  0.000000 -0.213981 0.976838
vn  -0.847684 0.530501 0.000001
vn  -0.000001 1.000000 -0.000001
vn  -0.599399 0.530507 0.599402
vn  0.000000 0.530492 0.847690
vn  0.000000 1.000000 -0.000000
vn  0.000001 1.000000 -0.000001
vn  0.599399 0.530507 0.599402
vn  0.000000 1.000000 -0.000001
vn  1.345637 1.246872 -0.169613
vn  0.169613 1.246872 1.345637
vn  0.000000 0.000000 1.000000
vn  1.000000 0.000000 0.000000
vn  1.744104 1.623101 -0.733634
vn  0.733634 1.623101 1.744105
vn  0.295272 0.650385 -0.699867
vn  0.699866 0.650385 0.295273
vn  0.752555 0.658529 -0.000950
vn  0.000000 0.966582 -0.256357
vn  -0.128555 0.983335 -0.128555
vn  -1.269586 2.181425 1.390091
vn  0.000000 0.000000 -1.000000
vn  -1.000000 0.000000 0.000000
vn  -1.744104 1.623101 -0.733634
vn  -0.707106 0.000000 0.707107
vn  -0.295272 0.650385 -0.699867
vn  -0.699866 0.650385 0.295273
vn  -0.250936 0.968004 0.000000
vn  0.000000 0.658005 0.753014
vn  1.213148 -2.535559 -1.296826
vn  1.302642 -2.638055 1.315769
vn  0.000000 0.000000 -1.000000
vn  -0.000000 -0.708867 0.705342
vn  0.706442 -0.707767 -0.002320
vn  1.521553 -1.806534 -0.665161
vn  0.271074 -0.736219 0.620081
vn  0.000000 -1.000000 0.000000
vn  0.000000 -1.000000 0.000000
vn  0.273190 -0.734896 -0.620722
vn  1.523825 -1.804115 0.670662
vn  -0.176804 -1.423671 -1.242361
vn  -0.023867 -0.999430 0.023867
vn  -1.000000 0.000000 0.000000
vn  -1.521553 -1.806534 -0.665161
vn  -0.271074 -0.736219 0.620081
vn  0.000000 -0.708936 -0.705273
vn  0.000000 -1.000000 0.000000
vn  -0.707106 0.000000 -0.707107
vn  -1.523825 -1.804115 0.670662
vn  0.707107 0.000000 -0.707107
vn  0.707106 0.000000 0.707107
vn  0.000000 0.000000 -1.000000
vn  1.000000 0.000000 0.000000
vn  1.000000 0.000000 0.000000
vn  0.000000 0.000000 1.000000
vn  0.707106 0.000000 -0.707107
vn  0.707106 0.000000 0.707107
vn  -1.000000 0.000000 0.000000
vn  -0.707107 0.000000 -0.707107
vn  -0.707106 0.000000 0.707107
vn  -0.707106 0.000000 -0.707107
vn  -0.707106 0.000000 0.707107
vn  -1.000000 0.000000 0.000000
vn  0.000000 0.000000 1.000000
vn  0.000000 0.000000 -1.000000
# 182 vertex normals

g jar2
s 1
f 197/199/197 312/200/312 190/201/190
f 190/201/190 353/198/353 197/199/197
f 184/173/184 207/174/207 208/175/208
f 351/216/351 205/217/205 331/219/331
f 331/219/331 321/202/321 351/216/351
f 354/207/354 198/208/198 311/209/311
f 311/209/311 188/206/188 354/207/354
f 183/177/183 337/178/337 192/179/192
f 192/179/192 228/176/228 183/177/183
f 352/210/352 206/211/206 190/201/190
f 190/201/190 312/200/312 352/210/352
f 186/180/186 208/175/208 210/181/210
f 185/182/185 336/183/336 192/179/192
f 192/179/192 337/178/337 185/182/185
f 234/185/234 210/181/210 195/186/195
f 195/186/195 219/184/219 234/185/234
f 318/187/318 207/174/207 184/173/184
f 199/216/199 349/220/349 201/203/201
f 201/203/201 355/217/355 199/216/199
f 202/207/202 356/211/356 200/210/200
f 200/210/200 350/208/350 202/207/202
f 314/188/314 310/180/310 328/185/328
f 328/185/328 189/189/189 314/188/314
f 313/190/313 309/173/309 317/175/317
f 317/175/317 191/191/191 313/190/313
f 215/192/215 209/187/209 309/173/309
f 309/173/309 315/193/315 215/192/215
f 191/191/191 317/175/317 310/180/310
f 310/180/310 316/194/316 191/191/191
f 313/190/313 315/193/315 309/173/309
f 314/188/314 316/194/316 310/180/310
f 338/217/338 329/212/329 345/218/345
f 345/218/345 187/219/187 338/217/338
f 329/221/329 334/204/334 333/201/333
f 333/201/333 204/213/204 329/221/329
f 332/206/332 203/214/203 330/215/330
f 330/215/330 335/207/335 332/206/332
f 204/213/204 333/201/333 339/211/339
f 339/211/339 330/215/330 204/213/204
f 334/205/334 329/222/329 338/217/338
f 335/207/335 330/215/330 339/211/339
f 193/195/193 196/196/196 208/175/208
f 208/175/208 207/174/207 193/195/193
f 208/175/208 196/196/196 195/186/195
f 195/186/195 210/181/210 208/175/208
f 234/185/234 186/180/186 210/181/210
f 318/187/318 194/197/194 193/195/193
f 193/195/193 207/174/207 318/187/318
f 357/249/357 226/248/226 342/251/342
f 342/251/342 322/250/322 357/249/357
f 319/223/319 327/225/327 232/224/232
f 224/266/224 321/252/321 331/269/331
f 331/269/331 364/267/364 224/266/224
f 227/257/227 188/256/188 311/259/311
f 311/259/311 363/258/363 227/257/227
f 211/227/211 228/226/228 192/229/192
f 192/229/192 346/228/346 211/227/211
f 225/260/225 322/250/322 342/251/342
f 342/251/342 362/261/362 225/260/225
f 214/230/214 235/231/235 327/225/327
f 341/232/341 346/228/346 192/229/192
f 192/229/192 336/233/336 341/232/341
f 234/235/234 219/234/219 220/236/220
f 220/236/220 235/231/235 234/235/234
f 318/237/318 319/223/319 232/224/232
f 358/266/358 347/267/347 360/253/360
f 360/253/360 222/270/222 358/266/358
f 361/257/361 324/258/324 359/260/359
f 359/260/359 231/261/231 361/257/361
f 223/238/223 189/239/189 328/235/328
f 328/235/328 320/230/320 223/238/223
f 323/240/323 217/241/217 233/225/233
f 233/225/233 212/223/212 323/240/323
f 215/242/215 325/243/325 212/223/212
f 212/223/212 209/237/209 215/242/215
f 217/241/217 326/244/326 320/230/320
f 320/230/320 233/225/233 217/241/217
f 323/240/323 212/223/212 325/243/325
f 223/238/223 320/230/320 326/244/326
f 230/267/230 187/269/187 345/268/345
f 345/268/345 340/262/340 230/267/230
f 340/271/340 229/263/229 216/251/216
f 216/251/216 343/254/343 340/271/340
f 332/256/332 344/257/344 213/265/213
f 213/265/213 203/264/203 332/256/332
f 229/263/229 213/265/213 348/261/348
f 348/261/348 216/251/216 229/263/229
f 343/255/343 230/267/230 340/272/340
f 344/257/344 348/261/348 213/265/213
f 218/245/218 232/224/232 327/225/327
f 327/225/327 221/246/221 218/245/218
f 327/225/327 235/231/235 220/236/220
f 220/236/220 221/246/221 327/225/327
f 234/235/234 235/231/235 214/230/214
f 318/237/318 232/224/232 218/245/218
f 218/245/218 194/247/194 318/237/318
f 286/284/286 253/285/253 240/286/240
f 240/286/240 241/287/241 286/284/286
f 238/288/238 286/284/286 241/287/241
f 241/287/241 242/289/242 238/288/238
f 239/290/239 238/288/238 242/289/242
f 242/289/242 243/291/243 239/290/239
f 253/285/253 300/292/300 266/293/266
f 266/293/266 240/286/240 253/285/253
f 285/294/285 290/295/290 244/296/244
f 244/296/244 302/297/302 285/294/285
f 262/298/262 285/294/285 302/297/302
f 302/297/302 308/299/308 262/298/262
f 255/300/255 246/301/246 244/296/244
f 244/296/244 290/295/290 255/300/255
f 278/302/278 247/303/247 246/301/246
f 246/301/246 255/300/255 278/302/278
f 245/297/245 256/304/256 280/305/280
f 280/305/280 270/299/270 245/297/245
f 301/296/301 257/306/257 256/304/256
f 256/304/256 245/297/245 301/296/301
f 303/301/303 258/307/258 257/306/257
f 257/306/257 301/296/301 303/301/303
f 304/303/304 284/308/284 258/307/258
f 258/307/258 303/301/303 304/303/304
f 249/273/249 248/274/248 271/275/271
f 250/276/250 248/274/248 249/273/249
f 251/277/251 248/274/248 250/276/250
f 252/278/252 248/274/248 251/277/251
f 236/294/236 289/285/289 237/284/237
f 237/284/237 254/295/254 236/294/236
f 254/295/254 237/284/237 287/288/287
f 287/288/287 291/300/291 254/295/254
f 291/300/291 287/288/287 288/290/288
f 288/290/288 299/302/299 291/300/291
f 295/298/295 279/292/279 289/285/289
f 289/285/289 236/294/236 295/298/295
f 249/273/249 271/275/271 280/280/280
f 280/280/280 256/279/256 249/273/249
f 250/276/250 249/273/249 256/279/256
f 256/279/256 257/281/257 250/276/250
f 251/277/251 250/276/250 257/281/257
f 257/281/257 258/282/258 251/277/251
f 252/278/252 251/277/251 258/282/258
f 258/282/258 284/283/284 252/278/252
f 260/320/260 264/323/264 263/322/263
f 263/322/263 275/321/275 260/320/260
f 261/324/261 265/325/265 264/323/264
f 264/323/264 260/320/260 261/324/261
f 239/326/239 243/327/243 265/325/265
f 265/325/265 261/324/261 239/326/239
f 275/321/275 263/322/263 266/329/266
f 266/329/266 300/328/300 275/321/275
f 259/330/259 306/333/306 305/332/305
f 305/332/305 276/331/276 259/330/259
f 262/334/262 308/335/308 306/333/306
f 306/333/306 259/330/259 262/334/262
f 277/336/277 276/331/276 305/332/305
f 305/332/305 269/337/269 277/336/277
f 278/338/278 277/336/277 269/337/269
f 269/337/269 247/339/247 278/338/278
f 268/333/268 270/335/270 280/341/280
f 280/341/280 281/340/281 268/333/268
f 267/332/267 268/333/268 281/340/281
f 281/340/281 282/342/282 267/332/267
f 307/337/307 267/332/267 282/342/282
f 282/342/282 283/343/283 307/337/307
f 304/339/304 307/337/307 283/343/283
f 283/343/283 284/344/284 304/339/304
f 272/309/272 271/311/271 248/310/248
f 273/312/273 272/309/272 248/310/248
f 274/313/274 273/312/273 248/310/248
f 252/314/252 274/313/274 248/310/248
f 292/330/292 297/331/297 293/320/293
f 293/320/293 296/321/296 292/330/292
f 297/331/297 298/336/298 294/324/294
f 294/324/294 293/320/293 297/331/297
f 298/336/298 299/338/299 288/326/288
f 288/326/288 294/324/294 298/336/298
f 295/334/295 292/330/292 296/321/296
f 296/321/296 279/328/279 295/334/295
f 272/309/272 281/315/281 280/316/280
f 280/316/280 271/311/271 272/309/272
f 273/312/273 282/317/282 281/315/281
f 281/315/281 272/309/272 273/312/273
f 274/313/274 283/318/283 282/317/282
f 282/317/282 273/312/273 274/313/274
f 252/314/252 284/319/284 283/318/283
f 283/318/283 274/313/274 252/314/252
# 184 faces

g
# object jar1 to come ...
#
v  72.025322 1.250953 -72.031784
v  72.224503 48.525661 -72.230965
v  72.025322 1.250953 -27.699686
v  72.224503 48.525661 -27.500502
v  49.859272 2.479349 -74.514664
v  49.859272 2.479349 -25.216805
v  49.859272 46.901573 -25.216805
v  74.508202 2.479349 -49.865734
v  74.508202 46.901573 -49.865734
v  49.859272 0.192273 -49.865734
v  63.516365 50.802563 -63.522827
v  49.859272 50.467731 -69.179779
v  63.516365 50.802563 -36.208641
v  69.173317 50.439220 -49.865734
v  74.508202 45.820206 -72.777267
v  72.770798 45.820206 -25.216805
v  72.770798 45.820206 -74.514664
v  74.508202 45.820206 -26.954203
v  74.508202 3.616644 -72.777267
v  72.770798 3.616644 -25.216805
v  49.859272 0.192273 -27.501066
v  72.223946 0.192273 -49.865734
v  72.770798 3.616644 -74.514664
v  74.508202 3.616644 -26.954203
v  65.736938 50.221951 -65.743401
v  72.153473 49.588741 -49.865734
v  49.859272 49.588741 -72.159927
v  65.736938 50.221951 -33.988068
v  27.693224 1.250953 -72.031784
v  27.494040 48.525661 -72.230965
v  27.693222 1.250953 -27.699686
v  27.494040 48.525661 -27.500502
v  49.859272 46.901573 -74.514664
v  25.210342 2.479349 -49.865734
v  25.210342 46.901573 -49.865734
v  36.202179 50.802563 -63.522827
v  49.859272 50.467728 -30.551682
v  36.202179 50.802563 -36.208641
v  30.545225 50.439220 -49.865734
v  25.210342 45.820206 -72.777267
v  26.947742 45.820206 -25.216805
v  26.947742 45.820206 -74.514664
v  25.210342 45.820206 -26.954203
v  25.210342 3.616644 -72.777267
v  26.947742 3.616644 -25.216805
v  49.859272 0.192273 -72.230408
v  27.494600 0.192273 -49.865734
v  26.947742 3.616644 -74.514664
v  25.210342 3.616644 -26.954203
v  33.981606 50.221951 -65.743401
v  27.565075 49.588741 -49.865734
v  49.859272 49.588741 -27.571537
v  33.981602 50.221951 -33.988068
v  64.433098 56.293911 -35.291912
v  71.170837 55.646202 -49.865734
v  64.928825 55.646198 -64.935287
v  49.859272 55.646198 -71.177299
v  63.972977 49.475254 -35.752033
v  69.819061 49.475250 -49.865734
v  63.972973 49.475246 -63.979435
v  49.859272 49.475246 -69.825523
v  63.504799 56.293903 -49.865734
v  59.508121 56.293907 -40.216888
v  59.508118 56.293900 -59.514580
v  49.859272 56.293900 -63.511261
v  49.859272 23.556343 -49.865726
v  66.221085 39.925129 -33.503922
v  72.998360 39.925125 -49.865730
v  66.221085 39.925117 -66.227539
v  49.859272 39.925117 -73.004822
v  64.928825 55.646210 -34.796181
v  70.469772 56.293903 -49.865734
v  64.433090 56.293900 -64.439560
v  59.462326 56.190426 -40.262680
v  63.440037 56.190422 -49.865730
v  59.462322 56.190414 -59.468784
v  35.285446 56.293911 -35.291912
v  28.547705 55.646202 -49.865734
v  34.789719 55.646198 -64.935287
v  49.859272 56.293911 -29.255238
v  35.745567 49.475254 -35.752033
v  29.899481 49.475250 -49.865734
v  35.745571 49.475246 -63.979435
v  49.859272 49.475254 -29.905945
v  36.213745 56.293903 -49.865734
v  40.210423 56.293907 -40.216888
v  40.210426 56.293900 -59.514580
v  49.859272 56.293907 -36.220203
v  49.859272 39.925129 -26.726643
v  33.497459 39.925129 -33.503922
v  26.720182 39.925125 -49.865730
v  33.497463 39.925117 -66.227539
v  34.789719 55.646210 -34.796181
v  29.248775 56.293903 -49.865734
v  35.285450 56.293900 -64.439560
v  49.859272 56.293900 -70.476227
v  49.859272 55.646210 -28.554169
v  49.859272 56.190426 -36.284969
v  40.256218 56.190426 -40.262680
v  36.278507 56.190422 -49.865730
v  40.256222 56.190414 -59.468784
v  49.859272 56.190414 -63.446499
v  64.433098 56.293911 -35.291912
v  71.170837 55.646202 -49.865734
v  64.928825 55.646198 -64.935287
v  49.859272 55.646198 -71.177299
v  64.928825 55.646210 -34.796181
v  70.469772 56.293903 -49.865734
v  64.433090 56.293900 -64.439560
v  35.285446 56.293911 -35.291912
v  28.547705 55.646202 -49.865734
v  34.789719 55.646198 -64.935287
v  49.859272 56.293911 -29.255238
v  34.789719 55.646210 -34.796181
v  29.248775 56.293903 -49.865734
v  35.285450 56.293900 -64.439560
v  49.859272 56.293900 -70.476227
v  49.859272 55.646210 -28.554169
v  63.504799 56.293903 -49.865734
v  59.508121 56.293907 -40.216888
v  59.508118 56.293900 -59.514580
v  49.859272 56.293900 -63.511261
v  36.213745 56.293903 -49.865734
v  40.210423 56.293907 -40.216888
v  40.210426 56.293900 -59.514580
v  49.859272 56.293907 -36.220203
v  72.224503 48.525661 -72.230965
v  72.224503 48.525661 -27.500502
v  49.859272 46.901573 -25.216805
v  74.508202 46.901573 -49.865734
v  74.508202 45.820206 -72.777267
v  72.770798 45.820206 -25.216805
v  72.770798 45.820206 -74.514664
v  74.508202 45.820206 -26.954203
v  72.153473 49.588741 -49.865734
v  49.859272 49.588741 -72.159927
v  27.494040 48.525661 -72.230965
v  27.494040 48.525661 -27.500502
v  49.859272 46.901573 -74.514664
v  25.210342 46.901573 -49.865734
v  25.210342 45.820206 -72.777267
v  26.947742 45.820206 -25.216805
v  26.947742 45.820206 -74.514664
v  25.210342 45.820206 -26.954203
v  27.565075 49.588741 -49.865734
v  49.859272 49.588741 -27.571537
v  72.025322 1.250953 -72.031784
v  72.025322 1.250953 -27.699686
v  49.859272 2.479349 -74.514664
v  49.859272 2.479349 -25.216805
v  74.508202 2.479349 -49.865734
v  74.508202 3.616644 -72.777267
v  72.770798 3.616644 -25.216805
v  49.859272 0.192273 -27.501066
v  72.223946 0.192273 -49.865734
v  72.770798 3.616644 -74.514664
v  74.508202 3.616644 -26.954203
v  27.693224 1.250953 -72.031784
v  27.693222 1.250953 -27.699686
v  25.210342 2.479349 -49.865734
v  25.210342 3.616644 -72.777267
v  26.947742 3.616644 -25.216805
v  49.859272 0.192273 -72.230408
v  27.494600 0.192273 -49.865734
v  26.947742 3.616644 -74.514664
v  25.210342 3.616644 -26.954203
v  74.508202 45.820206 -72.777267
v  72.770798 45.820206 -25.216805
v  72.770798 45.820206 -74.514664
v  74.508202 45.820206 -26.954203
v  74.508202 3.616644 -72.777267
v  72.770798 3.616644 -25.216805
v  72.770798 3.616644 -74.514664
v  74.508202 3.616644 -26.954203
v  25.210342 45.820206 -72.777267
v  26.947742 45.820206 -74.514664
v  25.210342 45.820206 -26.954203
v  25.210342 3.616644 -72.777267
v  26.947742 3.616644 -25.216805
v  25.210342 3.616644 -26.954203
v  26.947742 45.820206 -25.216805
v  26.947742 3.616644 -74.514664
# 182 vertices

vt  0.937526 0.716952 0.954557
vt  0.867751 0.792384 0.988040
vt  0.696985 0.717778 0.975541
vt  0.028927 0.672211 0.000500
vt  0.028927 0.786005 0.021397
vt  0.204289 0.786005 0.000500
vt  0.204289 0.672211 0.000500
vt  0.456443 0.716952 0.954557
vt  0.526218 0.792384 0.988040
vt  0.379651 0.786005 0.021397
vt  0.379651 0.672211 0.000500
vt  0.489259 0.976996 0.992891
vt  0.457207 0.976996 0.975541
vt  0.550101 0.818203 0.999501
vt  0.936762 0.976996 0.975541
vt  0.408718 0.710600 0.901153
vt  0.408718 0.976996 0.922499
vt  0.943402 0.669734 0.901153
vt  0.696985 0.669734 0.922499
vt  0.981391 0.976996 0.922499
vt  0.981391 0.710599 0.901153
vt  0.450568 0.669734 0.901153
vt  0.843869 0.818202 0.999501
vt  0.696985 0.752428 0.992328
vt  0.904710 0.976996 0.992891
vt  0.990020 0.054283 1.054406
vt  0.990020 0.636817 1.054406
vt  0.652744 0.636817 0.499500
vt  0.652744 0.054283 0.499500
vt  0.019355 0.636817 1.116917
vt  0.325105 0.054283 1.054406
vt  0.990020 0.054283 1.054406
vt  0.325105 0.054283 1.054406
vt  0.019355 0.054283 1.116917
vt  0.289478 0.054283 1.087252
vt  0.289478 0.636817 1.087252
vt  0.019355 0.636817 1.116917
vt  0.325105 0.636817 1.054406
vt  0.325105 0.054283 1.054406
vt  0.325105 0.022994 0.982940
vt  0.652744 0.022994 0.406921
vt  0.019355 0.022994 1.034940
vt  0.325105 0.022994 0.982940
vt  0.289478 0.636817 1.087252
vt  0.289478 0.054283 1.087252
vt  0.019355 0.022994 1.034940
vt  0.019355 0.054283 1.116917
vt  0.325105 0.636817 1.054406
vt  0.990020 0.022994 0.982940
vt  0.325105 0.022994 0.982940
vt  0.937526 0.716952 0.954557
vt  0.867751 0.792384 0.988040
vt  0.696985 0.717778 0.975541
vt  0.028927 0.672211 0.000500
vt  0.028927 0.786005 0.021397
vt  0.204289 0.786005 0.000500
vt  0.204289 0.672211 0.000500
vt  0.456443 0.716952 0.954557
vt  0.526218 0.792384 0.988040
vt  0.379651 0.786005 0.021397
vt  0.379651 0.672211 0.000500
vt  0.489259 0.976996 0.992891
vt  0.457207 0.976996 0.975541
vt  0.550101 0.818203 0.999501
vt  0.936762 0.976996 0.975541
vt  0.408718 0.710600 0.901153
vt  0.408718 0.976996 0.922499
vt  0.943402 0.669734 0.901153
vt  0.696985 0.669734 0.922499
vt  0.981391 0.976996 0.922499
vt  0.981391 0.710599 0.901153
vt  0.450568 0.669734 0.901153
vt  0.843869 0.818202 0.999501
vt  0.696985 0.752428 0.992328
vt  0.904710 0.976996 0.992891
vt  0.990020 0.054283 1.054406
vt  0.990020 0.636817 1.054406
vt  0.652744 0.636817 0.499500
vt  0.652744 0.054283 0.499500
vt  0.019355 0.636817 1.116917
vt  0.325105 0.054283 1.054406
vt  0.990020 0.054283 1.054406
vt  0.325105 0.054283 1.054406
vt  0.019355 0.054283 1.116917
vt  0.289478 0.054283 1.087252
vt  0.289478 0.636817 1.087252
vt  0.019355 0.636817 1.116917
vt  0.325105 0.636817 1.054406
vt  0.325105 0.054283 1.054406
vt  0.325105 0.022994 0.982940
vt  0.652744 0.022994 0.406921
vt  0.019355 0.022994 1.034940
vt  0.325105 0.022994 0.982940
vt  0.289478 0.636817 1.087252
vt  0.289478 0.054283 1.087252
vt  0.019355 0.022994 1.034940
vt  0.019355 0.054283 1.116917
vt  0.325105 0.636817 1.054406
vt  0.990020 0.022994 0.982940
vt  0.325105 0.022994 0.982940
vt  0.617892 0.907897 0.706900
vt  0.696331 0.987338 0.000500
vt  0.545807 0.907897 0.000499
vt  0.696331 0.907897 0.999500
vt  0.774770 0.907897 0.706900
vt  0.846855 0.907897 0.000500
vt  0.650294 0.828958 0.415099
vt  0.596501 0.828958 0.000499
vt  0.696331 0.828958 0.586832
vt  0.742368 0.828958 0.415099
vt  0.796161 0.828958 0.000499
vt  0.202097 0.881828 0.904606
vt  0.111004 0.881828 0.904606
vt  0.111004 0.819293 0.000501
vt  0.202097 0.819293 0.000501
vt  0.295044 0.881828 0.904605
vt  0.295044 0.819293 0.000500
vt  0.386279 0.881829 0.904605
vt  0.386279 0.819293 0.000500
vt  0.024405 0.881828 0.904606
vt  0.024405 0.819293 0.000501
vt  0.111004 0.895535 0.999501
vt  0.202097 0.895535 0.999500
vt  0.202097 0.967757 0.999500
vt  0.111004 0.967757 0.999501
vt  0.024405 0.895535 0.999501
vt  0.024405 0.967757 0.999501
vt  0.295044 0.895535 0.999499
vt  0.295044 0.967757 0.999499
vt  0.386279 0.895535 0.999499
vt  0.386279 0.967757 0.999499
vt  0.111004 0.973963 0.984340
vt  0.024405 0.973963 0.984340
vt  0.202097 0.973963 0.984339
vt  0.295044 0.973963 0.984338
vt  0.386279 0.973963 0.984338
vt  0.617892 0.907897 0.706900
vt  0.696331 0.987338 0.000500
vt  0.545807 0.907897 0.000499
vt  0.696331 0.907897 0.999500
vt  0.774770 0.907897 0.706900
vt  0.846855 0.907897 0.000500
vt  0.650294 0.828958 0.415099
vt  0.596501 0.828958 0.000499
vt  0.696331 0.828958 0.586832
vt  0.742368 0.828958 0.415099
vt  0.796161 0.828958 0.000499
vt  0.202097 0.881828 0.904606
vt  0.111004 0.881828 0.904606
vt  0.111004 0.819293 0.000501
vt  0.202097 0.819293 0.000501
vt  0.295044 0.881828 0.904605
vt  0.295044 0.819293 0.000500
vt  0.386279 0.881829 0.904605
vt  0.386279 0.819293 0.000500
vt  0.024405 0.881828 0.904606
vt  0.024405 0.819293 0.000501
vt  0.111004 0.895535 0.999501
vt  0.202097 0.895535 0.999500
vt  0.202097 0.967757 0.999500
vt  0.111004 0.967757 0.999501
vt  0.024405 0.895535 0.999501
vt  0.024405 0.967757 0.999501
vt  0.295044 0.895535 0.999499
vt  0.295044 0.967757 0.999499
vt  0.386279 0.895535 0.999499
vt  0.386279 0.967757 0.999499
vt  0.111004 0.973963 0.984340
vt  0.024405 0.973963 0.984340
vt  0.202097 0.973963 0.984339
vt  0.295044 0.973963 0.984338
vt  0.386279 0.973963 0.984338
# 172 texture vertices

vn  0.023867 -0.999430 -0.023867
vn  0.128555 0.983335 -0.128555
vn  0.023867 -0.999430 0.023867
vn  0.128555 0.983335 0.128555
vn  0.000000 -0.706671 -0.707543
vn  0.000000 0.000000 1.000000
vn  -0.000000 0.659053 0.752097
vn  1.000000 0.000000 0.000000
vn  0.752539 0.658547 -0.001001
vn  -0.000000 -1.000000 -0.000000
vn  0.133727 0.981933 -0.133883
vn  0.000000 0.959150 -0.282899
vn  0.133727 0.981933 0.133883
vn  0.274425 0.961608 0.000000
vn  1.000000 0.000000 0.000000
vn  0.000000 0.000000 1.000000
vn  0.707107 0.000000 -0.707107
vn  0.707106 0.000000 0.707107
vn  0.707106 0.000000 -0.707107
vn  0.707106 0.000000 0.707107
vn  0.000000 -0.706671 0.707542
vn  0.706407 -0.707803 -0.002221
vn  0.000000 0.000000 -1.000000
vn  1.000000 0.000000 0.000000
vn  0.128555 0.983335 -0.128555
vn  0.250936 0.968004 -0.000000
vn  0.000000 0.659053 -0.752097
vn  0.128555 0.983335 0.128555
vn  -0.023867 -0.999430 -0.023867
vn  -1.390090 2.181426 -1.269585
vn  -1.302641 -2.638056 1.315769
vn  -0.128555 0.983335 0.128555
vn  0.000000 0.658042 -0.752981
vn  -0.706442 -0.707768 -0.002320
vn  -0.752539 0.658547 -0.001001
vn  -0.133727 0.981933 -0.133883
vn  -0.000000 0.959150 0.282899
vn  -0.133727 0.981933 0.133883
vn  -0.274425 0.961608 0.000000
vn  -0.707107 0.000000 -0.707107
vn  -0.733634 1.623102 1.744104
vn  0.000000 0.000000 -1.000000
vn  -1.000000 0.000000 0.000000
vn  -1.000000 0.000000 0.000000
vn  0.000000 0.000000 1.000000
vn  0.000000 -1.000000 0.000000
vn  -0.706407 -0.707803 -0.002221
vn  -0.273190 -0.734896 -0.620722
vn  -0.707106 0.000000 0.707107
vn  -0.128555 0.983335 -0.128555
vn  -0.752555 0.658529 -0.000950
vn  -0.000000 0.966582 0.256356
vn  -0.128555 0.983335 0.128555
vn  0.479841 0.734510 0.479841
vn  0.678596 0.734511 -0.000000
vn  0.690729 -0.213981 -0.690729
vn  -0.000000 -0.213981 -0.976838
vn  0.690729 -0.213981 0.690729
vn  0.976838 -0.213981 -0.000000
vn  0.690729 -0.213981 -0.690729
vn  -0.000000 -0.213981 -0.976838
vn  -0.000000 1.000000 -0.000000
vn  -0.599400 0.530514 -0.599395
vn  -0.000000 1.000000 -0.000000
vn  0.000000 1.000000 0.000000
vn  0.000000 1.000000 -0.000000
vn  -0.695193 0.182792 -0.695193
vn  -0.983152 0.182792 0.000000
vn  -0.695193 0.182792 0.695193
vn  -0.000000 0.182792 0.983152
vn  0.690729 -0.213981 0.690729
vn  0.678596 0.734511 -0.000000
vn  -0.000000 1.000000 -0.000000
vn  -0.707012 0.016126 -0.707017
vn  -0.999870 0.016130 -0.000002
vn  -0.707017 0.016124 0.707013
vn  0.000000 1.000000 -0.000001
vn  -0.976838 -0.213981 0.000000
vn  -0.690729 -0.213981 -0.690729
vn  -0.000000 1.000000 -0.000001
vn  -0.690729 -0.213981 0.690729
vn  -0.976838 -0.213981 -0.000000
vn  -0.690729 -0.213981 -0.690729
vn  -0.000000 -0.213981 0.976838
vn  0.847673 0.530519 0.000003
vn  0.599400 0.530514 -0.599395
vn  0.000000 1.000000 -0.000000
vn  0.000000 0.530524 -0.847670
vn  -0.000000 0.182792 -0.983152
vn  0.695193 0.182792 -0.695193
vn  0.983152 0.182792 0.000000
vn  0.695193 0.182792 0.695193
vn  -0.690729 -0.213981 0.690729
vn  0.000000 1.000000 -0.000000
vn  0.000000 1.000000 -0.000000
vn  0.000000 1.000000 0.000000
vn  0.000000 0.734511 0.678597
vn  0.000000 0.016133 -0.999870
vn  0.707012 0.016126 -0.707017
vn  0.999870 0.016130 -0.000002
vn  0.707017 0.016124 0.707013
vn  -0.000000 0.016116 0.999870
vn  -0.000000 1.000000 -0.000001
vn  0.976838 -0.213981 0.000000
vn  0.479840 0.734511 -0.479841
vn  0.000000 0.734511 -0.678596
vn  0.479841 0.734510 0.479841
vn  -0.000000 1.000000 -0.000000
vn  0.479841 0.734511 -0.479840
vn  -0.479841 0.734510 0.479841
vn  -0.678596 0.734511 -0.000000
vn  -0.479840 0.734511 -0.479841
vn  -0.000000 0.734511 0.678597
vn  -0.479841 0.734510 0.479841
vn  -0.678596 0.734511 -0.000000
vn  -0.479841 0.734511 -0.479840
vn  -0.000000 0.734511 -0.678596
vn  -0.000000 -0.213981 0.976838
vn  -0.847673 0.530519 0.000003
vn  -0.000000 1.000000 -0.000001
vn  -0.599398 0.530511 0.599400
vn  0.000000 0.530499 0.847686
vn  0.000000 1.000000 -0.000000
vn  0.000000 1.000000 -0.000001
vn  0.599397 0.530511 0.599400
vn  0.000000 1.000000 -0.000001
vn  1.345637 1.246872 -0.169613
vn  0.169613 1.246873 1.345637
vn  0.000000 0.000000 1.000000
vn  1.000000 0.000000 0.000000
vn  1.744103 1.623101 -0.733634
vn  0.733634 1.623102 1.744104
vn  0.295272 0.650385 -0.699866
vn  0.699866 0.650386 0.295272
vn  0.752555 0.658529 -0.000950
vn  -0.000000 0.966582 -0.256357
vn  -0.128555 0.983335 -0.128555
vn  -1.269586 2.181426 1.390090
vn  0.000000 0.000000 -1.000000
vn  -1.000000 0.000000 0.000000
vn  -1.744103 1.623101 -0.733634
vn  -0.707106 0.000000 0.707107
vn  -0.295272 0.650385 -0.699866
vn  -0.699866 0.650386 0.295272
vn  -0.250936 0.968004 0.000000
vn  0.000000 0.658005 0.753014
vn  1.213148 -2.535560 -1.296826
vn  1.302641 -2.638056 1.315769
vn  0.000000 0.000000 -1.000000
vn  -0.000000 -0.708867 0.705342
vn  0.706442 -0.707768 -0.002320
vn  1.521553 -1.806534 -0.665161
vn  0.271074 -0.736219 0.620081
vn  0.000000 -1.000000 0.000000
vn  0.000000 -1.000000 -0.000000
vn  0.273190 -0.734896 -0.620722
vn  1.523825 -1.804115 0.670662
vn  -0.176804 -1.423672 -1.242360
vn  -0.023867 -0.999430 0.023867
vn  -1.000000 0.000000 0.000000
vn  -1.521553 -1.806534 -0.665161
vn  -0.271074 -0.736219 0.620081
vn  -0.000000 -0.708936 -0.705273
vn  0.000000 -1.000000 -0.000000
vn  -0.707106 0.000000 -0.707107
vn  -1.523825 -1.804115 0.670662
vn  0.707107 0.000000 -0.707107
vn  0.707106 0.000000 0.707107
vn  0.000000 0.000000 -1.000000
vn  1.000000 0.000000 0.000000
vn  1.000000 0.000000 0.000000
vn  0.000000 0.000000 1.000000
vn  0.707106 0.000000 -0.707107
vn  0.707106 0.000000 0.707107
vn  -1.000000 0.000000 0.000000
vn  -0.707107 0.000000 -0.707107
vn  -0.707106 0.000000 0.707107
vn  -0.707106 0.000000 -0.707107
vn  -0.707106 0.000000 0.707107
vn  -1.000000 0.000000 0.000000
vn  0.000000 0.000000 1.000000
vn  0.000000 0.000000 -1.000000
# 182 vertex normals

g jar1
s 1
f 379/371/379 494/372/494 372/373/372
f 372/373/372 535/370/535 379/371/379
f 366/345/366 389/346/389 390/347/390
f 533/388/533 387/389/387 513/391/513
f 513/391/513 503/374/503 533/388/533
f 536/379/536 380/380/380 493/381/493
f 493/381/493 370/378/370 536/379/536
f 365/349/365 519/350/519 374/351/374
f 374/351/374 410/348/410 365/349/365
f 534/382/534 388/383/388 372/373/372
f 372/373/372 494/372/494 534/382/534
f 368/352/368 390/347/390 392/353/392
f 367/354/367 518/355/518 374/351/374
f 374/351/374 519/350/519 367/354/367
f 416/357/416 392/353/392 377/358/377
f 377/358/377 401/356/401 416/357/416
f 500/359/500 389/346/389 366/345/366
f 381/388/381 531/392/531 383/375/383
f 383/375/383 537/389/537 381/388/381
f 384/379/384 538/383/538 382/382/382
f 382/382/382 532/380/532 384/379/384
f 496/360/496 492/352/492 510/357/510
f 510/357/510 371/361/371 496/360/496
f 495/362/495 491/345/491 499/347/499
f 499/347/499 373/363/373 495/362/495
f 397/364/397 391/359/391 491/345/491
f 491/345/491 497/365/497 397/364/397
f 373/363/373 499/347/499 492/352/492
f 492/352/492 498/366/498 373/363/373
f 495/362/495 497/365/497 491/345/491
f 496/360/496 498/366/498 492/352/492
f 520/389/520 511/384/511 527/390/527
f 527/390/527 369/391/369 520/389/520
f 511/393/511 516/376/516 515/373/515
f 515/373/515 386/385/386 511/393/511
f 514/378/514 385/386/385 512/387/512
f 512/387/512 517/379/517 514/378/514
f 386/385/386 515/373/515 521/383/521
f 521/383/521 512/387/512 386/385/386
f 516/377/516 511/394/511 520/389/520
f 517/379/517 512/387/512 521/383/521
f 375/367/375 378/368/378 390/347/390
f 390/347/390 389/346/389 375/367/375
f 390/347/390 378/368/378 377/358/377
f 377/358/377 392/353/392 390/347/390
f 416/357/416 368/352/368 392/353/392
f 500/359/500 376/369/376 375/367/375
f 375/367/375 389/346/389 500/359/500
f 539/421/539 408/420/408 524/423/524
f 524/423/524 504/422/504 539/421/539
f 501/395/501 509/397/509 414/396/414
f 406/438/406 503/424/503 513/441/513
f 513/441/513 546/439/546 406/438/406
f 409/429/409 370/428/370 493/431/493
f 493/431/493 545/430/545 409/429/409
f 393/399/393 410/398/410 374/401/374
f 374/401/374 528/400/528 393/399/393
f 407/432/407 504/422/504 524/423/524
f 524/423/524 544/433/544 407/432/407
f 396/402/396 417/403/417 509/397/509
f 523/404/523 528/400/528 374/401/374
f 374/401/374 518/405/518 523/404/523
f 416/407/416 401/406/401 402/408/402
f 402/408/402 417/403/417 416/407/416
f 500/409/500 501/395/501 414/396/414
f 540/438/540 529/439/529 542/425/542
f 542/425/542 404/442/404 540/438/540
f 543/429/543 506/430/506 541/432/541
f 541/432/541 413/433/413 543/429/543
f 405/410/405 371/411/371 510/407/510
f 510/407/510 502/402/502 405/410/405
f 505/412/505 399/413/399 415/397/415
f 415/397/415 394/395/394 505/412/505
f 397/414/397 507/415/507 394/395/394
f 394/395/394 391/409/391 397/414/397
f 399/413/399 508/416/508 502/402/502
f 502/402/502 415/397/415 399/413/399
f 505/412/505 394/395/394 507/415/507
f 405/410/405 502/402/502 508/416/508
f 412/439/412 369/441/369 527/440/527
f 527/440/527 522/434/522 412/439/412
f 522/443/522 411/435/411 398/423/398
f 398/423/398 525/426/525 522/443/522
f 514/428/514 526/429/526 395/437/395
f 395/437/395 385/436/385 514/428/514
f 411/435/411 395/437/395 530/433/530
f 530/433/530 398/423/398 411/435/411
f 525/427/525 412/439/412 522/444/522
f 526/429/526 530/433/530 395/437/395
f 400/417/400 414/396/414 509/397/509
f 509/397/509 403/418/403 400/417/400
f 509/397/509 417/403/417 402/408/402
f 402/408/402 403/418/403 509/397/509
f 416/407/416 417/403/417 396/402/396
f 500/409/500 414/396/414 400/417/400
f 400/417/400 376/419/376 500/409/500
f 468/456/468 435/457/435 422/458/422
f 422/458/422 423/459/423 468/456/468
f 420/460/420 468/456/468 423/459/423
f 423/459/423 424/461/424 420/460/420
f 421/462/421 420/460/420 424/461/424
f 424/461/424 425/463/425 421/462/421
f 435/457/435 482/464/482 448/465/448
f 448/465/448 422/458/422 435/457/435
f 467/466/467 472/467/472 426/468/426
f 426/468/426 484/469/484 467/466/467
f 444/470/444 467/466/467 484/469/484
f 484/469/484 490/471/490 444/470/444
f 437/472/437 428/473/428 426/468/426
f 426/468/426 472/467/472 437/472/437
f 460/474/460 429/475/429 428/473/428
f 428/473/428 437/472/437 460/474/460
f 427/469/427 438/476/438 462/477/462
f 462/477/462 452/471/452 427/469/427
f 483/468/483 439/478/439 438/476/438
f 438/476/438 427/469/427 483/468/483
f 485/473/485 440/479/440 439/478/439
f 439/478/439 483/468/483 485/473/485
f 486/475/486 466/480/466 440/479/440
f 440/479/440 485/473/485 486/475/486
f 431/445/431 430/446/430 453/447/453
f 432/448/432 430/446/430 431/445/431
f 433/449/433 430/446/430 432/448/432
f 434/450/434 430/446/430 433/449/433
f 418/466/418 471/457/471 419/456/419
f 419/456/419 436/467/436 418/466/418
f 436/467/436 419/456/419 469/460/469
f 469/460/469 473/472/473 436/467/436
f 473/472/473 469/460/469 470/462/470
f 470/462/470 481/474/481 473/472/473
f 477/470/477 461/464/461 471/457/471
f 471/457/471 418/466/418 477/470/477
f 431/445/431 453/447/453 462/452/462
f 462/452/462 438/451/438 431/445/431
f 432/448/432 431/445/431 438/451/438
f 438/451/438 439/453/439 432/448/432
f 433/449/433 432/448/432 439/453/439
f 439/453/439 440/454/440 433/449/433
f 434/450/434 433/449/433 440/454/440
f 440/454/440 466/455/466 434/450/434
f 442/492/442 446/495/446 445/494/445
f 445/494/445 457/493/457 442/492/442
f 443/496/443 447/497/447 446/495/446
f 446/495/446 442/492/442 443/496/443
f 421/498/421 425/499/425 447/497/447
f 447/497/447 443/496/443 421/498/421
f 457/493/457 445/494/445 448/501/448
f 448/501/448 482/500/482 457/493/457
f 441/502/441 488/505/488 487/504/487
f 487/504/487 458/503/458 441/502/441
f 444/506/444 490/507/490 488/505/488
f 488/505/488 441/502/441 444/506/444
f 459/508/459 458/503/458 487/504/487
f 487/504/487 451/509/451 459/508/459
f 460/510/460 459/508/459 451/509/451
f 451/509/451 429/511/429 460/510/460
f 450/505/450 452/507/452 462/513/462
f 462/513/462 463/512/463 450/505/450
f 449/504/449 450/505/450 463/512/463
f 463/512/463 464/514/464 449/504/449
f 489/509/489 449/504/449 464/514/464
f 464/514/464 465/515/465 489/509/489
f 486/511/486 489/509/489 465/515/465
f 465/515/465 466/516/466 486/511/486
f 454/481/454 453/483/453 430/482/430
f 455/484/455 454/481/454 430/482/430
f 456/485/456 455/484/455 430/482/430
f 434/486/434 456/485/456 430/482/430
f 474/502/474 479/503/479 475/492/475
f 475/492/475 478/493/478 474/502/474
f 479/503/479 480/508/480 476/496/476
f 476/496/476 475/492/475 479/503/479
f 480/508/480 481/510/481 470/498/470
f 470/498/470 476/496/476 480/508/480
f 477/506/477 474/502/474 478/493/478
f 478/493/478 461/500/461 477/506/477
f 454/481/454 463/487/463 462/488/462
f 462/488/462 453/483/453 454/481/454
f 455/484/455 464/489/464 463/487/463
f 463/487/463 454/481/454 455/484/455
f 456/485/456 465/490/465 464/489/464
f 464/489/464 455/484/455 456/485/456
f 434/486/434 466/491/466 465/490/465
f 465/490/465 456/485/456 434/486/434
# 184 faces

g
