# Max2Obj Version 4.0 Mar 10th, 2001
#
mtllib ./mobspawner.mtl
g
# object base to come ...
#
v  97.186485 2.313618 -70.009590
v  97.186485 94.733597 -70.009590
v  97.186485 94.733597 -67.772629
v  97.186485 2.313618 -67.772629
v  97.186478 94.733597 -30.606829
v  97.186478 94.733597 -27.906548
v  97.186478 2.313618 -27.906548
v  97.186478 2.313618 -30.606829
v  97.044861 2.313618 -70.009590
v  97.044861 94.733597 -70.009590
v  97.044861 94.733597 -67.772629
v  97.044861 2.313618 -67.772629
v  97.044853 94.733597 -30.606829
v  97.044853 94.733597 -27.906548
v  97.044853 2.313618 -27.906548
v  97.044853 2.313618 -30.606829
v  30.475279 2.313618 -96.701614
v  30.475279 94.733597 -96.701614
v  32.712242 94.733597 -96.701614
v  32.712242 2.313618 -96.701614
v  69.878044 94.733597 -96.701607
v  72.578323 94.733597 -96.701607
v  72.578323 2.313618 -96.701607
v  69.878044 2.313618 -96.701607
v  30.475279 2.313618 -96.559982
v  30.475279 94.733597 -96.559982
v  32.712242 94.733597 -96.559982
v  32.712242 2.313618 -96.559982
v  69.878044 94.733597 -96.559982
v  72.578323 94.733597 -96.559982
v  72.578323 2.313618 -96.559982
v  69.878044 2.313618 -96.559982
v  3.783260 2.313618 -29.990404
v  3.783260 94.733597 -29.990404
v  3.783260 94.733597 -32.227367
v  3.783260 2.313618 -32.227367
v  3.783264 94.733597 -69.393166
v  3.783264 94.733597 -72.093445
v  3.783264 2.313618 -72.093445
v  3.783264 2.313618 -69.393166
v  3.924885 2.313618 -29.990404
v  3.924885 94.733597 -29.990404
v  3.924885 94.733597 -32.227367
v  3.924885 2.313618 -32.227367
v  3.924889 94.733597 -69.393166
v  3.924889 94.733597 -72.093445
v  3.924889 2.313618 -72.093445
v  3.924889 2.313618 -69.393166
v  70.494461 2.313618 -3.298382
v  70.494461 94.733597 -3.298382
v  68.257500 94.733597 -3.298382
v  68.257500 2.313618 -3.298382
v  31.091700 94.733597 -3.298393
v  28.391418 94.733597 -3.298393
v  28.391418 2.313618 -3.298393
v  31.091700 2.313618 -3.298393
v  70.494461 2.313618 -3.440006
v  70.494461 94.733597 -3.440006
v  68.257500 94.733597 -3.440006
v  68.257500 2.313618 -3.440006
v  31.091700 94.733597 -3.440018
v  28.391418 94.733597 -3.440018
v  28.391418 2.313618 -3.440018
v  31.091700 2.313618 -3.440018
v  0.750797 95.055389 -98.935501
v  8.579216 96.857437 -91.107086
v  8.579216 93.253342 -91.107086
v  99.343811 95.055389 -98.935486
v  91.515396 96.857437 -91.107071
v  91.515396 93.253342 -91.107071
v  99.343796 95.055389 -0.342472
v  91.515381 96.857437 -8.170891
v  91.515381 93.253342 -8.170891
v  0.750782 95.055389 -0.342495
v  8.579197 96.857437 -8.170910
v  8.579197 93.253342 -8.170910
v  0.750801 2.335262 -98.935501
v  8.579216 4.137314 -91.107086
v  8.579216 0.533211 -91.107086
v  99.343819 2.335262 -98.935501
v  91.515396 4.137314 -91.107079
v  91.515396 0.533211 -91.107079
v  99.343796 2.335262 -0.342476
v  91.515381 4.137314 -8.170891
v  91.515381 0.533211 -8.170891
v  0.750782 2.335262 -0.342499
v  8.579201 4.137314 -8.170918
v  8.579201 0.533211 -8.170918
v  99.280121 2.327267 -98.834595
v  92.996262 2.327267 -98.824211
v  99.278381 2.327267 -92.134979
v  99.280121 95.124664 -98.834595
v  92.996262 95.124664 -98.824211
v  99.278381 95.124664 -92.134979
v  0.887047 2.327267 -98.795258
v  0.897427 2.327267 -92.511398
v  7.586662 2.327267 -98.793518
v  0.887047 95.124664 -98.795258
v  0.897427 95.124664 -92.511398
v  7.586662 95.124664 -98.793518
v  99.203979 2.327267 -0.503510
v  99.193604 2.327267 -6.787369
v  92.504379 2.327267 -0.505249
v  99.203979 95.124664 -0.503510
v  99.193604 95.124664 -6.787369
v  92.504379 95.124664 -0.505249
v  0.932854 2.327267 -0.524715
v  7.216713 2.327267 -0.535095
v  0.934593 2.327267 -7.224323
v  0.932854 95.124664 -0.524715
v  7.216713 95.124664 -0.535095
v  0.934593 95.124664 -7.224323
v  7.088806 99.062630 -92.649902
v  5.485584 95.899475 -92.649902
v  5.485565 95.899460 -6.517208
v  7.088787 99.062622 -6.517208
v  8.692009 95.899467 -6.517208
v  8.692024 95.899475 -92.649902
v  93.432991 99.062630 -92.649887
v  91.829773 95.899460 -92.649887
v  91.829750 95.899460 -6.517197
v  93.432968 99.062622 -6.517197
v  95.036194 95.899460 -6.517197
v  95.036217 95.899475 -92.649887
v  93.441910 99.062637 -6.411446
v  95.198242 95.899475 -8.014671
v  5.323532 95.899460 -8.014687
v  7.045155 99.062622 -6.411465
v  5.323532 95.899467 -4.808243
v  95.198242 95.899475 -4.808231
v  93.441933 99.062637 -92.755646
v  95.198257 95.899475 -94.358856
v  5.323544 95.899467 -94.358871
v  7.045174 99.062622 -92.755653
v  5.323544 95.899475 -91.152435
v  95.198250 95.899475 -91.152420
v  7.016354 4.241043 -67.914719
v  93.300003 4.241039 -67.914711
v  93.300003 4.241039 -69.838043
v  7.016354 4.241043 -69.838051
v  7.016346 4.241043 -36.957161
v  93.299995 4.241039 -36.957153
v  93.299995 4.241039 -38.880486
v  7.016346 4.241043 -38.880493
v  7.016354 4.457596 -67.914711
v  93.300003 4.457592 -67.914703
v  93.300003 4.457592 -69.838036
v  7.016354 4.457596 -69.838043
v  7.016346 4.457596 -36.957153
v  93.299995 4.457592 -36.957150
v  93.299995 4.457592 -38.880482
v  7.016346 4.457596 -38.880489
v  7.088806 5.289494 -92.649902
v  5.485584 2.126331 -92.649902
v  5.485573 2.126324 -6.517208
v  7.088795 5.289486 -6.517208
v  8.692013 2.126328 -6.517208
v  8.692024 2.126335 -92.649902
v  93.432999 5.289474 -92.649887
v  91.829773 2.126308 -92.649887
v  91.829765 2.126301 -6.517197
v  93.432983 5.289467 -6.517197
v  95.036209 2.126305 -6.517197
v  95.036224 2.126316 -92.649887
v  93.441925 5.289482 -6.411446
v  95.198250 2.126320 -8.014671
v  5.323532 2.126328 -8.014687
v  7.045162 5.289486 -6.411465
v  5.323532 2.126328 -4.808243
v  95.198250 2.126320 -4.808231
v  93.441940 5.289486 -92.755646
v  95.198257 2.126316 -94.358856
v  5.323544 2.126328 -94.358871
v  7.045174 5.289486 -92.755653
v  5.323544 2.126335 -91.152435
v  95.198257 2.126320 -91.152420
v  63.087193 97.151741 -92.737328
v  63.087185 97.151733 -6.474613
v  65.010513 97.151733 -6.474613
v  65.010529 97.151741 -92.737328
v  32.129639 97.151741 -92.737335
v  32.129627 97.151733 -6.474621
v  34.052963 97.151733 -6.474621
v  34.052971 97.151741 -92.737335
v  63.087196 97.017487 -92.737328
v  63.087185 97.017487 -6.474613
v  65.010513 97.017487 -6.474613
v  65.010529 97.017487 -92.737328
v  32.129639 97.017487 -92.737335
v  32.129627 97.017487 -6.474621
v  34.052963 97.017487 -6.474621
v  34.052971 97.017487 -92.737335
v  0.750797 95.055389 -98.935501
v  99.343811 95.055389 -98.935486
v  99.343796 95.055389 -0.342472
v  0.750782 95.055389 -0.342495
v  0.750801 2.335262 -98.935501
v  99.343819 2.335262 -98.935501
v  99.343796 2.335262 -0.342476
v  0.750782 2.335262 -0.342499
# 200 vertices

vt  0.375246 0.012663 1.320140
vt  0.375246 0.458575 1.320140
vt  0.533529 0.458575 1.320140
vt  0.533529 0.012663 1.320140
vt  0.848819 0.448198 1.320140
vt  0.984542 0.448198 1.320140
vt  0.984542 0.019267 1.320140
vt  0.848819 0.019267 1.320140
vt  0.375246 0.012663 1.320140
vt  0.375246 0.458575 1.320140
vt  0.533529 0.458575 1.320140
vt  0.533529 0.012663 1.320140
vt  0.848819 0.448198 1.320140
vt  0.984542 0.448198 1.320140
vt  0.984542 0.019267 1.320140
vt  0.848819 0.019267 1.320140
vt  0.375246 0.012663 1.320140
vt  0.375246 0.458575 1.320140
vt  0.533529 0.458575 1.320140
vt  0.533529 0.012663 1.320140
vt  0.848819 0.448198 1.320140
vt  0.984542 0.448198 1.320140
vt  0.984542 0.019267 1.320140
vt  0.848819 0.019267 1.320140
vt  0.375246 0.012663 1.320140
vt  0.375246 0.458575 1.320140
vt  0.533529 0.458575 1.320140
vt  0.533529 0.012663 1.320140
vt  0.848819 0.448198 1.320140
vt  0.984542 0.448198 1.320140
vt  0.984542 0.019267 1.320140
vt  0.848819 0.019267 1.320140
vt  0.375246 0.012663 1.320140
vt  0.375246 0.458575 1.320140
vt  0.533529 0.458575 1.320140
vt  0.533529 0.012663 1.320140
vt  0.848819 0.448198 1.320140
vt  0.984542 0.448198 1.320140
vt  0.984542 0.019267 1.320140
vt  0.848819 0.019267 1.320140
vt  0.375246 0.012663 1.320140
vt  0.375246 0.458575 1.320140
vt  0.533529 0.458575 1.320140
vt  0.533529 0.012663 1.320140
vt  0.848819 0.448198 1.320140
vt  0.984542 0.448198 1.320140
vt  0.984542 0.019267 1.320140
vt  0.848819 0.019267 1.320140
vt  0.375246 0.012663 1.320140
vt  0.375246 0.458575 1.320140
vt  0.533529 0.458575 1.320140
vt  0.533529 0.012663 1.320140
vt  0.848819 0.448198 1.320140
vt  0.984542 0.448198 1.320140
vt  0.984542 0.019267 1.320140
vt  0.848819 0.019267 1.320140
vt  0.375246 0.012663 1.320140
vt  0.375246 0.458575 1.320140
vt  0.533529 0.458575 1.320140
vt  0.533529 0.012663 1.320140
vt  0.848819 0.448198 1.320140
vt  0.984542 0.448198 1.320140
vt  0.984542 0.019267 1.320140
vt  0.848819 0.019267 1.320140
vt  0.495449 0.510575 0.000000
vt  0.449534 0.510575 0.000000
vt  0.545855 0.605463 0.000000
vt  0.495449 0.510575 0.000000
vt  0.495449 0.990051 0.000000
vt  0.449534 0.990051 0.000000
vt  0.545855 0.910861 0.000000
vt  0.495449 0.990051 0.000000
vt  0.495449 0.510575 0.000000
vt  0.449534 0.510575 0.000000
vt  0.545855 0.605463 0.000000
vt  0.495449 0.510575 0.000000
vt  0.495449 0.990051 0.000000
vt  0.449534 0.990051 0.000000
vt  0.545855 0.910861 0.000000
vt  0.495449 0.990051 0.000000
vt  0.495449 0.510575 0.000000
vt  0.449534 0.510575 0.000000
vt  0.545855 0.605463 0.000000
vt  0.495449 0.510575 0.000000
vt  0.495449 0.990051 0.000000
vt  0.506905 0.910861 0.000000
vt  0.449534 0.990051 0.000000
vt  0.506905 0.910861 0.000000
vt  0.537010 0.990051 0.000000
vt  0.545855 0.910861 0.000000
vt  0.537010 0.990051 0.000000
vt  0.495449 0.990051 0.000000
vt  0.495449 0.510575 0.000000
vt  0.506905 0.605463 0.000000
vt  0.449534 0.510575 0.000000
vt  0.506905 0.605463 0.000000
vt  0.537010 0.510575 0.000000
vt  0.545855 0.605463 0.000000
vt  0.537010 0.510575 0.000000
vt  0.495449 0.510575 0.000000
vt  0.495449 0.990051 0.000000
vt  0.506905 0.910861 0.000000
vt  0.449534 0.990051 0.000000
vt  0.506905 0.910861 0.000000
vt  0.537010 0.990051 0.000000
vt  0.545855 0.910861 0.000000
vt  0.537010 0.990051 0.000000
vt  0.495449 0.990051 0.000000
vt  0.537010 0.510575 0.000000
vt  0.537010 0.510575 0.000000
vt  0.506905 0.605463 0.000000
vt  0.506905 0.605463 0.000000
vt  0.495449 0.510575 0.000000
vt  0.449534 0.510575 0.000000
vt  0.545855 0.605463 0.000000
vt  0.495449 0.510575 0.000000
vt  0.495449 0.990051 0.000000
vt  0.449534 0.990051 0.000000
vt  0.545855 0.910861 0.000000
vt  0.495449 0.990051 0.000000
vt  0.495449 0.510575 0.000000
vt  0.449534 0.510575 0.000000
vt  0.545855 0.605463 0.000000
vt  0.495449 0.510575 0.000000
vt  0.495449 0.990051 0.000000
vt  0.449534 0.990051 0.000000
vt  0.545855 0.910861 0.000000
vt  0.495449 0.990051 0.000000
vt  0.495449 0.510575 0.000000
vt  0.449534 0.510575 0.000000
vt  0.545855 0.605463 0.000000
vt  0.495449 0.510575 0.000000
vt  0.495449 0.990051 0.000000
vt  0.506905 0.910861 0.000000
vt  0.449534 0.990051 0.000000
vt  0.506905 0.910861 0.000000
vt  0.537010 0.990051 0.000000
vt  0.545855 0.910861 0.000000
vt  0.537010 0.990051 0.000000
vt  0.495449 0.990051 0.000000
vt  0.495449 0.510575 0.000000
vt  0.506905 0.605463 0.000000
vt  0.449534 0.510575 0.000000
vt  0.506905 0.605463 0.000000
vt  0.537010 0.510575 0.000000
vt  0.545855 0.605463 0.000000
vt  0.537010 0.510575 0.000000
vt  0.495449 0.510575 0.000000
vt  0.495449 0.990051 0.000000
vt  0.506905 0.910861 0.000000
vt  0.449534 0.990051 0.000000
vt  0.506905 0.910861 0.000000
vt  0.537010 0.990051 0.000000
vt  0.545855 0.910861 0.000000
vt  0.537010 0.990051 0.000000
vt  0.495449 0.990051 0.000000
vt  0.537010 0.510575 0.000000
vt  0.537010 0.510575 0.000000
vt  0.506905 0.605463 0.000000
vt  0.506905 0.605463 0.000000
vt  0.461862 0.014529 1.000000
vt  0.414949 0.038883 1.000000
vt  0.968860 0.038883 1.000000
vt  0.461862 0.490720 1.000000
vt  0.414949 0.445860 1.000000
vt  0.968860 0.445860 1.000000
vt  0.535690 0.014529 1.000000
vt  0.535690 0.490720 1.000000
vt  0.388034 0.014529 1.000000
vt  0.388034 0.490720 1.000000
vt  0.461862 0.014529 1.000000
vt  0.414949 0.038883 1.000000
vt  0.968860 0.038883 1.000000
vt  0.461862 0.490720 1.000000
vt  0.414949 0.445860 1.000000
vt  0.968860 0.445860 1.000000
vt  0.535690 0.014529 1.000000
vt  0.535690 0.490720 1.000000
vt  0.388034 0.014529 1.000000
vt  0.388034 0.490720 1.000000
vt  0.461862 0.014529 1.000000
vt  0.414949 0.038883 1.000000
vt  0.968860 0.038883 1.000000
vt  0.461862 0.490720 1.000000
vt  0.414949 0.445860 1.000000
vt  0.968860 0.445860 1.000000
vt  0.535690 0.014529 1.000000
vt  0.535690 0.490720 1.000000
vt  0.388034 0.014529 1.000000
vt  0.388034 0.490720 1.000000
vt  0.461862 0.014529 1.000000
vt  0.414949 0.038883 1.000000
vt  0.968860 0.038883 1.000000
vt  0.461862 0.490720 1.000000
vt  0.414949 0.445860 1.000000
vt  0.968860 0.445860 1.000000
vt  0.535690 0.014529 1.000000
vt  0.535690 0.490720 1.000000
vt  0.388034 0.014529 1.000000
vt  0.388034 0.490720 1.000000
vt  0.918080 0.014529 1.000000
vt  0.991908 0.014529 1.000000
vt  0.991908 0.462418 1.000000
vt  0.844252 0.014529 1.000000
vt  0.844252 0.462418 1.000000
vt  0.991908 0.462418 1.000000
vt  0.918080 0.462418 1.000000
vt  0.991908 0.014529 1.000000
vt  0.918080 0.014529 1.000000
vt  0.991908 0.014529 1.000000
vt  0.991908 0.462418 1.000000
vt  0.844252 0.014529 1.000000
vt  0.844252 0.462418 1.000000
vt  0.991908 0.462418 1.000000
vt  0.918080 0.462418 1.000000
vt  0.991908 0.014529 1.000000
vt  0.463371 0.438234 1.000000
vt  0.389543 0.438234 1.000000
vt  0.389543 0.016827 1.000000
vt  0.537199 0.438234 1.000000
vt  0.537199 0.016827 1.000000
vt  0.389543 0.016827 1.000000
vt  0.463371 0.016827 1.000000
vt  0.389543 0.438234 1.000000
vt  0.463371 0.438234 1.000000
vt  0.389543 0.438234 1.000000
vt  0.389543 0.016827 1.000000
vt  0.537199 0.438234 1.000000
vt  0.537199 0.016827 1.000000
vt  0.389543 0.016827 1.000000
vt  0.463371 0.016827 1.000000
vt  0.389543 0.438234 1.000000
vt  0.375246 0.012663 1.320140
vt  0.375246 0.458575 1.320140
vt  0.533529 0.458575 1.320140
vt  0.533529 0.012663 1.320140
vt  0.375246 0.012663 1.320140
vt  0.375246 0.458575 1.320140
vt  0.533529 0.458575 1.320140
vt  0.533529 0.012663 1.320140
vt  0.375246 0.012663 1.320140
vt  0.375246 0.458575 1.320140
vt  0.533529 0.458575 1.320140
vt  0.533529 0.012663 1.320140
vt  0.375246 0.012663 1.320140
vt  0.375246 0.458575 1.320140
vt  0.533529 0.458575 1.320140
vt  0.533529 0.012663 1.320140
vt  0.918080 0.014529 1.000000
vt  0.991908 0.014529 1.000000
vt  0.991908 0.462418 1.000000
vt  0.844252 0.014529 1.000000
vt  0.844252 0.462418 1.000000
vt  0.991908 0.462418 1.000000
vt  0.918080 0.462418 1.000000
vt  0.991908 0.014529 1.000000
vt  0.918080 0.014529 1.000000
vt  0.991908 0.014529 1.000000
vt  0.991908 0.462418 1.000000
vt  0.844252 0.014529 1.000000
vt  0.844252 0.462418 1.000000
vt  0.991908 0.462418 1.000000
vt  0.918080 0.462418 1.000000
vt  0.991908 0.014529 1.000000
vt  0.463371 0.438234 1.000000
vt  0.389543 0.438234 1.000000
vt  0.389543 0.016827 1.000000
vt  0.537199 0.438234 1.000000
vt  0.537199 0.016827 1.000000
vt  0.389543 0.016827 1.000000
vt  0.463371 0.016827 1.000000
vt  0.389543 0.438234 1.000000
vt  0.463371 0.438234 1.000000
vt  0.389543 0.438234 1.000000
vt  0.389543 0.016827 1.000000
vt  0.537199 0.438234 1.000000
vt  0.537199 0.016827 1.000000
vt  0.389543 0.016827 1.000000
vt  0.463371 0.016827 1.000000
vt  0.389543 0.438234 1.000000
vt  0.393616 0.001904 1.320140
vt  0.393616 0.464920 1.320140
vt  0.518103 0.464920 1.320140
vt  0.518103 0.001904 1.320140
vt  0.393616 0.001904 1.320140
vt  0.393616 0.464920 1.320140
vt  0.518103 0.464920 1.320140
vt  0.518103 0.001904 1.320140
vt  0.393616 0.001904 1.320140
vt  0.393616 0.464920 1.320140
vt  0.518103 0.464920 1.320140
vt  0.518103 0.001904 1.320140
vt  0.393616 0.001904 1.320140
vt  0.393616 0.464920 1.320140
vt  0.518103 0.464920 1.320140
vt  0.518103 0.001904 1.320140
# 296 texture vertices

vn  1.000000 0.000000 0.000000
vn  1.000000 0.000000 0.000000
vn  1.000000 0.000000 0.000000
vn  1.000000 0.000000 0.000000
vn  1.000000 0.000000 0.000000
vn  1.000000 0.000000 0.000000
vn  1.000000 0.000000 0.000000
vn  1.000000 0.000000 0.000000
vn  -1.000000 0.000000 0.000000
vn  -1.000000 0.000000 0.000000
vn  -1.000000 0.000000 0.000000
vn  -1.000000 0.000000 0.000000
vn  -1.000000 0.000000 0.000000
vn  -1.000000 0.000000 0.000000
vn  -1.000000 0.000000 0.000000
vn  -1.000000 0.000000 0.000000
vn  0.000000 0.000000 -1.000000
vn  0.000000 0.000000 -1.000000
vn  0.000000 0.000000 -1.000000
vn  0.000000 0.000000 -1.000000
vn  0.000000 0.000000 -1.000000
vn  0.000000 0.000000 -1.000000
vn  0.000000 0.000000 -1.000000
vn  0.000000 0.000000 -1.000000
vn  0.000000 0.000000 1.000000
vn  0.000000 0.000000 1.000000
vn  0.000000 0.000000 1.000000
vn  0.000000 0.000000 1.000000
vn  0.000000 0.000000 1.000000
vn  0.000000 0.000000 1.000000
vn  0.000000 0.000000 1.000000
vn  0.000000 0.000000 1.000000
vn  -1.000000 0.000000 0.000000
vn  -1.000000 0.000000 0.000000
vn  -1.000000 0.000000 0.000000
vn  -1.000000 0.000000 0.000000
vn  -1.000000 0.000000 0.000000
vn  -1.000000 0.000000 0.000000
vn  -1.000000 0.000000 0.000000
vn  -1.000000 0.000000 0.000000
vn  1.000000 0.000000 0.000000
vn  1.000000 0.000000 0.000000
vn  1.000000 0.000000 0.000000
vn  1.000000 0.000000 0.000000
vn  1.000000 0.000000 0.000000
vn  1.000000 0.000000 0.000000
vn  1.000000 0.000000 0.000000
vn  1.000000 0.000000 0.000000
vn  0.000000 0.000000 1.000000
vn  0.000000 0.000000 1.000000
vn  0.000000 0.000000 1.000000
vn  0.000000 0.000000 1.000000
vn  0.000000 0.000000 1.000000
vn  0.000000 0.000000 1.000000
vn  0.000000 0.000000 1.000000
vn  0.000000 0.000000 1.000000
vn  0.000000 0.000000 -1.000000
vn  0.000000 0.000000 -1.000000
vn  0.000000 0.000000 -1.000000
vn  0.000000 0.000000 -1.000000
vn  0.000000 0.000000 -1.000000
vn  0.000000 0.000000 -1.000000
vn  0.000000 0.000000 -1.000000
vn  0.000000 0.000000 -1.000000
vn  -0.113601 -0.987010 -0.113601
vn  0.217721 0.951418 0.217720
vn  0.217721 -0.951417 0.217721
vn  0.113602 0.987010 -0.113602
vn  -0.217720 0.951418 0.217721
vn  -0.217721 -0.951418 0.217720
vn  0.113601 0.987010 0.113601
vn  -0.217721 0.951418 -0.217721
vn  -0.217720 -0.951418 -0.217721
vn  -0.113602 -0.987010 0.113601
vn  0.217721 0.951417 -0.217721
vn  0.217721 -0.951418 -0.217720
vn  -0.113602 -0.987010 -0.113602
vn  0.217721 0.951418 0.217720
vn  0.217721 -0.951418 0.217721
vn  0.113602 0.987010 -0.113602
vn  -0.217721 0.951418 0.217721
vn  -0.217721 -0.951418 0.217720
vn  0.113602 0.987010 0.113602
vn  -0.217720 0.951418 -0.217720
vn  -0.217720 -0.951418 -0.217721
vn  -0.113602 -0.987010 0.113602
vn  0.217721 0.951418 -0.217721
vn  0.217721 -0.951418 -0.217720
vn  0.706614 0.000000 -0.707599
vn  -0.918090 0.000000 -0.396371
vn  0.368023 0.000000 0.929817
vn  0.706614 0.000000 -0.707599
vn  -0.918090 0.000000 -0.396371
vn  0.368023 0.000000 0.929817
vn  -0.707599 0.000000 -0.706615
vn  -0.396371 0.000000 0.918090
vn  0.929817 0.000000 -0.368022
vn  -0.707599 0.000000 -0.706615
vn  -0.396371 0.000000 0.918090
vn  0.929817 0.000000 -0.368022
vn  0.707599 0.000000 0.706614
vn  0.396371 0.000000 -0.918090
vn  -0.929817 0.000000 0.368023
vn  0.707599 0.000000 0.706614
vn  0.396371 0.000000 -0.918090
vn  -0.929817 0.000000 0.368023
vn  -0.706614 0.000000 0.707599
vn  0.918090 0.000000 0.396371
vn  -0.368023 0.000000 -0.929817
vn  -0.706614 0.000000 0.707599
vn  0.918090 0.000000 0.396371
vn  -0.368023 0.000000 -0.929817
vn  -0.000002 1.000000 0.000000
vn  -0.891973 0.452089 -0.000000
vn  -0.891973 0.452089 -0.000000
vn  0.000001 1.000000 0.000000
vn  0.891973 0.452089 0.000000
vn  0.891973 0.452089 0.000000
vn  -0.000003 1.000000 0.000000
vn  -0.891973 0.452088 -0.000000
vn  -0.891973 0.452088 -0.000000
vn  0.000002 1.000000 0.000000
vn  0.891973 0.452088 0.000000
vn  0.891972 0.452090 0.000000
vn  -0.000000 1.000000 0.000001
vn  0.000000 0.452090 -0.891972
vn  0.000000 0.452089 -0.891973
vn  -0.000000 1.000000 -0.000001
vn  -0.000000 0.452089 0.891973
vn  -0.000000 0.452088 0.891974
vn  -0.000000 1.000000 0.000000
vn  0.000000 0.452087 -0.891974
vn  0.000000 0.452089 -0.891973
vn  -0.000000 1.000000 0.000000
vn  -0.000000 0.452089 0.891973
vn  -0.000000 0.452088 0.891973
vn  -0.000000 -1.000000 0.000000
vn  -0.000000 -1.000000 0.000000
vn  -0.000000 -1.000000 0.000000
vn  -0.000000 -1.000000 0.000000
vn  -0.000000 -1.000000 0.000000
vn  -0.000000 -1.000000 0.000000
vn  -0.000000 -1.000000 0.000000
vn  -0.000000 -1.000000 0.000000
vn  0.000000 1.000000 0.000000
vn  0.000000 1.000000 0.000000
vn  0.000000 1.000000 0.000000
vn  0.000000 1.000000 0.000000
vn  0.000000 1.000000 0.000000
vn  0.000000 1.000000 0.000000
vn  0.000000 1.000000 0.000000
vn  0.000000 1.000000 0.000000
vn  -0.000002 1.000000 0.000000
vn  -0.891973 0.452089 -0.000000
vn  -0.891973 0.452089 -0.000000
vn  0.000001 1.000000 0.000000
vn  0.891973 0.452088 0.000000
vn  0.891973 0.452088 0.000000
vn  -0.000003 1.000000 0.000000
vn  -0.891973 0.452088 -0.000000
vn  -0.891973 0.452088 -0.000000
vn  0.000001 1.000000 0.000000
vn  0.891973 0.452089 0.000000
vn  0.891972 0.452090 0.000000
vn  0.000000 1.000000 0.000002
vn  0.000000 0.452090 -0.891972
vn  0.000000 0.452089 -0.891973
vn  0.000000 1.000000 -0.000001
vn  -0.000000 0.452089 0.891973
vn  -0.000000 0.452087 0.891974
vn  0.000000 1.000000 -0.000001
vn  0.000000 0.452087 -0.891974
vn  0.000000 0.452089 -0.891973
vn  0.000000 1.000000 0.000000
vn  -0.000000 0.452089 0.891973
vn  -0.000000 0.452088 0.891974
vn  0.000000 1.000000 0.000000
vn  0.000000 1.000000 0.000000
vn  0.000000 1.000000 0.000000
vn  0.000000 1.000000 0.000000
vn  0.000000 1.000000 0.000000
vn  0.000000 1.000000 0.000000
vn  0.000000 1.000000 0.000000
vn  0.000000 1.000000 0.000000
vn  0.000000 -1.000000 -0.000000
vn  0.000000 -1.000000 -0.000000
vn  0.000000 -1.000000 -0.000000
vn  0.000000 -1.000000 -0.000000
vn  0.000000 -1.000000 -0.000000
vn  0.000000 -1.000000 -0.000000
vn  0.000000 -1.000000 -0.000000
vn  0.000000 -1.000000 -0.000000
vn  -0.113601 0.987010 -0.113601
vn  0.113602 -0.987010 -0.113601
vn  0.113601 -0.987010 0.113601
vn  -0.113602 0.987010 0.113601
vn  -0.113602 0.987010 -0.113602
vn  0.113602 -0.987010 -0.113602
vn  0.113602 -0.987010 0.113602
vn  -0.113602 0.987010 0.113602
# 200 vertex normals

g base
usemtl 01_-_Default
f 3/3/3 4/4/4 1/1/1
f 1/1/1 2/2/2 3/3/3
f 6/6/6 7/7/7 8/8/8
f 8/8/8 5/5/5 6/6/6
f 11/11/11 10/10/10 9/9/9
f 9/9/9 12/12/12 11/11/11
f 14/14/14 13/13/13 16/16/16
f 16/16/16 15/15/15 14/14/14
f 19/19/19 20/20/20 17/17/17
f 17/17/17 18/18/18 19/19/19
f 22/22/22 23/23/23 24/24/24
f 24/24/24 21/21/21 22/22/22
f 27/27/27 26/26/26 25/25/25
f 25/25/25 28/28/28 27/27/27
f 30/30/30 29/29/29 32/32/32
f 32/32/32 31/31/31 30/30/30
f 35/35/35 36/36/36 33/33/33
f 33/33/33 34/34/34 35/35/35
f 38/38/38 39/39/39 40/40/40
f 40/40/40 37/37/37 38/38/38
f 43/43/43 42/42/42 41/41/41
f 41/41/41 44/44/44 43/43/43
f 46/46/46 45/45/45 48/48/48
f 48/48/48 47/47/47 46/46/46
f 51/51/51 52/52/52 49/49/49
f 49/49/49 50/50/50 51/51/51
f 54/54/54 55/55/55 56/56/56
f 56/56/56 53/53/53 54/54/54
f 59/59/59 58/58/58 57/57/57
f 57/57/57 60/60/60 59/59/59
f 62/62/62 61/61/61 64/64/64
f 64/64/64 63/63/63 62/62/62
f 193/65/193 66/66/66 69/70/69
f 69/70/69 68/69/68 193/65/193
f 66/111/66 67/67/67 70/71/70
f 70/71/70 69/102/69 66/111/66
f 67/109/67 65/68/65 194/72/194
f 194/72/194 70/105/70 67/109/67
f 68/101/68 69/103/69 72/74/72
f 72/74/72 71/73/71 68/101/68
f 69/104/69 70/106/70 73/75/73
f 73/75/73 72/94/72 69/104/69
f 70/107/70 194/108/194 195/76/195
f 195/76/195 73/97/73 70/107/70
f 71/93/71 72/95/72 75/78/75
f 75/78/75 196/77/196 71/93/71
f 72/96/72 73/98/73 76/79/76
f 76/79/76 75/86/75 72/96/72
f 73/99/73 195/100/195 74/80/74
f 74/80/74 76/89/76 73/99/73
f 196/85/196 75/87/75 66/82/66
f 66/82/66 193/81/193 196/85/196
f 75/88/75 76/90/76 67/83/67
f 67/83/67 66/112/66 75/88/75
f 76/91/76 74/92/74 65/84/65
f 65/84/65 67/110/67 76/91/76
f 197/113/197 78/114/78 81/118/81
f 81/118/81 80/117/80 197/113/197
f 78/159/78 79/115/79 82/119/82
f 82/119/82 81/150/81 78/159/78
f 79/157/79 77/116/77 198/120/198
f 198/120/198 82/153/82 79/157/79
f 80/149/80 81/151/81 84/122/84
f 84/122/84 83/121/83 80/149/80
f 81/152/81 82/154/82 85/123/85
f 85/123/85 84/142/84 81/152/81
f 82/155/82 198/156/198 199/124/199
f 199/124/199 85/145/85 82/155/82
f 83/141/83 84/143/84 87/126/87
f 87/126/87 200/125/200 83/141/83
f 84/144/84 85/146/85 88/127/88
f 88/127/88 87/134/87 84/144/84
f 85/147/85 199/148/199 86/128/86
f 86/128/86 88/137/88 85/147/85
f 200/133/200 87/135/87 78/130/78
f 78/130/78 197/129/197 200/133/200
f 87/136/87 88/138/88 79/131/79
f 79/131/79 78/160/78 87/136/87
f 88/139/88 86/140/86 77/132/77
f 77/132/77 79/158/79 88/139/88
f 89/161/89 90/167/90 93/168/93
f 93/168/93 92/164/92 89/161/89
f 90/162/90 91/163/91 94/166/94
f 94/166/94 93/165/93 90/162/90
f 91/169/91 89/161/89 92/164/92
f 92/164/92 94/170/94 91/169/91
f 95/171/95 96/177/96 99/178/99
f 99/178/99 98/174/98 95/171/95
f 96/172/96 97/173/97 100/176/100
f 100/176/100 99/175/99 96/172/96
f 97/179/97 95/171/95 98/174/98
f 98/174/98 100/180/100 97/179/97
f 101/181/101 102/187/102 105/188/105
f 105/188/105 104/184/104 101/181/101
f 102/182/102 103/183/103 106/186/106
f 106/186/106 105/185/105 102/182/102
f 103/189/103 101/181/101 104/184/104
f 104/184/104 106/190/106 103/189/103
f 107/191/107 108/197/108 111/198/111
f 111/198/111 110/194/110 107/191/107
f 108/192/108 109/193/109 112/196/112
f 112/196/112 111/195/111 108/192/108
f 109/199/109 107/191/107 110/194/110
f 110/194/110 112/200/112 109/199/109
f 113/201/113 114/202/114 115/203/115
f 115/203/115 116/207/116 113/201/113
f 118/204/118 113/201/113 116/207/116
f 116/207/116 117/205/117 118/204/118
f 115/203/115 117/206/117 116/207/116
f 114/202/114 113/201/113 118/208/118
f 119/209/119 120/210/120 121/211/121
f 121/211/121 122/215/122 119/209/119
f 124/212/124 119/209/119 122/215/122
f 122/215/122 123/213/123 124/212/124
f 121/211/121 123/214/123 122/215/122
f 120/210/120 119/209/119 124/216/124
f 125/217/125 126/218/126 127/219/127
f 127/219/127 128/223/128 125/217/125
f 130/220/130 125/217/125 128/223/128
f 128/223/128 129/221/129 130/220/130
f 127/219/127 129/222/129 128/223/128
f 126/218/126 125/217/125 130/224/130
f 131/225/131 132/226/132 133/227/133
f 133/227/133 134/231/134 131/225/131
f 136/228/136 131/225/131 134/231/134
f 134/231/134 135/229/135 136/228/136
f 133/227/133 135/230/135 134/231/134
f 132/226/132 131/225/131 136/232/136
f 139/235/139 138/234/138 137/233/137
f 137/233/137 140/236/140 139/235/139
f 143/239/143 142/238/142 141/237/141
f 141/237/141 144/240/144 143/239/143
f 147/243/147 148/244/148 145/241/145
f 145/241/145 146/242/146 147/243/147
f 151/247/151 152/248/152 149/245/149
f 149/245/149 150/246/150 151/247/151
f 153/249/153 154/250/154 155/251/155
f 155/251/155 156/255/156 153/249/153
f 158/252/158 153/249/153 156/255/156
f 156/255/156 157/253/157 158/252/158
f 155/251/155 157/254/157 156/255/156
f 154/250/154 153/249/153 158/256/158
f 159/257/159 160/258/160 161/259/161
f 161/259/161 162/263/162 159/257/159
f 164/260/164 159/257/159 162/263/162
f 162/263/162 163/261/163 164/260/164
f 161/259/161 163/262/163 162/263/162
f 160/258/160 159/257/159 164/264/164
f 165/265/165 166/266/166 167/267/167
f 167/267/167 168/271/168 165/265/165
f 170/268/170 165/265/165 168/271/168
f 168/271/168 169/269/169 170/268/170
f 167/267/167 169/270/169 168/271/168
f 166/266/166 165/265/165 170/272/170
f 171/273/171 172/274/172 173/275/173
f 173/275/173 174/279/174 171/273/171
f 176/276/176 171/273/171 174/279/174
f 174/279/174 175/277/175 176/276/176
f 173/275/173 175/278/175 174/279/174
f 172/274/172 171/273/171 176/280/176
f 179/283/179 180/284/180 177/281/177
f 177/281/177 178/282/178 179/283/179
f 183/287/183 184/288/184 181/285/181
f 181/285/181 182/286/182 183/287/183
f 187/291/187 186/290/186 185/289/185
f 185/289/185 188/292/188 187/291/187
f 191/295/191 190/294/190 189/293/189
f 189/293/189 192/296/192 191/295/191
# 168 faces

g
