# Max2Obj Version 4.0 Mar 10th, 2001
#
# object normal to come ...
#
v  13.714649 -3.437937 -86.029663
v  13.714649 10.766206 -86.029671
v  13.714653 -3.437944 -13.573261
v  13.714649 10.766198 -13.573254
v  87.355949 -3.437928 -86.029678
v  83.911911 15.336348 -82.641052
v  87.355957 -3.437936 -13.573269
v  87.355957 10.766207 -13.573261
v  17.158688 15.336340 -82.641045
v  17.158695 15.336332 -16.961880
v  87.355949 10.766214 -86.029678
v  83.911919 15.336340 -16.961887
v  13.714649 -3.437937 -86.029663
v  13.714649 -3.437937 -86.029663
v  13.714653 -3.437944 -13.573261
v  13.714653 -3.437944 -13.573261
v  87.355949 -3.437928 -86.029678
v  87.355949 -3.437928 -86.029678
v  87.355957 -3.437936 -13.573269
v  87.355957 -3.437936 -13.573269
v  83.911911 15.336348 -82.641052
v  17.158688 15.336340 -82.641045
v  17.158695 15.336332 -16.961880
v  83.911919 15.336340 -16.961887
v  13.714649 10.766206 -86.029671
v  13.714649 10.766206 -86.029671
v  13.714649 10.766198 -13.573254
v  13.714649 10.766198 -13.573254
v  87.355957 10.766207 -13.573261
v  87.355957 10.766207 -13.573261
v  87.355949 10.766214 -86.029678
v  87.355949 10.766214 -86.029678
# 32 vertices

vt  0.089122 0.139435 0.000500
vt  0.089122 0.824264 0.000500
vt  0.910878 0.824264 0.000500
vt  0.910878 0.139435 0.000500
vt  0.014996 0.920900 0.999500
vt  0.014995 0.042799 0.999500
vt  0.985005 0.042799 0.999500
vt  0.985005 0.920900 0.999500
vt  0.014995 0.920900 0.047221
vt  0.014995 0.042799 0.047221
vt  0.985005 0.042799 0.047221
vt  0.985005 0.920900 0.047221
vt  0.017993 0.576264 0.999500
vt  0.017993 0.333915 0.999501
vt  0.985575 0.333915 0.999500
vt  0.985575 0.576264 0.999500
vt  0.017993 0.333915 0.000500
vt  0.017993 0.576264 0.000500
vt  0.985575 0.576264 0.000499
vt  0.985575 0.333915 0.000500
vt  0.985575 0.333915 0.000500
vt  0.017993 0.333915 0.000500
vt  0.017993 0.576264 0.000500
vt  0.985575 0.576264 0.000500
vt  0.985575 0.333915 0.999500
vt  0.985575 0.576264 0.999500
vt  0.017993 0.576264 0.999500
vt  0.017993 0.333915 0.999500
# 28 texture vertices

vn  -0.000000 -0.000000 -1.000000
vn  -1.000000 0.000000 0.000000
vn  0.000000 -1.000000 -0.000000
vn  0.000000 -0.000001 1.000000
vn  -0.000000 -0.000000 -1.000000
vn  -0.000000 1.000000 0.000000
vn  0.000000 -1.000000 -0.000000
vn  1.000000 0.000000 -0.000000
vn  -0.000000 1.000000 0.000000
vn  -0.000000 1.000000 0.000000
vn  -0.000000 -0.000000 -1.000000
vn  -0.000000 1.000000 0.000000
vn  0.000000 -1.000000 -0.000000
vn  -1.000000 -0.000000 0.000000
vn  0.000000 -0.000001 1.000000
vn  -1.000000 -0.000000 0.000000
vn  1.000000 0.000000 -0.000000
vn  0.000000 -1.000000 -0.000000
vn  1.000000 0.000000 -0.000000
vn  0.000000 -0.000001 1.000000
vn  1.681434 1.315291 -0.064962
vn  -1.681433 2.526913 -1.699039
vn  -1.681432 2.478748 1.634079
vn  1.681435 2.526913 1.699039
vn  -0.827502 1.186799 -0.759564
vn  -0.000000 -0.000000 -1.000000
vn  -0.827501 1.234966 0.824526
vn  -1.000000 -0.000000 0.000000
vn  0.827502 0.671770 0.064962
vn  0.000000 -0.000001 1.000000
vn  0.827502 1.234967 -0.824527
vn  1.000000 -0.000000 -0.000000
# 32 vertex normals

g normal
s 1
f 14/21/14 16/22/16 28/23/28
f 28/23/28 2/24/2 14/21/14
f 17/25/17 32/26/32 8/27/8
f 8/27/8 19/28/19 17/25/17
f 1/13/1 26/14/26 11/15/11
f 11/15/11 5/16/5 1/13/1
f 9/1/9 10/2/10 12/3/12
f 12/3/12 6/4/6 9/1/9
f 4/17/4 15/18/15 20/19/20
f 20/19/20 30/20/30 4/17/4
f 3/5/3 13/6/13 18/7/18
f 18/7/18 7/8/7 3/5/3
f 27/9/27 23/2/23 22/1/22
f 22/1/22 25/10/25 27/9/27
f 31/11/31 21/4/21 24/3/24
f 24/3/24 29/12/29 31/11/31
f 25/10/25 22/1/22 21/4/21
f 21/4/21 31/11/31 25/10/25
f 23/2/23 27/9/27 29/12/29
f 29/12/29 24/3/24 23/2/23
# 20 faces

g
# object pressed to come ...
#
v  13.714649 -13.687708 -86.029663
v  13.714649 0.516435 -86.029671
v  13.714653 -13.687716 -13.573261
v  13.714649 0.516427 -13.573254
v  87.355949 -13.687699 -86.029678
v  83.911911 5.086577 -82.641052
v  87.355957 -13.687707 -13.573269
v  87.355957 0.516436 -13.573261
v  17.158688 5.086570 -82.641045
v  17.158695 5.086562 -16.961880
v  87.355949 0.516444 -86.029678
v  83.911919 5.086570 -16.961887
v  13.714649 -13.687708 -86.029663
v  13.714649 -13.687708 -86.029663
v  13.714653 -13.687716 -13.573261
v  13.714653 -13.687716 -13.573261
v  87.355949 -13.687699 -86.029678
v  87.355949 -13.687699 -86.029678
v  87.355957 -13.687707 -13.573269
v  87.355957 -13.687707 -13.573269
v  83.911911 5.086577 -82.641052
v  17.158688 5.086570 -82.641045
v  17.158695 5.086562 -16.961880
v  83.911919 5.086570 -16.961887
v  13.714649 0.516435 -86.029671
v  13.714649 0.516435 -86.029671
v  13.714649 0.516427 -13.573254
v  13.714649 0.516427 -13.573254
v  87.355957 0.516436 -13.573261
v  87.355957 0.516436 -13.573261
v  87.355949 0.516444 -86.029678
v  87.355949 0.516444 -86.029678
# 32 vertices

vt  0.089122 0.139435 0.000500
vt  0.089122 0.824264 0.000500
vt  0.910878 0.824264 0.000500
vt  0.910878 0.139435 0.000500
vt  0.014996 0.920900 0.999500
vt  0.014995 0.042799 0.999500
vt  0.985005 0.042799 0.999500
vt  0.985005 0.920900 0.999500
vt  0.014995 0.920900 0.047221
vt  0.014995 0.042799 0.047221
vt  0.985005 0.042799 0.047221
vt  0.985005 0.920900 0.047221
vt  0.017993 0.576264 0.999500
vt  0.017993 0.333915 0.999501
vt  0.985575 0.333915 0.999500
vt  0.985575 0.576264 0.999500
vt  0.017993 0.333915 0.000500
vt  0.017993 0.576264 0.000500
vt  0.985575 0.576264 0.000499
vt  0.985575 0.333915 0.000500
vt  0.985575 0.333915 0.000500
vt  0.017993 0.333915 0.000500
vt  0.017993 0.576264 0.000500
vt  0.985575 0.576264 0.000500
vt  0.985575 0.333915 0.999500
vt  0.985575 0.576264 0.999500
vt  0.017993 0.576264 0.999500
vt  0.017993 0.333915 0.999500
# 28 texture vertices

vn  -0.000000 -0.000000 -1.000000
vn  -1.000000 0.000000 0.000000
vn  0.000000 -1.000000 -0.000000
vn  0.000000 -0.000001 1.000000
vn  -0.000000 -0.000000 -1.000000
vn  -0.000000 1.000000 0.000000
vn  0.000000 -1.000000 -0.000000
vn  1.000000 0.000000 -0.000000
vn  -0.000000 1.000000 0.000000
vn  -0.000000 1.000000 0.000000
vn  -0.000000 -0.000000 -1.000000
vn  -0.000000 1.000000 0.000000
vn  0.000000 -1.000000 -0.000000
vn  -1.000000 -0.000000 0.000000
vn  0.000000 -0.000001 1.000000
vn  -1.000000 -0.000000 0.000000
vn  1.000000 0.000000 -0.000000
vn  0.000000 -1.000000 -0.000000
vn  1.000000 0.000000 -0.000000
vn  0.000000 -0.000001 1.000000
vn  1.681434 1.315291 -0.064962
vn  -1.681433 2.526913 -1.699039
vn  -1.681432 2.478748 1.634079
vn  1.681435 2.526913 1.699039
vn  -0.827502 1.186799 -0.759564
vn  -0.000000 -0.000000 -1.000000
vn  -0.827501 1.234966 0.824526
vn  -1.000000 -0.000000 0.000000
vn  0.827502 0.671770 0.064962
vn  0.000000 -0.000001 1.000000
vn  0.827502 1.234967 -0.824527
vn  1.000000 -0.000000 -0.000000
# 32 vertex normals

g pressed
s 1
f 46/49/46 48/50/48 60/51/60
f 60/51/60 34/52/34 46/49/46
f 49/53/49 64/54/64 40/55/40
f 40/55/40 51/56/51 49/53/49
f 33/41/33 58/42/58 43/43/43
f 43/43/43 37/44/37 33/41/33
f 41/29/41 42/30/42 44/31/44
f 44/31/44 38/32/38 41/29/41
f 36/45/36 47/46/47 52/47/52
f 52/47/52 62/48/62 36/45/36
f 35/33/35 45/34/45 50/35/50
f 50/35/50 39/36/39 35/33/35
f 59/37/59 55/30/55 54/29/54
f 54/29/54 57/38/57 59/37/59
f 63/39/63 53/32/53 56/31/56
f 56/31/56 61/40/61 63/39/63
f 57/38/57 54/29/54 53/32/53
f 53/32/53 63/39/63 57/38/57
f 55/30/55 59/37/59 61/40/61
f 61/40/61 56/31/56 55/30/55
# 20 faces

g
