# Max2Obj Version 4.0 Mar 10th, 2001
#
# object radio to come ...
#
v  19.363077 -0.968224 -81.162773
v  80.971550 -0.968224 -81.162781
v  19.772156 23.103268 -78.894157
v  80.971550 22.014790 -81.162773
v  17.628923 -1.496275 -20.421118
v  82.705711 -1.496275 -20.421114
v  17.628923 22.014786 -20.421116
v  82.705711 22.014786 -20.421118
v  17.628923 -1.496272 -79.327179
v  82.705711 -1.496272 -79.327171
v  19.363077 22.014790 -81.162781
v  19.363081 -0.968225 -18.585516
v  80.971550 -0.968225 -18.585516
v  19.363081 22.014786 -18.585514
v  17.628923 22.014788 -79.327171
v  80.562477 23.103268 -78.894165
v  80.562477 23.103266 -20.854130
v  82.705711 22.014788 -79.327171
v  19.772160 23.103266 -20.854130
v  80.971550 22.014786 -18.585516
v  82.705711 1.286693 -25.305370
v  82.705711 1.286698 -74.442917
v  82.705711 19.231819 -74.442917
v  82.705711 19.231819 -25.305367
v  17.628923 1.286698 -74.442924
v  17.628923 1.286693 -25.305367
v  17.628923 19.231819 -25.305370
v  17.628923 19.231819 -74.442917
v  79.021553 1.286693 -25.305370
v  79.021553 1.286698 -74.442924
v  79.021553 19.231819 -74.442917
v  79.021553 19.231819 -25.305367
v  21.313082 1.286698 -74.442924
v  21.313082 1.286693 -25.305367
v  21.313082 19.231819 -25.305370
v  21.313082 19.231819 -74.442917
v  63.752197 23.316984 -26.344452
v  73.697014 23.316984 -36.289268
v  77.337074 26.227428 -49.874146
v  63.752197 26.227430 -26.344452
v  73.697014 26.227428 -36.289268
v  78.651413 24.772203 -49.874146
v  64.409370 24.772203 -25.206200
v  74.835274 24.772203 -35.632103
v  22.997561 23.316984 -49.874146
v  50.167316 23.316984 -22.704388
v  36.582436 23.316982 -26.344450
v  26.637613 23.316984 -36.289268
v  50.167316 26.227430 -22.704390
v  36.582436 26.227428 -26.344450
v  26.637613 26.227428 -36.289268
v  50.167316 24.772203 -21.390047
v  35.925266 24.772203 -25.206202
v  25.499365 24.772203 -35.632099
v  50.167316 26.227428 -49.874146
v  50.167316 23.316984 -49.874146
v  77.337074 23.316984 -49.874146
v  63.752197 23.316984 -73.403839
v  73.697014 23.316982 -63.459019
v  63.752197 26.227428 -73.403839
v  73.697014 26.227428 -63.459019
v  64.409370 24.772203 -74.542091
v  74.835266 24.772203 -64.116188
v  50.167316 23.316984 -77.043907
v  36.582436 23.316984 -73.403839
v  26.637613 23.316982 -63.459019
v  22.997561 26.227428 -49.874146
v  50.167316 26.227428 -77.043900
v  36.582436 26.227428 -73.403839
v  26.637613 26.227428 -63.459019
v  21.683218 24.772203 -49.874146
v  50.167316 24.772203 -78.358246
v  35.925266 24.772203 -74.542091
v  25.499365 24.772203 -64.116188
v  64.870720 26.265524 -61.081463
v  66.068604 26.825123 -59.370705
v  66.945518 28.353973 -58.118343
v  62.074074 26.265526 -59.123230
v  63.271961 26.825123 -57.412472
v  64.137260 28.333721 -56.176701
v  64.469849 30.442423 -55.701717
v  63.672836 26.825123 -62.792221
v  62.795925 28.353973 -64.044579
v  60.876190 26.825123 -60.833988
v  60.010895 28.333721 -62.069763
v  62.074074 30.442423 -59.123230
v  64.870720 34.619320 -61.081463
v  66.068604 34.059727 -59.370705
v  66.945518 32.530872 -58.118343
v  67.266495 30.442423 -57.659950
v  62.074074 34.619320 -59.123230
v  63.271961 34.059727 -57.412472
v  64.137260 32.551125 -56.176701
v  64.870720 30.442423 -61.081463
v  63.672836 34.059727 -62.792221
v  62.795921 32.530872 -64.044579
v  62.474949 30.442423 -64.502983
v  60.876190 34.059723 -60.833988
v  60.010895 32.551125 -62.069763
v  59.678307 30.442423 -62.544746
v  63.637672 30.007824 -60.901745
v  64.055420 30.007826 -60.305134
v  49.827141 29.767134 -84.073792
v  50.764317 29.767134 -84.730011
v  63.637672 30.851128 -60.901745
v  64.055420 30.851128 -60.305134
v  49.827141 31.091816 -84.073792
v  50.764317 31.091816 -84.730011
v  63.125065 30.007824 -65.444809
v  63.721676 30.007824 -65.862564
v  63.721676 30.851128 -65.862564
v  63.125065 30.851128 -65.444809
v  65.426682 30.007824 -62.154423
v  66.447151 30.851128 -61.979839
v  66.447151 30.007826 -61.979839
v  65.426682 30.851128 -62.154423
v  57.384541 30.007824 -74.912933
v  56.787926 30.851128 -74.495178
v  56.787926 30.007824 -74.495178
v  57.384541 30.851128 -74.912933
v  57.554302 29.767134 -75.032906
v  56.617126 31.091818 -74.376686
v  56.617126 29.767134 -74.376686
v  57.554302 31.091818 -75.032906
v  53.630669 36.712818 -83.485825
v  53.166668 37.578671 -84.985497
v  51.898994 38.212502 -86.083336
v  51.898994 35.213161 -80.888321
v  53.166668 35.846992 -81.986145
v  84.313812 82.846329 -56.850658
v  79.739037 91.382957 -71.636528
v  67.240555 97.632195 -82.460526
v  67.240570 68.060448 -31.240784
v  79.739052 74.309692 -42.064796
v  74.103340 77.106323 -60.164650
v  70.896523 83.090340 -70.529251
v  62.135326 87.470924 -78.116669
v  62.135330 66.741707 -42.212627
v  70.896523 71.122314 -49.800041
v  66.971954 75.710098 -72.173859
v  69.571632 70.859001 -63.771542
v  59.869476 79.261330 -78.324776
v  59.869480 62.456684 -49.218296
v  66.971947 66.007927 -55.369225
v  58.632534 61.925922 -74.572510
v  55.054714 63.714832 -77.671005
v  55.054714 55.249630 -63.008812
v  58.632534 57.038532 -66.107300
v  59.942112 59.482231 -70.339912
v  46.703960 36.712826 -83.485832
v  47.167961 37.578659 -84.985512
v  48.435635 38.212482 -86.083351
v  50.167313 38.444504 -86.485191
v  50.167313 34.981152 -80.486488
v  48.435635 35.213142 -80.888313
v  47.167961 35.846981 -81.986145
v  16.020819 82.846329 -56.850658
v  20.595594 91.382965 -71.636528
v  33.094070 97.632195 -82.460526
v  50.167313 99.919601 -86.422386
v  50.167313 65.773056 -27.278931
v  33.094063 68.060440 -31.240784
v  20.595573 74.309692 -42.064793
v  50.167313 56.287575 -72.184349
v  26.231289 77.106316 -60.164642
v  29.438099 83.090340 -70.529251
v  38.199303 87.470917 -78.116661
v  50.167313 89.074341 -80.893860
v  50.167313 65.138306 -39.435440
v  38.199299 66.741699 -42.212624
v  29.438105 71.122314 -49.800041
v  33.362682 75.710098 -72.173859
v  30.762991 70.859001 -63.771534
v  40.465149 79.261330 -78.324776
v  50.167313 80.561165 -80.576164
v  50.167313 61.156830 -46.966896
v  40.465149 62.456684 -49.218296
v  33.362671 66.007927 -55.369225
v  41.702091 61.925922 -74.572517
v  45.279911 63.714840 -77.671005
v  50.167313 64.369621 -78.805122
v  50.167313 54.594833 -61.874691
v  45.279911 55.249615 -63.008812
v  41.702087 57.038532 -66.107300
v  40.392521 59.482224 -70.339905
v  50.167313 36.712826 -83.485825
v  47.312225 20.121933 -79.759033
v  52.949066 20.121933 -79.759033
v  47.312225 20.121933 -86.889534
v  53.837330 19.409317 -86.889534
v  46.423965 13.275578 -79.759033
v  53.837330 13.275578 -79.759033
v  46.423965 13.275578 -86.889534
v  53.837330 13.275578 -86.889534
v  46.423965 19.409317 -79.759033
v  53.837330 19.409317 -79.759033
v  46.423965 19.409317 -86.889534
v  52.949066 20.121933 -86.889534
v  47.312225 12.562958 -79.759033
v  52.949066 12.562958 -79.759033
v  47.312225 12.562962 -86.889534
v  52.949066 12.562962 -86.889534
v  50.130646 16.342445 -79.759033
v  50.130646 16.342447 -86.889534
v  48.532806 18.297869 -82.335503
v  51.728489 18.297869 -82.335503
v  48.532806 37.200687 -82.335503
v  52.232071 37.200687 -82.697556
v  48.029224 18.297869 -85.813934
v  52.232071 18.297869 -85.813934
v  48.029224 37.200687 -85.813934
v  52.232071 37.200687 -85.813934
v  48.029224 18.297869 -82.697556
v  52.232071 18.297869 -82.697556
v  48.029224 37.200687 -82.697556
v  51.728489 37.200687 -82.335503
v  48.532806 18.297869 -86.175987
v  51.728489 18.297869 -86.175987
v  48.532806 37.200687 -86.175987
v  51.728489 37.200687 -86.175987
v  50.130650 18.297869 -84.255745
v  50.130650 37.200687 -84.255745
v  77.670753 17.496973 -62.168739
v  77.670753 17.496973 -63.571297
v  77.670753 19.120937 -62.168739
v  77.670753 19.120939 -63.571297
v  83.896851 13.970278 -62.423580
v  83.896851 13.970278 -63.316456
v  84.930687 13.970278 -63.316456
v  84.930687 13.970279 -62.423580
v  93.531723 11.258474 -63.724945
v  93.528130 11.258477 -62.020031
v  83.637978 17.792042 -63.316456
v  83.637978 18.825871 -62.423576
v  83.637978 17.792042 -62.423580
v  83.637978 18.825871 -63.316456
v  83.636864 17.496973 -63.571297
v  83.636864 19.120937 -62.168739
v  83.636864 17.496973 -62.168739
v  83.636864 19.120939 -63.571297
v  83.896851 17.810942 -62.423580
v  84.930687 17.810942 -63.316456
v  83.896851 17.810942 -63.316456
v  84.930687 17.810942 -62.423580
v  83.909264 9.764540 -63.319855
v  84.924950 10.798370 -62.422401
v  83.908188 9.764540 -62.422401
v  84.926033 10.798369 -63.319855
v  93.531723 9.304433 -63.724945
v  93.528130 9.304433 -62.020031
v  87.105301 9.304433 -62.021141
v  87.125320 11.258474 -63.721733
v  87.105362 9.304433 -63.721733
v  87.125259 11.258477 -62.021141
v  90.311348 8.415882 -61.246304
v  90.333900 12.147025 -64.497620
v  90.314842 8.415882 -64.497620
v  90.330406 12.147033 -61.246304
v  19.772156 23.103268 -78.894157
v  80.971550 22.014790 -81.162773
v  17.628923 22.014786 -20.421116
v  82.705711 22.014786 -20.421118
v  19.363077 22.014790 -81.162781
v  19.363081 22.014786 -18.585514
v  17.628923 22.014788 -79.327171
v  80.562477 23.103268 -78.894165
v  80.562477 23.103266 -20.854130
v  82.705711 22.014788 -79.327171
v  19.772160 23.103266 -20.854130
v  80.971550 22.014786 -18.585516
v  19.363077 -0.968224 -81.162773
v  80.971550 -0.968224 -81.162781
v  17.628923 -1.496275 -20.421118
v  17.628923 -1.496275 -20.421118
v  82.705711 -1.496275 -20.421114
v  82.705711 -1.496275 -20.421114
v  17.628923 -1.496272 -79.327179
v  17.628923 -1.496272 -79.327179
v  82.705711 -1.496272 -79.327171
v  82.705711 -1.496272 -79.327171
v  19.363081 -0.968225 -18.585516
v  80.971550 -0.968225 -18.585516
v  80.971550 -0.968224 -81.162781
v  82.705711 -1.496272 -79.327171
v  80.971550 -0.968225 -18.585516
v  19.363081 22.014786 -18.585514
v  17.628923 22.014788 -79.327171
v  80.971550 22.014790 -81.162773
v  17.628923 22.014786 -20.421116
v  82.705711 22.014786 -20.421118
v  19.363077 22.014790 -81.162781
v  82.705711 22.014788 -79.327171
v  80.971550 22.014786 -18.585516
v  19.363077 -0.968224 -81.162773
v  17.628923 -1.496275 -20.421118
v  82.705711 -1.496275 -20.421114
v  17.628923 -1.496272 -79.327179
v  19.363081 -0.968225 -18.585516
v  82.705711 1.286693 -25.305370
v  82.705711 1.286698 -74.442917
v  82.705711 19.231819 -74.442917
v  82.705711 19.231819 -25.305367
v  17.628923 1.286698 -74.442924
v  17.628923 1.286693 -25.305367
v  17.628923 19.231819 -25.305370
v  17.628923 19.231819 -74.442917
v  17.628923 1.286698 -74.442924
v  17.628923 19.231819 -74.442917
v  21.313082 1.286698 -74.442924
v  21.313082 1.286698 -74.442924
v  21.313082 1.286693 -25.305367
v  21.313082 1.286693 -25.305367
v  21.313082 19.231819 -25.305370
v  21.313082 19.231819 -25.305370
v  21.313082 19.231819 -74.442917
v  21.313082 19.231819 -74.442917
v  17.628923 1.286693 -25.305367
v  17.628923 19.231819 -25.305370
v  82.705711 1.286693 -25.305370
v  82.705711 19.231819 -25.305367
v  79.021553 1.286693 -25.305370
v  79.021553 1.286693 -25.305370
v  79.021553 1.286698 -74.442924
v  79.021553 1.286698 -74.442924
v  79.021553 19.231819 -74.442917
v  79.021553 19.231819 -74.442917
v  79.021553 19.231819 -25.305367
v  79.021553 19.231819 -25.305367
v  82.705711 1.286698 -74.442917
v  82.705711 19.231819 -74.442917
v  63.752197 23.316984 -26.344452
v  73.697014 23.316984 -36.289268
v  77.337074 26.227428 -49.874146
v  63.752197 26.227430 -26.344452
v  73.697014 26.227428 -36.289268
v  78.651413 24.772203 -49.874146
v  64.409370 24.772203 -25.206200
v  74.835274 24.772203 -35.632103
v  22.997561 23.316984 -49.874146
v  50.167316 23.316984 -22.704388
v  36.582436 23.316982 -26.344450
v  26.637613 23.316984 -36.289268
v  50.167316 26.227430 -22.704390
v  36.582436 26.227428 -26.344450
v  26.637613 26.227428 -36.289268
v  50.167316 24.772203 -21.390047
v  35.925266 24.772203 -25.206202
v  25.499365 24.772203 -35.632099
v  77.337074 23.316984 -49.874146
v  63.752197 23.316984 -73.403839
v  73.697014 23.316982 -63.459019
v  63.752197 26.227428 -73.403839
v  73.697014 26.227428 -63.459019
v  64.409370 24.772203 -74.542091
v  74.835266 24.772203 -64.116188
v  50.167316 23.316984 -77.043907
v  36.582436 23.316984 -73.403839
v  26.637613 23.316982 -63.459019
v  22.997561 26.227428 -49.874146
v  50.167316 26.227428 -77.043900
v  36.582436 26.227428 -73.403839
v  26.637613 26.227428 -63.459019
v  21.683218 24.772203 -49.874146
v  50.167316 24.772203 -78.358246
v  35.925266 24.772203 -74.542091
v  25.499365 24.772203 -64.116188
v  84.313812 82.846329 -56.850658
v  79.739037 91.382957 -71.636528
v  67.240555 97.632195 -82.460526
v  67.240570 68.060448 -31.240784
v  79.739052 74.309692 -42.064796
v  16.020819 82.846329 -56.850658
v  20.595594 91.382965 -71.636528
v  33.094070 97.632195 -82.460526
v  50.167313 99.919601 -86.422386
v  50.167313 65.773056 -27.278931
v  33.094063 68.060440 -31.240784
v  20.595573 74.309692 -42.064793
v  53.630669 36.712818 -83.485825
v  53.166668 37.578671 -84.985497
v  51.898994 38.212502 -86.083336
v  51.898994 35.213161 -80.888321
v  53.166668 35.846992 -81.986145
v  46.703960 36.712826 -83.485832
v  47.167961 37.578659 -84.985512
v  48.435635 38.212482 -86.083351
v  50.167313 38.444504 -86.485191
v  50.167313 34.981152 -80.486488
v  48.435635 35.213142 -80.888313
v  47.167961 35.846981 -81.986145
v  64.870720 26.265524 -61.081463
v  66.068604 26.825123 -59.370705
v  66.945518 28.353973 -58.118343
v  62.074074 26.265526 -59.123230
v  63.271961 26.825123 -57.412472
v  64.137260 28.333721 -56.176701
v  64.469849 30.442423 -55.701717
v  63.672836 26.825123 -62.792221
v  62.795925 28.353973 -64.044579
v  60.876190 26.825123 -60.833988
v  60.010895 28.333721 -62.069763
v  64.870720 34.619320 -61.081463
v  66.068604 34.059727 -59.370705
v  66.945518 32.530872 -58.118343
v  67.266495 30.442423 -57.659950
v  62.074074 34.619320 -59.123230
v  63.271961 34.059727 -57.412472
v  64.137260 32.551125 -56.176701
v  63.672836 34.059727 -62.792221
v  62.795921 32.530872 -64.044579
v  62.474949 30.442423 -64.502983
v  60.876190 34.059723 -60.833988
v  60.010895 32.551125 -62.069763
v  59.678307 30.442423 -62.544746
v  63.637672 30.851128 -60.901745
v  64.055420 30.851128 -60.305134
v  49.827141 31.091816 -84.073792
v  50.764317 31.091816 -84.730011
v  63.721676 30.851128 -65.862564
v  63.125065 30.851128 -65.444809
v  66.447151 30.851128 -61.979839
v  65.426682 30.851128 -62.154423
v  56.787926 30.851128 -74.495178
v  57.384541 30.851128 -74.912933
v  56.617126 31.091818 -74.376686
v  57.554302 31.091818 -75.032906
v  63.637672 30.007824 -60.901745
v  64.055420 30.007826 -60.305134
v  49.827141 29.767134 -84.073792
v  50.764317 29.767134 -84.730011
v  63.125065 30.007824 -65.444809
v  63.721676 30.007824 -65.862564
v  65.426682 30.007824 -62.154423
v  66.447151 30.007826 -61.979839
v  57.384541 30.007824 -74.912933
v  56.787926 30.007824 -74.495178
v  57.554302 29.767134 -75.032906
v  56.617126 29.767134 -74.376686
v  77.670753 19.120937 -62.168739
v  77.670753 19.120939 -63.571297
v  84.930687 13.970278 -63.316456
v  84.930687 13.970279 -62.423580
v  83.637978 18.825871 -62.423576
v  83.637978 18.825871 -63.316456
v  83.636864 19.120937 -62.168739
v  83.636864 19.120939 -63.571297
v  84.930687 17.810942 -63.316456
v  84.930687 17.810942 -62.423580
v  84.924950 10.798370 -62.422401
v  84.926033 10.798369 -63.319855
v  87.125320 11.258474 -63.721733
v  87.125259 11.258477 -62.021141
v  90.333900 12.147025 -64.497620
v  90.330406 12.147033 -61.246304
v  77.670753 17.496973 -62.168739
v  77.670753 17.496973 -63.571297
v  83.896851 13.970278 -62.423580
v  83.896851 13.970278 -63.316456
v  83.637978 17.792042 -63.316456
v  83.637978 17.792042 -62.423580
v  83.636864 17.496973 -63.571297
v  83.636864 17.496973 -62.168739
v  83.896851 17.810942 -62.423580
v  83.896851 17.810942 -63.316456
v  83.909264 9.764540 -63.319855
v  83.908188 9.764540 -62.422401
v  87.105301 9.304433 -62.021141
v  87.105362 9.304433 -63.721733
v  90.311348 8.415882 -61.246304
v  90.314842 8.415882 -64.497620
v  93.531723 11.258474 -63.724945
v  93.528130 11.258477 -62.020031
v  93.531723 9.304433 -63.724945
v  93.528130 9.304433 -62.020031
v  48.532806 37.200687 -82.335503
v  52.232071 37.200687 -82.697556
v  48.029224 37.200687 -85.813934
v  52.232071 37.200687 -85.813934
v  48.029224 37.200687 -82.697556
v  51.728489 37.200687 -82.335503
v  48.532806 37.200687 -86.175987
v  51.728489 37.200687 -86.175987
v  48.532806 18.297869 -82.335503
v  51.728489 18.297869 -82.335503
v  48.029224 18.297869 -85.813934
v  52.232071 18.297869 -85.813934
v  48.029224 18.297869 -82.697556
v  52.232071 18.297869 -82.697556
v  48.532806 18.297869 -86.175987
v  51.728489 18.297869 -86.175987
v  48.532806 18.297869 -82.335503
v  48.029224 18.297869 -85.813934
v  52.232071 37.200687 -85.813934
v  48.029224 18.297869 -82.697556
v  48.532806 18.297869 -86.175987
v  51.728489 37.200687 -86.175987
v  48.532806 37.200687 -82.335503
v  52.232071 37.200687 -82.697556
v  48.029224 37.200687 -85.813934
v  48.029224 37.200687 -82.697556
v  51.728489 37.200687 -82.335503
v  48.532806 37.200687 -86.175987
v  51.728489 18.297869 -82.335503
v  52.232071 18.297869 -85.813934
v  52.232071 18.297869 -82.697556
v  51.728489 18.297869 -86.175987
v  47.312225 20.121933 -86.889534
v  53.837330 19.409317 -86.889534
v  46.423965 13.275578 -86.889534
v  53.837330 13.275578 -86.889534
v  46.423965 19.409317 -86.889534
v  52.949066 20.121933 -86.889534
v  47.312225 12.562962 -86.889534
v  52.949066 12.562962 -86.889534
v  53.837330 13.275578 -86.889534
v  52.949066 12.562962 -86.889534
v  47.312225 20.121933 -86.889534
v  53.837330 19.409317 -86.889534
v  46.423965 13.275578 -86.889534
v  46.423965 19.409317 -86.889534
v  52.949066 20.121933 -86.889534
v  47.312225 12.562962 -86.889534
v  74.103340 77.106323 -60.164650
v  70.896523 83.090340 -70.529251
v  62.135326 87.470924 -78.116669
v  62.135330 66.741707 -42.212627
v  70.896523 71.122314 -49.800041
v  26.231289 77.106316 -60.164642
v  29.438099 83.090340 -70.529251
v  38.199303 87.470917 -78.116661
v  50.167313 89.074341 -80.893860
v  50.167313 65.138306 -39.435440
v  38.199299 66.741699 -42.212624
v  29.438105 71.122314 -49.800041
# 534 vertices

vt  0.058402 0.569966 0.999500
vt  0.059417 0.568709 0.978056
vt  0.095479 0.568709 0.978056
vt  0.096494 0.569966 0.999501
vt  0.296399 0.294734 0.000500
vt  0.033059 0.294734 0.000500
vt  0.033059 0.528443 0.000499
vt  0.296399 0.528443 0.000500
vt  0.033059 0.281683 0.044703
vt  0.296399 0.281683 0.044704
vt  0.296399 0.541494 0.044703
vt  0.033059 0.541494 0.044703
vt  0.310342 0.294734 0.044704
vt  0.310342 0.528443 0.044703
vt  0.019116 0.294734 0.044703
vt  0.019116 0.528443 0.044703
vt  0.096494 0.598883 0.999500
vt  0.095479 0.600495 0.978056
vt  0.059417 0.600495 0.978056
vt  0.058402 0.598883 0.999500
vt  0.859771 0.256622 1.310761
vt  0.859771 0.020681 1.310761
vt  0.021580 0.256622 1.310761
vt  0.021580 0.020681 1.310761
vt  0.451681 0.020681 1.310761
vt  0.451681 0.256622 1.310760
vt  0.451673 0.256622 1.310761
vt  0.859779 0.256622 1.310761
vt  0.859779 0.020681 1.310761
vt  0.451673 0.020681 1.310760
vt  0.511122 0.210313 1.136944
vt  0.511122 0.069670 1.136944
vt  0.800331 0.069670 1.136944
vt  0.800331 0.210313 1.136944
vt  0.800331 0.069670 1.136944
vt  0.800331 0.210313 1.136944
vt  0.511122 0.210313 1.136944
vt  0.511122 0.069670 1.136944
vt  0.844482 0.256622 1.314470
vt  0.844482 0.020681 1.314470
vt  0.466970 0.020681 1.314470
vt  0.466970 0.256622 1.314470
vt  0.844491 0.256622 1.314470
vt  0.844491 0.020681 1.314470
vt  0.466961 0.020681 1.314470
vt  0.466961 0.256622 1.314471
vt  0.498278 0.222032 1.227129
vt  0.813174 0.222032 1.227129
vt  0.498278 0.057951 1.227129
vt  0.813174 0.057951 1.227129
vt  0.498278 0.222032 1.227129
vt  0.813174 0.222032 1.227129
vt  0.498278 0.057951 1.227129
vt  0.813174 0.057951 1.227129
vt  0.021571 0.256622 1.310761
vt  0.021571 0.020681 1.310761
vt  0.823041 0.945396 1.000000
vt  0.415587 0.945396 1.000000
vt  0.551405 0.945396 1.000000
vt  0.687223 0.945396 1.000000
vt  0.823041 0.945396 1.000000
vt  0.415587 0.945396 1.000000
vt  0.551405 0.945396 1.000000
vt  0.687223 0.945396 1.000000
vt  0.205125 0.660438 -0.250000
vt  0.343282 0.798594 -0.250000
vt  0.393851 0.987320 -0.250000
vt  0.016400 0.609869 -0.250000
vt  0.016400 0.609869 0.250000
vt  0.393851 0.987320 0.250000
vt  0.343282 0.798594 0.250000
vt  0.205125 0.660438 0.250000
vt  0.823041 0.984118 1.000000
vt  0.415587 0.984118 1.000000
vt  0.551405 0.984118 1.000000
vt  0.687223 0.984118 1.000000
vt  0.016400 0.987320 0.250000
vt  0.016400 0.987320 -0.250000
vt  0.823041 0.945396 1.000000
vt  0.415587 0.945396 1.000000
vt  0.551405 0.945396 1.000000
vt  0.687223 0.945396 1.000000
vt  0.823041 0.945396 1.000000
vt  0.415587 0.945396 1.000000
vt  0.551405 0.945396 1.000000
vt  0.687223 0.945396 1.000000
vt  0.205125 0.660438 -0.250000
vt  0.343282 0.798594 -0.250000
vt  0.393851 0.987320 -0.250000
vt  0.016400 0.609869 -0.250000
vt  0.016400 0.609869 0.250000
vt  0.393851 0.987320 0.250000
vt  0.343282 0.798594 0.250000
vt  0.205125 0.660438 0.250000
vt  0.823041 0.984118 1.000000
vt  0.415587 0.984118 1.000000
vt  0.551405 0.984118 1.000000
vt  0.687223 0.984118 1.000000
vt  0.016400 0.987320 0.250000
vt  0.016400 0.987320 -0.250000
vt  0.823041 0.945396 1.000000
vt  0.415587 0.945396 1.000000
vt  0.551405 0.945396 1.000000
vt  0.687223 0.945396 1.000000
vt  0.823041 0.945396 1.000000
vt  0.415587 0.945396 1.000000
vt  0.551405 0.945396 1.000000
vt  0.687223 0.945396 1.000000
vt  0.205125 0.660438 -0.250000
vt  0.343282 0.798594 -0.250000
vt  0.393851 0.987320 -0.250000
vt  0.016400 0.609869 -0.250000
vt  0.016400 0.609869 0.250000
vt  0.393851 0.987320 0.250000
vt  0.343282 0.798594 0.250000
vt  0.205125 0.660438 0.250000
vt  0.823041 0.984118 1.000000
vt  0.415587 0.984118 1.000000
vt  0.551405 0.984118 1.000000
vt  0.687223 0.984118 1.000000
vt  0.016400 0.987320 0.250000
vt  0.016400 0.987320 -0.250000
vt  0.823041 0.945396 1.000000
vt  0.415587 0.945396 1.000000
vt  0.551405 0.945396 1.000000
vt  0.687223 0.945396 1.000000
vt  0.823041 0.945396 1.000000
vt  0.415587 0.945396 1.000000
vt  0.551405 0.945396 1.000000
vt  0.687223 0.945396 1.000000
vt  0.205125 0.660438 -0.250000
vt  0.343282 0.798594 -0.250000
vt  0.393851 0.987320 -0.250000
vt  0.016400 0.609869 -0.250000
vt  0.016400 0.609869 0.250000
vt  0.393851 0.987320 0.250000
vt  0.343282 0.798594 0.250000
vt  0.205125 0.660438 0.250000
vt  0.823041 0.984118 1.000000
vt  0.415587 0.984118 1.000000
vt  0.551405 0.984118 1.000000
vt  0.687223 0.984118 1.000000
vt  0.016400 0.987320 0.250000
vt  0.016400 0.987320 -0.250000
vt  0.333100 0.398202 1.000000
vt  0.382928 0.398202 1.000000
vt  0.432756 0.398202 1.000000
vt  0.482585 0.398202 1.000000
vt  0.333100 0.484571 1.000000
vt  0.382928 0.484571 1.000000
vt  0.432096 0.484571 1.000000
vt  0.482585 0.484571 1.000000
vt  0.578960 0.395455 -0.250000
vt  0.568736 0.432934 -0.250000
vt  0.541482 0.460188 -0.250000
vt  0.503902 0.470230 -0.250000
vt  0.503902 0.470230 0.250000
vt  0.541482 0.460188 0.250000
vt  0.568736 0.432934 0.250000
vt  0.578960 0.395455 0.250000
vt  0.503902 0.395455 -0.250000
vt  0.503902 0.395455 0.250000
vt  0.333100 0.398202 1.000000
vt  0.382928 0.398202 1.000000
vt  0.432756 0.398202 1.000000
vt  0.482585 0.398202 1.000000
vt  0.333100 0.484571 1.000000
vt  0.382928 0.484571 1.000000
vt  0.432096 0.484571 1.000000
vt  0.482585 0.484571 1.000000
vt  0.578960 0.395455 -0.250000
vt  0.568736 0.432934 -0.250000
vt  0.541482 0.460188 -0.250000
vt  0.503902 0.470230 -0.250000
vt  0.503902 0.470230 0.250000
vt  0.541482 0.460188 0.250000
vt  0.568736 0.432934 0.250000
vt  0.578960 0.395455 0.250000
vt  0.503902 0.395455 -0.250000
vt  0.503902 0.395455 0.250000
vt  0.333100 0.398202 1.000000
vt  0.382928 0.398202 1.000000
vt  0.432756 0.398202 1.000000
vt  0.482585 0.398202 1.000000
vt  0.333100 0.484571 1.000000
vt  0.382928 0.484571 1.000000
vt  0.432096 0.484571 1.000000
vt  0.482585 0.484571 1.000000
vt  0.578960 0.395455 -0.250000
vt  0.568736 0.432934 -0.250000
vt  0.541482 0.460188 -0.250000
vt  0.503902 0.470230 -0.250000
vt  0.503902 0.470230 0.250000
vt  0.541482 0.460188 0.250000
vt  0.568736 0.432934 0.250000
vt  0.578960 0.395455 0.250000
vt  0.503902 0.395455 -0.250000
vt  0.503902 0.395455 0.250000
vt  0.333100 0.398202 1.000000
vt  0.382928 0.398202 1.000000
vt  0.432756 0.398202 1.000000
vt  0.482585 0.398202 1.000000
vt  0.333100 0.484571 1.000000
vt  0.382928 0.484571 1.000000
vt  0.432096 0.484571 1.000000
vt  0.482585 0.484571 1.000000
vt  0.578960 0.395455 -0.250000
vt  0.568736 0.432934 -0.250000
vt  0.541482 0.460188 -0.250000
vt  0.503902 0.470230 -0.250000
vt  0.503902 0.470230 0.250000
vt  0.541482 0.460188 0.250000
vt  0.568736 0.432934 0.250000
vt  0.578960 0.395455 0.250000
vt  0.503902 0.395455 -0.250000
vt  0.503902 0.395455 0.250000
vt  0.787111 0.272417 0.999501
vt  0.714257 0.272417 0.065242
vt  0.714257 0.292940 0.065242
vt  0.787111 0.292940 0.999501
vt  0.334602 0.272417 0.366578
vt  0.501128 0.272417 0.366579
vt  0.501128 0.292940 0.366579
vt  0.334602 0.292940 0.366578
vt  0.656560 0.272417 0.067015
vt  0.505831 0.272417 0.067015
vt  0.505831 0.292940 0.067015
vt  0.656560 0.292940 0.067015
vt  0.656560 0.272417 0.300064
vt  0.714257 0.272417 0.300678
vt  0.714257 0.292940 0.300678
vt  0.656560 0.292940 0.300064
vt  0.787111 0.272417 0.999501
vt  0.787111 0.292940 0.999501
vt  0.505831 0.272417 0.300064
vt  0.505831 0.292940 0.300064
vt  0.501128 0.272417 0.000500
vt  0.501128 0.292940 0.000500
vt  0.334602 0.272417 0.000500
vt  0.334602 0.292940 0.000499
vt  0.787111 0.301707 0.182014
vt  0.718169 0.301707 0.182014
vt  0.718169 0.323221 0.182014
vt  0.787111 0.323221 0.182014
vt  0.787111 0.301707 0.817986
vt  0.787111 0.323221 0.817986
vt  0.718169 0.323221 0.817986
vt  0.718169 0.301707 0.817986
vt  0.656560 0.301707 0.182014
vt  0.505831 0.301707 0.182014
vt  0.505831 0.323221 0.182014
vt  0.656560 0.323221 0.182014
vt  0.656560 0.323221 0.817986
vt  0.505831 0.323221 0.817986
vt  0.505831 0.301707 0.817986
vt  0.656560 0.301707 0.817986
vt  0.501128 0.301707 0.000499
vt  0.501128 0.323221 0.000499
vt  0.501128 0.323221 0.999501
vt  0.501128 0.301707 0.999501
vt  0.334602 0.301707 0.000499
vt  0.334602 0.323221 0.000499
vt  0.334602 0.323221 0.999501
vt  0.334602 0.301707 0.999501
vt  0.394579 0.918303 0.555362
vt  0.394579 0.735144 0.999500
vt  0.495360 0.759618 0.999500
vt  0.569137 0.826659 0.999500
vt  0.596142 0.918303 0.999500
vt  0.569137 0.826788 0.999500
vt  0.495360 0.759747 0.999500
vt  0.394579 0.735144 0.999500
vt  0.371979 0.720028 0.000500
vt  0.367923 0.736685 0.000500
vt  0.341707 0.720028 0.000500
vt  0.315491 0.736685 0.000500
vt  0.311436 0.720028 0.000500
vt  0.356843 0.748878 0.000500
vt  0.341707 0.753341 0.000500
vt  0.326571 0.748878 0.000500
vt  0.233017 0.613153 0.943187
vt  0.233017 0.619498 0.950732
vt  0.476466 0.653080 0.732074
vt  0.476466 0.618284 0.690703
vt  0.233017 0.626298 0.971344
vt  0.476466 0.690365 0.845102
vt  0.233017 0.633784 0.999501
vt  0.476466 0.731416 0.999501
vt  0.233017 0.592522 0.999501
vt  0.233017 0.600008 0.971344
vt  0.476466 0.546203 0.845102
vt  0.476466 0.505153 0.999501
vt  0.233017 0.606808 0.950732
vt  0.476466 0.583488 0.732074
vt  0.901913 0.618284 0.000499
vt  0.982022 0.618284 0.277430
vt  0.982022 0.505857 0.374169
vt  0.901913 0.505857 0.134340
vt  0.901913 0.730711 0.134340
vt  0.982022 0.730711 0.374169
vt  0.901913 0.852023 0.500000
vt  0.982022 0.852023 0.638465
vt  0.901913 0.983813 0.999500
vt  0.982022 0.983813 0.999500
vt  0.982022 0.252755 0.999501
vt  0.901913 0.252755 0.999501
vt  0.901913 0.384545 0.500000
vt  0.982022 0.384545 0.638465
vt  0.731541 0.686860 0.472455
vt  0.731541 0.618284 0.390921
vt  0.731541 0.760342 0.695211
vt  0.731541 0.841244 0.999500
vt  0.731541 0.476226 0.695211
vt  0.731541 0.395324 0.999501
vt  0.731541 0.549708 0.472455
vt  0.394579 0.918303 0.555362
vt  0.394579 0.735144 0.999500
vt  0.495360 0.759618 0.999500
vt  0.569137 0.826659 0.999500
vt  0.596142 0.918303 0.999500
vt  0.569137 0.826788 0.999500
vt  0.495360 0.759747 0.999500
vt  0.394579 0.735144 0.999500
vt  0.371979 0.720028 0.000500
vt  0.367923 0.736685 0.000500
vt  0.341707 0.720028 0.000500
vt  0.315491 0.736685 0.000500
vt  0.311436 0.720028 0.000500
vt  0.356843 0.748878 0.000500
vt  0.341707 0.753341 0.000500
vt  0.326571 0.748878 0.000500
vt  0.233017 0.613153 0.943187
vt  0.233017 0.619498 0.950732
vt  0.476466 0.653080 0.732074
vt  0.476466 0.618284 0.690703
vt  0.233017 0.626298 0.971344
vt  0.476466 0.690365 0.845102
vt  0.233017 0.633784 0.999501
vt  0.476466 0.731416 0.999501
vt  0.233017 0.592522 0.999501
vt  0.233017 0.600008 0.971344
vt  0.476466 0.546203 0.845102
vt  0.476466 0.505153 0.999501
vt  0.233017 0.606808 0.950732
vt  0.476466 0.583488 0.732074
vt  0.901913 0.618284 0.000499
vt  0.982022 0.618284 0.277430
vt  0.982022 0.505857 0.374169
vt  0.901913 0.505857 0.134340
vt  0.901913 0.730711 0.134340
vt  0.982022 0.730711 0.374169
vt  0.901913 0.852023 0.500000
vt  0.982022 0.852023 0.638465
vt  0.901913 0.983813 0.999500
vt  0.982022 0.983813 0.999500
vt  0.982022 0.252755 0.999501
vt  0.901913 0.252755 0.999501
vt  0.901913 0.384545 0.500000
vt  0.982022 0.384545 0.638465
vt  0.731541 0.686860 0.472455
vt  0.731541 0.618284 0.390921
vt  0.731541 0.760342 0.695211
vt  0.731541 0.841244 0.999500
vt  0.731541 0.476226 0.695211
vt  0.731541 0.395324 0.999501
vt  0.731541 0.549708 0.472455
vt  0.394579 0.918303 0.555362
vt  0.394579 0.918303 0.555362
vt  0.394579 0.918303 0.555362
vt  0.394579 0.918303 0.555362
vt  0.394579 0.918303 0.555362
vt  0.596142 0.918303 0.999500
vt  0.394579 0.918303 0.555362
vt  0.394579 0.918303 0.555362
vt  0.394579 0.918303 0.555362
vt  0.394579 0.918303 0.555362
vt  0.394579 0.918303 0.555362
vt  0.596142 0.918303 0.999500
vt  0.148469 0.621912 0.000500
vt  0.193880 0.621912 0.000500
vt  0.171174 0.592050 0.000500
vt  0.193880 0.562188 0.999501
vt  0.171174 0.592050 0.999501
vt  0.141313 0.567819 0.999501
vt  0.148469 0.562188 0.999501
vt  0.201036 0.616281 0.000500
vt  0.201036 0.567819 0.000500
vt  0.193880 0.562188 0.000500
vt  0.148469 0.562188 0.000500
vt  0.141313 0.567819 0.000500
vt  0.141313 0.616281 0.000500
vt  0.148469 0.621912 0.999501
vt  0.141313 0.616281 0.999501
vt  0.201036 0.567819 0.999501
vt  0.201036 0.616281 0.999501
vt  0.193880 0.621912 0.999501
vt  0.695220 0.843531 1.164130
vt  0.695220 0.921276 1.164131
vt  0.617358 0.843531 1.164130
vt  0.644082 0.843531 1.164131
vt  0.644082 0.921276 1.164131
vt  0.617358 0.921276 1.164131
vt  0.644082 0.843531 1.164131
vt  0.644082 0.921276 1.164130
vt  0.695220 0.921276 1.164130
vt  0.695220 0.843531 1.164131
vt  0.649804 0.843531 1.129144
vt  0.689499 0.843531 1.129144
vt  0.689499 0.921276 1.129144
vt  0.649804 0.921276 1.129144
vt  0.689499 0.921276 1.129144
vt  0.649804 0.921276 1.129144
vt  0.649804 0.843531 1.129144
vt  0.689499 0.843531 1.129144
vt  0.617358 0.921276 1.164130
vt  0.617358 0.843531 1.164131
vt  0.148469 0.621912 0.000500
vt  0.193880 0.621912 0.000500
vt  0.171174 0.592050 0.000500
vt  0.193880 0.562188 0.999501
vt  0.171174 0.592050 0.999501
vt  0.141313 0.567819 0.999501
vt  0.148469 0.562188 0.999501
vt  0.201036 0.616281 0.000500
vt  0.201036 0.567819 0.000500
vt  0.193880 0.562188 0.000500
vt  0.148469 0.562188 0.000500
vt  0.141313 0.567819 0.000500
vt  0.141313 0.616281 0.000500
vt  0.148469 0.621912 0.999501
vt  0.141313 0.616281 0.999501
vt  0.201036 0.567819 0.999501
vt  0.201036 0.616281 0.999501
vt  0.193880 0.621912 0.999501
vt  0.990193 0.017580 1.164130
vt  0.990193 0.232058 1.164131
vt  0.877407 0.017580 1.164130
vt  0.922282 0.017580 1.164131
vt  0.922282 0.232058 1.164131
vt  0.877407 0.232058 1.164131
vt  0.922282 0.017580 1.164131
vt  0.922282 0.232058 1.164130
vt  0.990193 0.232058 1.164130
vt  0.990193 0.017580 1.164131
vt  0.929880 0.017580 1.129144
vt  0.982595 0.017580 1.129144
vt  0.982595 0.232058 1.129144
vt  0.929880 0.232058 1.129144
vt  0.982595 0.232058 1.129144
vt  0.929880 0.232058 1.129144
vt  0.929880 0.017580 1.129144
vt  0.982595 0.017580 1.129144
vt  0.877407 0.232058 1.164130
vt  0.877407 0.017580 1.164131
vt  0.335830 0.362310 0.908397
vt  0.430652 0.362310 0.908397
vt  0.430652 0.377680 0.908397
vt  0.335830 0.377680 0.908397
vt  0.483910 0.362310 0.241857
vt  0.453916 0.362310 0.241857
vt  0.453916 0.377680 0.241857
vt  0.483910 0.377680 0.241857
vt  0.483910 0.362310 0.760399
vt  0.524542 0.362310 0.761082
vt  0.524542 0.377680 0.761082
vt  0.483910 0.377680 0.760399
vt  0.663949 0.362310 0.237913
vt  0.630493 0.362310 0.000500
vt  0.630493 0.377680 0.000499
vt  0.663949 0.377680 0.237913
vt  0.436846 0.362310 0.760399
vt  0.453916 0.362310 0.760398
vt  0.453916 0.377680 0.760398
vt  0.436846 0.377680 0.760399
vt  0.436846 0.362310 0.241857
vt  0.430652 0.362310 0.093859
vt  0.430652 0.377680 0.093859
vt  0.436846 0.377680 0.241857
vt  0.335830 0.362310 0.093859
vt  0.335830 0.377680 0.093859
vt  0.581780 0.362310 0.761423
vt  0.581780 0.377680 0.761423
vt  0.524542 0.362310 0.239885
vt  0.524542 0.377680 0.239885
vt  0.581780 0.362310 0.238899
vt  0.581780 0.377680 0.238899
vt  0.630493 0.362310 0.999501
vt  0.630493 0.377680 0.999500
vt  0.663949 0.362310 0.761765
vt  0.663949 0.377680 0.761765
vt  0.483910 0.340933 0.475864
vt  0.453916 0.340933 0.866321
vt  0.453916 0.355585 0.866321
vt  0.483910 0.355585 0.475864
vt  0.483910 0.355585 0.475864
vt  0.453916 0.355585 0.866321
vt  0.453916 0.340933 0.866321
vt  0.483910 0.340933 0.475864
vt  0.663949 0.340933 0.048292
vt  0.630493 0.340933 0.000499
vt  0.630493 0.355585 0.000499
vt  0.663949 0.355585 0.048292
vt  0.663949 0.355585 0.153396
vt  0.630493 0.355585 0.201189
vt  0.630493 0.340933 0.201189
vt  0.663949 0.340933 0.153396
vt  0.436846 0.340933 0.864400
vt  0.430652 0.340933 0.834402
vt  0.430652 0.355585 0.834402
vt  0.436846 0.355585 0.864400
vt  0.436846 0.355585 0.969503
vt  0.430652 0.355585 0.999501
vt  0.430652 0.340933 0.999501
vt  0.436846 0.340933 0.969503
vt  0.335830 0.340933 0.834402
vt  0.335830 0.355585 0.834402
vt  0.335830 0.355585 0.999501
vt  0.335830 0.340933 0.999501
vt  0.524542 0.340933 0.048292
vt  0.524542 0.355585 0.048292
vt  0.524542 0.355585 0.153396
vt  0.524542 0.340933 0.153396
vt  0.581780 0.340933 0.048292
vt  0.581780 0.355585 0.048292
vt  0.581780 0.355585 0.153396
vt  0.581780 0.340933 0.153396
vt  0.721611 0.373486 0.998928
vt  0.691009 0.373486 0.000555
vt  0.691009 0.342884 0.001161
vt  0.721611 0.342884 0.999534
# 530 texture vertices

vn  0.000000 -0.998218 -0.287158
vn  -0.000000 0.000000 -1.038700
vn  0.000000 1.038700 0.000000
vn  0.161815 0.936127 -0.419975
vn  -0.000000 -0.998217 0.287158
vn  0.000000 -1.038700 -0.000000
vn  -1.066578 2.254802 0.388849
vn  1.066578 2.254802 0.388849
vn  0.000000 -0.998218 -0.287158
vn  0.755039 0.000000 -0.713312
vn  -0.161815 0.936128 -0.419974
vn  0.000000 -0.998217 0.287158
vn  0.755038 0.000000 0.713312
vn  -0.755039 -0.000000 0.713312
vn  -0.755041 -0.000000 -0.713310
vn  0.000000 1.038700 0.000000
vn  0.000000 1.038700 0.000000
vn  1.066578 2.254802 -0.388848
vn  -0.822635 3.241743 0.778214
vn  0.161815 0.936128 0.419975
vn  -0.000000 1.038700 0.000000
vn  1.038700 -0.000000 0.000000
vn  1.038700 0.000000 0.000000
vn  0.000000 0.000000 -1.038700
vn  0.000000 1.038700 0.000000
vn  -1.038700 0.000000 0.000000
vn  -1.038700 0.000000 0.000000
vn  -0.000000 -0.000000 1.038700
vn  0.000000 1.038700 0.000000
vn  -0.000000 1.038700 0.000000
vn  -0.000000 -0.000000 1.038700
vn  0.000000 0.000000 -1.038700
vn  0.000000 1.038700 0.000000
vn  0.000000 1.038700 0.000000
vn  0.000000 -0.000000 -1.038700
vn  -0.000001 -0.000000 1.038700
vn  0.385418 -0.696211 0.667563
vn  0.000000 -1.038700 0.000000
vn  0.770836 0.696211 -0.000000
vn  0.000000 1.038700 -0.000000
vn  0.000000 1.038700 -0.000000
vn  0.770835 -0.696212 -0.000000
vn  0.385419 0.696209 0.667565
vn  0.667564 0.696210 0.385418
vn  -0.770836 -0.696211 -0.000000
vn  0.000000 -0.696211 0.770836
vn  -0.385419 -0.696209 0.667565
vn  -0.000000 -1.038700 -0.000000
vn  -0.000000 1.038700 -0.000000
vn  -0.000000 1.038700 -0.000000
vn  0.000000 1.038700 0.000000
vn  -0.000000 0.696210 0.770837
vn  -0.385419 0.696209 0.667565
vn  -0.667565 0.696209 0.385419
vn  -0.000000 1.038700 -0.000000
vn  0.000000 -1.038700 -0.000000
vn  0.000000 -1.038700 0.000000
vn  0.385418 -0.696211 -0.667563
vn  0.667564 -0.696210 -0.385418
vn  0.385419 0.696210 -0.667564
vn  0.667564 0.696210 -0.385419
vn  0.385419 0.696210 -0.667564
vn  0.667564 -0.696210 -0.385418
vn  -0.000000 -0.696211 -0.770836
vn  -0.385418 -0.696211 -0.667563
vn  -0.667565 -0.696209 -0.385419
vn  0.000000 1.038700 0.000000
vn  0.000000 0.696210 -0.770837
vn  -0.385419 0.696209 -0.667565
vn  -0.667565 0.696209 -0.385419
vn  -0.770836 0.696210 -0.000000
vn  0.000000 -0.696211 -0.770836
vn  -0.385419 0.696209 -0.667565
vn  -0.667565 0.696209 -0.385419
vn  -0.000000 -1.038700 -0.000000
vn  0.850853 -0.000000 -0.595774
vn  0.850853 -0.000000 -0.595774
vn  -0.850853 0.000000 0.595774
vn  -0.850853 -0.000000 0.595774
vn  -0.850853 0.000000 0.595774
vn  0.593429 0.000000 0.852490
vn  -0.297887 -0.899541 -0.425427
vn  -0.516663 -0.519221 -0.736455
vn  -0.850854 0.000000 0.595773
vn  -0.850853 -0.000000 0.595774
vn  -0.850853 -0.000000 0.595774
vn  0.850854 0.000000 -0.595773
vn  0.297887 0.899541 0.425426
vn  0.515333 0.519221 0.737387
vn  0.850853 -0.000000 -0.595774
vn  -0.000000 1.038700 -0.000000
vn  0.297887 0.899541 0.425426
vn  0.512764 0.523476 0.736168
vn  0.850853 0.000000 -0.595774
vn  0.850853 -0.000000 -0.595774
vn  -0.516663 0.519221 -0.736456
vn  -0.595774 -0.000000 -0.850853
vn  -0.297887 0.899541 -0.425426
vn  -0.516396 0.523476 -0.733625
vn  -0.850853 0.000000 0.595774
vn  -0.595774 0.000000 -0.850853
vn  0.000002 -1.038700 0.000002
vn  0.000000 -1.038700 0.000000
vn  0.850853 -0.000000 -0.595774
vn  0.000000 1.038700 0.000000
vn  0.595773 0.000000 0.850854
vn  -0.850853 0.000000 0.595774
vn  -0.000000 1.038700 -0.000000
vn  -0.850995 0.000000 0.595571
vn  0.850505 0.000000 -0.596271
vn  0.000000 1.038700 0.000000
vn  0.000000 1.038700 0.000000
vn  -1.022877 0.000000 -0.180612
vn  1.023025 0.000000 0.179771
vn  0.000002 -1.038700 0.000001
vn  0.000000 1.038700 0.000000
vn  0.489970 -0.590917 0.699746
vn  0.489971 0.590914 0.699748
vn  0.035109 0.000000 1.038106
vn  0.963497 0.000000 0.388036
vn  1.020815 0.000000 -0.191921
vn  -0.529483 0.000000 0.893613
vn  0.285254 -0.911902 0.407385
vn  0.285252 0.911904 0.407382
vn  1.010007 -0.209972 -0.121228
vn  0.000001 -0.899539 -0.519353
vn  0.000004 -0.899541 -0.519349
vn  0.505001 -0.647319 0.636278
vn  0.874690 -0.462475 0.316120
vn  -0.565550 0.754512 0.435618
vn  0.615729 -0.478036 -0.686481
vn  0.355491 -0.347918 -0.911854
vn  -0.282775 0.999402 0.011455
vn  -0.489781 0.895899 0.190728
vn  -0.736053 0.634699 0.366444
vn  -0.489781 0.613124 0.680508
vn  -0.282776 0.509621 0.859780
vn  -0.368026 0.953419 -0.185596
vn  -0.637441 0.818712 0.047724
vn  0.667311 -0.410580 -0.681923
vn  0.770544 -0.603216 -0.348267
vn  0.385272 -0.269560 -0.926175
vn  0.385273 -0.936871 0.229641
vn  0.667311 -0.795852 -0.014612
vn  0.810621 -0.155952 -0.630453
vn  0.468012 0.015352 -0.927160
vn  0.468012 -0.795268 0.476876
vn  0.810621 -0.623964 0.180169
vn  0.936024 -0.389958 -0.225143
vn  0.000001 -0.899541 -0.519349
vn  -0.874691 0.042529 -0.558574
vn  -0.505005 0.227373 -0.878732
vn  0.000007 -0.899541 -0.519349
vn  0.000004 -0.714976 0.753464
vn  -0.504999 -0.647320 0.636279
vn  -0.000000 -0.899540 -0.519351
vn  -0.710983 -0.655782 -0.378617
vn  0.489781 0.613124 0.680508
vn  0.282775 0.509621 0.859781
vn  -0.000000 -0.300291 -0.994346
vn  -0.000000 1.037287 -0.054162
vn  0.282775 0.999402 0.011455
vn  -0.615729 -0.833528 -0.070752
vn  -0.000000 0.899541 0.519350
vn  0.565550 0.754511 0.435618
vn  0.637440 0.450686 0.685164
vn  0.368026 0.315979 0.918483
vn  0.000000 0.471736 0.925399
vn  -0.000001 1.002725 -0.270997
vn  0.368026 0.953419 -0.185595
vn  0.489781 0.895899 0.190728
vn  -0.667311 -0.410579 -0.681923
vn  -0.770544 -0.603215 -0.348267
vn  -0.385272 -0.269560 -0.926175
vn  0.000000 -0.217944 -1.015578
vn  0.000000 -0.988488 0.319044
vn  -0.385273 -0.936871 0.229641
vn  -0.667311 -0.795852 -0.014611
vn  -0.810621 -0.155952 -0.630452
vn  -0.468012 0.015352 -0.927161
vn  0.000000 0.078054 -1.035763
vn  0.000001 -0.857970 0.585478
vn  -0.468012 -0.795268 0.476876
vn  -0.810621 -0.623964 0.180167
vn  -0.936024 -0.389958 -0.225143
vn  0.000002 -0.899541 -0.519349
vn  -1.020997 2.904237 0.966036
vn  1.020997 2.904237 1.594853
vn  0.000000 0.000000 -1.038700
vn  0.000000 0.000000 -1.038700
vn  -2.652584 -1.272649 -0.000000
vn  1.734523 -0.128309 -0.000000
vn  0.000000 0.000000 -1.038700
vn  1.038700 0.000000 0.000000
vn  -1.734524 0.128310 0.000000
vn  2.652583 1.272650 0.000000
vn  0.000000 0.000000 -1.038700
vn  0.000000 0.000000 -1.038700
vn  0.000000 -1.631586 0.966035
vn  0.000000 -1.631586 0.966035
vn  0.000000 0.000000 -1.038700
vn  0.649987 -0.810194 -0.000000
vn  -0.000000 0.000000 1.038700
vn  0.000000 0.000000 -1.038700
vn  0.000000 0.000000 1.038700
vn  0.000000 -1.038700 0.000000
vn  0.000000 1.038700 0.000000
vn  0.000000 1.038700 0.000000
vn  -1.038700 0.000000 0.000000
vn  0.000000 -1.038700 0.000000
vn  0.000000 1.038700 0.000000
vn  1.038700 0.000000 0.000000
vn  -0.606341 0.000000 0.843355
vn  0.000000 -1.038700 0.000000
vn  0.000000 1.038700 0.000000
vn  0.000000 1.038700 0.000000
vn  -0.606339 0.000000 -0.843357
vn  0.000000 -1.038700 0.000000
vn  0.000000 1.038700 0.000000
vn  0.606339 0.000000 -0.843357
vn  0.000000 -1.038700 0.000000
vn  0.000000 1.038700 0.000000
vn  0.000000 -1.038700 0.000000
vn  0.000000 0.000000 -1.038700
vn  0.000000 0.000000 1.038700
vn  0.000000 1.038700 0.000001
vn  -0.000029 0.000183 1.038700
vn  -0.000084 0.000528 -1.038700
vn  1.038700 -0.000908 0.000110
vn  1.038700 -0.000939 0.000000
vn  0.793726 0.669995 0.001672
vn  0.244277 0.000000 1.009567
vn  0.882405 0.000001 -0.547960
vn  0.970177 0.371019 0.000000
vn  0.882404 -0.000001 0.547961
vn  0.970177 0.371019 0.000000
vn  0.428303 0.000000 -0.946284
vn  0.428304 -0.000000 0.946284
vn  0.497321 -0.911905 0.000000
vn  0.497321 0.911904 0.000001
vn  0.000000 -0.000001 1.038700
vn  -0.000000 0.000000 -1.038700
vn  -0.707226 -0.760743 0.000000
vn  0.934117 0.454227 0.000000
vn  -0.062425 0.061395 -1.035003
vn  -0.070810 0.040080 1.035508
vn  -0.761542 -0.706365 -0.000771
vn  0.600629 0.847433 0.000806
vn  0.242590 0.000000 -1.009974
vn  1.243395 -1.802756 0.002621
vn  -0.220056 -1.015122 -0.000085
vn  -0.249282 1.008343 -0.000090
vn  -0.209056 0.017101 -1.017301
vn  -0.219748 0.001863 1.015187
vn  -0.001293 0.000227 1.038699
vn  0.000626 0.000216 -1.038700
vn  -0.000048 -1.038700 0.000046
vn  0.000181 1.038700 0.000044
vn  -0.803313 3.203690 -0.778212
vn  0.755038 -0.000000 -0.713313
vn  -1.038700 0.000000 0.000000
vn  0.755039 0.000000 0.713312
vn  0.000000 -0.000000 -1.038700
vn  -0.161815 0.936128 0.419974
vn  -1.066583 2.254803 -0.388848
vn  0.822635 3.241741 -0.778215
vn  0.019325 1.660010 0.778214
vn  1.038700 0.000000 0.000000
vn  0.000000 1.038700 0.000000
vn  0.000000 -0.000000 1.038700
vn  -0.755039 0.000000 -0.713311
vn  -0.000000 -0.998218 -0.287157
vn  -0.755039 -0.000000 0.713312
vn  0.000000 -1.038700 -0.000000
vn  1.038700 0.000000 0.000000
vn  -0.000000 -0.998217 0.287159
vn  0.000000 -1.038700 -0.000000
vn  -1.038700 0.000000 0.000000
vn  0.000000 -1.038700 -0.000000
vn  -0.000000 -0.998218 -0.287157
vn  0.000000 -0.000000 1.038700
vn  -0.000000 -0.998217 0.287158
vn  0.755039 0.000000 -0.713312
vn  1.038700 -0.000000 0.000000
vn  0.000000 0.000000 1.038700
vn  0.000000 -0.000000 1.038700
vn  -1.038700 0.000000 0.000000
vn  -0.000000 0.000000 -1.038700
vn  -0.755039 -0.000000 0.713312
vn  1.038700 -0.000000 0.000000
vn  -0.755041 -0.000000 -0.713310
vn  0.755038 -0.000000 -0.713313
vn  0.755039 0.000000 0.713312
vn  0.000000 -0.000000 -1.038700
vn  -1.038700 0.000000 0.000000
vn  0.755038 0.000000 0.713312
vn  -0.755039 0.000000 -0.713312
vn  -0.755039 -0.000000 0.713312
vn  1.038700 0.000000 0.000000
vn  -0.000001 -0.000000 1.038700
vn  0.000000 -1.038700 -0.000000
vn  1.038700 -0.000000 0.000000
vn  -1.038700 0.000000 0.000000
vn  0.000000 -0.000000 -1.038700
vn  0.000000 -1.038700 -0.000000
vn  -1.038700 0.000000 0.000000
vn  0.000000 -0.000000 1.038700
vn  0.000000 -1.038700 -0.000000
vn  -1.038700 0.000000 0.000000
vn  -0.000000 -0.000000 1.038700
vn  0.000000 -0.000000 -1.038700
vn  -1.038700 0.000000 0.000000
vn  0.000000 -1.038700 -0.000000
vn  -1.038700 0.000000 0.000000
vn  -1.038700 0.000000 0.000000
vn  0.000000 -1.038700 -0.000000
vn  0.000000 1.038700 0.000000
vn  0.000000 -0.000000 -1.038700
vn  0.000000 0.000000 -1.038700
vn  0.000000 -1.038700 -0.000000
vn  1.038700 0.000000 0.000000
vn  0.000000 0.000000 -1.038700
vn  -0.000001 -0.000000 1.038700
vn  1.038700 0.000000 0.000000
vn  0.000000 -1.038700 -0.000000
vn  1.038700 0.000000 0.000000
vn  1.038700 0.000000 0.000000
vn  0.000000 -1.038700 -0.000000
vn  -0.000000 1.038700 0.000000
vn  0.000000 0.000000 1.038700
vn  -0.000000 -1.038700 0.000000
vn  0.667563 -0.696211 0.385418
vn  0.000000 1.038700 0.000000
vn  0.385419 0.696209 0.667565
vn  0.667564 0.696210 0.385419
vn  0.770836 0.696211 -0.000000
vn  0.385418 -0.696211 0.667563
vn  0.667563 -0.696211 0.385418
vn  0.000000 -1.038700 0.000000
vn  0.000000 -1.038700 0.000000
vn  0.000000 -1.038700 -0.000000
vn  -0.667564 -0.696210 0.385418
vn  -0.000000 0.696210 0.770837
vn  -0.385419 0.696209 0.667565
vn  -0.667565 0.696209 0.385419
vn  0.000000 -0.696211 0.770836
vn  -0.385419 -0.696209 0.667565
vn  -0.667564 -0.696210 0.385418
vn  0.770835 -0.696212 -0.000000
vn  -0.000000 -1.038700 -0.000000
vn  -0.000000 -1.038700 0.000000
vn  0.000000 1.038700 0.000000
vn  0.000000 1.038700 0.000000
vn  0.385418 -0.696211 -0.667563
vn  0.667565 0.696210 -0.385418
vn  -0.000000 -1.038700 -0.000000
vn  0.000000 -1.038700 -0.000000
vn  0.000000 -1.038700 0.000000
vn  -0.770836 0.696210 0.000000
vn  0.000000 1.038700 0.000000
vn  0.000000 1.038700 0.000000
vn  0.000000 1.038700 0.000000
vn  -0.770836 -0.696211 -0.000000
vn  0.000000 0.696210 -0.770837
vn  -0.385418 -0.696211 -0.667563
vn  -0.667565 -0.696209 -0.385418
vn  0.710983 -0.655782 -0.378617
vn  -0.489781 0.613124 0.680508
vn  -0.282775 0.509621 0.859780
vn  0.355492 -0.963647 0.154620
vn  0.615729 -0.833528 -0.070752
vn  0.565550 0.754511 0.435618
vn  -0.615729 -0.478036 -0.686481
vn  -0.355491 -0.347918 -0.911853
vn  0.000000 0.471736 0.925399
vn  0.000000 -1.011274 0.237113
vn  -0.355492 -0.963647 0.154620
vn  0.489781 0.895899 0.190728
vn  -0.000002 -0.899540 -0.519350
vn  0.874691 0.042529 -0.558573
vn  0.505007 0.227372 -0.878731
vn  0.000003 -0.899541 -0.519350
vn  -0.000000 -0.899543 -0.519347
vn  -1.010007 -0.209972 -0.121229
vn  -0.000001 -0.899543 -0.519345
vn  0.000004 -0.899543 -0.519346
vn  0.000000 0.295030 -0.995919
vn  0.000004 -0.899540 -0.519350
vn  0.000001 -0.899540 -0.519352
vn  -0.874691 -0.462474 0.316118
vn  0.850854 0.000000 -0.595773
vn  0.297887 -0.899541 0.425427
vn  0.515333 -0.519221 0.737387
vn  -0.000000 -1.038700 0.000000
vn  0.297886 -0.899541 0.425426
vn  0.512764 -0.523476 0.736168
vn  -0.850853 -0.000000 0.595774
vn  0.850853 0.000000 -0.595774
vn  0.850853 -0.000000 -0.595774
vn  -0.297887 -0.899541 -0.425426
vn  -0.516396 -0.523476 -0.733625
vn  -0.000000 1.038700 -0.000000
vn  0.850853 0.000000 -0.595774
vn  0.850853 0.000000 -0.595774
vn  0.595774 -0.000000 0.850853
vn  -0.850853 -0.000000 0.595774
vn  -0.850853 -0.000000 0.595774
vn  -0.850853 -0.000000 0.595774
vn  -0.297887 0.899541 -0.425426
vn  0.850853 0.000000 -0.595774
vn  0.850853 0.000000 -0.595774
vn  -0.850854 -0.000000 0.595773
vn  -0.850853 0.000000 0.595774
vn  -0.598114 -0.000000 -0.849210
vn  -0.595774 0.000000 -0.850853
vn  0.000000 1.038700 0.000000
vn  -0.000000 1.038700 -0.000000
vn  0.850853 -0.000000 -0.595774
vn  0.850505 0.000000 -0.596271
vn  -0.850995 0.000000 0.595571
vn  0.000000 1.038700 0.000000
vn  -1.022877 0.000000 -0.180612
vn  0.035109 0.000000 1.038107
vn  0.489967 0.590919 0.699746
vn  0.285255 0.911902 0.407384
vn  1.020815 -0.000000 -0.191920
vn  0.000002 -1.038700 0.000002
vn  0.595773 0.000000 0.850854
vn  -0.850853 0.000000 0.595774
vn  0.000000 -1.038700 0.000000
vn  0.000000 -1.038700 0.000000
vn  0.000000 -1.038700 -0.000000
vn  0.000002 -1.038700 0.000001
vn  1.023025 0.000000 0.179771
vn  0.963497 0.000000 0.388036
vn  0.489970 -0.590912 0.699750
vn  0.285254 -0.911903 0.407382
vn  -0.529485 0.000000 0.893613
vn  0.000000 1.038700 0.000001
vn  0.000000 0.000000 -1.038700
vn  0.000000 0.000556 -1.038700
vn  -0.000000 0.000193 1.038700
vn  0.971929 -0.000001 0.366404
vn  0.971929 0.000000 -0.366404
vn  0.497322 0.911904 0.000001
vn  0.428304 0.000000 -0.946284
vn  0.934117 0.454227 0.000000
vn  0.000000 -0.000001 1.038700
vn  0.601710 0.846666 0.000560
vn  -0.071182 0.040425 -1.035469
vn  -0.220410 0.002252 -1.015043
vn  -0.249317 1.008335 -0.000038
vn  0.000667 1.038700 0.000044
vn  0.000482 0.000218 1.038700
vn  0.000000 0.000000 1.038700
vn  0.000000 -1.038700 0.000000
vn  -1.038699 -0.001400 -0.000005
vn  -1.038699 -0.001418 -0.000087
vn  0.868098 -0.570353 0.000000
vn  0.868099 -0.570353 0.000000
vn  0.497322 -0.911904 0.000000
vn  0.428305 0.000000 0.946284
vn  -0.707226 -0.760743 -0.000000
vn  -0.000000 0.000001 -1.038700
vn  -0.760968 -0.706983 -0.000910
vn  -0.062071 0.061046 1.035045
vn  -0.208428 0.017430 1.017424
vn  -0.220014 -1.015131 -0.000021
vn  -0.000533 -1.038700 0.000045
vn  -0.001148 0.000224 -1.038699
vn  0.243142 -0.000660 -1.009841
vn  0.793149 0.670679 0.001577
vn  2.128412 -1.798431 0.004239
vn  0.243722 -0.000661 1.009701
vn  -0.606345 0.000000 0.843352
vn  0.606345 0.000000 0.843352
vn  -0.606339 0.000000 -0.843357
vn  0.000000 1.038700 0.000000
vn  -1.038700 0.000000 0.000000
vn  0.000000 0.000000 1.038700
vn  0.000000 0.000000 -1.038700
vn  0.000000 1.038700 0.000000
vn  0.000000 -1.038700 0.000000
vn  0.606341 0.000000 0.843355
vn  0.000000 -1.038700 0.000000
vn  0.606339 0.000000 -0.843357
vn  0.000000 -1.038700 0.000000
vn  1.038700 0.000000 0.000000
vn  0.000000 -1.038700 0.000000
vn  0.000000 0.000000 -1.038700
vn  -0.606341 0.000000 0.843355
vn  -0.606339 0.000000 -0.843357
vn  0.606339 0.000000 -0.843357
vn  -1.038700 0.000000 0.000000
vn  0.000000 0.000000 -1.038700
vn  0.000000 0.000000 -1.038700
vn  0.000000 0.000000 1.038700
vn  1.038700 0.000000 0.000000
vn  -1.038700 0.000000 0.000000
vn  -0.606345 0.000000 0.843352
vn  0.606345 0.000000 0.843352
vn  -0.606339 0.000000 -0.843357
vn  0.000000 0.000000 1.038700
vn  1.038700 0.000000 0.000000
vn  0.606341 0.000000 0.843356
vn  0.606339 0.000000 -0.843357
vn  -0.649987 0.810194 0.000000
vn  0.649987 0.810194 0.000000
vn  -0.649987 -0.810194 -0.000000
vn  0.000000 0.000000 -1.038700
vn  -1.038700 0.000000 0.000000
vn  0.000000 1.038700 0.000000
vn  0.000000 -1.038700 -0.000000
vn  0.000000 0.000000 -1.038700
vn  0.649987 -0.810194 -0.000000
vn  0.000000 -1.038700 -0.000000
vn  0.000000 1.038700 0.000000
vn  1.038700 0.000000 0.000000
vn  -1.038700 0.000000 0.000000
vn  -0.649987 0.810194 0.000000
vn  0.649987 0.810194 0.000000
vn  -0.649987 -0.810194 -0.000000
vn  -0.565550 0.754512 0.435618
vn  -0.637441 0.450686 0.685164
vn  -0.368027 0.315979 0.918483
vn  -0.282775 0.999402 0.011455
vn  -0.489781 0.895899 0.190728
vn  0.736053 0.634699 0.366444
vn  0.489781 0.613124 0.680508
vn  0.282775 0.509621 0.859780
vn  0.000000 0.266673 1.003884
vn  -0.000000 1.037287 -0.054163
vn  0.282775 0.999402 0.011455
vn  0.637441 0.818712 0.047724
# 534 vertex normals

g radio
s 1
f 294/23/294 263/24/263 288/25/288
f 288/25/288 2/26/2 294/23/294
f 281/27/281 285/55/285 270/56/270
f 270/56/270 286/30/286 281/27/281
f 1/2/1 272/3/272 280/4/280
f 280/4/280 9/1/9 1/2/1
f 324/31/324 326/32/326 327/33/327
f 327/33/327 321/34/321 324/31/324
f 16/5/16 3/6/3 269/7/269
f 269/7/269 17/8/17 16/5/16
f 315/35/315 309/36/309 312/37/312
f 312/37/312 314/38/314 315/35/315
f 271/21/271 297/39/297 15/40/15
f 15/40/15 291/22/291 271/21/271
f 260/25/260 292/41/292 10/42/10
f 10/42/10 283/26/283 260/25/260
f 13/28/13 296/43/296 262/44/262
f 262/44/262 293/29/293 13/28/13
f 14/30/14 289/45/289 273/46/273
f 273/46/273 298/27/298 14/30/14
f 11/9/11 259/6/259 266/5/266
f 266/5/266 4/10/4 11/9/11
f 20/11/20 267/8/267 19/7/19
f 19/7/19 264/12/264 20/11/20
f 18/13/18 266/5/266 267/8/267
f 267/8/267 8/14/8 18/13/18
f 259/6/259 265/15/265 7/16/7
f 7/16/7 19/7/19 259/6/259
f 265/15/265 259/6/259 11/9/11
f 4/10/4 266/5/266 18/13/18
f 264/12/264 19/7/19 7/16/7
f 8/14/8 267/8/267 20/11/20
f 275/43/275 284/42/284 22/47/22
f 22/47/22 299/48/299 275/43/275
f 284/42/284 268/41/268 23/49/23
f 23/49/23 22/47/22 284/42/284
f 268/41/268 290/44/290 302/50/302
f 302/50/302 23/49/23 268/41/268
f 290/44/290 275/43/275 299/48/299
f 299/48/299 302/50/302 290/44/290
f 278/39/278 295/46/295 26/51/26
f 26/51/26 303/52/303 278/39/278
f 295/46/295 261/45/261 27/53/27
f 27/53/27 26/51/26 295/46/295
f 261/45/261 287/40/287 306/54/306
f 306/54/306 27/53/27 261/45/261
f 287/40/287 278/39/278 303/52/303
f 303/52/303 306/54/306 287/40/287
f 21/48/21 329/47/329 30/31/30
f 30/31/30 29/34/29 21/48/21
f 300/47/300 330/49/330 31/32/31
f 31/32/31 323/31/323 300/47/300
f 301/49/301 320/50/320 328/33/328
f 328/33/328 325/32/325 301/49/301
f 24/50/24 319/48/319 322/34/322
f 322/34/322 32/33/32 24/50/24
f 25/52/25 317/51/317 34/37/34
f 34/37/34 33/36/33 25/52/25
f 304/51/304 318/53/318 35/38/35
f 35/38/35 311/37/311 304/51/304
f 305/53/305 308/54/308 316/35/316
f 316/35/316 313/38/313 305/53/305
f 28/54/28 307/52/307 310/36/310
f 310/36/310 36/35/36 28/54/28
f 282/18/282 12/19/12 5/20/5
f 5/20/5 276/17/276 282/18/282
f 277/1/277 279/4/279 6/17/6
f 6/17/6 274/20/274 277/1/277
f 37/59/37 337/75/337 346/74/346
f 346/74/346 46/58/46 37/59/37
f 332/60/332 338/76/338 337/75/337
f 337/75/337 37/59/37 332/60/332
f 349/57/349 42/73/42 338/76/338
f 338/76/338 332/60/332 349/57/349
f 55/77/55 49/70/49 40/71/40
f 334/63/334 343/62/343 52/74/52
f 52/74/52 43/75/43 334/63/334
f 335/64/335 334/63/334 43/75/43
f 43/75/43 44/76/44 335/64/335
f 39/61/39 335/64/335 44/76/44
f 44/76/44 336/73/336 39/61/39
f 40/71/40 41/72/41 55/77/55
f 41/72/41 333/69/333 55/77/55
f 331/66/331 340/67/340 56/78/56
f 57/68/57 38/65/38 56/78/56
f 56/78/56 38/65/38 331/66/331
f 47/81/47 46/80/46 346/96/346
f 346/96/346 347/97/347 47/81/47
f 342/82/342 47/81/47 347/97/347
f 347/97/347 348/98/348 342/82/342
f 45/79/45 342/82/342 348/98/348
f 348/98/348 363/95/363 45/79/45
f 55/99/55 50/93/50 49/92/49
f 344/85/344 53/97/53 52/96/52
f 52/96/52 343/84/343 344/85/344
f 345/86/345 54/98/54 53/97/53
f 53/97/53 344/85/344 345/86/345
f 359/83/359 71/95/71 54/98/54
f 54/98/54 345/86/345 359/83/359
f 50/93/50 55/99/55 51/94/51
f 51/94/51 55/99/55 67/91/67
f 341/88/341 56/100/56 340/89/340
f 339/90/339 56/100/56 48/87/48
f 56/100/56 341/88/341 48/87/48
f 58/103/58 64/102/64 72/118/72
f 72/118/72 354/119/354 58/103/58
f 59/104/59 58/103/58 354/119/354
f 354/119/354 63/120/63 59/104/59
f 349/101/349 59/104/59 63/120/63
f 63/120/63 42/117/42 349/101/349
f 55/121/55 352/115/352 360/114/360
f 60/107/60 62/119/62 364/118/364
f 364/118/364 68/106/68 60/107/60
f 61/108/61 355/120/355 62/119/62
f 62/119/62 60/107/60 61/108/61
f 39/105/39 336/117/336 355/120/355
f 355/120/355 61/108/61 39/105/39
f 352/115/352 55/121/55 353/116/353
f 353/116/353 55/121/55 333/113/333
f 350/110/350 56/122/56 356/111/356
f 57/112/57 56/122/56 351/109/351
f 56/122/56 350/110/350 351/109/351
f 65/125/65 365/141/365 72/140/72
f 72/140/72 64/124/64 65/125/65
f 66/126/66 366/142/366 365/141/365
f 365/141/365 65/125/65 66/126/66
f 45/123/45 363/139/363 366/142/366
f 366/142/366 66/126/66 45/123/45
f 55/143/55 360/136/360 361/137/361
f 69/129/69 68/128/68 364/140/364
f 364/140/364 73/141/73 69/129/69
f 70/130/70 69/129/69 73/141/73
f 73/141/73 74/142/74 70/130/70
f 359/127/359 70/130/70 74/142/74
f 74/142/74 71/139/71 359/127/359
f 361/137/361 362/138/362 55/143/55
f 362/138/362 67/135/67 55/143/55
f 357/132/357 356/133/356 56/144/56
f 339/134/339 358/131/358 56/144/56
f 56/144/56 358/131/358 357/132/357
f 75/145/75 392/146/392 395/150/395
f 395/150/395 394/149/394 75/145/75
f 392/146/392 393/147/393 396/151/396
f 396/151/396 395/150/395 392/146/392
f 393/147/393 405/148/405 81/152/81
f 81/152/81 396/151/396 393/147/393
f 86/162/86 79/158/79 80/159/80
f 77/154/77 76/155/76 94/161/94
f 94/161/94 90/153/90 77/154/77
f 76/155/76 391/156/391 94/161/94
f 78/157/78 79/158/79 86/162/86
f 86/162/86 80/159/80 397/160/397
f 75/163/75 394/167/394 400/168/400
f 400/168/400 82/164/82 75/163/75
f 82/164/82 400/168/400 401/169/401
f 401/169/401 83/165/83 82/164/82
f 83/165/83 401/169/401 414/170/414
f 414/170/414 97/166/97 83/165/83
f 86/180/86 85/177/85 84/176/84
f 399/172/399 94/179/94 398/173/398
f 94/179/94 399/172/399 411/171/411
f 398/173/398 94/179/94 391/174/391
f 78/175/78 86/180/86 84/176/84
f 86/180/86 100/178/100 85/177/85
f 402/181/402 91/185/91 92/186/92
f 92/186/92 88/182/88 402/181/402
f 88/182/88 92/186/92 93/187/93
f 93/187/93 89/183/89 88/182/88
f 89/183/89 93/187/93 81/188/81
f 81/188/81 405/184/405 89/183/89
f 86/198/86 408/195/408 407/194/407
f 404/190/404 94/197/94 403/191/403
f 94/197/94 404/190/404 90/189/90
f 403/191/403 94/197/94 87/192/87
f 406/193/406 86/198/86 407/194/407
f 86/198/86 397/196/397 408/195/408
f 402/199/402 409/200/409 98/204/98
f 98/204/98 91/203/91 402/199/402
f 409/200/409 96/201/96 99/205/99
f 99/205/99 98/204/98 409/200/409
f 96/201/96 97/202/97 414/206/414
f 414/206/414 99/205/99 96/201/96
f 86/216/86 412/212/412 413/213/413
f 410/208/410 95/209/95 94/215/94
f 94/215/94 411/207/411 410/208/410
f 95/209/95 87/210/87 94/215/94
f 406/211/406 412/212/412 86/216/86
f 86/216/86 413/213/413 100/214/100
f 433/242/433 115/243/115 102/244/102
f 102/244/102 427/241/427 433/242/433
f 416/246/416 421/247/421 116/248/116
f 116/248/116 105/245/105 416/246/416
f 434/218/434 114/219/114 106/220/106
f 106/220/106 428/217/428 434/218/434
f 438/222/438 122/223/122 107/224/107
f 107/224/107 429/221/429 438/222/438
f 436/250/436 117/251/117 432/252/432
f 432/252/432 431/249/431 436/250/436
f 424/254/424 118/255/118 112/256/112
f 112/256/112 111/253/111 424/254/424
f 435/226/435 120/227/120 419/228/419
f 419/228/419 110/225/110 435/226/435
f 113/230/113 422/231/422 420/232/420
f 420/232/420 109/229/109 113/230/113
f 433/242/433 431/249/431 432/252/432
f 432/252/432 115/243/115 433/242/433
f 421/247/421 111/253/111 112/256/112
f 112/256/112 116/248/116 421/247/421
f 110/225/110 419/228/419 114/219/114
f 114/219/114 434/218/434 110/225/110
f 101/233/101 415/234/415 422/231/422
f 422/231/422 113/230/113 101/233/101
f 109/229/109 420/232/420 423/236/423
f 423/236/423 119/235/119 109/229/109
f 123/257/123 437/258/437 117/251/117
f 117/251/117 436/250/436 123/257/123
f 124/259/124 425/260/425 118/255/118
f 118/255/118 424/254/424 124/259/124
f 121/237/121 426/238/426 120/227/120
f 120/227/120 435/226/435 121/237/121
f 119/235/119 423/236/423 122/223/122
f 122/223/122 438/222/438 119/235/119
f 103/261/103 430/262/430 437/258/437
f 437/258/437 123/257/123 103/261/103
f 108/263/108 417/264/417 425/260/425
f 425/260/425 124/259/124 108/263/108
f 104/239/104 418/240/418 426/238/426
f 426/238/426 121/237/121 104/239/104
f 380/282/380 145/283/145 149/284/149
f 149/284/149 125/281/125 380/282/380
f 381/285/381 146/286/146 145/283/145
f 145/283/145 380/282/380 381/285/381
f 387/287/387 181/288/181 146/286/146
f 146/286/146 381/285/381 387/287/387
f 128/290/128 147/291/147 182/292/182
f 182/292/182 154/289/154 128/290/128
f 129/293/129 148/294/148 147/291/147
f 147/291/147 128/290/128 129/293/129
f 125/281/125 149/284/149 148/294/148
f 148/294/148 129/293/129 125/281/125
f 134/298/134 130/295/130 523/296/523
f 523/296/523 527/297/527 134/298/134
f 368/299/368 136/300/136 523/296/523
f 523/296/523 130/295/130 368/299/368
f 369/301/369 137/302/137 136/300/136
f 136/300/136 368/299/368 369/301/369
f 375/303/375 168/304/168 137/302/137
f 137/302/137 369/301/369 375/303/375
f 164/265/164 169/266/169 138/267/138
f 164/367/164 138/267/138 139/268/139
f 135/269/135 164/368/164 139/268/139
f 524/270/524 164/369/164 135/372/135
f 525/271/525 164/370/164 524/270/524
f 531/272/531 164/371/164 525/271/525
f 133/307/133 526/308/526 532/305/532
f 532/305/532 161/306/161 133/307/133
f 134/298/134 527/297/527 526/308/526
f 526/308/526 133/307/133 134/298/134
f 131/299/131 367/295/367 141/310/141
f 141/310/141 140/309/140 131/299/131
f 132/301/132 131/299/131 140/309/140
f 140/309/140 142/311/142 132/301/132
f 160/303/160 132/301/132 142/311/142
f 142/311/142 175/312/175 160/303/160
f 370/307/370 376/306/376 176/314/176
f 176/314/176 143/313/143 370/307/370
f 371/298/371 370/307/370 143/313/143
f 143/313/143 144/315/144 371/298/371
f 367/295/367 371/298/371 144/315/144
f 144/315/144 141/310/141 367/295/367
f 140/309/140 141/310/141 149/284/149
f 149/284/149 145/283/145 140/309/140
f 142/311/142 140/309/140 145/283/145
f 145/283/145 146/286/146 142/311/142
f 175/312/175 142/311/142 146/286/146
f 146/286/146 181/288/181 175/312/175
f 143/313/143 176/314/176 182/292/182
f 182/292/182 147/291/147 143/313/143
f 144/315/144 143/313/143 147/291/147
f 147/291/147 148/294/148 144/315/144
f 141/310/141 144/315/144 148/294/148
f 148/294/148 149/284/149 141/310/141
f 153/273/153 127/274/127 186/275/186
f 382/276/382 388/277/388 186/275/186
f 127/274/127 126/278/126 186/275/186
f 126/278/126 379/279/379 186/275/186
f 186/275/186 379/279/379 383/280/383
f 186/275/186 383/280/383 382/276/382
f 151/333/151 384/332/384 185/335/185
f 185/335/185 179/334/179 151/333/151
f 152/336/152 151/333/151 179/334/179
f 179/334/179 180/337/180 152/336/152
f 387/338/387 152/336/152 180/337/180
f 180/337/180 181/339/181 387/338/387
f 155/341/155 154/340/154 182/343/182
f 182/343/182 183/342/183 155/341/155
f 390/344/390 155/341/155 183/342/183
f 183/342/183 184/345/184 390/344/390
f 384/332/384 390/344/390 184/345/184
f 184/345/184 185/335/185 384/332/384
f 378/349/378 171/348/171 165/347/165
f 165/347/165 372/346/372 378/349/378
f 158/350/158 372/346/372 165/347/165
f 165/347/165 529/351/529 158/350/158
f 159/352/159 158/350/158 529/351/529
f 529/351/529 530/353/530 159/352/159
f 375/354/375 159/352/159 530/353/530
f 530/353/530 168/355/168 375/354/375
f 164/316/164 170/318/170 169/317/169
f 164/373/164 534/319/534 170/318/170
f 528/320/528 534/319/534 164/374/164
f 166/321/166 528/378/528 164/375/164
f 167/322/167 166/321/166 164/376/164
f 531/323/531 167/322/167 164/377/164
f 162/358/162 161/357/161 532/356/532
f 532/356/532 533/359/533 162/358/162
f 378/349/378 162/358/162 533/359/533
f 533/359/533 171/348/171 378/349/378
f 373/350/373 172/360/172 173/361/173
f 173/361/173 157/346/157 373/350/373
f 374/352/374 174/362/174 172/360/172
f 172/360/172 373/350/373 374/352/374
f 160/354/160 175/363/175 174/362/174
f 174/362/174 374/352/374 160/354/160
f 377/358/377 177/364/177 176/365/176
f 176/365/176 376/357/376 377/358/377
f 163/349/163 178/366/178 177/364/177
f 177/364/177 377/358/377 163/349/163
f 157/346/157 173/361/173 178/366/178
f 178/366/178 163/349/163 157/346/157
f 172/360/172 179/334/179 185/335/185
f 185/335/185 173/361/173 172/360/172
f 174/362/174 180/337/180 179/334/179
f 179/334/179 172/360/172 174/362/174
f 175/363/175 181/339/181 180/337/180
f 180/337/180 174/362/174 175/363/175
f 177/364/177 183/342/183 182/343/182
f 182/343/182 176/365/176 177/364/177
f 178/366/178 184/345/184 183/342/183
f 183/342/183 177/364/177 178/366/178
f 173/361/173 185/335/185 184/345/184
f 184/345/184 178/366/178 173/361/173
f 153/324/153 186/326/186 386/325/386
f 389/327/389 186/326/186 388/328/388
f 386/325/386 186/326/186 385/329/385
f 385/329/385 186/326/186 150/330/150
f 186/326/186 156/331/156 150/330/150
f 186/326/186 389/327/389 156/331/156
f 187/399/187 188/400/188 512/401/512
f 512/401/512 517/402/517 187/399/187
f 199/403/199 513/404/513 516/415/516
f 516/415/516 200/416/200 199/403/199
f 199/379/199 200/380/200 203/381/203
f 196/407/196 192/408/192 194/409/194
f 194/409/194 518/410/518 196/407/196
f 204/383/204 197/384/197 189/385/189
f 189/385/189 198/382/198 204/383/204
f 511/411/511 519/412/519 191/413/191
f 191/413/191 195/414/195 511/411/511
f 188/400/188 196/407/196 508/410/508
f 508/410/508 521/401/521 188/400/188
f 507/398/507 520/411/520 195/414/195
f 195/414/195 187/397/187 507/398/507
f 199/403/199 191/413/191 509/412/509
f 509/412/509 522/404/522 199/403/199
f 202/405/202 515/409/515 192/408/192
f 192/408/192 200/406/200 202/405/202
f 196/387/196 188/388/188 203/381/203
f 192/386/192 196/387/196 203/381/203
f 200/380/200 192/386/192 203/381/203
f 188/388/188 187/389/187 203/381/203
f 195/390/195 191/391/191 199/379/199
f 187/389/187 195/390/195 199/379/199
f 203/381/203 187/389/187 199/379/199
f 193/393/193 197/384/197 204/383/204
f 204/383/204 201/392/201 193/393/193
f 190/394/190 510/395/510 204/383/204
f 204/383/204 198/382/198 190/394/190
f 204/383/204 510/395/510 514/396/514
f 514/396/514 201/392/201 204/383/204
f 205/437/205 503/438/503 480/439/480
f 480/439/480 497/440/497 205/437/205
f 495/441/495 481/442/481 496/453/496
f 496/453/496 490/454/490 495/441/495
f 489/417/489 218/418/218 221/419/221
f 488/445/488 504/446/504 212/447/212
f 212/447/212 498/448/498 488/445/488
f 222/421/222 215/422/215 207/423/207
f 207/423/207 216/420/216 222/421/222
f 479/449/479 499/450/499 209/451/209
f 209/451/209 494/452/494 479/449/479
f 484/438/484 505/445/505 476/448/476
f 476/448/476 501/439/501 484/438/484
f 475/436/475 500/449/500 213/452/213
f 213/452/213 491/435/491 475/436/475
f 217/441/217 492/451/492 477/450/477
f 477/450/477 502/442/502 217/441/217
f 220/443/220 493/447/493 486/446/486
f 486/446/486 506/444/506 220/443/220
f 214/425/214 206/426/206 221/419/221
f 210/424/210 214/425/214 221/419/221
f 218/418/218 210/424/210 221/419/221
f 206/426/206 483/427/483 221/419/221
f 487/428/487 485/429/485 489/417/489
f 483/427/483 487/428/487 489/417/489
f 221/419/221 483/427/483 489/417/489
f 211/431/211 215/422/215 222/421/222
f 222/421/222 219/430/219 211/431/211
f 208/432/208 478/433/478 222/421/222
f 222/421/222 216/420/216 208/432/208
f 222/421/222 478/433/478 482/434/482
f 482/434/482 219/430/219 222/421/222
f 462/456/462 238/457/238 225/458/225
f 225/458/225 455/455/455 462/456/462
f 463/492/463 243/493/243 458/494/458
f 458/494/458 457/491/457 463/492/463
f 447/496/447 244/497/244 230/498/230
f 230/498/230 229/495/229 447/496/447
f 464/460/464 242/461/242 441/462/441
f 441/462/441 228/459/228 464/460/464
f 246/465/246 442/466/442 227/463/227
f 227/463/227 466/464/466 246/465/246
f 469/500/469 257/501/257 473/502/473
f 473/502/473 250/499/250 469/500/469
f 453/504/453 258/505/258 472/506/472
f 472/506/472 231/503/231 453/504/453
f 470/468/470 256/469/256 471/470/471
f 471/470/471 249/467/249 470/468/470
f 443/474/443 235/471/235 241/472/241
f 241/472/241 448/473/448 443/474/443
f 239/508/239 461/509/461 459/510/459
f 459/510/459 460/507/460 239/508/239
f 240/512/240 445/513/445 234/514/234
f 234/514/234 236/511/236 240/512/240
f 237/476/237 446/477/446 444/478/444
f 444/478/444 233/475/233 237/476/237
f 235/471/235 443/474/443 238/457/238
f 238/457/238 462/456/462 235/471/235
f 223/515/223 456/516/456 461/509/461
f 461/509/461 239/508/239 223/515/223
f 226/517/226 439/518/439 445/513/445
f 445/513/445 240/512/240 226/517/226
f 224/479/224 440/480/440 446/477/446
f 446/477/446 237/476/237 224/479/224
f 460/507/460 459/510/459 243/493/243
f 243/493/243 463/492/463 460/507/460
f 236/511/236 234/514/234 244/497/244
f 244/497/244 447/496/447 236/511/236
f 464/460/464 233/475/233 444/478/444
f 444/478/444 242/461/242 464/460/464
f 227/463/227 442/466/442 448/473/448
f 448/473/448 241/472/241 227/463/227
f 467/481/467 254/482/254 246/465/246
f 246/465/246 466/464/466 467/481/467
f 247/519/247 457/491/457 458/494/458
f 458/494/458 465/520/465 247/519/247
f 229/495/229 230/498/230 449/522/449
f 449/522/449 248/521/248 229/495/229
f 450/484/450 245/483/245 228/459/228
f 228/459/228 441/462/441 450/484/450
f 231/527/231 472/528/472 250/529/250
f 250/529/250 473/530/473 231/527/231
f 247/519/247 465/520/465 468/524/468
f 468/524/468 251/523/251 247/519/247
f 248/521/248 449/522/449 452/526/452
f 452/526/452 252/525/252 248/521/248
f 253/485/253 245/483/245 450/484/450
f 450/484/450 451/486/451 253/485/253
f 255/487/255 454/488/454 254/482/254
f 254/482/254 467/481/467 255/487/255
f 251/523/251 468/524/468 257/501/257
f 257/501/257 469/500/469 251/523/251
f 252/525/252 452/526/452 258/505/258
f 258/505/258 453/504/453 252/525/252
f 253/485/253 451/486/451 256/469/256
f 256/469/256 470/468/470 253/485/253
f 474/489/474 232/490/232 454/488/454
f 454/488/454 255/487/255 474/489/474
# 478 faces

g
