# Max2Obj Version 4.0 Mar 10th, 2001
#
# object base to come ...
#
v  0.465221 -1.531656 -0.343433
v  4.860386 -1.531657 -99.403229
v  0.465221 13.458359 -0.343433
v  0.465214 13.458359 -94.969940
v  95.129837 -1.531661 -0.343437
v  99.525017 -1.531661 -99.403236
v  95.091736 13.458355 -0.343441
v  97.534698 15.913177 -97.412918
v  2.455540 15.913181 -2.333752
v  2.455536 15.913181 -92.940842
v  97.534698 15.913177 -6.805828
v  99.525009 13.458355 -99.403244
v  99.525017 13.458355 -74.872345
v  97.534698 15.913177 -74.872345
v  99.525017 13.458355 -83.533501
v  97.534698 15.913177 -83.424545
v  97.899002 13.458355 -79.202927
v  95.908691 15.913177 -79.148445
v  99.525017 -1.531661 -79.747429
v  0.465218 13.458357 -51.778671
v  2.455536 15.913181 -51.778671
v  0.465218 13.458357 -30.111629
v  2.455536 15.913181 -31.106789
v  3.210049 13.458355 -48.516880
v  5.200367 15.913179 -49.014458
v  0.465218 -1.531656 -48.249660
v  0.465214 -1.531656 -95.008057
v  4.898502 13.458359 -99.403229
v  99.525017 -1.531661 -4.738613
v  99.525024 13.458355 -4.776730
v  49.995125 15.913179 -49.873341
v  6.927601 15.913181 -97.412918
v  93.062637 15.913177 -2.333755
v  99.525017 -1.531661 -79.747429
v  0.465218 -1.531656 -48.249660
v  0.465221 13.458359 -0.343433
v  0.465214 13.458359 -94.969940
v  95.091736 13.458355 -0.343441
v  97.534698 15.913177 -97.412918
v  2.455540 15.913181 -2.333752
v  2.455536 15.913181 -92.940842
v  97.534698 15.913177 -6.805828
v  99.525009 13.458355 -99.403244
v  99.525017 13.458355 -74.872345
v  99.525017 13.458355 -74.872345
v  97.534698 15.913177 -74.872345
v  99.525017 13.458355 -83.533501
v  99.525017 13.458355 -83.533501
v  97.534698 15.913177 -83.424545
v  97.899002 13.458355 -79.202927
v  95.908691 15.913177 -79.148445
v  0.465218 13.458357 -51.778671
v  0.465218 13.458357 -51.778671
v  2.455536 15.913181 -51.778671
v  0.465218 13.458357 -30.111629
v  0.465218 13.458357 -30.111629
v  2.455536 15.913181 -31.106789
v  3.210049 13.458355 -48.516880
v  5.200367 15.913179 -49.014458
v  4.898502 13.458359 -99.403229
v  99.525024 13.458355 -4.776730
v  6.927601 15.913181 -97.412918
v  93.062637 15.913177 -2.333755
v  0.465221 -1.531656 -0.343433
v  4.860386 -1.531657 -99.403229
v  95.129837 -1.531661 -0.343437
v  99.525017 -1.531661 -99.403236
v  0.465214 -1.531656 -95.008057
v  99.525017 -1.531661 -4.738613
v  99.525017 -1.531661 -79.747429
v  99.525017 -1.531661 -79.747429
v  0.465218 -1.531656 -48.249660
v  0.465218 -1.531656 -48.249660
v  2.455536 15.913181 -51.778671
v  0.465218 13.458357 -51.778671
v  0.465218 13.458357 -30.111629
v  2.455536 15.913181 -31.106789
v  5.200367 15.913179 -49.014458
v  3.210049 13.458355 -48.516880
v  97.534698 15.913177 -74.872345
v  95.908691 15.913177 -79.148445
v  99.525017 13.458355 -74.872345
v  99.525017 13.458355 -83.533501
v  97.534698 15.913177 -83.424545
v  97.899002 13.458355 -79.202927
v  97.899002 13.458355 -79.202927
v  99.525017 -1.531661 -79.747429
v  3.210049 13.458355 -48.516880
v  0.465218 -1.531656 -48.249660
v  0.465221 -1.531656 -0.343433
v  0.465221 13.458359 -0.343433
v  0.465214 13.458359 -94.969940
v  4.898502 13.458359 -99.403229
v  4.860386 -1.531657 -99.403229
v  0.465214 -1.531656 -95.008057
v  99.525017 -1.531661 -99.403236
v  99.525009 13.458355 -99.403244
v  95.091736 13.458355 -0.343441
v  99.525024 13.458355 -4.776730
v  95.129837 -1.531661 -0.343437
v  99.525017 -1.531661 -4.738613
v  0.465221 13.458359 -0.343433
v  99.525009 13.458355 -99.403244
v  4.898502 13.458359 -99.403229
v  6.927601 15.913181 -97.412918
v  0.465214 13.458359 -94.969940
v  95.091736 13.458355 -0.343441
v  97.534698 15.913177 -97.412918
v  2.455540 15.913181 -2.333752
v  2.455536 15.913181 -92.940842
v  97.534698 15.913177 -6.805828
v  99.525024 13.458355 -4.776730
v  93.062637 15.913177 -2.333755
# 113 vertices

vt  0.565913 0.957655 0.000499
vt  0.858880 0.957655 0.000500
vt  0.877285 0.950656 0.000501
vt  0.751281 0.753039 0.000501
vt  0.516458 0.520444 0.999498
vt  0.546665 0.548422 0.000501
vt  0.670507 0.548422 0.000501
vt  0.656241 0.520444 0.999499
vt  0.981615 0.985790 0.999498
vt  0.955898 0.957655 0.000501
vt  0.895690 0.957655 0.000501
vt  0.907095 0.985601 0.999498
vt  0.981615 0.535930 0.999500
vt  0.955898 0.567670 0.000502
vt  0.516458 0.964783 0.999497
vt  0.546665 0.938407 0.000499
vt  0.936649 0.548422 0.000502
vt  0.759482 0.548422 0.000502
vt  0.747584 0.560236 0.000503
vt  0.537276 0.985601 0.999497
vt  0.866425 0.985601 0.999498
vt  0.886760 0.977965 0.999498
vt  0.960798 0.520444 0.999500
vt  0.757984 0.520444 0.999500
vt  0.742667 0.533333 0.999500
vt  0.014066 0.274234 0.952626
vt  0.077453 0.274234 0.721883
vt  0.139322 0.274234 -0.002051
vt  0.145137 0.268418 -0.059207
vt  0.145137 0.143163 -0.335574
vt  0.119130 0.143163 -0.137348
vt  0.019882 0.143163 0.619103
vt  0.014066 0.148978 0.676259
vt  0.947343 0.392935 0.000500
vt  0.947343 0.501929 0.000500
vt  0.524765 0.501929 0.000500
vt  0.524765 0.392935 0.000500
vt  0.524765 0.501929 0.999500
vt  0.524765 0.392935 0.999501
vt  0.947343 0.392935 0.999500
vt  0.947343 0.501929 0.999500
vt  0.986726 0.501929 0.045209
vt  0.986726 0.392935 0.044824
vt  0.986905 0.501929 0.954791
vt  0.986905 0.392935 0.955176
vt  0.256236 0.124949 0.028181
vt  0.272529 0.124949 0.000500
vt  0.254901 0.015954 0.000500
vt  0.887557 0.018064 0.999500
vt  0.906470 0.127059 0.999500
vt  0.884837 0.127059 0.983102
vt  0.863204 0.127059 0.999500
vt  0.512959 0.127059 0.999500
vt  0.512959 0.018064 0.999500
vt  0.985805 0.018064 0.999500
vt  0.985805 0.127059 0.999500
vt  0.488379 0.124949 0.000500
vt  0.488379 0.015954 0.000500
vt  0.015533 0.015954 0.000500
vt  0.015533 0.124949 0.000500
vt  0.164296 0.124949 0.000500
# 61 texture vertices

vn  0.000000 0.000000 1.000000
vn  -0.000000 -1.000000 0.000000
vn  0.000000 0.629787 0.776768
vn  -0.707106 0.001798 -0.707106
vn  -0.000000 -1.000000 -0.000000
vn  -0.000000 -0.000000 -1.000000
vn  0.000000 0.000000 1.000000
vn  0.000000 1.000000 0.000000
vn  0.000000 1.000000 0.000000
vn  0.000000 2.356195 0.000000
vn  0.000000 2.356196 0.000000
vn  -0.000000 0.629787 -0.776768
vn  0.930126 0.113579 -0.349236
vn  0.776768 0.629787 0.000000
vn  1.000000 -0.000000 -0.000000
vn  0.000000 1.000000 0.000000
vn  0.930126 0.113579 -0.349236
vn  0.742124 0.607961 -0.282197
vn  0.932516 0.088434 0.350134
vn  -0.756494 0.149870 0.636597
vn  -0.776768 0.629787 0.000000
vn  -1.000000 -0.000000 0.000000
vn  0.000000 1.000000 -0.000000
vn  -0.756494 0.149870 0.636597
vn  -0.614564 0.561467 0.554136
vn  -0.973675 0.175702 -0.145207
vn  -0.000000 -1.000000 0.000000
vn  -0.462205 0.756792 -0.462204
vn  0.000000 -1.000000 0.000000
vn  0.707106 0.001798 0.707106
vn  0.000000 6.184551 0.000000
vn  -0.000000 0.629786 -0.776769
vn  0.000000 2.356193 0.000000
vn  1.000000 0.000000 0.000000
vn  -1.000000 0.000000 0.000000
vn  -1.000000 -0.000000 0.000000
vn  -0.776767 0.629788 0.000000
vn  0.462205 0.756792 0.462204
vn  0.776768 0.629787 -0.000000
vn  -0.776768 0.629787 0.000000
vn  -0.462204 0.756792 -0.462204
vn  0.462204 0.756792 0.462204
vn  1.000000 0.000000 -0.000000
vn  0.745700 0.604597 -0.279989
vn  1.000000 -0.000000 -0.000000
vn  0.000000 1.000000 -0.000000
vn  0.776768 0.629787 -0.000000
vn  0.932516 0.088434 0.350134
vn  0.750005 0.597866 0.282930
vn  0.749098 0.598728 0.283509
vn  0.000000 1.000000 0.000000
vn  -0.615072 0.547209 0.567669
vn  -1.000000 0.000000 0.000000
vn  0.000000 1.000000 0.000000
vn  -0.776768 0.629787 0.000000
vn  -0.973675 0.175702 -0.145207
vn  -0.793238 0.597252 -0.118590
vn  -0.784014 0.609063 -0.119855
vn  -0.000000 1.000000 0.000000
vn  -0.000000 0.000000 -1.000000
vn  0.776767 0.629788 -0.000000
vn  0.000000 2.356194 0.000000
vn  0.000000 0.629786 0.776769
vn  -0.000000 -1.000000 -0.000000
vn  -0.707106 0.001798 -0.707105
vn  0.707106 0.001798 0.707106
vn  -0.000000 -1.000000 0.000000
vn  -1.000000 0.000000 0.000000
vn  1.000000 -0.000000 -0.000000
vn  -0.000000 -1.000000 -0.000000
vn  1.000000 0.000000 -0.000000
vn  -0.000000 -1.000000 0.000000
vn  -1.000000 -0.000000 0.000000
vn  -0.615063 0.498680 0.610750
vn  -0.776768 0.629787 0.000000
vn  -0.794246 0.595939 -0.118448
vn  -0.776768 0.629787 0.000000
vn  -0.782914 0.610446 -0.120003
vn  -0.611854 0.600442 0.514882
vn  0.744373 0.605850 -0.280811
vn  0.747781 0.599975 0.284348
vn  0.776768 0.629787 -0.000000
vn  0.751307 0.596624 0.282095
vn  0.776768 0.629787 -0.000000
vn  0.743465 0.606704 -0.281371
vn  0.932516 0.088434 0.350134
vn  0.930126 0.113579 -0.349236
vn  -0.973675 0.175702 -0.145207
vn  -0.756494 0.149870 0.636597
vn  -1.000000 0.000000 0.000000
vn  0.000000 0.000000 1.000000
vn  -1.000000 -0.000000 0.000000
vn  -0.707106 0.001798 -0.707106
vn  -0.000000 -0.000000 -1.000000
vn  -0.707106 0.001798 -0.707105
vn  1.000000 0.000000 0.000000
vn  -0.000000 -0.000000 -1.000000
vn  0.707106 0.001798 0.707106
vn  1.000000 -0.000000 -0.000000
vn  0.000000 0.000000 1.000000
vn  0.707106 0.001798 0.707106
vn  -0.776768 0.629787 0.000000
vn  0.776768 0.629787 -0.000000
vn  -0.000000 0.629786 -0.776769
vn  -0.462205 0.756792 -0.462204
vn  -0.462204 0.756793 -0.462204
vn  0.000000 0.629786 0.776769
vn  -0.000000 0.629787 -0.776768
vn  0.000000 0.629787 0.776768
vn  -0.776767 0.629788 0.000000
vn  0.776767 0.629788 -0.000000
vn  0.462204 0.756793 0.462204
vn  0.462205 0.756792 0.462204
# 113 vertex normals

g base
s 1
f 24/46/24 20/47/20 89/48/89
f 19/49/19 48/50/48 86/51/86
f 72/27/72 27/28/27 2/29/2
f 72/27/72 2/29/2 67/30/67
f 64/26/64 72/27/72 67/30/67
f 64/26/64 67/30/67 70/31/70
f 70/31/70 29/32/29 5/33/5
f 64/26/64 70/31/70 5/33/5
f 94/34/94 60/35/60 97/36/97
f 97/36/97 6/37/6 94/34/94
f 46/2/46 51/3/51 31/4/31
f 31/4/31 11/1/11 46/2/46
f 91/38/91 1/39/1 100/40/100
f 100/40/100 7/41/7 91/38/91
f 40/6/40 77/7/77 55/8/55
f 55/8/55 102/5/102 40/6/40
f 39/10/39 84/11/84 47/12/47
f 47/12/47 103/9/103 39/10/39
f 104/13/104 32/14/32 108/10/108
f 108/10/108 12/9/12 104/13/104
f 109/6/109 3/5/3 107/15/107
f 107/15/107 63/16/63 109/6/109
f 8/10/8 62/14/62 31/4/31
f 31/4/31 10/17/10 54/18/54
f 54/18/54 59/19/59 31/4/31
f 31/4/31 9/6/9 33/16/33
f 111/1/111 61/20/61 82/21/82
f 82/21/82 14/2/14 111/1/111
f 49/11/49 81/3/81 50/22/50
f 50/22/50 83/12/83 49/11/49
f 80/2/80 44/21/44 85/22/85
f 85/22/85 18/3/18 80/2/80
f 45/52/45 99/53/99 69/54/69
f 69/54/69 34/49/34 45/52/45
f 87/49/87 17/51/17 13/52/13
f 71/49/71 96/55/96 43/56/43
f 43/56/43 15/50/15 71/49/71
f 16/11/16 8/10/8 31/4/31
f 31/4/31 51/3/51 16/11/16
f 110/17/110 37/23/37 75/24/75
f 75/24/75 21/18/21 110/17/110
f 57/7/57 78/19/78 58/25/58
f 58/25/58 76/8/76 57/7/57
f 25/19/25 74/18/74 52/24/52
f 52/24/52 79/25/79 25/19/25
f 23/7/23 9/6/9 31/4/31
f 31/4/31 59/19/59 23/7/23
f 53/47/53 92/57/92 68/58/68
f 68/58/68 35/48/35 53/47/53
f 73/48/73 90/59/90 36/60/36
f 36/60/36 22/61/22 73/48/73
f 56/61/56 88/46/88 26/48/26
f 10/17/10 31/4/31 62/14/62
f 11/1/11 31/4/31 33/16/33
f 4/42/4 93/35/93 65/34/65
f 65/34/65 95/43/95 4/42/4
f 30/44/30 98/41/98 66/40/66
f 66/40/66 101/45/101 30/44/30
f 41/17/41 105/14/105 28/13/28
f 28/13/28 106/23/106 41/17/41
f 42/1/42 113/16/113 38/15/38
f 38/15/38 112/20/112 42/1/42
# 62 faces

g
# object light to come ...
#
v  54.852612 36.864670 -82.066368
v  49.984520 36.864670 -79.255768
v  45.116432 36.864670 -82.066360
v  45.116432 36.864670 -87.687546
v  49.984520 36.864670 -90.498138
v  54.852608 36.864670 -87.687546
v  54.852612 28.291975 -82.066368
v  49.984520 28.291975 -79.255775
v  45.116436 28.291975 -82.066360
v  45.116432 28.291975 -87.687553
v  49.984524 28.291975 -90.498146
v  54.852608 28.291975 -87.687546
v  54.852608 11.825165 -82.066368
v  49.984520 11.825165 -79.255783
v  45.116436 11.825165 -82.066368
v  45.116436 11.825167 -87.687546
v  49.984524 11.825167 -90.498146
v  54.852608 11.825167 -87.687546
v  49.984520 33.634380 -79.255775
v  54.852612 33.634380 -82.066368
v  45.116432 33.634380 -82.066360
v  45.116432 33.634380 -87.687553
v  49.984524 33.634380 -90.498146
v  54.852608 33.634380 -87.687546
v  53.102791 30.178432 -83.076630
v  49.984524 30.178432 -81.276291
v  46.866249 30.178432 -83.076630
v  46.866253 30.178432 -86.677292
v  49.984520 30.178432 -88.477631
v  53.102791 30.178432 -86.677292
v  49.984520 38.978012 -84.876961
v  51.047016 34.769398 -79.986382
v  52.561485 36.518147 -80.860764
v  51.687107 34.769394 -82.375229
v  52.561485 33.020641 -80.860764
v  53.435860 34.769398 -79.346298
v  54.075947 34.769398 -81.735138
v  44.525272 35.686508 -83.516266
v  45.166584 36.804607 -82.600372
v  46.082481 35.686508 -83.241684
v  45.166584 34.568405 -82.600372
v  44.250690 35.686508 -81.959053
v  45.807899 35.686508 -81.684471
v  46.005672 36.150612 -89.430748
v  46.824566 34.419495 -90.177544
v  47.784195 35.446873 -88.677994
v  47.757153 37.150440 -89.827843
v  46.797523 36.123070 -91.327393
v  48.576046 35.419327 -90.574631
v  55.445007 35.736034 -84.857834
v  55.445007 36.963787 -86.085587
v  54.217255 35.736034 -86.085587
v  55.445007 34.508274 -86.085587
v  56.672768 35.736034 -86.085587
v  55.445007 35.736034 -87.313339
v  47.789066 38.293083 -85.268768
v  49.254475 38.326241 -87.260689
v  49.636898 36.661949 -85.471786
v  49.773689 38.484371 -83.805557
v  49.391266 40.148666 -85.594467
v  51.239090 38.517525 -85.797493
v  50.010059 51.803078 -84.851952
v  57.177536 47.024761 -88.990097
v  50.010056 47.024761 -93.128235
v  42.842579 47.024761 -88.990097
v  42.842583 47.024761 -80.713806
v  50.010059 47.024761 -76.575661
v  57.177536 47.024761 -80.713806
v  57.177536 37.468128 -88.990097
v  50.010056 37.468128 -93.128242
v  42.842579 37.468128 -88.990097
v  42.842583 37.468128 -80.713806
v  50.010059 37.468128 -76.575661
v  57.177536 37.468128 -80.713814
v  50.010059 33.283073 -84.851952
v  54.818321 49.981419 -87.628006
v  50.010056 49.981419 -90.404053
v  45.201797 49.981419 -87.628006
v  45.201797 49.981419 -82.075897
v  50.010059 49.981422 -79.299850
v  54.818321 49.981422 -82.075905
v  58.495094 42.246445 -89.750793
v  50.010056 42.246445 -94.649628
v  41.525017 42.246445 -89.750793
v  41.525021 42.246445 -79.953110
v  50.010059 42.246445 -75.054268
v  58.495098 42.246445 -79.953110
v  54.852612 28.291975 -82.066368
v  49.984520 28.291975 -79.255775
v  45.116436 28.291975 -82.066360
v  45.116432 28.291975 -87.687553
v  49.984524 28.291975 -90.498146
v  54.852608 28.291975 -87.687546
# 93 vertices

vt  0.562159 0.218579 0.000500
vt  0.562160 0.302781 0.000500
vt  0.562160 0.374354 0.500000
vt  0.562159 0.302781 0.999500
vt  0.562159 0.218579 0.999500
vt  0.562159 0.147006 0.500000
vt  0.723726 0.218579 0.000500
vt  0.723726 0.302781 0.000500
vt  0.723726 0.374354 0.500000
vt  0.723726 0.302781 0.999500
vt  0.723726 0.218579 0.999500
vt  0.723726 0.147006 0.500000
vt  0.983264 0.218579 0.000500
vt  0.983264 0.302781 0.000500
vt  0.983264 0.374354 0.500000
vt  0.983264 0.302781 0.999501
vt  0.983264 0.218579 0.999500
vt  0.983264 0.147006 0.500000
vt  0.615754 0.302781 0.000500
vt  0.615754 0.218579 0.000500
vt  0.615754 0.374354 0.500000
vt  0.615754 0.302781 0.999500
vt  0.615754 0.218579 0.999500
vt  0.615754 0.147006 0.500000
vt  0.678617 0.218579 0.180043
vt  0.678617 0.302781 0.180043
vt  0.678617 0.374354 0.500000
vt  0.678617 0.302781 0.819957
vt  0.678617 0.218579 0.819957
vt  0.678617 0.147006 0.500000
vt  0.527096 0.260680 0.500000
vt  0.500863 0.172451 0.999500
vt  0.491823 0.197288 0.500000
vt  0.476026 0.163410 0.500000
vt  0.509903 0.147613 0.500000
vt  0.525701 0.181491 0.500000
vt  0.500863 0.172451 0.000500
vt  0.500863 0.172451 0.999500
vt  0.491823 0.197288 0.500000
vt  0.476026 0.163410 0.500000
vt  0.509903 0.147613 0.500000
vt  0.525701 0.181491 0.500000
vt  0.500863 0.172451 0.000500
vt  0.500863 0.172451 0.999500
vt  0.491823 0.197288 0.500000
vt  0.476026 0.163410 0.500000
vt  0.509903 0.147613 0.500000
vt  0.525701 0.181491 0.500000
vt  0.500863 0.172451 0.000500
vt  0.500863 0.172451 0.999500
vt  0.491823 0.197288 0.500000
vt  0.476026 0.163410 0.500000
vt  0.509903 0.147613 0.500000
vt  0.525701 0.181491 0.500000
vt  0.500863 0.172451 0.000500
vt  0.500863 0.172451 0.999500
vt  0.491823 0.197288 0.500000
vt  0.476026 0.163410 0.500000
vt  0.509903 0.147613 0.500000
vt  0.525701 0.181491 0.500000
vt  0.500863 0.172451 0.000500
vt  0.522300 0.322091 0.500000
vt  0.399371 0.490219 0.500000
vt  0.379046 0.383300 0.921938
vt  0.379046 0.260882 0.921938
vt  0.399371 0.153962 0.500000
vt  0.379046 0.260882 0.078062
vt  0.379046 0.383300 0.078062
vt  0.215044 0.476055 0.500000
vt  0.215044 0.378143 0.921938
vt  0.215044 0.266039 0.921938
vt  0.215044 0.168127 0.500000
vt  0.215044 0.266039 0.078062
vt  0.215044 0.378143 0.078062
vt  0.137421 0.322091 0.500000
vt  0.474969 0.441646 0.500000
vt  0.443700 0.363153 0.783054
vt  0.443700 0.281029 0.783054
vt  0.474969 0.202536 0.500000
vt  0.443700 0.281029 0.216945
vt  0.443700 0.363153 0.216946
vt  0.297843 0.504357 0.500000
vt  0.297843 0.388447 0.999500
vt  0.297843 0.255735 0.999500
vt  0.297843 0.139825 0.500000
vt  0.297843 0.255735 0.000500
vt  0.297843 0.388447 0.000500
# 87 texture vertices

vn  2.571979 0.994116 1.734097
vn  -0.215783 0.994113 3.094446
vn  -2.787761 0.994115 1.360350
vn  -2.787763 0.994119 -1.360349
vn  0.215783 0.994119 -3.094448
vn  2.571979 0.994116 -1.734098
vn  0.866026 -0.000000 0.500000
vn  0.000000 0.730939 0.682443
vn  -0.591012 0.730939 0.341222
vn  -0.591012 0.730939 -0.341221
vn  0.000000 0.730940 -0.682442
vn  0.866026 0.000000 -0.500000
vn  0.866025 -0.000000 0.500000
vn  -0.000000 -0.000000 1.000000
vn  -0.866025 -0.000000 0.500000
vn  -0.866026 -0.000000 -0.499999
vn  0.000000 -0.000000 -1.000000
vn  0.866026 -0.000000 -0.500000
vn  -0.000000 -0.242573 0.970133
vn  0.840160 -0.242572 0.485066
vn  -0.840160 -0.242572 0.485067
vn  -0.840160 -0.242572 -0.485067
vn  0.000000 -0.242572 -0.970133
vn  0.840160 -0.242572 -0.485066
vn  0.851087 0.184935 0.491375
vn  0.000000 0.184935 0.982751
vn  -0.851087 0.184935 0.491375
vn  -0.851087 0.184935 -0.491376
vn  0.000000 0.184935 -0.982751
vn  0.851087 0.184934 -0.491376
vn  0.000000 1.000000 -0.000000
vn  -0.866025 0.000001 0.500000
vn  0.000000 1.000000 -0.000000
vn  -0.499999 -0.000000 -0.866026
vn  0.000000 -1.000000 0.000001
vn  0.500001 0.000001 0.866025
vn  0.866026 0.000001 -0.500000
vn  -0.573575 0.000001 -0.819153
vn  -0.000000 1.000000 0.000001
vn  0.819152 0.000001 -0.573577
vn  -0.000000 -1.000000 0.000001
vn  -0.819153 0.000001 0.573575
vn  0.573576 0.000001 0.819153
vn  -0.884232 0.251568 0.393507
vn  -0.320818 -0.939470 -0.120301
vn  0.339423 -0.232616 0.911417
vn  0.320819 0.939470 0.120299
vn  -0.339423 0.232619 -0.911417
vn  0.884233 -0.251568 -0.393505
vn  -0.000002 0.000001 1.000000
vn  -0.000000 1.000000 0.000001
vn  -1.000000 0.000001 -0.000001
vn  -0.000000 -1.000000 0.000001
vn  1.000000 0.000001 -0.000001
vn  -0.000001 0.000001 -1.000000
vn  -0.986423 -0.064173 0.151167
vn  -0.148453 -0.045214 -0.987885
vn  0.070231 -0.996914 0.035073
vn  0.148453 0.045214 0.987885
vn  -0.070229 0.996914 -0.035075
vn  0.986422 0.064171 -0.151174
vn  0.000000 1.000000 -0.000000
vn  0.762371 0.474398 -0.440155
vn  -0.000000 0.474399 -0.880310
vn  -0.762371 0.474398 -0.440155
vn  -0.762371 0.474398 0.440155
vn  0.000000 0.474399 0.880310
vn  0.762371 0.474398 0.440155
vn  0.697455 -0.592797 -0.402676
vn  -0.000000 -0.592797 -0.805352
vn  -0.697456 -0.592797 -0.402676
vn  -0.697455 -0.592797 0.402676
vn  0.000000 -0.592797 0.805352
vn  0.697456 -0.592797 0.402676
vn  0.000000 -1.000000 0.000000
vn  0.514827 0.804117 -0.297236
vn  -0.000000 0.804117 -0.594471
vn  -0.514827 0.804117 -0.297236
vn  -0.514827 0.804117 0.297236
vn  -0.000000 0.804117 0.594471
vn  0.514828 0.804117 0.297235
vn  0.866025 -0.000000 -0.500000
vn  -0.000000 0.000000 -1.000000
vn  -0.866026 0.000000 -0.500000
vn  -0.866025 0.000000 0.500000
vn  0.000000 -0.000000 1.000000
vn  0.866026 -0.000000 0.500000
vn  0.591012 0.730939 0.341221
vn  0.000000 -0.000000 1.000000
vn  -0.866025 -0.000000 0.500000
vn  -0.866026 -0.000000 -0.500000
vn  0.000000 -0.000000 -1.000000
vn  0.591013 0.730939 -0.341221
# 93 vertex normals

g light
s 1
f 115/63/115 132/80/132 133/81/133
f 133/81/133 114/62/114 115/63/115
f 116/64/116 134/82/134 132/80/132
f 132/80/132 115/63/115 116/64/116
f 117/65/117 135/83/135 134/82/134
f 134/82/134 116/64/116 117/65/117
f 118/66/118 136/84/136 135/83/135
f 135/83/135 117/65/117 118/66/118
f 119/67/119 137/85/137 136/84/136
f 136/84/136 118/66/118 119/67/119
f 114/62/114 133/81/133 137/85/137
f 137/85/137 119/67/119 114/62/114
f 202/69/202 127/75/127 126/74/126
f 126/74/126 120/68/120 202/69/202
f 202/69/202 203/70/203 128/76/128
f 128/76/128 127/75/127 202/69/202
f 203/70/203 204/71/204 129/77/129
f 129/77/129 128/76/128 203/70/203
f 204/71/204 205/72/205 130/78/130
f 130/78/130 129/77/129 204/71/204
f 205/72/205 125/73/125 131/79/131
f 131/79/131 130/78/130 205/72/205
f 120/68/120 126/74/126 131/79/131
f 131/79/131 125/73/125 120/68/120
f 117/65/117 116/64/116 144/92/144
f 139/87/139 138/86/138 133/81/133
f 133/81/133 132/80/132 139/87/139
f 140/88/140 139/87/139 132/80/132
f 132/80/132 134/82/134 140/88/140
f 141/89/141 140/88/140 134/82/134
f 134/82/134 135/83/135 141/89/141
f 142/90/142 141/89/141 135/83/135
f 135/83/135 136/84/136 142/90/142
f 143/91/143 142/90/142 136/84/136
f 136/84/136 137/85/137 143/91/143
f 138/86/138 143/91/143 137/85/137
f 137/85/137 133/81/133 138/86/138
f 121/69/121 201/68/201 138/86/138
f 138/86/138 139/87/139 121/69/121
f 122/70/122 121/69/121 139/87/139
f 139/87/139 140/88/140 122/70/122
f 123/71/123 122/70/122 140/88/140
f 140/88/140 141/89/141 123/71/123
f 124/72/124 123/71/123 141/89/141
f 141/89/141 142/90/142 124/72/124
f 206/73/206 124/72/124 142/90/142
f 142/90/142 143/91/143 206/73/206
f 201/68/201 206/73/206 143/91/143
f 143/91/143 138/86/138 201/68/201
f 119/67/119 118/66/118 144/92/144
f 116/64/116 115/63/115 144/92/144
f 144/92/144 115/63/115 114/62/114
f 114/62/114 119/67/119 144/92/144
f 144/92/144 118/66/118 117/65/117
f 145/93/145 146/94/146 147/95/147
f 145/93/145 147/95/147 148/96/148
f 145/93/145 148/96/148 149/97/149
f 145/93/145 149/97/149 146/94/146
f 150/98/150 147/95/147 146/94/146
f 150/98/150 148/96/148 147/95/147
f 150/98/150 149/97/149 148/96/148
f 150/98/150 146/94/146 149/97/149
f 151/99/151 152/100/152 153/101/153
f 151/99/151 153/101/153 154/102/154
f 151/99/151 154/102/154 155/103/155
f 151/99/151 155/103/155 152/100/152
f 156/104/156 153/101/153 152/100/152
f 156/104/156 154/102/154 153/101/153
f 156/104/156 155/103/155 154/102/154
f 156/104/156 152/100/152 155/103/155
f 157/105/157 158/106/158 159/107/159
f 157/105/157 159/107/159 160/108/160
f 157/105/157 160/108/160 161/109/161
f 157/105/157 161/109/161 158/106/158
f 162/110/162 159/107/159 158/106/158
f 162/110/162 160/108/160 159/107/159
f 162/110/162 161/109/161 160/108/160
f 162/110/162 158/106/158 161/109/161
f 163/111/163 164/112/164 165/113/165
f 163/111/163 165/113/165 166/114/166
f 163/111/163 166/114/166 167/115/167
f 163/111/163 167/115/167 164/112/164
f 168/116/168 165/113/165 164/112/164
f 168/116/168 166/114/166 165/113/165
f 168/116/168 167/115/167 166/114/166
f 168/116/168 164/112/164 167/115/167
f 169/117/169 170/118/170 171/119/171
f 169/117/169 171/119/171 172/120/172
f 169/117/169 172/120/172 173/121/173
f 169/117/169 173/121/173 170/118/170
f 174/122/174 171/119/171 170/118/170
f 174/122/174 172/120/172 171/119/171
f 174/122/174 173/121/173 172/120/172
f 174/122/174 170/118/170 173/121/173
f 175/123/175 189/137/189 190/138/190
f 175/123/175 190/138/190 191/139/191
f 175/123/175 191/139/191 192/140/192
f 175/123/175 192/140/192 193/141/193
f 175/123/175 193/141/193 194/142/194
f 175/123/175 194/142/194 189/137/189
f 195/143/195 196/144/196 177/125/177
f 177/125/177 176/124/176 195/143/195
f 196/144/196 197/145/197 178/126/178
f 178/126/178 177/125/177 196/144/196
f 197/145/197 198/146/198 179/127/179
f 179/127/179 178/126/178 197/145/197
f 198/146/198 199/147/199 180/128/180
f 180/128/180 179/127/179 198/146/198
f 199/147/199 200/148/200 181/129/181
f 181/129/181 180/128/180 199/147/199
f 200/148/200 195/143/195 176/124/176
f 176/124/176 181/129/181 200/148/200
f 188/136/188 183/131/183 182/130/182
f 188/136/188 184/132/184 183/131/183
f 188/136/188 185/133/185 184/132/184
f 188/136/188 186/134/186 185/133/185
f 188/136/188 187/135/187 186/134/186
f 188/136/188 182/130/182 187/135/187
f 177/125/177 190/138/190 189/137/189
f 189/137/189 176/124/176 177/125/177
f 178/126/178 191/139/191 190/138/190
f 190/138/190 177/125/177 178/126/178
f 179/127/179 192/140/192 191/139/191
f 191/139/191 178/126/178 179/127/179
f 180/128/180 193/141/193 192/140/192
f 192/140/192 179/127/179 180/128/180
f 181/129/181 194/142/194 193/141/193
f 193/141/193 180/128/180 181/129/181
f 181/129/181 176/124/176 189/137/189
f 189/137/189 194/142/194 181/129/181
f 182/130/182 183/131/183 196/144/196
f 196/144/196 195/143/195 182/130/182
f 183/131/183 184/132/184 197/145/197
f 197/145/197 196/144/196 183/131/183
f 184/132/184 185/133/185 198/146/198
f 198/146/198 197/145/197 184/132/184
f 185/133/185 186/134/186 199/147/199
f 199/147/199 198/146/198 185/133/185
f 186/134/186 187/135/187 200/148/200
f 200/148/200 199/147/199 186/134/186
f 187/135/187 182/130/182 195/143/195
f 195/143/195 200/148/200 187/135/187
# 142 faces

g
# object switch to come ...
#
v  54.852612 36.864670 -50.110741
v  49.984520 36.864670 -47.300148
v  45.116432 36.864670 -50.110741
v  45.116432 36.864670 -55.731926
v  49.984520 36.864670 -58.542519
v  54.852608 36.864670 -55.731926
v  54.852612 28.291975 -50.110741
v  49.984520 28.291975 -47.300148
v  45.116436 28.291975 -50.110741
v  45.116432 28.291975 -55.731926
v  49.984524 28.291975 -58.542519
v  54.852608 28.291975 -55.731926
v  54.852608 11.825165 -50.110741
v  49.984520 11.825165 -47.300156
v  45.116436 11.825165 -50.110741
v  45.116436 11.825167 -55.731926
v  49.984524 11.825167 -58.542519
v  54.852608 11.825167 -55.731926
v  49.984520 33.634380 -47.300148
v  54.852612 33.634380 -50.110741
v  45.116432 33.634380 -50.110741
v  45.116432 33.634380 -55.731926
v  49.984524 33.634380 -58.542519
v  54.852608 33.634380 -55.731926
v  53.102791 30.178432 -51.121002
v  49.984524 30.178432 -49.320663
v  46.866249 30.178432 -51.121002
v  46.866253 30.178432 -54.721672
v  49.984520 30.178432 -56.522003
v  53.102791 30.178432 -54.721672
v  49.984520 38.978012 -52.921333
v  51.047016 34.769398 -48.030754
v  52.561485 36.518147 -48.905136
v  51.687107 34.769394 -50.419601
v  52.561485 33.020641 -48.905136
v  53.435860 34.769398 -47.390671
v  54.075947 34.769398 -49.779510
v  44.525272 35.686508 -51.560638
v  45.166584 36.804607 -50.644745
v  46.082481 35.686508 -51.286064
v  45.166584 34.568405 -50.644745
v  44.250690 35.686508 -50.003426
v  45.807899 35.686508 -49.728848
v  46.005672 36.150612 -57.475121
v  46.824566 34.419495 -58.221916
v  47.784195 35.446873 -56.722366
v  47.757153 37.150440 -57.872215
v  46.797523 36.123070 -59.371765
v  48.576046 35.419327 -58.619003
v  55.445007 35.736034 -52.902206
v  55.445007 36.963787 -54.129959
v  54.217255 35.736034 -54.129967
v  55.445007 34.508274 -54.129959
v  56.672768 35.736034 -54.129967
v  55.445007 35.736034 -55.357719
v  47.789066 38.293083 -53.313148
v  49.254475 38.326241 -55.305061
v  49.636898 36.661949 -53.516167
v  49.773689 38.484371 -51.849930
v  49.391266 40.148666 -53.638840
v  51.239090 38.517525 -53.841866
v  50.010059 51.803078 -52.896324
v  57.177536 47.024761 -57.034470
v  50.010056 47.024761 -61.172615
v  42.842579 47.024761 -57.034470
v  42.842583 47.024761 -48.758183
v  50.010059 47.024761 -44.620037
v  57.177536 47.024761 -48.758183
v  57.177536 37.468128 -57.034470
v  50.010056 37.468128 -61.172615
v  42.842579 37.468128 -57.034470
v  42.842583 37.468128 -48.758183
v  50.010059 37.468128 -44.620037
v  57.177536 37.468128 -48.758186
v  50.010059 33.283073 -52.896324
v  54.818321 49.981419 -55.672379
v  50.010056 49.981419 -58.448425
v  45.201797 49.981419 -55.672379
v  45.201797 49.981419 -50.120277
v  50.010059 49.981422 -47.344227
v  54.818321 49.981422 -50.120277
v  58.495094 42.246445 -57.795166
v  50.010056 42.246445 -62.694008
v  41.525017 42.246445 -57.795166
v  41.525021 42.246445 -47.997482
v  50.010059 42.246445 -43.098640
v  58.495098 42.246445 -47.997490
v  54.852612 28.291975 -50.110741
v  49.984520 28.291975 -47.300148
v  45.116436 28.291975 -50.110741
v  45.116432 28.291975 -55.731926
v  49.984524 28.291975 -58.542519
v  54.852608 28.291975 -55.731926
# 93 vertices

vt  0.562159 0.218579 0.000500
vt  0.562160 0.302781 0.000500
vt  0.562160 0.374354 0.500000
vt  0.562159 0.302781 0.999500
vt  0.562159 0.218579 0.999500
vt  0.562159 0.147006 0.500000
vt  0.723726 0.218579 0.000500
vt  0.723726 0.302781 0.000500
vt  0.723726 0.374354 0.500000
vt  0.723726 0.302781 0.999500
vt  0.723726 0.218579 0.999500
vt  0.723726 0.147006 0.500000
vt  0.983264 0.218579 0.000500
vt  0.983264 0.302781 0.000500
vt  0.983264 0.374354 0.500000
vt  0.983264 0.302781 0.999501
vt  0.983264 0.218579 0.999500
vt  0.983264 0.147006 0.500000
vt  0.615754 0.302781 0.000500
vt  0.615754 0.218579 0.000500
vt  0.615754 0.374354 0.500000
vt  0.615754 0.302781 0.999500
vt  0.615754 0.218579 0.999500
vt  0.615754 0.147006 0.500000
vt  0.678617 0.218579 0.180043
vt  0.678617 0.302781 0.180043
vt  0.678617 0.374354 0.500000
vt  0.678617 0.302781 0.819957
vt  0.678617 0.218579 0.819957
vt  0.678617 0.147006 0.500000
vt  0.527096 0.260680 0.500000
vt  0.500373 0.170692 0.999500
vt  0.490189 0.198672 0.500000
vt  0.472393 0.160508 0.500000
vt  0.510556 0.142712 0.500000
vt  0.528352 0.180876 0.500000
vt  0.500373 0.170692 0.000500
vt  0.500373 0.170692 0.999500
vt  0.490189 0.198672 0.500000
vt  0.472393 0.160508 0.500000
vt  0.510556 0.142712 0.500000
vt  0.528352 0.180876 0.500000
vt  0.500373 0.170692 0.000500
vt  0.500373 0.170692 0.999500
vt  0.490189 0.198672 0.500000
vt  0.472393 0.160508 0.500000
vt  0.510556 0.142712 0.500000
vt  0.528352 0.180876 0.500000
vt  0.500373 0.170692 0.000500
vt  0.500373 0.170692 0.999500
vt  0.490189 0.198672 0.500000
vt  0.472393 0.160508 0.500000
vt  0.510556 0.142712 0.500000
vt  0.528352 0.180876 0.500000
vt  0.500373 0.170692 0.000500
vt  0.500373 0.170692 0.999500
vt  0.490189 0.198672 0.500000
vt  0.472393 0.160508 0.500000
vt  0.510556 0.142712 0.500000
vt  0.528352 0.180876 0.500000
vt  0.500373 0.170692 0.000500
vt  0.522300 0.322091 0.500000
vt  0.399371 0.490219 0.500000
vt  0.379046 0.383300 0.921938
vt  0.379046 0.260882 0.921938
vt  0.399371 0.153962 0.500000
vt  0.379046 0.260882 0.078062
vt  0.379046 0.383300 0.078062
vt  0.215044 0.476055 0.500000
vt  0.215044 0.378143 0.921938
vt  0.215044 0.266039 0.921938
vt  0.215044 0.168127 0.500000
vt  0.215044 0.266039 0.078062
vt  0.215044 0.378143 0.078062
vt  0.137421 0.322091 0.500000
vt  0.474969 0.441646 0.500000
vt  0.443700 0.363153 0.783054
vt  0.443700 0.281029 0.783054
vt  0.474969 0.202536 0.500000
vt  0.443700 0.281029 0.216945
vt  0.443700 0.363153 0.216946
vt  0.297843 0.504357 0.500000
vt  0.297843 0.388447 0.999500
vt  0.297843 0.255735 0.999500
vt  0.297843 0.139825 0.500000
vt  0.297843 0.255735 0.000500
vt  0.297843 0.388447 0.000500
# 87 texture vertices

vn  2.571979 0.994116 1.734097
vn  -0.215783 0.994113 3.094446
vn  -2.787761 0.994115 1.360350
vn  -2.787763 0.994119 -1.360349
vn  0.215783 0.994119 -3.094448
vn  2.571979 0.994116 -1.734098
vn  0.866026 -0.000000 0.500000
vn  0.000000 0.730939 0.682443
vn  -0.591012 0.730939 0.341222
vn  -0.591012 0.730939 -0.341221
vn  0.000000 0.730940 -0.682442
vn  0.866026 0.000000 -0.500000
vn  0.866025 -0.000000 0.500000
vn  -0.000000 -0.000000 1.000000
vn  -0.866025 -0.000000 0.500000
vn  -0.866026 -0.000000 -0.499999
vn  0.000000 -0.000000 -1.000000
vn  0.866026 -0.000000 -0.500000
vn  -0.000000 -0.242573 0.970133
vn  0.840160 -0.242572 0.485066
vn  -0.840160 -0.242572 0.485067
vn  -0.840160 -0.242572 -0.485067
vn  0.000000 -0.242572 -0.970133
vn  0.840160 -0.242572 -0.485066
vn  0.851087 0.184935 0.491375
vn  0.000000 0.184935 0.982751
vn  -0.851087 0.184935 0.491375
vn  -0.851087 0.184935 -0.491376
vn  0.000000 0.184935 -0.982751
vn  0.851087 0.184934 -0.491376
vn  0.000000 1.000000 -0.000000
vn  -0.866025 0.000001 0.500000
vn  0.000000 1.000000 -0.000000
vn  -0.499999 -0.000000 -0.866026
vn  0.000000 -1.000000 0.000001
vn  0.500001 0.000001 0.866025
vn  0.866026 0.000001 -0.500000
vn  -0.573575 0.000001 -0.819153
vn  -0.000000 1.000000 0.000001
vn  0.819152 0.000001 -0.573577
vn  -0.000000 -1.000000 0.000001
vn  -0.819153 0.000001 0.573575
vn  0.573576 0.000001 0.819153
vn  -0.884232 0.251568 0.393507
vn  -0.320818 -0.939470 -0.120301
vn  0.339423 -0.232616 0.911417
vn  0.320819 0.939470 0.120299
vn  -0.339423 0.232619 -0.911417
vn  0.884233 -0.251568 -0.393505
vn  -0.000002 0.000001 1.000000
vn  -0.000000 1.000000 0.000001
vn  -1.000000 0.000001 -0.000001
vn  -0.000000 -1.000000 0.000001
vn  1.000000 0.000001 -0.000001
vn  -0.000001 0.000001 -1.000000
vn  -0.986423 -0.064173 0.151167
vn  -0.148453 -0.045214 -0.987885
vn  0.070231 -0.996914 0.035073
vn  0.148453 0.045214 0.987885
vn  -0.070229 0.996914 -0.035075
vn  0.986422 0.064171 -0.151174
vn  0.000000 1.000000 -0.000000
vn  0.762371 0.474398 -0.440155
vn  -0.000000 0.474399 -0.880310
vn  -0.762371 0.474398 -0.440155
vn  -0.762371 0.474398 0.440155
vn  0.000000 0.474399 0.880310
vn  0.762371 0.474398 0.440155
vn  0.697455 -0.592797 -0.402676
vn  -0.000000 -0.592797 -0.805352
vn  -0.697456 -0.592797 -0.402676
vn  -0.697455 -0.592797 0.402676
vn  0.000000 -0.592797 0.805352
vn  0.697456 -0.592797 0.402676
vn  0.000000 -1.000000 0.000000
vn  0.514827 0.804117 -0.297236
vn  -0.000000 0.804117 -0.594471
vn  -0.514827 0.804117 -0.297236
vn  -0.514827 0.804117 0.297236
vn  -0.000000 0.804117 0.594471
vn  0.514828 0.804117 0.297235
vn  0.866025 -0.000000 -0.500000
vn  -0.000000 0.000000 -1.000000
vn  -0.866026 0.000000 -0.500000
vn  -0.866025 0.000000 0.500000
vn  0.000000 -0.000000 1.000000
vn  0.866026 -0.000000 0.500000
vn  0.591012 0.730939 0.341221
vn  0.000000 -0.000000 1.000000
vn  -0.866025 -0.000000 0.500000
vn  -0.866026 -0.000000 -0.500000
vn  0.000000 -0.000000 -1.000000
vn  0.591013 0.730939 -0.341221
# 93 vertex normals

g switch
s 1
f 208/150/208 225/167/225 226/168/226
f 226/168/226 207/149/207 208/150/208
f 209/151/209 227/169/227 225/167/225
f 225/167/225 208/150/208 209/151/209
f 210/152/210 228/170/228 227/169/227
f 227/169/227 209/151/209 210/152/210
f 211/153/211 229/171/229 228/170/228
f 228/170/228 210/152/210 211/153/211
f 212/154/212 230/172/230 229/171/229
f 229/171/229 211/153/211 212/154/212
f 207/149/207 226/168/226 230/172/230
f 230/172/230 212/154/212 207/149/207
f 295/156/295 220/162/220 219/161/219
f 219/161/219 213/155/213 295/156/295
f 295/156/295 296/157/296 221/163/221
f 221/163/221 220/162/220 295/156/295
f 296/157/296 297/158/297 222/164/222
f 222/164/222 221/163/221 296/157/296
f 297/158/297 298/159/298 223/165/223
f 223/165/223 222/164/222 297/158/297
f 298/159/298 218/160/218 224/166/224
f 224/166/224 223/165/223 298/159/298
f 213/155/213 219/161/219 224/166/224
f 224/166/224 218/160/218 213/155/213
f 210/152/210 209/151/209 237/179/237
f 232/174/232 231/173/231 226/168/226
f 226/168/226 225/167/225 232/174/232
f 233/175/233 232/174/232 225/167/225
f 225/167/225 227/169/227 233/175/233
f 234/176/234 233/175/233 227/169/227
f 227/169/227 228/170/228 234/176/234
f 235/177/235 234/176/234 228/170/228
f 228/170/228 229/171/229 235/177/235
f 236/178/236 235/177/235 229/171/229
f 229/171/229 230/172/230 236/178/236
f 231/173/231 236/178/236 230/172/230
f 230/172/230 226/168/226 231/173/231
f 214/156/214 294/155/294 231/173/231
f 231/173/231 232/174/232 214/156/214
f 215/157/215 214/156/214 232/174/232
f 232/174/232 233/175/233 215/157/215
f 216/158/216 215/157/215 233/175/233
f 233/175/233 234/176/234 216/158/216
f 217/159/217 216/158/216 234/176/234
f 234/176/234 235/177/235 217/159/217
f 299/160/299 217/159/217 235/177/235
f 235/177/235 236/178/236 299/160/299
f 294/155/294 299/160/299 236/178/236
f 236/178/236 231/173/231 294/155/294
f 212/154/212 211/153/211 237/179/237
f 209/151/209 208/150/208 237/179/237
f 237/179/237 208/150/208 207/149/207
f 207/149/207 212/154/212 237/179/237
f 237/179/237 211/153/211 210/152/210
f 238/180/238 239/181/239 240/182/240
f 238/180/238 240/182/240 241/183/241
f 238/180/238 241/183/241 242/184/242
f 238/180/238 242/184/242 239/181/239
f 243/185/243 240/182/240 239/181/239
f 243/185/243 241/183/241 240/182/240
f 243/185/243 242/184/242 241/183/241
f 243/185/243 239/181/239 242/184/242
f 244/186/244 245/187/245 246/188/246
f 244/186/244 246/188/246 247/189/247
f 244/186/244 247/189/247 248/190/248
f 244/186/244 248/190/248 245/187/245
f 249/191/249 246/188/246 245/187/245
f 249/191/249 247/189/247 246/188/246
f 249/191/249 248/190/248 247/189/247
f 249/191/249 245/187/245 248/190/248
f 250/192/250 251/193/251 252/194/252
f 250/192/250 252/194/252 253/195/253
f 250/192/250 253/195/253 254/196/254
f 250/192/250 254/196/254 251/193/251
f 255/197/255 252/194/252 251/193/251
f 255/197/255 253/195/253 252/194/252
f 255/197/255 254/196/254 253/195/253
f 255/197/255 251/193/251 254/196/254
f 256/198/256 257/199/257 258/200/258
f 256/198/256 258/200/258 259/201/259
f 256/198/256 259/201/259 260/202/260
f 256/198/256 260/202/260 257/199/257
f 261/203/261 258/200/258 257/199/257
f 261/203/261 259/201/259 258/200/258
f 261/203/261 260/202/260 259/201/259
f 261/203/261 257/199/257 260/202/260
f 262/204/262 263/205/263 264/206/264
f 262/204/262 264/206/264 265/207/265
f 262/204/262 265/207/265 266/208/266
f 262/204/262 266/208/266 263/205/263
f 267/209/267 264/206/264 263/205/263
f 267/209/267 265/207/265 264/206/264
f 267/209/267 266/208/266 265/207/265
f 267/209/267 263/205/263 266/208/266
f 268/210/268 282/224/282 283/225/283
f 268/210/268 283/225/283 284/226/284
f 268/210/268 284/226/284 285/227/285
f 268/210/268 285/227/285 286/228/286
f 268/210/268 286/228/286 287/229/287
f 268/210/268 287/229/287 282/224/282
f 288/230/288 289/231/289 270/212/270
f 270/212/270 269/211/269 288/230/288
f 289/231/289 290/232/290 271/213/271
f 271/213/271 270/212/270 289/231/289
f 290/232/290 291/233/291 272/214/272
f 272/214/272 271/213/271 290/232/290
f 291/233/291 292/234/292 273/215/273
f 273/215/273 272/214/272 291/233/291
f 292/234/292 293/235/293 274/216/274
f 274/216/274 273/215/273 292/234/292
f 293/235/293 288/230/288 269/211/269
f 269/211/269 274/216/274 293/235/293
f 281/223/281 276/218/276 275/217/275
f 281/223/281 277/219/277 276/218/276
f 281/223/281 278/220/278 277/219/277
f 281/223/281 279/221/279 278/220/278
f 281/223/281 280/222/280 279/221/279
f 281/223/281 275/217/275 280/222/280
f 270/212/270 283/225/283 282/224/282
f 282/224/282 269/211/269 270/212/270
f 271/213/271 284/226/284 283/225/283
f 283/225/283 270/212/270 271/213/271
f 272/214/272 285/227/285 284/226/284
f 284/226/284 271/213/271 272/214/272
f 273/215/273 286/228/286 285/227/285
f 285/227/285 272/214/272 273/215/273
f 274/216/274 287/229/287 286/228/286
f 286/228/286 273/215/273 274/216/274
f 274/216/274 269/211/269 282/224/282
f 282/224/282 287/229/287 274/216/274
f 275/217/275 276/218/276 289/231/289
f 289/231/289 288/230/288 275/217/275
f 276/218/276 277/219/277 290/232/290
f 290/232/290 289/231/289 276/218/276
f 277/219/277 278/220/278 291/233/291
f 291/233/291 290/232/290 277/219/277
f 278/220/278 279/221/279 292/234/292
f 292/234/292 291/233/291 278/220/278
f 279/221/279 280/222/280 293/235/293
f 293/235/293 292/234/292 279/221/279
f 280/222/280 275/217/275 288/230/288
f 288/230/288 293/235/293 280/222/280
# 142 faces

g
# object block to come ...
#
v  6.826542 14.744911 -47.129601
v  95.851974 14.744911 -47.129601
v  6.826542 14.744911 -58.657242
v  95.851974 14.744911 -58.657242
v  6.826542 27.118931 -47.129601
v  95.851974 27.118931 -47.129601
v  6.826542 27.118931 -58.657242
v  95.851974 27.118931 -58.657242
v  51.339260 14.744911 -58.657242
v  51.339260 14.744911 -47.129601
v  51.339260 27.118931 -47.129601
v  51.339260 27.118931 -58.657242
v  6.826542 14.744911 -47.129601
v  6.826542 14.744911 -47.129601
v  95.851974 14.744911 -47.129601
v  95.851974 14.744911 -47.129601
v  6.826542 14.744911 -58.657242
v  6.826542 14.744911 -58.657242
v  95.851974 14.744911 -58.657242
v  95.851974 14.744911 -58.657242
v  6.826542 27.118931 -47.129601
v  6.826542 27.118931 -47.129601
v  95.851974 27.118931 -47.129601
v  95.851974 27.118931 -47.129601
v  6.826542 27.118931 -58.657242
v  6.826542 27.118931 -58.657242
v  95.851974 27.118931 -58.657242
v  95.851974 27.118931 -58.657242
v  51.339260 14.744911 -58.657242
v  51.339260 14.744911 -47.129601
v  51.339260 27.118931 -47.129601
v  51.339260 27.118931 -58.657242
# 32 vertices

vt  0.186887 0.452386 0.999501
vt  0.186887 0.490148 0.999501
vt  0.149125 0.490148 0.999501
vt  0.149125 0.452386 0.999500
vt  0.186887 0.490148 0.000500
vt  0.186887 0.452386 0.000500
vt  0.149125 0.452386 0.000500
vt  0.149125 0.490148 0.000500
vt  0.123053 0.291548 1.335695
vt  0.067772 0.291548 1.335696
vt  0.067772 0.492723 1.335695
vt  0.123053 0.492723 1.335695
vt  0.067772 0.291548 1.335693
vt  0.067772 0.492723 1.335695
vt  0.012490 0.492723 1.335695
vt  0.012490 0.291548 1.335695
vt  0.067772 0.291548 1.335693
vt  0.012490 0.291548 1.335695
vt  0.123053 0.291548 1.335695
vt  0.067772 0.291548 1.335696
vt  0.012490 0.492723 1.335695
vt  0.012490 0.291548 1.335695
vt  0.012490 0.291548 1.335695
vt  0.123053 0.291548 1.335695
vt  0.123053 0.492723 1.335695
vt  0.123053 0.492723 1.335695
vt  0.123053 0.492723 1.335695
vt  0.123053 0.291548 1.335695
# 28 texture vertices

vn  0.000000 -1.000000 0.000000
vn  1.000000 0.000000 0.000000
vn  -1.000000 0.000000 0.000000
vn  0.000000 -1.000000 0.000000
vn  0.000000 0.000000 1.000000
vn  1.000000 0.000000 0.000000
vn  -1.000000 0.000000 0.000000
vn  0.000000 0.000000 -1.000000
vn  0.000000 0.000000 -1.000000
vn  0.000000 -1.000000 0.000000
vn  0.000000 0.000000 1.000000
vn  0.000000 1.000000 0.000000
vn  0.000000 0.000000 1.000000
vn  -1.000000 0.000000 0.000000
vn  0.000000 0.000000 1.000000
vn  0.000000 -1.000000 0.000000
vn  0.000000 0.000000 -1.000000
vn  0.000000 -1.000000 0.000000
vn  0.000000 0.000000 -1.000000
vn  1.000000 0.000000 0.000000
vn  0.000000 1.000000 0.000000
vn  -1.000000 0.000000 0.000000
vn  0.000000 1.000000 0.000000
vn  0.000000 0.000000 1.000000
vn  0.000000 1.000000 0.000000
vn  0.000000 0.000000 -1.000000
vn  0.000000 1.000000 0.000000
vn  1.000000 0.000000 0.000000
vn  0.000000 -1.000000 0.000000
vn  0.000000 0.000000 1.000000
vn  0.000000 1.000000 0.000000
vn  0.000000 0.000000 -1.000000
# 32 vertex normals

g block
s 1
f 317/245/317 328/246/328 309/247/309
f 309/247/309 300/244/300 317/245/317
f 330/249/330 311/250/311 324/251/324
f 324/251/324 320/248/320 330/249/330
f 329/260/329 310/249/310 304/248/304
f 304/248/304 312/259/312 329/260/329
f 301/236/301 319/237/319 327/238/327
f 327/238/327 305/239/305 301/236/301
f 308/246/308 331/256/331 307/257/307
f 307/257/307 318/252/318 308/246/308
f 302/240/302 313/241/313 321/242/321
f 321/242/321 306/243/306 302/240/302
f 303/252/303 315/254/315 309/261/309
f 309/261/309 328/246/328 303/252/303
f 322/255/322 326/253/326 311/250/311
f 311/250/311 330/249/330 322/255/322
f 314/263/314 323/255/323 310/249/310
f 310/249/310 329/262/329 314/263/314
f 316/245/316 325/258/325 331/256/331
f 331/256/331 308/246/308 316/245/316
# 20 faces

g
