# Max2Obj Version 4.0 Mar 10th, 2001
#
# object stair to come ...
#
v  100.000015 0.000000 0.000000
v  0.000008 0.000000 -50.000000
v  0.000008 0.000000 -100.000000
v  100.000015 100.000000 -50.000000
v  0.000008 0.000000 0.000000
v  100.000008 0.000000 -50.000000
v  100.000015 0.000000 -100.000000
v  0.000008 100.000000 -100.000000
v  100.000015 100.000000 -100.000000
v  0.000008 50.000000 0.000000
v  100.000015 50.000000 0.000000
v  100.000015 50.000000 -50.000000
v  100.000008 50.000000 -100.000000
v  0.000008 50.000000 -100.000000
v  50.000008 0.000000 -50.000000
v  50.000008 50.000000 0.000000
v  50.000008 50.000000 -100.000000
v  50.000008 50.000000 -50.000000
v  50.000008 0.000000 0.000000
v  50.000008 0.000000 -100.000000
v  50.000008 100.000000 -100.000000
v  0.000008 50.000000 -50.000000
v  0.000008 100.000000 -50.000000
v  50.000008 100.000000 -50.000000
v  100.000015 0.000000 0.000000
v  100.000015 0.000000 0.000000
v  0.000008 0.000000 -50.000000
v  0.000008 0.000000 -100.000000
v  0.000008 0.000000 -100.000000
v  100.000015 100.000000 -50.000000
v  100.000015 100.000000 -50.000000
v  0.000008 0.000000 0.000000
v  0.000008 0.000000 0.000000
v  100.000008 0.000000 -50.000000
v  100.000015 0.000000 -100.000000
v  100.000015 0.000000 -100.000000
v  0.000008 100.000000 -100.000000
v  0.000008 100.000000 -100.000000
v  100.000015 100.000000 -100.000000
v  100.000015 100.000000 -100.000000
v  0.000008 50.000000 0.000000
v  0.000008 50.000000 0.000000
v  100.000015 50.000000 0.000000
v  100.000015 50.000000 0.000000
v  100.000015 50.000000 -50.000000
v  100.000008 50.000000 -100.000000
v  0.000008 50.000000 -100.000000
v  50.000008 50.000000 0.000000
v  50.000008 0.000000 0.000000
v  50.000008 0.000000 -100.000000
v  50.000008 100.000000 -100.000000
v  0.000008 50.000000 -50.000000
v  0.000008 100.000000 -50.000000
v  0.000008 100.000000 -50.000000
v  50.000008 100.000000 -50.000000
v  100.000015 50.000000 -50.000000
v  50.000008 50.000000 -50.000000
v  0.000008 50.000000 -50.000000
# 58 vertices

vt  0.499661 0.001592 0.000000
vt  0.997824 0.001592 0.000000
vt  0.997824 0.500748 0.000000
vt  0.499661 0.500748 0.000000
vt  0.997824 0.997126 0.000000
vt  0.499661 0.997126 0.000000
vt  0.001499 0.500748 0.750000
vt  0.001499 0.001592 0.750000
vt  0.499661 0.001592 0.750000
vt  0.499661 0.500748 0.750000
vt  0.499710 0.500748 0.000000
vt  0.001499 0.500748 0.000000
vt  0.001499 0.001592 0.000000
vt  0.499710 0.001592 0.000000
vt  0.997824 0.500748 0.000000
vt  0.997824 0.001592 0.000000
vt  0.997824 0.997126 0.000000
vt  0.499710 0.997126 0.000000
vt  0.001499 0.500748 0.000000
vt  0.001499 0.001592 0.000000
vt  0.499661 0.001592 0.000000
vt  0.499661 0.500748 0.000000
vt  0.001499 0.997126 0.000000
vt  0.499661 0.997126 0.000000
vt  0.499710 0.500748 0.000000
vt  0.001499 0.500748 0.000000
vt  0.001499 0.001592 0.000000
vt  0.499710 0.001592 0.000000
vt  0.997824 0.500748 0.000000
vt  0.997824 0.001592 0.000000
vt  0.499710 0.997126 0.000000
vt  0.001499 0.997126 0.000000
vt  0.499661 0.997126 0.250000
vt  0.001499 0.997126 0.250000
vt  0.001499 0.500748 0.250000
vt  0.499661 0.500748 0.250000
vt  0.499661 0.500748 0.250000
vt  0.001499 0.500748 0.250000
vt  0.001499 0.001592 0.250000
vt  0.499661 0.001592 0.250000
vt  0.001499 0.500748 0.000000
vt  0.001499 0.001592 0.000000
vt  0.001499 0.997126 0.000000
vt  0.997824 0.001592 0.750000
vt  0.997824 0.500748 0.750000
vt  0.997824 0.001592 0.000000
vt  0.997824 0.500748 0.000000
vt  0.997824 0.997126 0.000000
vt  0.997824 0.500748 0.250000
vt  0.997824 0.997126 0.250000
vt  0.499661 0.997126 0.750000
vt  0.499661 0.500748 0.750000
vt  0.997824 0.500748 0.750000
vt  0.997824 0.997126 0.750000
vt  0.997824 0.001592 0.250000
vt  0.997824 0.500748 0.250000
vt  0.001499 0.500748 0.750000
vt  0.001499 0.997126 0.750000
# 58 texture vertices

vn  1.000000 -0.000000 -0.000000
vn  0.000000 -1.000000 0.000000
vn  -1.000000 0.000000 -0.000000
vn  0.000000 1.000000 0.000000
vn  0.000000 -1.000000 0.000000
vn  0.000000 -1.000000 0.000000
vn  0.000000 -1.000000 0.000000
vn  -1.000000 0.000000 0.000000
vn  1.000000 -0.000000 -0.000000
vn  0.000000 0.000000 1.000000
vn  1.000000 0.000000 0.000000
vn  0.000000 0.000000 1.000000
vn  0.000000 0.000000 -1.000000
vn  -1.000000 -0.000000 0.000000
vn  0.000000 -1.000000 0.000000
vn  0.000000 0.000000 1.000000
vn  0.000000 0.000000 -1.000000
vn  0.000000 0.000000 1.000000
vn  0.000000 0.000000 1.000000
vn  0.000000 0.000000 -1.000000
vn  0.000000 1.000000 0.000000
vn  0.000000 1.000000 0.000000
vn  -1.000000 0.000000 0.000000
vn  0.000000 1.000000 0.000000
vn  0.000000 0.000000 1.000000
vn  0.000000 -1.000000 0.000000
vn  -1.000000 0.000000 -0.000000
vn  0.000000 0.000000 -1.000000
vn  0.000000 -1.000000 0.000000
vn  0.000000 0.000000 1.000000
vn  1.000000 0.000000 0.000000
vn  0.000000 0.000000 1.000000
vn  -1.000000 0.000000 0.000000
vn  1.000000 -0.000000 -0.000000
vn  0.000000 0.000000 -1.000000
vn  1.000000 0.000000 0.000000
vn  0.000000 1.000000 0.000000
vn  0.000000 0.000000 -1.000000
vn  0.000000 0.000000 -1.000000
vn  0.000000 1.000000 0.000000
vn  0.000000 1.000000 0.000000
vn  -1.000000 0.000000 0.000000
vn  0.000000 1.000000 0.000000
vn  0.000000 0.000000 1.000000
vn  1.000000 -0.000000 -0.000000
vn  1.000000 -0.000000 -0.000000
vn  0.000000 0.000000 -1.000000
vn  0.000000 1.000000 0.000000
vn  0.000000 -1.000000 0.000000
vn  0.000000 -1.000000 0.000000
vn  0.000000 0.000000 -1.000000
vn  -1.000000 0.000000 0.000000
vn  0.000000 0.000000 1.000000
vn  0.000000 1.000000 0.000000
vn  0.000000 0.000000 1.000000
vn  0.000000 1.000000 0.000000
vn  0.000000 1.000000 0.000000
vn  0.000000 0.000000 1.000000
# 58 vertex normals

g stair
s 2
f 2/3/2 15/4/15 49/1/49
f 49/1/49 5/2/5 2/3/2
f 29/5/29 50/6/50 15/4/15
f 15/4/15 2/3/2 29/5/29
f 19/9/19 16/10/16 10/7/10
f 10/7/10 32/8/32 19/9/19
f 1/13/1 34/14/34 45/11/45
f 45/11/45 11/12/11 1/13/1
f 34/14/34 36/16/36 46/15/46
f 46/15/46 45/11/45 34/14/34
f 45/11/45 46/15/46 9/17/9
f 9/17/9 31/18/31 45/11/45
f 20/21/20 17/22/17 13/19/13
f 13/19/13 35/20/35 20/21/20
f 17/22/17 51/24/51 39/23/39
f 39/23/39 13/19/13 17/22/17
f 3/27/3 27/28/27 52/25/52
f 52/25/52 14/26/14 3/27/3
f 27/28/27 33/30/33 42/29/42
f 42/29/42 52/25/52 27/28/27
f 14/26/14 52/25/52 23/31/23
f 23/31/23 8/32/8 14/26/14
f 58/35/58 18/36/18 55/33/55
f 55/33/55 53/34/53 58/35/58
f 41/39/41 48/40/48 57/37/57
f 57/37/57 22/38/22 41/39/41
f 6/41/6 26/42/26 49/1/49
f 49/1/49 15/4/15 6/41/6
f 7/43/7 6/41/6 15/4/15
f 15/4/15 50/6/50 7/43/7
f 25/44/25 44/45/44 16/10/16
f 16/10/16 19/9/19 25/44/25
f 28/46/28 47/47/47 17/22/17
f 17/22/17 20/21/20 28/46/28
f 47/47/47 38/48/38 51/24/51
f 51/24/51 17/22/17 47/47/47
f 12/49/12 30/50/30 55/33/55
f 55/33/55 18/36/18 12/49/12
f 4/53/4 40/54/40 21/51/21
f 21/51/21 24/52/24 4/53/4
f 43/55/43 56/56/56 57/37/57
f 57/37/57 48/40/48 43/55/43
f 54/57/54 24/52/24 37/58/37
f 24/52/24 21/51/21 37/58/37
# 44 faces

g
# object stair2 to come ...
#
v  100.000023 0.000000 0.000000
v  0.000008 0.000000 -100.000000
v  100.000008 0.000000 -50.000000
v  100.000008 50.000000 -100.000000
v  50.000008 0.000000 -50.000000
v  50.000008 50.000000 -100.000000
v  50.000008 50.000000 -50.000000
v  50.000008 0.000000 0.000000
v  50.000008 0.000000 -100.000000
v  50.000008 100.000000 -100.000000
v  0.000008 0.000000 -50.000000
v  100.000023 100.000000 -50.000000
v  0.000008 0.000000 0.000000
v  100.000023 0.000000 -100.000000
v  100.000023 100.000000 -100.000000
v  100.000023 50.000000 0.000000
v  0.000008 100.000000 0.000000
v  100.000023 0.000000 0.000000
v  100.000023 0.000000 0.000000
v  0.000008 0.000000 -100.000000
v  100.000008 0.000000 -50.000000
v  100.000008 50.000000 -100.000000
v  0.000008 50.000000 -100.000000
v  50.000008 50.000000 0.000000
v  50.000008 50.000000 0.000000
v  50.000008 0.000000 0.000000
v  50.000008 0.000000 -100.000000
v  50.000008 100.000000 -100.000000
v  0.000008 0.000000 0.000000
v  100.000023 0.000000 -100.000000
v  100.000023 0.000000 -100.000000
v  0.000008 100.000000 -100.000000
v  0.000008 100.000000 -100.000000
v  100.000023 100.000000 -100.000000
v  100.000023 100.000000 -100.000000
v  0.000008 50.000000 0.000000
v  100.000023 50.000000 0.000000
v  100.000023 50.000000 0.000000
v  100.000015 50.000000 -50.000000
v  0.000008 100.000000 0.000000
v  50.000008 100.000000 0.000000
v  50.000008 100.000000 0.000000
v  50.000008 100.000000 -50.000000
v  0.000008 100.000000 -50.000000
v  100.000015 50.000000 -50.000000
v  100.000023 100.000000 -50.000000
v  0.000008 50.000000 0.000000
v  0.000008 100.000000 0.000000
v  0.000008 50.000000 -100.000000
v  0.000008 50.000000 -50.000000
v  0.000008 100.000000 -50.000000
v  0.000008 0.000000 0.000000
v  0.000008 0.000000 -50.000000
v  0.000008 0.000000 -100.000000
v  0.000008 100.000000 -100.000000
v  50.000008 49.999996 -50.000004
v  100.000023 100.000000 -50.000008
v  100.000015 49.999996 -50.000004
v  50.000008 100.000000 -50.000008
v  50.000000 100.000000 -49.999996
v  50.000000 100.000000 -0.000004
v  50.000000 50.000000 0.000000
v  50.000000 49.999996 -49.999992
# 63 vertices

vt  0.499661 0.001592 0.000000
vt  0.997824 0.001592 0.000000
vt  0.997824 0.500748 0.000000
vt  0.499661 0.500748 0.000000
vt  0.997824 0.997126 0.000000
vt  0.499661 0.997126 0.000000
vt  0.001499 0.500748 0.750000
vt  0.001499 0.001592 0.750000
vt  0.499661 0.001592 0.750000
vt  0.499661 0.500748 0.750000
vt  0.499710 0.500748 0.000000
vt  0.001499 0.500748 0.000000
vt  0.001499 0.001592 0.000000
vt  0.499710 0.001592 0.000000
vt  0.997824 0.500748 0.000000
vt  0.997824 0.001592 0.000000
vt  0.997824 0.997126 0.000000
vt  0.499710 0.997126 0.000000
vt  0.001499 0.500748 0.000000
vt  0.001499 0.001592 0.000000
vt  0.499661 0.001592 0.000000
vt  0.499661 0.500748 0.000000
vt  0.001499 0.997126 0.000000
vt  0.499661 0.997126 0.000000
vt  0.499661 0.500748 0.250000
vt  0.001499 0.500748 0.000000
vt  0.001499 0.001592 0.000000
vt  0.001499 0.997126 0.000000
vt  0.997824 0.001592 0.750000
vt  0.997824 0.500748 0.750000
vt  0.997824 0.001592 0.000000
vt  0.997824 0.500748 0.000000
vt  0.997824 0.997126 0.000000
vt  0.499661 0.997126 0.750000
vt  0.499661 0.500748 0.750000
vt  0.997824 0.500748 0.750000
vt  0.997824 0.997126 0.750000
vt  0.997824 0.001592 0.250000
vt  0.997824 0.500748 0.250000
vt  0.001499 0.997126 0.750000
vt  0.002966 0.500678 0.000500
vt  0.498383 0.500677 0.000500
vt  0.002966 0.997247 0.999501
vt  0.498383 0.997247 0.999501
vt  0.499688 0.496965 0.750000
vt  0.499688 0.995127 0.750000
vt  0.003310 0.995127 0.750000
vt  0.500043 0.497500 0.999501
vt  0.500043 0.993761 0.999501
vt  0.996517 0.993761 0.999501
vt  0.996517 0.497500 0.999501
vt  0.497722 0.499082 0.250000
vt  0.996878 0.499082 0.250000
vt  0.996878 0.000919 0.250000
vt  0.499710 0.500748 0.000000
vt  0.001499 0.500748 0.000000
vt  0.001499 0.001592 0.000000
vt  0.499710 0.001592 0.000000
vt  0.997824 0.500748 0.000000
vt  0.997824 0.001592 0.000000
vt  0.499710 0.997126 0.000000
vt  0.001499 0.997126 0.000000
vt  0.500848 0.500637 0.000500
vt  0.997257 0.500637 0.000500
vt  0.997257 0.997046 0.000499
vt  0.500848 0.997046 0.000500
vt  0.499661 0.997126 0.250000
vt  0.499661 0.500748 0.250000
vt  0.997824 0.500748 0.250000
vt  0.997824 0.997126 0.250000
vt  0.499661 0.997126 0.250000
vt  0.001499 0.997126 0.250000
vt  0.001499 0.500748 0.250000
vt  0.499661 0.500748 0.250000
# 74 texture vertices

vn  1.000000 -0.000000 -0.000000
vn  0.000000 0.000000 -1.000000
vn  0.000000 -1.000000 0.000000
vn  1.000000 -0.000000 -0.000000
vn  0.000000 -1.000000 0.000000
vn  0.000000 0.000000 -1.000000
vn  0.000000 1.000000 0.000000
vn  0.000000 0.000000 1.000000
vn  0.000000 0.000000 -1.000000
vn  0.000000 1.000000 0.000000
vn  0.000000 -1.000000 0.000000
vn  0.000000 1.000000 0.000000
vn  0.000000 0.000000 1.000000
vn  0.000000 -1.000000 0.000000
vn  0.000000 0.000000 -1.000000
vn  1.000000 0.000000 -0.000000
vn  0.000000 0.000000 1.000000
vn  0.000000 0.000000 1.000000
vn  0.000000 -1.000000 0.000000
vn  0.000000 -1.000000 0.000000
vn  1.000000 -0.000000 -0.000000
vn  0.000000 0.000000 -1.000000
vn  0.000000 0.000000 -1.000000
vn  0.000000 0.000000 1.000000
vn  0.000000 1.000000 0.000000
vn  0.000000 -1.000000 0.000000
vn  0.000000 -1.000000 0.000000
vn  0.000000 0.000000 -1.000000
vn  0.000000 -1.000000 0.000000
vn  0.000000 0.000000 -1.000000
vn  1.000000 0.000000 0.000000
vn  0.000000 1.000000 0.000000
vn  0.000000 0.000000 -1.000000
vn  0.000000 1.000000 0.000000
vn  1.000000 -0.000000 -0.000000
vn  0.000000 0.000000 1.000000
vn  0.000000 1.000000 0.000000
vn  0.000000 0.000000 1.000000
vn  0.000000 1.000000 0.000000
vn  0.000000 1.000000 0.000000
vn  0.000000 1.000000 0.000000
vn  0.000000 0.000000 1.000000
vn  0.000000 1.000000 0.000000
vn  0.000000 1.000000 0.000000
vn  1.000000 -0.000000 -0.000000
vn  1.000000 -0.000000 0.000000
vn  -1.000000 -0.000000 -0.000000
vn  -1.000000 0.000000 0.000000
vn  -1.000000 0.000000 -0.000000
vn  -1.000000 0.000000 -0.000000
vn  -1.000000 0.000000 -0.000000
vn  -1.000000 -0.000000 -0.000000
vn  -1.000000 0.000000 0.000000
vn  -1.000000 0.000000 -0.000000
vn  -1.000000 0.000000 0.000000
vn  0.000000 0.000000 1.000000
vn  0.000000 0.000000 1.000000
vn  0.000000 0.000000 1.000000
vn  0.000000 0.000000 1.000000
vn  1.000000 0.000000 0.000000
vn  1.000000 0.000000 0.000000
vn  1.000000 0.000000 0.000000
vn  1.000000 0.000000 0.000000
# 63 vertex normals

g stair2
s 1
f 69/61/69 63/62/63 84/59/84
f 84/59/84 87/60/87 69/61/69
f 78/63/78 85/64/85 63/62/63
f 63/62/63 69/61/69 78/63/78
f 66/67/66 82/68/82 94/65/94
f 94/65/94 71/66/71 66/67/66
f 59/71/59 79/72/79 103/69/103
f 103/69/103 74/70/74 59/71/59
f 79/72/79 89/74/89 62/73/62
f 62/73/62 103/69/103 79/72/79
f 103/69/103 62/73/62 93/75/93
f 93/75/93 104/76/104 103/69/103
f 67/79/67 64/80/64 80/77/80
f 80/77/80 88/78/88 67/79/67
f 64/80/64 86/82/86 73/81/73
f 73/81/73 80/77/80 64/80/64
f 98/108/98 99/109/99 101/106/101
f 101/106/101 102/107/102 98/108/98
f 61/84/61 77/85/77 84/59/84
f 84/59/84 63/62/63 61/84/61
f 72/86/72 61/84/61 63/62/63
f 63/62/63 85/64/85 72/86/72
f 76/87/76 96/88/96 82/68/82
f 82/68/82 66/67/66 76/87/76
f 60/89/60 81/90/81 64/80/64
f 64/80/64 67/79/67 60/89/60
f 81/90/81 91/91/91 86/82/86
f 86/82/86 64/80/64 81/90/81
f 70/94/70 92/95/92 68/92/68
f 68/92/68 101/93/101 70/94/70
f 95/96/95 97/97/97 65/83/65
f 65/110/65 83/111/83 95/112/95
f 102/104/102 101/103/101 90/105/90
f 101/93/101 68/92/68 90/98/90
f 94/99/94 82/100/82 100/102/100
f 100/102/100 75/101/75 94/99/94
f 110/115/110 105/114/105 108/113/108
f 108/113/108 111/116/111 110/115/110
f 111/116/111 108/113/108 107/117/107
f 107/117/107 112/118/112 111/116/111
f 105/114/105 106/120/106 109/119/109
f 109/119/109 108/113/108 105/114/105
f 108/121/108 109/124/109 113/123/113
f 113/123/113 107/122/107 108/121/108
s 2
f 116/127/116 115/128/115 117/125/117
f 117/125/117 114/126/114 116/127/116
f 120/131/120 121/132/121 118/129/118
f 118/129/118 119/130/119 120/131/120
# 48 faces

g
# object stair1 to come ...
#
v  100.000023 0.000000 0.000000
v  0.000008 0.000000 -100.000000
v  100.000023 0.000000 -100.000000
v  0.000008 100.000000 -100.000000
v  100.000023 50.000000 0.000000
v  100.000015 50.000000 -50.000000
v  100.000008 50.000000 -100.000000
v  50.000008 0.000000 -50.000000
v  50.000008 50.000000 0.000000
v  50.000008 50.000000 -50.000000
v  0.000008 100.000000 -50.000000
v  50.000008 100.000000 -50.000000
v  0.000008 0.000000 -50.000000
v  0.000008 0.000000 0.000000
v  100.000008 0.000000 -50.000000
v  0.000008 50.000000 0.000000
v  0.000008 50.000000 -100.000000
v  50.000008 0.000000 0.000000
v  50.000008 0.000000 -100.000000
v  0.000008 50.000000 -50.000000
v  50.000008 50.000000 -100.000000
v  50.000008 100.000000 -100.000000
v  100.000023 0.000000 0.000000
v  100.000023 0.000000 0.000000
v  0.000008 0.000000 -100.000000
v  0.000008 0.000000 -100.000000
v  100.000023 0.000000 -100.000000
v  0.000008 100.000000 -100.000000
v  0.000008 100.000000 -100.000000
v  100.000023 50.000000 0.000000
v  100.000023 50.000000 0.000000
v  100.000015 50.000000 -50.000000
v  100.000008 50.000000 -100.000000
v  50.000008 50.000000 0.000000
v  50.000008 50.000000 -50.000000
v  50.000008 50.000000 -50.000000
v  0.000008 100.000000 -50.000000
v  0.000008 100.000000 -50.000000
v  50.000008 100.000000 -50.000000
v  50.000008 100.000000 -50.000000
v  0.000008 0.000000 -50.000000
v  0.000008 0.000000 0.000000
v  0.000008 0.000000 0.000000
v  100.000008 0.000000 -50.000000
v  0.000008 50.000000 0.000000
v  0.000008 50.000000 0.000000
v  0.000008 50.000000 -100.000000
v  50.000008 0.000000 0.000000
v  50.000008 0.000000 -100.000000
v  0.000008 50.000000 -50.000000
v  0.000008 50.000000 -50.000000
v  50.000008 50.000000 -100.000000
v  50.000008 50.000000 -100.000000
v  50.000008 100.000000 -100.000000
v  50.000008 100.000000 -100.000000
v  100.000023 0.000000 -100.000000
v  100.000008 50.000000 -100.000000
# 57 vertices

vt  0.499661 0.001592 0.000000
vt  0.997824 0.001592 0.000000
vt  0.997824 0.500748 0.000000
vt  0.499661 0.500748 0.000000
vt  0.997824 0.997126 0.000000
vt  0.499661 0.997126 0.000000
vt  0.001499 0.500748 0.750000
vt  0.001499 0.001592 0.750000
vt  0.499661 0.001592 0.750000
vt  0.499661 0.500748 0.750000
vt  0.499710 0.500748 0.000000
vt  0.001499 0.500748 0.000000
vt  0.001499 0.001592 0.000000
vt  0.499710 0.001592 0.000000
vt  0.997824 0.500748 0.000000
vt  0.997824 0.001592 0.000000
vt  0.001499 0.500748 0.000000
vt  0.001499 0.001592 0.000000
vt  0.499661 0.001592 0.000000
vt  0.499661 0.500748 0.000000
vt  0.499661 0.997126 0.000000
vt  0.499710 0.500748 0.000000
vt  0.001499 0.500748 0.000000
vt  0.001499 0.001592 0.000000
vt  0.499710 0.001592 0.000000
vt  0.997824 0.500748 0.000000
vt  0.997824 0.001592 0.000000
vt  0.499710 0.997126 0.000000
vt  0.001499 0.997126 0.000000
vt  0.499661 0.997126 0.250000
vt  0.001499 0.997126 0.250000
vt  0.001499 0.500748 0.250000
vt  0.499661 0.500748 0.250000
vt  0.499661 0.500748 0.250000
vt  0.001499 0.500748 0.250000
vt  0.001499 0.001592 0.250000
vt  0.499661 0.001592 0.250000
vt  0.001499 0.500748 0.000000
vt  0.001499 0.001592 0.000000
vt  0.001499 0.997126 0.000000
vt  0.997824 0.001592 0.750000
vt  0.997824 0.500748 0.750000
vt  0.997824 0.001592 0.000000
vt  0.997824 0.500748 0.000000
vt  0.997824 0.997126 0.000000
vt  0.499661 0.997126 0.750000
vt  0.499661 0.500748 0.750000
vt  0.997824 0.001592 0.250000
vt  0.001499 0.500748 0.750000
vt  0.001499 0.997126 0.750000
vt  0.502086 0.996382 0.999501
vt  0.502086 0.504521 0.000500
vt  0.995864 0.504521 0.000500
vt  0.995864 0.996382 0.999501
vt  0.499589 0.499712 0.250000
vt  0.998745 0.001549 0.250000
vt  0.499589 0.001549 0.250000
vt  0.497798 0.499565 0.000500
vt  0.004334 0.499565 0.000500
vt  0.497798 0.002060 0.000500
vt  0.004335 0.002060 0.000500
# 61 texture vertices

vn  0.000000 0.000000 1.000000
vn  -1.000000 0.000000 -0.000000
vn  0.000000 -1.000000 0.000000
vn  0.000000 1.000000 0.000000
vn  1.000000 0.000000 -0.000000
vn  1.000000 -0.000000 -0.000000
vn  0.000000 1.000000 0.000000
vn  0.000000 -1.000000 0.000000
vn  0.000000 1.000000 0.000000
vn  1.000000 0.000000 0.000000
vn  -1.000000 0.000000 0.000000
vn  0.000000 0.000000 1.000000
vn  0.000000 -1.000000 0.000000
vn  0.000000 -1.000000 0.000000
vn  0.000000 -1.000000 0.000000
vn  0.000000 1.000000 0.000000
vn  -1.000000 -0.000000 0.000000
vn  0.000000 0.000000 1.000000
vn  0.000000 0.000000 -1.000000
vn  0.000000 0.000000 1.000000
vn  0.000000 0.000000 -1.000000
vn  0.000000 1.000000 0.000000
vn  0.000000 -1.000000 0.000000
vn  1.000000 -0.000000 -0.000000
vn  0.000000 0.000000 -1.000000
vn  0.000000 -1.000000 0.000000
vn  0.000000 0.000000 -1.000000
vn  0.000000 0.000000 -1.000000
vn  -1.000000 0.000000 0.000000
vn  0.000000 1.000000 0.000000
vn  0.000000 0.000000 1.000000
vn  0.000000 1.000000 0.000000
vn  1.000000 0.000000 0.000000
vn  0.000000 0.000000 1.000000
vn  0.000000 0.000000 1.000000
vn  0.000000 1.000000 0.000000
vn  0.000000 0.000000 1.000000
vn  0.000000 1.000000 0.000000
vn  1.000000 0.000000 0.000000
vn  0.000000 1.000000 0.000000
vn  -1.000000 0.000000 -0.000000
vn  0.000000 0.000000 1.000000
vn  -1.000000 0.000000 0.000000
vn  1.000000 -0.000000 -0.000000
vn  -1.000000 0.000000 0.000000
vn  0.000000 0.000000 1.000000
vn  0.000000 0.000000 -1.000000
vn  0.000000 -1.000000 0.000000
vn  0.000000 -1.000000 0.000000
vn  -1.000000 0.000000 0.000000
vn  0.000000 1.000000 0.000000
vn  1.000000 0.000000 0.000000
vn  0.000000 1.000000 0.000000
vn  1.000000 0.000000 0.000000
vn  0.000000 0.000000 -1.000000
vn  1.000000 0.000000 0.000000
vn  0.000000 0.000000 -1.000000
# 57 vertex normals

g stair1
s 1
f 134/135/134 129/136/129 169/133/169
f 169/133/169 135/134/135 134/135/134
f 147/137/147 170/138/170 129/136/129
f 129/136/129 134/135/134 147/137/147
f 139/141/139 155/142/155 167/139/167
f 167/139/167 163/140/163 139/141/139
f 145/145/145 165/146/165 127/143/127
f 127/143/127 126/144/126 145/145/145
f 165/146/165 177/148/177 154/147/154
f 154/147/154 127/143/127 165/146/165
f 140/151/140 142/152/142 178/149/178
f 178/149/178 148/150/148 140/151/140
f 123/156/123 162/157/162 171/154/171
f 171/154/171 138/155/138 123/156/123
f 162/157/162 164/159/164 166/158/166
f 166/158/166 171/154/171 162/157/162
f 138/155/138 171/154/171 132/160/132
f 132/160/132 150/161/150 138/155/138
f 141/164/141 156/165/156 133/162/133
f 133/162/133 158/163/158 141/164/141
f 137/168/137 130/169/130 157/166/157
f 157/166/157 172/167/172 137/168/137
f 136/170/136 144/171/144 169/133/169
f 169/133/169 129/136/129 136/170/136
f 124/172/124 136/170/136 129/136/129
f 129/136/129 170/138/170 124/172/124
f 122/173/122 152/174/152 155/142/155
f 155/142/155 139/141/139 122/173/122
f 146/175/146 168/176/168 142/152/142
f 142/152/142 140/151/140 146/175/146
f 168/176/168 149/177/149 176/153/176
f 176/153/176 142/152/142 168/176/168
f 151/188/151 153/189/153 157/187/157
f 157/166/157 130/169/130 151/180/151
f 159/181/159 161/179/161 125/182/125
f 161/179/161 143/178/143 125/182/125
f 160/183/160 131/184/131 173/185/173
f 173/185/173 175/186/175 160/183/160
f 174/191/174 157/190/157 153/192/153
f 153/192/153 128/193/128 174/191/174
# 40 faces

g
