# Max2Obj Version 4.0 Mar 10th, 2001
#
mtllib ./torch.mtl
g
# object top to come ...
#
v  51.465458 52.370529 -41.885944
v  58.125912 52.370529 -51.398060
v  48.534531 52.370529 -58.114021
v  41.874073 52.370529 -48.601902
v  50.633076 -12.150612 -46.494720
v  53.510395 -12.150612 -50.603954
v  46.489601 -12.150612 -49.396015
v  49.366920 -12.150612 -53.505249
v  50.820660 35.598354 -45.456116
v  54.550518 35.598354 -50.782902
v  45.449482 35.598354 -49.217060
v  49.179344 35.598354 -54.543839
v  51.008968 42.927944 -44.413460
v  55.594696 42.927944 -50.962555
v  44.405304 42.927944 -49.037403
v  48.991032 42.927944 -55.586494
v  49.999992 54.141449 -49.999977
# 17 vertices

vt  0.537126 0.591193 0.500000
vt  0.537126 0.434241 0.500000
vt  0.475710 0.434241 0.500000
vt  0.475710 0.591193 0.500000
vt  0.502890 0.004072 0.674673
vt  0.563081 0.005189 0.525574
vt  0.435440 0.005189 0.524333
vt  0.606654 0.591327 0.500000
vt  0.502800 0.595621 0.674673
vt  0.391999 0.591327 0.475874
vt  0.501042 0.261287 0.674673
vt  0.561981 0.265925 0.512787
vt  0.435490 0.266440 0.500103
vt  0.501042 0.261287 0.674673
vt  0.503467 0.390925 0.674673
vt  0.570593 0.410083 0.506393
vt  0.432185 0.397531 0.487989
vt  0.503467 0.390925 0.674673
vt  0.506418 0.512717 0.500000
# 19 texture vertices

vn  0.158610 0.413055 0.896788
vn  0.896953 0.413055 -0.157675
vn  -0.158610 0.413055 -0.896788
vn  -0.896953 0.413054 0.157675
vn  0.173564 -0.022098 0.984574
vn  0.984560 -0.022098 -0.173646
vn  -0.984560 -0.022098 0.173647
vn  -0.173564 -0.022097 -0.984575
vn  0.172888 -0.085082 0.981260
vn  0.981214 -0.085082 -0.173149
vn  -0.981214 -0.085082 0.173148
vn  -0.172888 -0.085082 -0.981260
vn  0.169617 -0.208845 0.963127
vn  0.963056 -0.208845 -0.170021
vn  -0.963056 -0.208846 0.170020
vn  -0.169617 -0.208845 -0.963127
vn  -0.000000 1.000000 0.000000
# 17 vertex normals

g top
usemtl Material__76
f 1/1/1 17/19/17 4/4/4
f 1/9/1 13/15/13 14/16/14
f 14/16/14 2/8/2 1/9/1
f 4/10/4 15/17/15 13/15/13
f 13/15/13 1/9/1 4/10/4
f 2/8/2 14/16/14 16/18/16
f 16/18/16 3/9/3 2/8/2
f 3/9/3 16/18/16 15/17/15
f 15/17/15 4/10/4 3/9/3
f 5/5/5 6/6/6 10/12/10
f 10/12/10 9/11/9 5/5/5
f 7/7/7 5/5/5 9/11/9
f 9/11/9 11/13/11 7/7/7
f 6/6/6 8/5/8 12/14/12
f 12/14/12 10/12/10 6/6/6
f 8/5/8 7/7/7 11/13/11
f 11/13/11 12/14/12 8/5/8
f 9/11/9 10/12/10 14/16/14
f 14/16/14 13/15/13 9/11/9
f 11/13/11 9/11/9 13/15/13
f 13/15/13 15/17/15 11/13/11
f 10/12/10 12/14/12 16/18/16
f 16/18/16 14/16/14 10/12/10
f 12/14/12 11/13/11 15/17/15
f 15/17/15 16/18/16 12/14/12
f 1/1/1 2/2/2 17/19/17
f 17/19/17 3/3/3 4/4/4
f 2/2/2 3/3/3 17/19/17
f 7/7/7 8/5/8 6/6/6
f 6/6/6 5/5/5 7/7/7
# 30 faces

g
# object side to come ...
#
v  51.465458 81.769913 -29.052153
v  58.125912 75.043831 -35.778236
v  48.534531 70.294930 -40.527138
v  41.874073 77.021011 -33.801052
v  50.633083 32.887676 13.312282
v  53.510399 29.982012 10.406614
v  46.489605 30.836153 11.260756
v  49.366928 27.930485 8.355087
v  50.820660 67.385704 -19.716928
v  54.550518 63.619095 -23.483536
v  45.449486 64.726311 -22.376316
v  49.179344 60.959709 -26.142921
v  51.008968 73.305771 -24.162462
v  55.594700 68.674866 -28.793373
v  44.405304 70.036148 -27.432083
v  48.991032 65.405243 -32.062992
v  49.999992 77.284653 -36.041874
# 17 vertices

vt  0.537126 0.591193 0.500000
vt  0.537126 0.434241 0.500000
vt  0.475710 0.434241 0.500000
vt  0.475710 0.591193 0.500000
vt  0.502890 0.004072 0.674673
vt  0.563081 0.005189 0.525574
vt  0.435440 0.005189 0.524333
vt  0.606654 0.591327 0.500000
vt  0.502800 0.595621 0.674673
vt  0.391999 0.591327 0.475874
vt  0.501042 0.261287 0.674673
vt  0.561981 0.265925 0.512787
vt  0.435490 0.266440 0.500103
vt  0.501042 0.261287 0.674673
vt  0.503467 0.390925 0.674673
vt  0.570593 0.410083 0.506393
vt  0.432185 0.397531 0.487989
vt  0.503467 0.390925 0.674673
vt  0.506418 0.512717 0.500000
# 19 texture vertices

vn  0.158610 0.926199 0.342051
vn  0.896953 0.180581 -0.403567
vn  -0.158610 -0.342051 -0.926199
vn  -0.896953 0.403567 -0.180581
vn  0.173564 0.680574 0.711825
vn  0.984560 -0.138412 -0.107161
vn  -0.984560 0.107161 0.138412
vn  -0.173564 -0.711825 -0.680574
vn  0.172888 0.633693 0.754018
vn  0.981214 -0.182597 -0.062273
vn  -0.981214 0.062272 0.182596
vn  -0.172888 -0.754017 -0.633693
vn  0.169617 0.533358 0.828709
vn  0.963056 -0.267898 0.027453
vn  -0.963056 -0.027454 0.267899
vn  -0.169617 -0.828710 -0.533358
vn  -0.000000 0.707107 -0.707107
# 17 vertex normals

g side
usemtl Material__76
f 18/20/18 34/38/34 21/23/21
f 18/28/18 30/34/30 31/35/31
f 31/35/31 19/27/19 18/28/18
f 21/29/21 32/36/32 30/34/30
f 30/34/30 18/28/18 21/29/21
f 19/27/19 31/35/31 33/37/33
f 33/37/33 20/28/20 19/27/19
f 20/28/20 33/37/33 32/36/32
f 32/36/32 21/29/21 20/28/20
f 22/24/22 23/25/23 27/31/27
f 27/31/27 26/30/26 22/24/22
f 24/26/24 22/24/22 26/30/26
f 26/30/26 28/32/28 24/26/24
f 23/25/23 25/24/25 29/33/29
f 29/33/29 27/31/27 23/25/23
f 25/24/25 24/26/24 28/32/28
f 28/32/28 29/33/29 25/24/25
f 26/30/26 27/31/27 31/35/31
f 31/35/31 30/34/30 26/30/26
f 28/32/28 26/30/26 30/34/30
f 30/34/30 32/36/32 28/32/28
f 27/31/27 29/33/29 33/37/33
f 33/37/33 31/35/31 27/31/27
f 29/33/29 28/32/28 32/36/32
f 32/36/32 33/37/33 29/33/29
f 18/20/18 19/21/19 34/38/34
f 34/38/34 20/22/20 21/23/21
f 19/21/19 20/22/20 34/38/34
f 24/26/24 25/24/25 23/25/23
f 23/25/23 22/24/22 24/26/24
# 30 faces

g
